<svg xmlns:dc="http://purl.org/dc/elements/1.1/" xmlns:cc="http://creativecommons.org/ns#" xmlns:rdf="http://www.w3.org/1999/02/22-rdf-syntax-ns#" xmlns="http://www.w3.org/2000/svg" width="76.203" height="65.225">
    <metadata>
        <rdf:RDF>
            <cc:Work>
                <dc:subject>
                    Compute
                </dc:subject>
                <dc:identifier>
                    api-management
                </dc:identifier>
                <dc:title>
                    API Management
                </dc:title>
                <dc:format>
                    image/svg+xml
                </dc:format>
                <dc:publisher>
                    Amido Limited
                </dc:publisher>
                <dc:creator>
                    Richard Slater
                </dc:creator>
                <dc:type rdf:resource="http://purl.org/dc/dcmitype/StillImage"/>
            </cc:Work>
        </rdf:RDF>
    </metadata>
    <path style="text-indent:0;text-align:start;line-height:normal;text-transform:none;block-progression:tb;-inkscape-font-specification:Sans" d="m 662.47995,647.12941 c -5.39025,0 -9.82229,4.43204 -9.82229,9.82229 0,5.39023 4.43204,9.82229 9.82229,9.82229 5.39023,0 9.82229,-4.43206 9.82229,-9.82229 0,-5.39025 -4.43206,-9.82229 -9.82229,-9.82229 z m 9.5013,-36.59285 c -14.33647,0 -21.12415,11.12221 -22.72608,14.12356 l -4.81485,0 -0.1284,0 -0.19249,0.0641 c 0,0 -3.74201,0.55178 -7.51116,2.95311 -3.76915,2.40133 -7.70376,6.93907 -7.70376,14.18775 0,8.06331 4.44979,12.80858 8.73092,15.08653 4.28114,2.27795 8.53834,2.43952 8.53834,2.43952 l 0.0641,0.0641 0.0641,0 16.94826,-0.1925 0,-4.10867 -16.88407,0.1925 c 0,0 -0.12243,3.9e-4 -0.12839,0 -0.19393,-0.0123 -3.39984,-0.31083 -6.67659,-2.05434 -3.37677,-1.79674 -6.54819,-4.79089 -6.54819,-11.42724 0,-5.83776 2.80618,-8.82781 5.77781,-10.72106 2.97164,-1.89326 5.97041,-2.37533 5.97041,-2.37533 l 5.64943,0 1.34815,0 0.51359,-1.15556 c 0,0 5.79635,-12.96799 19.70878,-12.96799 6.99008,0 11.19126,2.53365 14.05935,5.39263 2.8681,2.85898 4.25061,6.03939 5.07164,7.76795 0.45105,0.94962 0.83778,4.41678 0.83458,7.31857 -0.004,2.90179 -0.19249,5.39263 -0.19249,5.39263 l -0.19249,2.31113 2.31112,-0.1284 c 0,0 1.92356,-0.0232 3.72349,0.77038 1.79992,0.79361 3.39717,2.00022 3.40249,5.84202 0.004,2.60027 -1.20423,3.79152 -2.63212,4.68645 -1.42789,0.89493 -2.88891,1.15556 -2.88891,1.15556 l -17.07666,-0.32099 -0.0641,4.10867 17.46185,0.32099 0.1925,0 0.12839,-0.0641 c 0,0 2.23263,-0.35637 4.42966,-1.73335 2.19703,-1.37698 4.56371,-4.0667 4.55806,-8.15314 -0.008,-5.23726 -3.01365,-8.38263 -5.84202,-9.6297 -1.22561,-0.54039 -2.364,-0.69706 -3.33829,-0.83457 0.0653,-1.0223 0.12613,-1.70726 0.12839,-3.72348 0.004,-3.09379 0.006,-6.47042 -1.21976,-9.05192 -0.7034,-1.48091 -2.33874,-5.49557 -5.84201,-8.98772 -3.50328,-3.49214 -9.00872,-6.54819 -17.01247,-6.54819 z m -9.5013,27.28414 c -2.59362,0 -5.0649,0.59447 -7.31857,1.54075 l 1.99014,4.36547 c 1.64591,-0.66384 3.4337,-1.09137 5.32843,-1.09137 7.86716,0 14.12355,6.32059 14.12355,14.18775 0,7.86716 -6.25639,14.12356 -14.12355,14.12356 -1.98724,0 -3.87522,-0.36467 -5.58522,-1.09137 l -1.99014,4.36547 c 2.31803,1.01155 4.8887,1.54075 7.57536,1.54075 10.45963,0 18.9384,-8.47878 18.9384,-18.93841 0,-10.45962 -8.47877,-19.0026 -18.9384,-19.0026 z" color="#000" fill="#00bcf2" overflow="visible" enable-background="accumulate" font-family="Sans" transform="translate(-628.905 -610.536)"/>
</svg>
