<svg xmlns:dc="http://purl.org/dc/elements/1.1/" xmlns:cc="http://creativecommons.org/ns#" xmlns:rdf="http://www.w3.org/1999/02/22-rdf-syntax-ns#" xmlns="http://www.w3.org/2000/svg" width="70" height="63.335">
    <metadata>
        <rdf:RDF>
            <cc:Work>
                <dc:subject>
                    Compute
                </dc:subject>
                <dc:identifier>
                    automation
                </dc:identifier>
                <dc:title>
                    Automation
                </dc:title>
                <dc:format>
                    image/svg+xml
                </dc:format>
                <dc:publisher>
                    Amido Limited
                </dc:publisher>
                <dc:creator>
                    Richard Slater
                </dc:creator>
                <dc:type rdf:resource="http://purl.org/dc/dcmitype/StillImage"/>
            </cc:Work>
        </rdf:RDF>
    </metadata>
    <path d="m 46.96875,0 c -0.167848,-0.00649492 -0.280916,-0.00583375 -0.3125,0.03125 -0.04887,0.05739 -0.78732,2.32098 -1.625,5 -0.83768,2.67901 -2.91144,9.30492 -4.625,14.75 -1.71356,5.44507 -3.07745,10.00451 -3.03125,10.125 0.07278,0.18967 0.43841,0.21875 2.625,0.21875 2.05449,0 2.5514,0.05476 2.6875,0.21875 0.13642,0.16438 -0.24548,1.19973 -2.0625,5.59375 -1.2258,2.96432 -2.36008,5.64173 -2.5,5.96875 -0.13994,0.32703 -0.16975,0.5878 -0.09375,0.5625 0.24055,-0.08019 15.34375,-17.30636 15.34375,-17.5 0,-0.14981 -0.61289,-0.1875 -3.21875,-0.1875 -2.01451,0 -3.22765,-0.0383 -3.28125,-0.125 -0.04704,-0.07611 0.38644,-0.99425 0.96875,-2.03125 0.5823,-1.037 1.97796,-3.55619 3.125,-5.59375 C 55.90762,8.25799 58.21205,4.18036 58.28125,4 58.36249,3.78828 56.15801,2.60246 54.25,1.84375 52.294603,1.0661988 48.143688,0.04546445 46.96875,0 z m -8.3125,3.40625 -0.5,0.0625 C 37.5773,3.55833 34.57215,4.37355 34,4.59375 L 33.59375,4.75 l 0.0625,3.03125 0.03125,3.03125 -0.40625,0.21875 c -0.22321,0.11226 -0.83036,0.44998 -1.34375,0.75 L 31,12.3125 28.5,10.84375 C 27.12676,10.03333 25.96505,9.3438 25.90625,9.3125 c -0.15416,-0.08196 -1.82728,1.42311 -2.875,2.59375 l -0.90625,1 1.5625,2.59375 1.5625,2.59375 -0.34375,0.5625 c -0.18865,0.30755 -0.55213,0.93074 -0.78125,1.375 l -0.40625,0.8125 -3,-0.0625 -3.03125,-0.0625 -0.28125,0.6875 c -0.25338,0.66383 -0.82679,2.92512 -1,3.90625 l -0.09375,0.5 2.625,1.4375 2.625,1.4375 0,1.59375 0,1.5625 -2.625,1.4375 -2.625,1.4375 0.09375,0.5 c 0.14192,0.80383 0.7237,3.04347 1,3.84375 l 0.25,0.75 L 20.6875,39.75 23.71875,39.6875 24.125,40.5 c 0.22912,0.44425 0.5926,1.06746 0.78125,1.375 l 0.34375,0.5625 -1.5625,2.59375 -1.5625,2.59375 1.09375,1.1875 c 0.99051,1.08375 2.45483,2.4375 2.625,2.4375 0.03625,0 1.22035,-0.66666 2.625,-1.5 l 2.5625,-1.53125 0.90625,0.5625 c 0.50915,0.29749 1.12055,0.63775 1.34375,0.75 L 33.6875,49.71875 33.65625,52.75 33.59375,55.78125 34,55.9375 c 0.60976,0.2334 2.61074,0.78778 3.59375,1 0.49053,0.10587 0.92765,0.21275 0.96875,0.21875 0.04111,0.006 0.74021,-1.14752 1.53125,-2.5625 L 41.53125,52 l 1.625,0 1.625,0 1.40625,2.5625 1.40625,2.53125 0.46875,-0.0625 c 0.53053,-0.05397 3.22395,-0.71377 4.03125,-1 l 0.53125,-0.21875 0,-3.03125 0,-3.0625 0.40625,-0.1875 c 0.22639,-0.11431 0.83347,-0.45183 1.34375,-0.75 l 0.9375,-0.5625 2.53125,1.53125 c 1.38784,0.83402 2.56815,1.5 2.65625,1.5 0.2184,0 3.59375,-3.40216 3.59375,-3.625 0,-0.09787 -0.67346,-1.31045 -1.5,-2.6875 l -1.5,-2.5 0.34375,-0.5625 c 0.18865,-0.30755 0.52088,-0.93075 0.75,-1.375 l 0.40625,-0.8125 3.03125,0.0625 3.03125,0.0625 0.25,-0.75 c 0.2783,-0.80607 0.8617,-3.05014 1,-3.84375 l 0.09375,-0.5 -2.625,-1.4375 -2.59375,-1.4375 0,-1.5625 0,-1.59375 L 67.375,27.25 c 1.43384,-0.78943 2.62568,-1.4856 2.625,-1.5625 -0.003,-0.33931 -0.69932,-3.12762 -1,-4 l -0.34375,-0.96875 -3.03125,0.0625 -3.03125,0.0625 -0.40625,-0.8125 c -0.22918,-0.44438 -0.56134,-1.06745 -0.75,-1.375 L 61.09375,18.09375 62.625,15.5 64.1875,12.90625 63.09375,11.71875 C 61.9044,10.41744 60.57934,9.2394 60.40625,9.3125 60.34702,9.33753 59.65353,9.70346 58.875,10.15625 L 57.46875,11 l -2.03125,3 -2.03125,3 1.3125,1.3125 c 2.73018,2.70785 4.37204,5.87062 4.90625,9.5 0.24995,1.69815 0.25512,2.61107 0.0625,4.3125 -0.82639,7.29981 -6.28447,13.15063 -13.5625,14.53125 -1.44465,0.27408 -4.40648,0.26699 -5.9375,0 C 35.40303,45.82191 30.99633,42.6712 28.59375,38.375 26.35601,34.37354 25.8927,29.37233 27.34375,25 c 1.40443,-4.23183 4.47535,-7.73448 8.53125,-9.6875 1.30046,-0.62621 3.52494,-1.375 4.09375,-1.375 0.34741,0 0.41438,-0.22368 1.0625,-2.9375 L 41.59375,8.6875 40.125,6.03125 38.65625,3.40625 z M 10.09375,40.5 l -0.5,1.5625 -0.5,1.5625 L 8.1875,44 7.28125,44.375 5.84375,43.71875 C 5.05433,43.34638 4.3749,43.03125 4.3125,43.03125 c -0.06236,0 -0.51165,0.41217 -1,0.90625 l -0.90625,0.875 0.71875,1.40625 c 0.39853,0.76996 0.72075,1.481 0.71875,1.5625 -0.00233,0.08152 -0.13326,0.49693 -0.3125,0.9375 L 3.1875,49.53125 1.625,50.09375 0.0625,50.65625 0.03125,51.96875 0,53.25 l 1.59375,0.53125 1.5625,0.5 0.28125,0.65625 c 0.48935,1.1004 0.47601,1.20669 -0.28125,2.75 l -0.6875,1.4375 0.90625,0.9375 0.9375,0.90625 1.53125,-0.75 1.5,-0.75 0.90625,0.40625 0.875,0.40625 0.53125,1.53125 0.53125,1.53125 1.34375,0 1.3125,0 0.46875,-1.5625 0.5,-1.53125 0.875,-0.375 0.90625,-0.40625 1.5625,0.71875 1.53125,0.71875 L 19.59375,60 20.5,59.09375 l -0.71875,-1.5 -0.75,-1.5 0.3125,-0.84375 c 0.17145,-0.45845 0.38275,-0.8723 0.46875,-0.9375 0.086,-0.06521 0.81112,-0.37039 1.625,-0.65625 l 1.5,-0.5 -0.03125,-1.3125 -0.0625,-1.3125 -1.53125,-0.5 -1.5625,-0.5 -0.34375,-0.8125 c -0.18137,-0.44674 -0.3125,-0.87625 -0.3125,-0.96875 0,-0.09255 0.2868,-0.80256 0.65625,-1.59375 l 0.6875,-1.4375 -0.9375,-0.9375 -0.9375,-0.9375 -1.46875,0.78125 -1.4375,0.75 L 14.75,44 13.84375,43.65625 13.28125,42.0625 12.6875,40.5 l -1.28125,0 -1.3125,0 z m 1.375,7.84375 c 3.3321,0.0018 4.87755,4.02808 2.40625,6.25 -0.36542,0.32854 -0.91931,0.6603 -1.21875,0.75 -1.97529,0.59181 -4.07172,-0.44939 -4.625,-2.3125 -0.28333,-0.95412 -0.27092,-1.48386 0.0625,-2.375 0.53983,-1.44284 1.83425,-2.31332 3.375,-2.3125 z" transform="translate(-223.704 -357.106) translate(223.704 357.106)" fill="#00bcf2"/>
</svg>
