<?xml version="1.0" encoding="UTF-8" standalone="no"?>
<!-- Created with Inkscape (http://www.inkscape.org/) -->

<svg
   xmlns:dc="http://purl.org/dc/elements/1.1/"
   xmlns:cc="http://creativecommons.org/ns#"
   xmlns:rdf="http://www.w3.org/1999/02/22-rdf-syntax-ns#"
   xmlns:svg="http://www.w3.org/2000/svg"
   xmlns="http://www.w3.org/2000/svg"
   xmlns:sodipodi="http://sodipodi.sourceforge.net/DTD/sodipodi-0.dtd"
   xmlns:inkscape="http://www.inkscape.org/namespaces/inkscape"
   width="71.999992"
   height="59.580688"
   id="svg4695"
   version="1.1"
   inkscape:version="0.48.4 r9939"
   sodipodi:docname="New document 9">
  <defs
     id="defs4697" />
  <sodipodi:namedview
     id="base"
     pagecolor="#ffffff"
     bordercolor="#666666"
     borderopacity="1.0"
     inkscape:pageopacity="0.0"
     inkscape:pageshadow="2"
     inkscape:zoom="15.839192"
     inkscape:cx="15.646037"
     inkscape:cy="40.185197"
     inkscape:document-units="px"
     inkscape:current-layer="layer1"
     showgrid="false"
     fit-margin-top="0"
     fit-margin-left="0"
     fit-margin-right="0"
     fit-margin-bottom="0"
     inkscape:window-width="1920"
     inkscape:window-height="1017"
     inkscape:window-x="-8"
     inkscape:window-y="-8"
     inkscape:window-maximized="1" />
  <metadata
     id="metadata4700">
    <rdf:RDF>
      <cc:Work
         rdf:about="">
        <dc:format>image/svg+xml</dc:format>
        <dc:type
           rdf:resource="http://purl.org/dc/dcmitype/StillImage" />
        <dc:title></dc:title>
      </cc:Work>
    </rdf:RDF>
  </metadata>
  <g
     inkscape:label="Layer 1"
     inkscape:groupmode="layer"
     id="layer1"
     transform="translate(-655.99971,-739.70961)">
    <path
       style="fill:#00bcf2;fill-opacity:1;stroke:none"
       d="m 701.51211,739.70961 -8.25676,29.39409 5.15222,-0.92475 -4.55774,10.63471 14.86218,-14.92823 -6.86963,0.79265 11.22921,-20.67495 z m -5.41644,0.92476 c -2.5143,0.36244 -4.94624,1.01423 -7.1999,1.98163 2.30122,3.79861 2.38753,7.39514 0.60388,8.57832 -1.66998,1.10777 -5.06043,-0.52008 -7.86983,-4.08664 -1.61927,1.38652 -3.02213,2.97472 -4.29352,4.68984 3.2405,2.58133 4.99185,5.46861 4.0293,7.13385 -0.9401,1.62639 -4.19309,1.56213 -7.92649,0.1321 -0.67938,1.89292 -1.12434,3.88961 -1.38714,5.94488 3.80594,0.71461 6.43908,2.31762 6.40725,4.16141 -0.0313,1.81311 -2.61893,3.35113 -6.3412,3.96325 0.29396,1.82548 0.76156,3.59338 1.38714,5.28433 1.40667,-0.60371 2.72566,-0.97315 3.83114,-1.05687 1.32658,-0.1004 2.30137,0.18897 2.84033,0.92476 1.09464,1.49436 -0.1264,4.3891 -2.84033,7.1999 1.36672,1.83643 2.92627,3.49863 4.68984,4.95406 1.90078,-2.40287 3.99566,-3.87012 5.54855,-3.83114 0.31873,0.008 0.58878,0.0583 0.8587,0.19805 1.66846,0.86461 1.78454,4.07854 0.52844,7.86045 1.7887,0.76109 3.65948,1.33655 5.6146,1.7174 0.45143,-4.19983 1.97691,-7.4125 3.83114,-7.86044 0.14796,-0.0357 0.31036,0 0.46238,0 2.11821,0 3.88077,3.52423 4.29352,8.25677 2.02635,-0.22017 3.93794,-0.69603 5.81276,-1.32108 -1.65626,-4.31629 -1.65338,-8.17918 0.19806,-9.11547 0.27129,-0.13719 0.60596,-0.19341 0.92475,-0.19806 1.85176,-0.0281 4.36148,2.10661 6.47331,5.41644 1.56503,-1.13079 2.99188,-2.47692 4.29352,-3.8972 -3.72321,-3.51124 -5.59528,-7.41099 -4.16141,-9.11547 0.39142,-0.46529 0.97257,-0.73073 1.71741,-0.79265 1.81075,-0.15049 4.48094,0.90616 7.1999,2.77428 1.05333,-2.25762 1.81867,-4.66577 2.24584,-7.1999 -5.21957,-0.20694 -9.29611,-1.96651 -9.31364,-4.22747 -0.0169,-2.28955 4.13404,-4.17105 9.44574,-4.42562 -0.35506,-2.53995 -0.99878,-4.98886 -1.98162,-7.26596 -4.18229,2.79385 -8.20849,2.64187 -9.44574,0.6084 -1.23613,-2.03164 0.4364,-4.837 4.68984,-8.07252 -1.14915,-1.30548 -2.39891,-2.48892 -3.76508,-3.56692 l -7.99255,8.71915 c 4.12894,3.09247 6.80357,7.96866 6.80357,13.54109 0,9.39702 -7.57889,17.04197 -16.97591,17.04197 -9.39702,0 -17.04197,-7.64495 -17.04197,-17.04197 0,-8.58564 6.39495,-15.68727 14.66402,-16.8438 0.21778,-4.14182 0.0655,-7.94922 -0.8587,-11.16315 z m -28.13906,35.53713 c -0.60336,-0.0169 -1.19497,-0.002 -1.78346,0.0659 0.25995,1.51963 0.0763,2.72712 -0.72659,3.1706 -0.95617,0.52812 -2.49045,-0.16656 -3.83114,-1.65135 -0.98843,0.58772 -1.86512,1.38927 -2.64217,2.24584 1.55281,1.29324 2.28036,2.71788 1.78346,3.69903 -0.51554,1.01793 -2.23487,1.28733 -4.29352,0.7266 -0.0993,0.33359 -0.19425,0.64299 -0.26421,0.99081 -0.2326,1.15154 -0.2401,2.32326 -0.13211,3.43481 1.77283,-0.0932 3.04088,0.36792 3.36876,1.32109 0.33524,0.9747 -0.46344,2.20561 -1.98162,3.23665 0.58199,1.02224 1.38018,1.96934 2.24584,2.77427 1.32565,-1.23378 2.63024,-1.78948 3.50087,-1.25503 0.85969,0.52774 1.07227,1.98742 0.59448,3.69903 0.47654,0.1634 0.94596,0.2939 1.45319,0.39633 0.47697,0.0962 0.91411,0.22816 1.38714,0.26422 -0.12746,-1.81874 0.35249,-3.29282 1.32108,-3.63298 1.12762,-0.3962 2.58102,0.84851 3.69903,2.84033 1.14463,-0.43879 2.22221,-1.08012 3.1706,-1.84952 -0.92494,-1.36955 -1.2567,-2.68123 -0.66054,-3.43481 0.61191,-0.77359 1.96941,-0.76522 3.56693,-0.13211 0.49786,-0.94913 0.90004,-2.00101 1.12292,-3.10455 0.1116,-0.55265 0.1674,-1.10446 0.19805,-1.65135 -1.80677,0.24399 -3.23126,-0.0465 -3.63298,-0.99081 -0.48896,-1.14945 0.69424,-2.82748 2.77428,-4.09536 -0.63287,-1.51848 -1.57044,-2.83787 -2.77428,-3.96325 -1.44412,1.51458 -3.06954,2.17446 -4.0293,1.5853 -0.94107,-0.57772 -1.05004,-2.23649 -0.39632,-4.16141 -0.39221,-0.12386 -0.77674,-0.24703 -1.18898,-0.33027 -0.61211,-0.12344 -1.24615,-0.18114 -1.84951,-0.19805 z m -0.46238,6.80357 c 0.31552,-10e-4 0.66995,0.001 0.99082,0.066 2.56698,0.51841 4.21742,3.04764 3.69903,5.6146 -0.51842,2.56696 -3.04762,4.21742 -5.6146,3.69903 -2.56696,-0.51841 -4.21743,-3.04764 -3.69903,-5.6146 0.45358,-2.24611 2.4151,-3.75729 4.62378,-3.76508 z"
       id="path4716"
       inkscape:connector-curvature="0"
       sodipodi:nodetypes="ccccccccscsccsccsccscccccccsscccsccscccsccscccsssccscccccccccccsccccccccccscccccscccsscscc" />
  </g>
</svg>
