<svg xmlns:dc="http://purl.org/dc/elements/1.1/" xmlns:cc="http://creativecommons.org/ns#" xmlns:rdf="http://www.w3.org/1999/02/22-rdf-syntax-ns#" xmlns="http://www.w3.org/2000/svg" width="70" height="46.501">
    <metadata>
        <rdf:RDF>
            <cc:Work>
                <dc:subject>
                    Network
                </dc:subject>
                <dc:identifier>
                    azure-load-balancer
                </dc:identifier>
                <dc:title>
                    Azure Load Balancer
                </dc:title>
                <dc:format>
                    image/svg+xml
                </dc:format>
                <dc:publisher>
                    Amido Limited
                </dc:publisher>
                <dc:creator>
                    Richard Slater
                </dc:creator>
                <dc:type rdf:resource="http://purl.org/dc/dcmitype/StillImage"/>
            </cc:Work>
        </rdf:RDF>
    </metadata>
    <path d="m 247.24068,218.78485 c -1.37661,-0.42293 -2.28405,-1.32349 -2.29224,-3.54216 -0.002,-0.49606 1.45511,-9.11344 3.60018,-21.28626 l 3.60414,-20.4528 c 0.0878,-0.51131 0.33926,-0.91347 0.8773,-0.96087 l 27.15512,-0.0344 c 26.54825,-0.0336 27.16473,-0.0285 27.58544,0.22859 0.2757,0.16849 0.5084,0.47679 0.6476,0.85799 0.11949,0.32726 1.64432,9.58257 3.3885,20.56737 3.55633,22.39758 3.51189,21.82516 2.66822,23.1365 -0.67336,1.0466 -1.2952,1.59152 -2.06588,1.57729 -0.32459,-0.006 -13.75476,0.1224 -32.52218,0.11871 -27.87362,-0.005 -32.06841,-0.0325 -32.6462,-0.20998 z m 37.38192,-10.11433 c 0,-0.83201 -0.61764,-1.31456 -1.33836,-1.04564 -0.20761,0.0775 -1.01063,0.76975 -1.78447,1.5384 l -1.40699,1.39756 0,-8.78184 0,-8.78183 4.39384,4.39174 4.39384,4.39174 -2.05642,0.0686 c -2.22723,0.0743 -2.51249,0.16846 -2.69325,0.88867 -0.10825,0.43131 0.23294,0.99363 0.71382,1.17646 0.18971,0.0721 2.07047,0.13115 4.17947,0.13115 l 3.83454,0 0,-4.05562 0,-4.05562 -0.33693,-0.33693 c -0.35122,-0.35122 -0.87512,-0.43255 -1.30486,-0.20256 -0.42958,0.22991 -0.55448,0.92303 -0.55448,3.07691 l 0,2.07217 -5.28478,-5.28345 -5.28479,-5.28344 0,-2.77754 0,-2.77754 0.53432,-0.27258 c 2.00159,-1.02114 2.4269,-3.86341 0.82079,-5.48515 -2.17306,-2.1942 -5.9032,-0.69738 -5.92595,2.37795 -0.005,1.30962 0.82719,2.7348 2.03858,3.23967 l 0.33599,0.12774 0,2.7151 0,2.7151 -5.21615,5.21479 -5.21615,5.2148 0,-2.16752 c 0,-2.1183 -0.008,-2.17517 -0.33693,-2.50445 -0.35122,-0.35122 -0.87511,-0.43255 -1.30486,-0.20256 -0.48235,0.25815 -0.55448,0.88619 -0.55448,4.82773 l 0,3.823 3.823,0 c 3.94153,0 4.56958,-0.0721 4.82772,-0.55449 0.25383,-0.47428 0.15652,-1.05538 -0.22731,-1.35729 -0.33026,-0.25978 -0.5449,-0.2845 -2.4708,-0.2845 -1.16002,0 -2.10913,-0.046 -2.10913,-0.10214 0,-0.1346 8.54676,-8.68295 8.68132,-8.68295 0.0571,0 0.10377,3.96768 0.10377,8.81707 l 0,8.81707 -1.47562,-1.46634 c -0.81159,-0.80648 -1.64549,-1.5297 -1.85311,-1.60715 -0.71979,-0.26851 -1.33835,0.21366 -1.33835,1.04326 0,0.31826 0.49542,0.88115 2.84708,3.23481 l 2.84708,2.84951 2.8495,-2.84709 c 2.36335,-2.36133 2.84951,-2.91323 2.84951,-3.23481 z" fill="#00bcf2" transform="translate(-244.948 -172.494)"/>
</svg>
