<svg xmlns:dc="http://purl.org/dc/elements/1.1/" xmlns:cc="http://creativecommons.org/ns#" xmlns:rdf="http://www.w3.org/1999/02/22-rdf-syntax-ns#" xmlns="http://www.w3.org/2000/svg" width="70" height="51.739">
    <metadata>
        <rdf:RDF>
            <cc:Work>
                <dc:subject>
                    Miscellaneous
                </dc:subject>
                <dc:identifier>
                    azure-subscription
                </dc:identifier>
                <dc:title>
                    Azure Subscription
                </dc:title>
                <dc:format>
                    image/svg+xml
                </dc:format>
                <dc:publisher>
                    Amido Limited
                </dc:publisher>
                <dc:creator>
                    Richard Slater
                </dc:creator>
                <dc:type rdf:resource="http://purl.org/dc/dcmitype/StillImage"/>
            </cc:Work>
        </rdf:RDF>
    </metadata>
    <path d="m 411.51284,411.86711 c -4.7553,-0.55097 -9.19124,-3.78232 -11.21992,-8.17313 -1.11916,-2.42229 -1.54456,-5.64465 -1.08985,-8.25559 0.97559,-5.60181 5.03071,-9.99442 10.56457,-11.44382 1.73338,-0.45399 4.42765,-0.5058 6.19911,-0.11919 2.00533,0.43764 1.80944,0.50469 2.33871,-0.80043 1.06381,-2.62318 2.6694,-4.96181 4.82592,-7.0292 5.49479,-5.26771 13.08469,-7.09991 20.40085,-4.92477 0.86236,0.25638 3.09531,1.15439 3.24656,1.30564 0.0363,0.0363 -2.84433,2.98273 -6.4015,6.54754 -7.03546,7.0506 -6.78539,6.75085 -8.19177,9.81897 -0.93013,2.02917 -1.10164,2.50557 -1.66015,4.61139 -0.57307,2.16076 -0.62923,3.08963 -0.23899,3.95331 0.50119,1.10926 1.68978,1.89537 2.86578,1.89537 0.71624,0 4.21343,-0.91662 5.60461,-1.46898 0.67959,-0.26982 2.00786,-0.86102 2.95172,-1.31376 l 1.71612,-0.82317 6.48446,-6.46431 c 3.94422,-3.93196 6.53119,-6.41226 6.60375,-6.33144 0.39471,0.43967 1.22318,3.23698 1.54379,5.21259 0.32835,2.02326 0.11798,6.05476 -0.41014,7.85981 l -0.13054,0.44619 0.87604,0 c 1.25659,0 2.1708,0.22278 3.48051,0.84815 4.09335,1.95453 5.5995,7.06928 3.23214,10.97606 -0.64435,1.06336 -2.13333,2.42822 -3.22703,2.95804 -1.88667,0.91395 -0.55372,0.87061 -26.16971,0.85092 -12.74535,-0.01 -23.63312,-0.0711 -24.19504,-0.13619 z m 24.15493,-2.41785 c 0.18877,-0.11635 0.48,-0.37298 0.64718,-0.57029 l 0.30397,-0.35874 0.005,0.51484 0.005,0.51483 0.96103,0 0.96102,0 0,-3.29494 0,-3.29495 -0.95179,0 -0.95178,0 -0.0436,2.25461 c -0.0415,2.14624 -0.059,2.27106 -0.36548,2.59688 -0.39585,0.42087 -0.84933,0.54657 -1.32267,0.36661 -0.61035,-0.23206 -0.75799,-0.84644 -0.75799,-3.15435 l 0,-2.06375 -0.96102,0 -0.96103,0 8.3e-4,2.43689 c 8.2e-4,2.72147 0.0932,3.24216 0.67373,3.79833 0.66473,0.63686 1.94523,0.75481 2.75773,0.25403 z m 14.93021,0.082 c 0.43029,-0.13499 0.44619,-0.16612 0.44619,-0.8739 l 0,-0.73392 -0.43607,0.21754 c -0.53314,0.26596 -1.81648,0.29927 -2.38652,0.0619 -0.46643,-0.19419 -0.95008,-0.8919 -0.83185,-1.20001 0.0621,-0.16187 0.47628,-0.19883 2.2285,-0.19883 l 2.15221,0 -0.0795,-0.94883 c -0.16732,-1.99572 -1.23372,-3.0322 -3.11793,-3.03045 -1.29973,10e-4 -2.71046,1.05192 -3.03864,2.26317 -0.18213,0.67219 -0.17845,2.03471 0.007,2.65692 0.3033,1.01667 1.09763,1.70159 2.25255,1.9423 0.65067,0.13562 2.13832,0.0529 2.80394,-0.15593 z m -3.26063,-4.06952 c 0,-0.27217 0.33971,-0.83203 0.66413,-1.09454 0.11665,-0.0944 0.44292,-0.17161 0.72504,-0.17161 0.60787,0 1.08204,0.48941 1.08204,1.11683 l 0,0.39335 -1.2356,0 c -1.09252,0 -1.23561,-0.0283 -1.23561,-0.24403 z m -29.15936,3.05846 0.29959,-0.96102 1.69631,0 1.6963,0 0.3412,0.99534 0.3412,0.99535 1.06602,0 c 0.58631,0 1.06636,-0.0463 1.06678,-0.10297 4.1e-4,-0.0566 -0.71813,-2.12626 -1.5968,-4.59919 l -1.59756,-4.49622 -1.25412,0 -1.25412,0 -1.26539,3.46655 c -0.69597,1.90661 -1.45207,3.97875 -1.68022,4.60475 l -0.41482,1.1382 1.12801,-0.0399 1.12802,-0.0399 z m 0.7754,-2.71146 c 0.0354,-0.0944 0.29817,-0.91298 0.58403,-1.81909 0.28586,-0.90611 0.55111,-1.74014 0.58945,-1.8534 0.0529,-0.15638 0.0848,-0.13987 0.13261,0.0686 0.0346,0.15102 0.27416,0.95416 0.53236,1.78476 0.2582,0.8306 0.5025,1.6183 0.5429,1.75044 0.0662,0.2167 -0.0501,0.24026 -1.1861,0.24026 -0.9504,0 -1.24376,-0.0421 -1.19525,-0.17161 z m 12.18383,3.05468 0,-0.68644 -1.59027,0 c -0.97181,0 -1.57247,-0.052 -1.5445,-0.13374 0.0252,-0.0736 0.7099,-0.99642 1.52162,-2.05081 1.31944,-1.7139 1.47586,-1.97618 1.47586,-2.47476 l 0,-0.55769 -2.74579,0 -2.74578,0 0,0.7551 0,0.75509 1.51065,0 1.51065,0 -1.71658,2.19603 c -1.15571,1.4785 -1.71659,2.30836 -1.71659,2.53985 l 0,0.34382 3.02037,0 3.02036,0 z m 11.2833,-1.20128 c 0.0779,-2.59178 0.40325,-3.16585 1.71064,-3.01849 l 0.5977,0.0674 0,-0.86083 c 0,-0.97974 -0.0929,-1.07026 -0.91005,-0.88669 -0.49416,0.11101 -0.84294,0.40275 -1.24418,1.04071 -0.14046,0.22333 -0.16468,0.168 -0.17162,-0.3921 l -0.008,-0.65213 -0.96102,0 -0.96103,0 0,3.29495 0,3.29494 0.94545,0 0.94544,0 0.0567,-1.88773 z m -9.60837,-11.18221 c -0.23956,-0.23956 -0.20606,-0.64832 0.18137,-2.21294 0.4514,-1.82289 0.53966,-2.01557 0.92332,-2.01557 0.36782,0 3.12382,2.68224 3.12382,3.04022 0,0.36483 -0.27043,0.48954 -2.01869,0.93091 -1.88307,0.4754 -1.98046,0.48674 -2.20982,0.25738 z m 5.50234,-5.50235 c -2.41299,-2.41299 -2.64672,-2.68849 -2.64672,-3.11965 0,-0.44348 0.68602,-1.15977 11.01746,-11.50355 6.05961,-6.06684 11.19045,-11.1222 11.40187,-11.23414 0.2183,-0.11559 0.51492,-0.165 0.68645,-0.11436 0.16612,0.0491 1.46042,1.24089 2.87621,2.64854 2.36794,2.35431 2.57418,2.59806 2.57418,3.04237 0,0.45704 -0.6034,1.08623 -11.22537,11.70526 -9.81362,9.81091 -11.27643,11.22226 -11.63136,11.22226 -0.34422,0 -0.80862,-0.40263 -3.05272,-2.64673 z m 24.85576,-24.84646 c -3.15661,-3.14555 -3.13034,-3.08544 -1.87259,-4.28438 1.13092,-1.07804 1.93753,-1.47708 3.142,-1.55438 0.84694,-0.0543 1.09517,-0.0144 1.72534,0.2776 1.07975,0.50033 1.95916,1.34789 2.4653,2.376 0.39763,0.80771 0.42945,0.96948 0.36997,1.8805 -0.0817,1.25133 -0.38874,1.86825 -1.51639,3.04694 -1.29384,1.35241 -1.14962,1.41066 -4.31363,-1.74228 z" fill="#00bcf2" transform="translate(-399.024 -360.272)"/>
</svg>
