<svg xmlns:dc="http://purl.org/dc/elements/1.1/" xmlns:cc="http://creativecommons.org/ns#" xmlns:rdf="http://www.w3.org/1999/02/22-rdf-syntax-ns#" xmlns="http://www.w3.org/2000/svg" height="82.752" width="87.5">
    <metadata>
        <rdf:RDF>
            <cc:Work>
                <dc:subject>
                    Miscellaneous
                </dc:subject>
                <dc:identifier>
                    azure-sdk
                </dc:identifier>
                <dc:title>
                    Azure SDK
                </dc:title>
                <dc:format>
                    image/svg+xml
                </dc:format>
                <dc:publisher>
                    Amido Limited
                </dc:publisher>
                <dc:creator>
                    Richard Slater
                </dc:creator>
                <dc:type rdf:resource="http://purl.org/dc/dcmitype/StillImage"/>
            </cc:Work>
        </rdf:RDF>
    </metadata>
    <path style="-inkscape-font-specification:Calibri" d="m 407.20639,529.11613 c -10e-6,0.0583 -0.0128,0.1112 -0.0383,0.15859 -0.0255,0.0474 -0.0747,0.0857 -0.14766,0.11484 -0.0729,0.0292 -0.17136,0.0529 -0.29531,0.0711 -0.12397,0.0182 -0.28438,0.0273 -0.48125,0.0273 -0.25522,0 -0.46303,-0.0109 -0.62343,-0.0328 -0.16043,-0.0219 -0.28074,-0.062 -0.36094,-0.12031 -0.0802,-0.0583 -0.14584,-0.12396 -0.19688,-0.19688 l -5.20623,-7.07654 0,7.07654 c -10e-6,0.051 -0.0146,0.10026 -0.0437,0.14766 -0.0292,0.0474 -0.0802,0.0838 -0.15313,0.10937 -0.0729,0.0255 -0.16953,0.0474 -0.28984,0.0656 -0.12032,0.0182 -0.27162,0.0273 -0.45391,0.0273 -0.175,0 -0.32448,-0.009 -0.44843,-0.0273 -0.12396,-0.0182 -0.2224,-0.0401 -0.29532,-0.0656 -0.0729,-0.0255 -0.12396,-0.062 -0.15312,-0.10937 -0.0292,-0.0474 -0.0437,-0.0966 -0.0437,-0.14766 l 0,-13.58434 c 0,-0.0583 0.0146,-0.10936 0.0437,-0.15313 0.0292,-0.0437 0.0802,-0.0784 0.15312,-0.1039 0.0729,-0.0255 0.17136,-0.0474 0.29532,-0.0656 0.12395,-0.0182 0.27343,-0.0273 0.44843,-0.0273 0.18229,10e-6 0.33359,0.009 0.45391,0.0273 0.12031,0.0182 0.21692,0.0401 0.28984,0.0656 0.0729,0.0255 0.12396,0.0602 0.15313,0.1039 0.0292,0.0438 0.0437,0.0948 0.0437,0.15313 l 0,6.28905 5.00936,-6.28905 c 0.0437,-0.0656 0.0948,-0.1203 0.15312,-0.16406 0.0583,-0.0437 0.12942,-0.0784 0.21329,-0.10391 0.0838,-0.0255 0.18592,-0.0456 0.30624,-0.0602 0.12031,-0.0146 0.27525,-0.0219 0.46485,-0.0219 0.18957,10e-6 0.34269,0.009 0.45937,0.0273 0.11666,0.0182 0.20963,0.0419 0.27891,0.0711 0.0693,0.0292 0.11665,0.0656 0.14218,0.10937 0.0255,0.0438 0.0383,0.0912 0.0383,0.14219 -2e-5,0.0948 -0.0237,0.18959 -0.0711,0.28437 -0.0474,0.0948 -0.13673,0.22606 -0.26797,0.39375 l -4.69217,5.61093 5.05311,6.71561 c 0.12395,0.18958 0.19869,0.31901 0.22422,0.38828 0.0255,0.0693 0.0383,0.12578 0.0383,0.16953 z m -12.12966,-6.97811 c -10e-6,1.225 -0.15678,2.29505 -0.47031,3.21015 -0.31355,0.9151 -0.77111,1.67343 -1.37266,2.27499 -0.60157,0.60156 -1.33985,1.05182 -2.21483,1.35078 -0.87501,0.29896 -1.91772,0.44844 -3.12812,0.44844 l -2.99687,0 c -0.16771,0 -0.3263,-0.0565 -0.47578,-0.16953 -0.14948,-0.11302 -0.22422,-0.31172 -0.22422,-0.5961 l 0,-12.62184 c 0,-0.28436 0.0747,-0.48306 0.22422,-0.5961 0.14948,-0.113 0.30807,-0.16951 0.47578,-0.16953 l 3.20468,0 c 1.22499,2e-5 2.2604,0.15861 3.10624,0.47578 0.84582,0.3172 1.55494,0.77293 2.12734,1.36719 0.57239,0.59428 1.00624,1.31433 1.30156,2.16015 0.2953,0.84584 0.44296,1.80105 0.44297,2.86562 z m -1.97968,0.0766 c -1e-5,-0.76561 -0.0948,-1.47837 -0.28438,-2.13828 -0.18959,-0.65988 -0.48673,-1.23045 -0.8914,-1.71171 -0.4047,-0.48124 -0.91694,-0.85676 -1.53672,-1.12656 -0.6198,-0.26978 -1.41823,-0.40467 -2.3953,-0.40469 l -1.91406,0 0,11.01404 1.93593,0 c 0.90416,0 1.66613,-0.11302 2.28593,-0.33906 0.61978,-0.22604 1.13749,-0.57239 1.55312,-1.03906 0.41562,-0.46666 0.72734,-1.05182 0.93516,-1.75547 0.2078,-0.70363 0.31171,-1.53671 0.31172,-2.49921 z m -11.58279,3.23749 c -10e-6,0.66355 -0.12214,1.25417 -0.36641,1.77187 -0.24428,0.51771 -0.58334,0.95703 -1.01718,1.31797 -0.43386,0.36094 -0.94428,0.63255 -1.53125,0.81484 -0.58698,0.18229 -1.21953,0.27344 -1.89765,0.27344 -0.47396,0 -0.91328,-0.0401 -1.31797,-0.12031 -0.40468,-0.0802 -0.76562,-0.17865 -1.08281,-0.29532 -0.31718,-0.11666 -0.58333,-0.23697 -0.79843,-0.36093 -0.21511,-0.12396 -0.36459,-0.22969 -0.44844,-0.31719 -0.0838,-0.0875 -0.14583,-0.19869 -0.18593,-0.33359 -0.0401,-0.1349 -0.0602,-0.31536 -0.0602,-0.54141 0,-0.16041 0.007,-0.29348 0.0219,-0.39921 0.0146,-0.10573 0.0365,-0.19141 0.0656,-0.25704 0.0292,-0.0656 0.0656,-0.11119 0.10937,-0.13671 0.0437,-0.0255 0.0948,-0.0383 0.15313,-0.0383 0.10208,10e-6 0.24609,0.062 0.43203,0.18594 0.18593,0.12396 0.42474,0.25886 0.7164,0.40469 0.29167,0.14583 0.64349,0.28255 1.05547,0.41015 0.41197,0.12761 0.88775,0.19141 1.42734,0.19141 0.40833,0 0.78202,-0.0547 1.12109,-0.16406 0.33906,-0.10937 0.63072,-0.26432 0.875,-0.46484 0.24426,-0.20052 0.43202,-0.44662 0.56328,-0.73828 0.13124,-0.29167 0.19687,-0.62344 0.19687,-0.99531 0,-0.40104 -0.0911,-0.74375 -0.27343,-1.02813 -0.1823,-0.28437 -0.42293,-0.53411 -0.72188,-0.74921 -0.29896,-0.2151 -0.63984,-0.41198 -1.02265,-0.59063 -0.38282,-0.17864 -0.77474,-0.36093 -1.17578,-0.54687 -0.40104,-0.18593 -0.79115,-0.39192 -1.17031,-0.61797 -0.37917,-0.22603 -0.71823,-0.49218 -1.01718,-0.79843 -0.29896,-0.30625 -0.54141,-0.66536 -0.72735,-1.07735 -0.18593,-0.41197 -0.2789,-0.90597 -0.2789,-1.48202 0,-0.59062 0.10755,-1.11744 0.32265,-1.58047 0.21511,-0.46301 0.51406,-0.85129 0.89688,-1.16484 0.38281,-0.31353 0.83853,-0.55233 1.36718,-0.7164 0.52864,-0.16405 1.09921,-0.24608 1.71172,-0.2461 0.31353,2e-5 0.6289,0.0274 0.94609,0.082 0.31718,0.0547 0.61614,0.12762 0.89687,0.21875 0.28072,0.0912 0.53046,0.19324 0.74922,0.30625 0.21874,0.11304 0.36275,0.20418 0.43203,0.27344 0.0693,0.0693 0.11483,0.12397 0.13672,0.16406 0.0219,0.0401 0.0401,0.0912 0.0547,0.15312 0.0146,0.062 0.0255,0.13674 0.0328,0.22422 0.007,0.0875 0.0109,0.20054 0.0109,0.33907 -1e-5,0.13126 -0.005,0.24792 -0.0164,0.34999 -0.0109,0.1021 -0.0274,0.18778 -0.0492,0.25704 -0.0219,0.0693 -0.0529,0.12032 -0.093,0.15312 -0.0401,0.0328 -0.0857,0.0492 -0.13672,0.0492 -0.0802,10e-6 -0.206,-0.051 -0.37735,-0.15313 -0.17136,-0.10207 -0.38099,-0.21691 -0.6289,-0.34453 -0.24792,-0.12759 -0.54141,-0.24426 -0.88047,-0.35 -0.33906,-0.10571 -0.72005,-0.15858 -1.14296,-0.15859 -0.39376,1e-5 -0.73646,0.0529 -1.02813,0.15859 -0.29167,0.10574 -0.53229,0.24611 -0.72187,0.4211 -0.18959,0.17501 -0.33177,0.38282 -0.42656,0.62343 -0.0948,0.24064 -0.14219,0.49585 -0.14219,0.76563 0,0.39376 0.0911,0.73282 0.27344,1.01718 0.18229,0.28439 0.42473,0.53595 0.72734,0.75469 0.3026,0.21875 0.64713,0.41927 1.03359,0.60156 0.38645,0.1823 0.7802,0.36641 1.18125,0.55234 0.40103,0.18595 0.79478,0.39011 1.18125,0.6125 0.38645,0.2224 0.73098,0.4849 1.03359,0.7875 0.30259,0.30261 0.54686,0.6599 0.73281,1.07187 0.18593,0.41198 0.2789,0.8987 0.2789,1.46015 z m 43.40693,-77.40631 c 0,0 -24.25669,22.72122 -24.1887,22.67048 l -0.005,0.84592 c -0.002,0.46525 -0.11832,1.36325 -0.25565,1.99318 -0.86642,3.97421 -4.64179,6.86378 -9.01841,6.89948 l -1.08243,0.005 -2.76861,2.60647 -2.77406,2.60647 2.38242,2.22581 c 1.30944,1.22331 2.37699,2.28804 2.37699,2.36856 0,0.0805 -5.3395,5.17065 -11.86862,11.31409 l -11.87406,11.17135 -0.39163,-0.35951 c -0.21513,-0.19644 -0.49011,-0.31715 -0.61464,-0.26964 -0.12454,0.0475 -1.19341,0.81874 -2.37699,1.71298 l -2.15398,1.62838 -3.80753,5.67291 c -2.09524,3.11973 -3.81107,5.76478 -3.81297,5.8791 -0.002,0.11431 0.40932,0.56549 0.91381,1.00452 0.50449,0.43903 0.95297,0.80091 1.00084,0.80362 0.0479,0.003 2.80642,-1.61605 6.13012,-3.59514 l 6.0431,-3.59513 1.83305,-2.11478 c 1.0071,-1.16112 1.83201,-2.20546 1.83306,-2.32098 10e-4,-0.11553 -0.15666,-0.30144 -0.34812,-0.41767 -0.19146,-0.11621 -0.34812,-0.26248 -0.34812,-0.3225 0,-0.0906 5.47426,-5.2619 22.06737,-20.85706 l 1.7841,-1.67596 2.32803,2.22581 c 1.28183,1.22489 2.43411,2.22581 2.55649,2.22581 0.12237,0 1.4214,-1.15962 2.88828,-2.57475 l 2.66527,-2.56947 0,-1.03095 c 0,-2.11436 0.84035,-4.11684 2.39331,-5.69935 1.8154,-1.84994 3.61419,-2.66088 6.27698,-2.82852 l 1.62636,-0.10045 c 9.17621,-8.61726 15.69756,-14.69383 24.15607,-22.77094 0.0187,-0.13042 -13.40832,-12.75743 -13.56569,-12.75743 z m -56.13389,2.03548 c -2.75281,-0.003 -4.96583,0.24313 -4.95523,0.55513 3.43869,2.87339 7.73114,7.04737 10.55774,10.0135 l -2.77406,9.89719 -10.44351,2.62233 c -5.19992,-4.85913 -5.91514,-5.6356 -10.82971,-9.95534 -0.0424,0.0412 -0.19511,0.74775 -0.34267,1.57023 -0.78906,4.39805 0.19376,8.84017 2.82845,12.78386 0.98976,1.48152 3.92104,4.21108 5.59163,5.20766 3.18912,1.90245 5.58762,2.58532 9.52427,2.70164 2.42887,0.0718 3.07318,0.0324 4.74309,-0.29079 l 1.9364,-0.37537 4.03599,3.80132 c 1.34656,1.26749 2.69484,2.53385 4.04142,3.80133 l 1.34895,-1.20543 1.34352,-1.20543 -2.40419,-2.36856 -2.40418,-2.36855 8.12636,-7.61322 1.00628,-0.0159 c 0.55232,-0.008 1.3533,-0.0277 1.7841,-0.0476 l 0.78326,-0.037 -2.65439,-2.50602 -2.65984,-2.50602 0.26109,-1.0944 c 0.57512,-2.41041 0.50925,-5.45177 -0.17406,-8.00446 -1.67867,-6.2712 -6.94021,-11.23445 -13.74519,-12.96362 -1.34482,-0.34173 -1.98528,-0.39383 -4.52552,-0.39652 z m 59.50084,5.00146 c 0.0866,-0.003 0.17533,0.003 0.26109,0.0106 0.34303,0.03 0.67284,0.12915 0.99539,0.30664 0.32255,0.17751 0.6306,0.41573 0.91925,0.70845 l 0.18494,0.18505 c 0.14125,0.14325 0.21025,0.28269 0.21213,0.41238 0.002,0.1297 -0.0533,0.24678 -0.16862,0.35422 l -2.61088,2.43201 c 0.17503,0.17751 0.3579,0.31844 0.54394,0.42295 0.18604,0.10452 0.37681,0.16131 0.57113,0.17447 0.19431,0.0132 0.3917,-0.0252 0.59288,-0.11102 0.20118,-0.0858 0.40639,-0.22367 0.61465,-0.41767 0.21145,-0.19699 0.38027,-0.38689 0.51129,-0.56571 0.13103,-0.17881 0.23929,-0.33635 0.32093,-0.48111 0.0816,-0.14475 0.14265,-0.26887 0.19037,-0.37009 0.0477,-0.10121 0.0988,-0.17728 0.14686,-0.22205 0.0288,-0.0269 0.0571,-0.0406 0.087,-0.0476 0.03,-0.007 0.0683,-0.006 0.10879,0.0106 0.0404,0.0161 0.0859,0.0483 0.14142,0.0952 0.0555,0.0469 0.11904,0.11248 0.19582,0.19033 0.0675,0.0685 0.12422,0.12851 0.16862,0.17976 0.0444,0.0513 0.0814,0.0972 0.10878,0.13746 0.0274,0.0402 0.0442,0.0757 0.0544,0.11103 0.0102,0.0353 0.0156,0.0751 0.0163,0.11631 6.8e-4,0.0412 -0.0255,0.12457 -0.0816,0.24849 -0.0561,0.12393 -0.13591,0.2687 -0.24477,0.43882 -0.10887,0.17012 -0.24279,0.35555 -0.40251,0.55513 -0.15973,0.19958 -0.3488,0.39515 -0.56026,0.59214 -0.38126,0.35518 -0.75795,0.61934 -1.13681,0.79304 -0.37888,0.17371 -0.75728,0.25937 -1.13682,0.24849 -0.37955,-0.0109 -0.76217,-0.12094 -1.14227,-0.32251 -0.38008,-0.20157 -0.76385,-0.49365 -1.14769,-0.88292 -0.36541,-0.37058 -0.64373,-0.75205 -0.83766,-1.14198 -0.19393,-0.38993 -0.30031,-0.77465 -0.31548,-1.15785 -0.0152,-0.38318 0.0598,-0.75962 0.22301,-1.12083 0.16326,-0.3612 0.41646,-0.69872 0.75607,-1.0151 0.35884,-0.33428 0.7155,-0.56864 1.07155,-0.70316 0.26703,-0.10088 0.52898,-0.15553 0.7887,-0.1639 z m -0.23933,1.36933 c -0.28714,-0.009 -0.56589,0.11141 -0.83222,0.35951 -0.15379,0.14327 -0.25701,0.29267 -0.31548,0.45468 -0.0585,0.16202 -0.0782,0.32657 -0.0598,0.49169 0.0184,0.16512 0.0704,0.33043 0.15774,0.49697 0.0874,0.16655 0.19932,0.32878 0.33723,0.48111 l 1.80586,-1.68654 c -0.31588,-0.33904 -0.63664,-0.53424 -0.9682,-0.58685 -0.0414,-0.007 -0.0841,-0.009 -0.1251,-0.0106 z m -4.26988,2.18351 c 0.033,-8.6e-4 0.0606,0.005 0.087,0.0159 0.0264,0.0112 0.0593,0.0314 0.0979,0.0581 0.0387,0.0267 0.0901,0.0698 0.15774,0.13218 0.0677,0.0624 0.16142,0.14696 0.27197,0.25906 0.11054,0.11212 0.19687,0.20791 0.26109,0.28549 0.0642,0.0776 0.10888,0.14321 0.13598,0.19562 0.0271,0.0524 0.0381,0.0972 0.0326,0.13218 -0.005,0.035 -0.0224,0.0653 -0.0544,0.0952 -0.0256,0.0239 -0.0606,0.0445 -0.10335,0.0634 -0.0428,0.019 -0.0945,0.0439 -0.14686,0.0687 -0.0523,0.0249 -0.10437,0.056 -0.16318,0.0899 -0.0588,0.0339 -0.11639,0.0732 -0.17406,0.12689 -0.0673,0.0627 -0.12199,0.1382 -0.16318,0.22734 -0.0412,0.0892 -0.0702,0.1993 -0.087,0.3225 -0.0168,0.12322 -0.0191,0.26699 -0.005,0.43354 0.0136,0.16655 0.0416,0.36097 0.087,0.58156 l 2.56193,2.5959 c 0.0307,0.0311 0.0451,0.0698 0.0489,0.11102 0.004,0.0413 -0.007,0.0892 -0.0381,0.14804 -0.0311,0.0589 -0.0831,0.12677 -0.1523,0.20619 -0.0692,0.0794 -0.15887,0.17506 -0.27741,0.2855 -0.11855,0.11043 -0.22003,0.19521 -0.3046,0.25906 -0.0846,0.0639 -0.16121,0.10975 -0.22301,0.13746 -0.0618,0.0277 -0.11549,0.0425 -0.15775,0.037 -0.0422,-0.005 -0.0781,-0.027 -0.10878,-0.0582 l -4.1067,-4.16612 c -0.0307,-0.0311 -0.0474,-0.0622 -0.0544,-0.10046 -0.007,-0.0383 8.6e-4,-0.0884 0.0272,-0.14274 0.0263,-0.0544 0.0671,-0.11607 0.1251,-0.18505 0.058,-0.069 0.14001,-0.15067 0.23933,-0.2432 0.10253,-0.0955 0.18613,-0.16715 0.26109,-0.22205 0.075,-0.0549 0.14362,-0.0923 0.19582,-0.11103 0.0522,-0.0187 0.0969,-0.0243 0.13598,-0.0159 0.0391,0.008 0.0726,0.027 0.10335,0.0582 l 0.51129,0.51813 c -0.0414,-0.26017 -0.0648,-0.48299 -0.0653,-0.67673 -5.1e-4,-0.19373 0.0176,-0.36481 0.049,-0.50755 0.0314,-0.14274 0.0802,-0.26844 0.14686,-0.37538 0.0667,-0.10692 0.14418,-0.20191 0.23389,-0.28549 0.0417,-0.0388 0.0888,-0.0762 0.14142,-0.11632 0.0527,-0.0401 0.11205,-0.0794 0.17406,-0.11631 0.062,-0.0369 0.11635,-0.0681 0.16862,-0.0899 0.0523,-0.0218 0.0976,-0.0309 0.13054,-0.0317 z m -3.85648,3.72731 c 0.0422,0.005 0.0835,0.0217 0.11422,0.0529 l 4.1067,4.16612 c 0.0307,0.0312 0.0474,0.0675 0.0544,0.10574 0.007,0.0383 -0.002,0.0846 -0.0272,0.13746 -0.0247,0.0529 -0.0617,0.11608 -0.11966,0.18505 -0.058,0.069 -0.14001,0.14539 -0.23933,0.23791 -0.10574,0.0985 -0.19318,0.17923 -0.26653,0.23263 -0.0734,0.0534 -0.13658,0.0855 -0.19037,0.10573 -0.0538,0.0202 -0.10238,0.0296 -0.14143,0.0211 -0.039,-0.008 -0.0726,-0.027 -0.10335,-0.0582 l -0.47322,-0.48112 c 0.009,0.47001 -0.0518,0.87897 -0.17406,1.23186 -0.12227,0.3529 -0.31385,0.65404 -0.57657,0.89879 -0.29476,0.27459 -0.5888,0.45672 -0.88117,0.54984 -0.29236,0.0931 -0.57638,0.11576 -0.85941,0.0687 -0.28303,-0.047 -0.55813,-0.15314 -0.82134,-0.31722 -0.26321,-0.16407 -0.55164,-0.40666 -0.86485,-0.72431 l -2.51297,-2.54831 c -0.0307,-0.0311 -0.049,-0.066 -0.0544,-0.10574 -0.005,-0.0398 0.007,-0.0892 0.0381,-0.14804 0.0311,-0.0588 0.0815,-0.13056 0.1523,-0.21148 0.0708,-0.0809 0.16207,-0.17275 0.27741,-0.28021 0.11854,-0.11042 0.22003,-0.20049 0.3046,-0.26434 0.0846,-0.0639 0.1612,-0.10975 0.22301,-0.13746 0.0618,-0.0277 0.11005,-0.0372 0.1523,-0.0317 0.0423,0.005 0.0781,0.0217 0.10879,0.0529 l 2.32259,2.35799 c 0.21495,0.21799 0.39605,0.3716 0.5385,0.45996 0.14245,0.0884 0.28362,0.14188 0.42426,0.16919 0.14065,0.0273 0.27755,0.024 0.41339,-0.0159 0.13584,-0.0399 0.26445,-0.11921 0.3862,-0.23263 0.15378,-0.14326 0.25668,-0.33838 0.3046,-0.59214 0.0479,-0.25375 0.0567,-0.56827 0.0272,-0.94108 l -2.73054,-2.77036 c -0.0307,-0.0311 -0.049,-0.066 -0.0544,-0.10574 -0.005,-0.0398 0.007,-0.0892 0.0381,-0.14804 0.0311,-0.0588 0.0777,-0.12676 0.14686,-0.20619 0.0692,-0.0794 0.16431,-0.17505 0.28285,-0.28549 0.11855,-0.11043 0.22003,-0.2005 0.3046,-0.26435 0.0846,-0.0638 0.15737,-0.10595 0.21758,-0.13218 0.0602,-0.0262 0.11004,-0.0372 0.1523,-0.0317 z m -5.15649,4.77941 c 0.0454,0.006 0.0981,0.025 0.1523,0.0582 0.0542,0.0332 0.11502,0.0826 0.1795,0.14803 l 0.22301,0.23263 c 0.0614,0.0623 0.11112,0.12024 0.1523,0.17447 0.0412,0.0542 0.0786,0.10836 0.10879,0.16389 0.0302,0.0555 0.0572,0.11378 0.0761,0.17976 0.019,0.066 0.0373,0.14239 0.0544,0.22205 l 0.77238,3.8912 1.69163,-1.57551 c 0.0288,-0.0269 0.0654,-0.0467 0.10335,-0.0582 0.0379,-0.0114 0.0791,-0.007 0.13054,0.0106 0.0514,0.0178 0.11545,0.0487 0.18494,0.10046 0.0695,0.0518 0.14721,0.12863 0.23933,0.22205 0.089,0.0903 0.16423,0.17041 0.21758,0.2432 0.0533,0.0728 0.0879,0.13275 0.10878,0.18504 0.0208,0.0523 0.0281,0.0996 0.0163,0.13746 -0.0118,0.0379 -0.0387,0.0706 -0.0707,0.10046 l -2.80126,2.61175 c -0.0865,0.0806 -0.18111,0.11323 -0.28284,0.10046 -0.10173,-0.0128 -0.21134,-0.0838 -0.33724,-0.21148 l -0.21213,-0.21148 c -0.0553,-0.0561 -0.10171,-0.10898 -0.14143,-0.15861 -0.0397,-0.0496 -0.0763,-0.10314 -0.10334,-0.15861 -0.027,-0.0555 -0.0518,-0.11906 -0.0707,-0.18504 -0.019,-0.066 -0.0352,-0.14387 -0.049,-0.23263 l -0.76694,-3.90177 -1.52302,1.41161 c -0.0609,0.0567 -0.1451,0.0669 -0.25564,0.0264 -0.11054,-0.0404 -0.2452,-0.14159 -0.40796,-0.30664 -0.089,-0.0903 -0.16026,-0.16973 -0.21213,-0.23792 -0.0519,-0.0682 -0.0895,-0.12901 -0.10879,-0.17975 -0.0193,-0.0507 -0.0211,-0.098 -0.0109,-0.13747 0.0103,-0.0394 0.03,-0.0729 0.0653,-0.10573 l 2.62175,-2.44258 c 0.0449,-0.0418 0.0893,-0.0694 0.13055,-0.0899 0.0413,-0.0205 0.0797,-0.0319 0.1251,-0.0264 z m -7.15816,3.67972 c 0.0164,-8.6e-4 0.0337,-0.002 0.049,0 0.061,0.009 0.12913,0.0328 0.20669,0.074 l 7.20168,3.5687 c 0.14898,0.0763 0.26313,0.14447 0.33723,0.2009 0.0741,0.0565 0.11179,0.11424 0.10879,0.17976 -0.003,0.0655 -0.0485,0.14656 -0.13054,0.23791 -0.082,0.0914 -0.20201,0.20798 -0.359,0.35423 -0.1634,0.15222 -0.29028,0.26855 -0.38619,0.34894 -0.0959,0.0804 -0.17746,0.13843 -0.23933,0.16918 -0.0619,0.0308 -0.11396,0.044 -0.15774,0.037 -0.0438,-0.007 -0.0941,-0.0296 -0.14686,-0.0582 l -1.61549,-0.82476 -2.33347,2.17823 0.77239,1.54907 c 0.0302,0.0555 0.046,0.10963 0.0544,0.15861 0.008,0.049 0.002,0.10349 -0.0272,0.1639 -0.0296,0.0604 -0.0844,0.13144 -0.16318,0.21677 -0.0788,0.0853 -0.18859,0.19416 -0.32636,0.3225 -0.14738,0.1373 -0.26648,0.23838 -0.35899,0.30664 -0.0925,0.0683 -0.17198,0.10113 -0.23933,0.0952 -0.0673,-0.006 -0.13007,-0.0472 -0.18494,-0.1216 -0.0549,-0.0743 -0.11591,-0.18298 -0.18494,-0.32779 l -3.37238,-7.15326 c -0.033,-0.0708 -0.0532,-0.13375 -0.0598,-0.19033 -0.007,-0.0566 0.01,-0.11568 0.049,-0.18504 0.0392,-0.0694 0.10654,-0.15657 0.20125,-0.25378 0.0947,-0.0972 0.2228,-0.21786 0.3862,-0.37009 0.18903,-0.17608 0.3456,-0.31786 0.46234,-0.41766 0.11675,-0.0998 0.21436,-0.1704 0.29372,-0.21148 0.0595,-0.0308 0.11398,-0.0449 0.16318,-0.0476 z m 0.22845,1.87159 1.65356,3.38894 1.76234,-1.63896 -3.41046,-1.74998 -0.005,0 z m -0.36987,19.10707 c -0.15978,0.0122 -0.1953,0.59612 -0.13598,2.01962 l 0.0435,1.11026 -4.03598,3.79604 c -2.21958,2.0881 -4.08478,3.81429 -4.15021,3.83833 -0.0654,0.024 -1.199,-0.94944 -2.51297,-2.16765 l -2.38787,-2.21524 -0.65272,0.50755 c -0.35894,0.27903 -0.9589,0.81929 -1.33807,1.20014 l -0.6908,0.69259 1.03892,1.02038 c 0.57063,0.56321 4.03192,3.85667 7.69665,7.31716 0.0418,0.0786 21.41464,19.23924 21.41464,19.23924 1.98463,0.72175 4.63703,0.72534 6.60335,0.0106 2.14601,-0.78007 4.29913,-2.86433 5.14017,-4.98032 0.21291,-0.53568 0.37546,-1.46529 0.4297,-2.41614 0.1075,-1.88437 -0.28283,-3.3507 -1.31088,-4.89043 -0.4637,-0.69451 -4.45028,-4.58826 -12.81506,-12.51424 -6.67773,-6.32743 -12.21089,-11.53156 -12.29832,-11.56258 -0.0117,-0.004 -0.0274,-0.006 -0.0381,-0.005 z" font-family="Calibri" transform="matrix(.986 0 0 1.014 -344.802 -454.456)" font-size="130.533" letter-spacing="0" word-spacing="0" fill="#00bcf2"/>
</svg>
