<svg xmlns:dc="http://purl.org/dc/elements/1.1/" xmlns:cc="http://creativecommons.org/ns#" xmlns:rdf="http://www.w3.org/1999/02/22-rdf-syntax-ns#" xmlns="http://www.w3.org/2000/svg" width="75.986" height="73.575">
  <metadata id="metadata">
    <rdf:RDF>
      <cc:Work rdf:about="">
        <dc:subject>Messaging</dc:subject>
        <dc:identifier>biztalk-services</dc:identifier>
        <dc:title>BizTalk Services</dc:title>
        <dc:format>image/svg+xml</dc:format>
        <dc:publisher>Amido Limited</dc:publisher>
        <dc:creator>Richard Slater</dc:creator>
        <dc:type rdf:resource="http://purl.org/dc/dcmitype/StillImage" />
      </cc:Work>
    </rdf:RDF>
  </metadata>
    <path d="m 677.66482,610.48844 c -6.98509,0.1665 -16.23146,3.6572 -17.82915,9.3837 -7.47893,-7.293 -23.57075,-3.4237 -20.0187,14.0131 -9.36338,-0.1992 -20.01869,22.0206 2.00187,28.0262 l 23.0215,0 0,10.5098 c -2.25278,0.8659 -3.87862,3.0726 -3.87862,5.6303 0,3.3168 2.68881,6.0056 6.00561,6.0056 3.3168,0 6.00561,-2.6888 6.00561,-6.0056 0,-2.6005 -1.69132,-4.7951 -4.00374,-5.6303 l 0,-10.3847 -4.00374,0 0,-6.1933 c -2.51323,-0.4613 -4.7115,-1.7733 -6.3184,-3.6283 l -4.25397,3.0028 2.00187,2.9402 -10.00935,-0.3753 3.12792,-9.5089 2.56489,3.6909 4.56677,-3.1905 c -0.42608,-1.173 -0.68814,-2.4332 -0.68814,-3.7535 0,-1.3839 0.2846,-2.716 0.7507,-3.9411 l -5.5677,-3.0654 -2.00187,3.1905 -3.62839,-9.3838 10.00935,-0.8133 -2.25211,3.5659 5.50515,3.0653 c 1.58742,-1.7869 3.75688,-2.984 6.19328,-3.4407 l 0,-6.2558 -3.94118,0 6.00561,-8.0075 6.0056,8.0075 -4.06629,0 0,6.2558 c 2.7409,0.5092 5.13369,2.0565 6.75631,4.1914 l 5.31746,-3.1904 -2.37722,-3.8787 10.00935,0.8133 -3.69095,9.3838 -1.75163,-2.8777 -5.69282,3.3156 c 0.28551,0.9794 0.43791,1.9937 0.43791,3.0653 0,1.2068 -0.20425,2.3542 -0.56303,3.4407 l 5.8805,4.0038 2.75257,-3.2531 2.18954,9.7592 -9.94679,-0.6256 2.37722,-2.8152 -5.19235,-3.5658 c -1.61623,1.9766 -3.89812,3.3916 -6.50607,3.8786 l 0,6.0682 18.89264,0 c 28.02619,-2.0019 14.8098,-31.7176 6.19329,-29.7778 1.4378,-13.3242 -3.48783,-18.9568 -12.01122,-21.2073 -1.25225,-0.3307 -2.76715,-0.4763 -4.37909,-0.4379 z m -10.69749,26.3996 c -4.47538,0 -8.1326,3.6573 -8.1326,8.1326 0,4.4754 3.65722,8.0701 8.1326,8.0701 4.47538,0 8.07003,-3.5947 8.07003,-8.0701 0,-4.4753 -3.59465,-8.1326 -8.07003,-8.1326 z" fill="#00bcf2" transform="translate(-628.835 -610.482)"/>
</svg>
