<?xml version="1.0" encoding="UTF-8" standalone="no"?>
<!-- Created with Inkscape (http://www.inkscape.org/) -->

<svg
   xmlns:dc="http://purl.org/dc/elements/1.1/"
   xmlns:cc="http://creativecommons.org/ns#"
   xmlns:rdf="http://www.w3.org/1999/02/22-rdf-syntax-ns#"
   xmlns:svg="http://www.w3.org/2000/svg"
   xmlns="http://www.w3.org/2000/svg"
   xmlns:sodipodi="http://sodipodi.sourceforge.net/DTD/sodipodi-0.dtd"
   xmlns:inkscape="http://www.inkscape.org/namespaces/inkscape"
   width="72"
   height="46.587849"
   id="svg2"
   version="1.1"
   inkscape:version="0.48.4 r9939"
   sodipodi:docname="CDN.svg">
  <defs
     id="defs4" />
  <sodipodi:namedview
     id="base"
     pagecolor="#ffffff"
     bordercolor="#666666"
     borderopacity="1.0"
     inkscape:pageopacity="0.0"
     inkscape:pageshadow="2"
     inkscape:zoom="4"
     inkscape:cx="-67.816639"
     inkscape:cy="29.268883"
     inkscape:document-units="px"
     inkscape:current-layer="layer1"
     showgrid="false"
     fit-margin-top="0"
     fit-margin-left="0"
     fit-margin-right="-2.7755576e-017"
     fit-margin-bottom="0"
     inkscape:window-width="1920"
     inkscape:window-height="1017"
     inkscape:window-x="-8"
     inkscape:window-y="-8"
     inkscape:window-maximized="1" />
  <metadata
     id="metadata7">
    <rdf:RDF>
      <cc:Work
         rdf:about="">
        <dc:format>image/svg+xml</dc:format>
        <dc:type
           rdf:resource="http://purl.org/dc/dcmitype/StillImage" />
        <dc:title></dc:title>
      </cc:Work>
    </rdf:RDF>
  </metadata>
  <g
     inkscape:label="Layer 1"
     inkscape:groupmode="layer"
     id="layer1"
     transform="translate(-20.973545,-597.68323)">
    <path
       id="path3040"
       style="fill:#2986bf;fill-opacity:1"
       d="m 61.693555,597.68436 c -0.491783,0.0346 -4.830993,0.7525 -7.914469,3.36179 -1.748087,1.47924 -3.210947,4.13373 -3.137663,4.13521 0,0 -3.321214,-3.5651 -8.890046,-3.62545 -4.466218,-0.0484 -11.553235,3.91193 -11.680544,11.25427 -0.03649,2.10487 0.527338,4.07369 0.527338,4.07369 0.03316,0.0367 -1.128341,0.27983 -2.794893,1.21728 -2.229099,1.25388 -4.596232,3.78591 -5.914979,6.96965 -1.769618,4.27225 -0.896355,9.2631 1.96873,13.36363 2.417952,3.46062 6.079141,5.3568 8.784578,5.71723 20.295736,0.0164 30.516966,0.16485 48.589834,0.10547 3.201904,-0.0815 11.726492,-5.28724 11.742067,-13.24938 0.01492,-7.57193 -4.577462,-12.19832 -7.075122,-13.29332 -0.74772,-0.3278 -2.790304,-1.20311 -2.944306,-1.45018 0.286821,-1.47289 0.246091,-4.20874 0.246091,-5.43158 0,-2.47237 -1.151496,-5.01963 -2.926728,-7.55413 -3.081876,-4.39998 -4.034138,-3.95943 -4.034138,-3.95943 -2.237103,4.72336 -4.77976,9.86215 -4.785596,9.90517 2.141645,0 7.765057,0.0439 7.765057,0.0439 l -22.811777,26.38449 c 0,0 1.030108,-3.1707 2.22361,-6.7675 1.771859,-5.33978 3.177213,-9.98428 3.177213,-9.98428 -0.03428,0.0623 -2.306859,-0.0264 -3.998982,-0.0264 -1.504834,0 -3.278287,0.004 -3.278287,0.004 -0.0098,0.0813 0.900563,-3.9701 3.278287,-10.22596 2.13672,-5.62176 3.928136,-10.69654 3.92867,-10.96424 0.0029,-0.003 -0.01116,-0.007 -0.04394,-0.004 z"
       inkscape:connector-curvature="0" />
  </g>
</svg>
