<svg xmlns:dc="http://purl.org/dc/elements/1.1/" xmlns:cc="http://creativecommons.org/ns#" xmlns:rdf="http://www.w3.org/1999/02/22-rdf-syntax-ns#" xmlns="http://www.w3.org/2000/svg" width="74.467" height="59.535">
    <metadata>
        <rdf:RDF>
            <cc:Work>
                <dc:subject>
                    Compute
                </dc:subject>
                <dc:identifier>
                    cloud-services
                </dc:identifier>
                <dc:title>
                    Cloud Services
                </dc:title>
                <dc:format>
                    image/svg+xml
                </dc:format>
                <dc:publisher>
                    Amido Limited
                </dc:publisher>
                <dc:creator>
                    Richard Slater
                </dc:creator>
                <dc:type rdf:resource="http://purl.org/dc/dcmitype/StillImage"/>
            </cc:Work>
        </rdf:RDF>
    </metadata>
    <path d="m 402.3609,545.5154 c -6.6787,-1.76341 -17.94506,2.25522 -19.91145,9.30332 -7.47893,-7.29305 -25.69774,-5.17541 -22.14568,12.26145 -9.36339,-0.19918 -19.45299,21.59567 6.06816,25.77407 0.63057,6.93262 12.58277,19.74712 26.96268,4.94212 7.18194,8.88171 16.47458,-0.24759 15.13913,-5.06723 26.43465,-2.69688 14.55958,-27.96412 5.94308,-26.02431 1.4378,-13.3242 -3.53254,-18.93896 -12.05592,-21.18942 z m -3.39604,10.86729 3.19048,4.44164 5.44259,-0.87582 -0.87582,5.44259 4.44165,3.19048 -4.50421,3.19048 0.87582,5.44258 -5.38003,-0.93838 -3.19048,4.50421 -3.19047,-4.50421 -5.44259,0.87582 0.87582,-5.38002 -4.44164,-3.25304 4.5042,-3.19048 -0.87582,-5.38003 5.38003,0.87582 z m 0.18758,7.19421 c -2.59126,0 -4.69188,2.10064 -4.69188,4.69188 0,2.59126 2.10062,4.69189 4.69188,4.69189 2.59126,0 4.69188,-2.10063 4.69188,-4.69189 0,-2.59124 -2.10062,-4.69188 -4.69188,-4.69188 z m -18.89264,5.19235 3.19048,4.44165 5.44258,-0.87582 -0.93837,5.44258 4.5042,3.19048 -4.5042,3.19048 0.87581,5.44258 -5.38002,-0.93837 -3.25304,4.44165 -3.19048,-4.44165 -5.38002,0.87582 0.87582,-5.44259 -4.44165,-3.19048 4.44165,-3.19047 -0.87582,-5.38003 5.44258,0.87582 z m -0.31279,7.50701 c -2.59126,0 -4.69188,2.10064 -4.69188,4.69188 0,2.59126 2.10062,4.69188 4.69188,4.69188 2.59126,0 4.69188,-2.10062 4.69188,-4.69188 0,-2.59124 -2.10062,-4.69188 -4.69188,-4.69188 z" fill="#00bcf2" transform="translate(-350.214 -545.102)"/>
</svg>
