<svg xmlns:dc="http://purl.org/dc/elements/1.1/" xmlns:cc="http://creativecommons.org/ns#" xmlns:rdf="http://www.w3.org/1999/02/22-rdf-syntax-ns#" xmlns="http://www.w3.org/2000/svg" width="70" height="43.381">
    <metadata>
        <rdf:RDF>
            <cc:Work>
                <dc:subject>
                    Miscellaneous
                </dc:subject>
                <dc:identifier>
                    cloud
                </dc:identifier>
                <dc:title>
                    Cloud
                </dc:title>
                <dc:format>
                    image/svg+xml
                </dc:format>
                <dc:publisher>
                    Amido Limited
                </dc:publisher>
                <dc:creator>
                    Richard Slater
                </dc:creator>
                <dc:type rdf:resource="http://purl.org/dc/dcmitype/StillImage"/>
            </cc:Work>
        </rdf:RDF>
    </metadata>
    <path d="m -105.32138,537.43637 c -6.38977,-0.739 -11.71217,-5.7779 -12.82538,-12.1422 -1.63151,-9.3274 5.92809,-17.8481 15.35666,-17.3089 1.28961,0.074 3.001082,0.3899 3.788282,0.6998 0.16299,0.064 0.34292,-0.2383 0.79162,-1.3309 1.09162,-2.6581 2.68365,-5.0015 4.82609,-7.1038 3.00179,-2.9456 6.53267,-4.8393 10.81448,-5.8002 1.16641,-0.2617 1.73883,-0.3 4.4282,-0.296 l 3.088632,0 1.865469,0.4902 c 3.137158,0.8243 5.739739,2.0795 8.137334,3.9244 4.374906,3.3664 7.330288,8.3967 8.203418,13.9629 0.343955,2.1927 0.134853,6.3857 -0.411487,8.2514 l -0.125003,0.4268 1.267264,0.076 c 1.592435,0.095 2.965957,0.556 4.229931,1.4196 1.233626,0.843 2.058782,1.8005 2.707618,3.142 0.676088,1.3979 0.882716,2.4709 0.787084,4.0872 -0.09365,1.5829 -0.468352,2.69 -1.363198,4.0279 -1.031124,1.5417 -2.505068,2.6213 -4.501648,3.2974 -0.724529,0.2453 -1.74943,0.2564 -25.395414,0.2734 -13.55222,0.01 -25.103702,-0.036 -25.669952,-0.1012 z" fill="#00bcf2" transform="translate(118.369 -494.154)"/>
</svg>
