<svg xmlns:dc="http://purl.org/dc/elements/1.1/" xmlns:cc="http://creativecommons.org/ns#" xmlns:rdf="http://www.w3.org/1999/02/22-rdf-syntax-ns#" xmlns="http://www.w3.org/2000/svg" width="70" height="52.858">
    <metadata>
        <rdf:RDF>
            <cc:Work>
                <dc:subject>
                    Code
                </dc:subject>
                <dc:identifier>
                    codeplex-code-source
                </dc:identifier>
                <dc:title>
                    Codeplex (Code Source)
                </dc:title>
                <dc:format>
                    image/svg+xml
                </dc:format>
                <dc:publisher>
                    Amido Limited
                </dc:publisher>
                <dc:creator>
                    Richard Slater
                </dc:creator>
                <dc:type rdf:resource="http://purl.org/dc/dcmitype/StillImage"/>
            </cc:Work>
        </rdf:RDF>
    </metadata>
    <path d="m 29.961918,847.41128 c -9.54399,-0.6082 -18.14336,-6.64015 -22.09655,-15.49943 -1.38401,-3.10166 -2.03523,-6.09022 -2.1459,-9.8481 -0.13489,-4.5798 0.50119,-8.067 2.16246,-11.8551 3.18802,-7.2696 9.89467,-12.8856 17.63887,-14.7704 2.60759,-0.6347 4.05934,-0.7438 9.89318,-0.7438 l 5.41707,0 -0.0353,8.7525 -0.0353,8.7524 -5.35445,0.077 c -5.87232,0.084 -5.74972,0.068 -7.55114,0.9975 -2.84734,1.4688 -4.6028,4.4614 -4.59731,7.8373 0.004,2.54664 0.77507,4.43331 2.53363,6.20052 0.81816,0.82219 1.3686,1.23953 2.13243,1.61682 1.89812,0.93756 1.98412,0.94886 7.72366,1.01426 l 5.18385,0.0591 -0.0353,8.74105 -0.0353,8.74104 -4.59934,0.0147 c -2.52963,0.008 -5.31924,-0.0312 -6.19912,-0.0872 z m 15.37033,0.0679 c -0.0403,-0.0403 3.84171,-3.97444 8.62661,-8.7426 l 8.69983,-8.66938 0,-8.86495 0,-8.8649 -8.75206,-8.7528 -8.75206,-8.7529 15.2735,0 15.2735,0 0,26.3603 0,26.36045 -15.14805,0 c -8.33143,0 -15.181,-0.033 -15.22127,-0.0732 z" fill="#00bcf2" transform="translate(-5.702 -794.694)"/>
</svg>
