<?xml version="1.0" encoding="UTF-8" standalone="no"?>
<!-- Created with Inkscape (http://www.inkscape.org/) -->

<svg
   xmlns:dc="http://purl.org/dc/elements/1.1/"
   xmlns:cc="http://creativecommons.org/ns#"
   xmlns:rdf="http://www.w3.org/1999/02/22-rdf-syntax-ns#"
   xmlns:svg="http://www.w3.org/2000/svg"
   xmlns="http://www.w3.org/2000/svg"
   xmlns:sodipodi="http://sodipodi.sourceforge.net/DTD/sodipodi-0.dtd"
   xmlns:inkscape="http://www.inkscape.org/namespaces/inkscape"
   width="69.997101"
   height="64.777"
   id="svg3129"
   version="1.1"
   inkscape:version="0.48.5 r10040"
   sodipodi:docname="Tablet.svg">
  <defs
     id="defs3131" />
  <sodipodi:namedview
     id="base"
     pagecolor="#ffffff"
     bordercolor="#666666"
     borderopacity="1.0"
     inkscape:pageopacity="0.0"
     inkscape:pageshadow="2"
     inkscape:zoom="7.9195959"
     inkscape:cx="17.445172"
     inkscape:cy="28.152467"
     inkscape:document-units="px"
     inkscape:current-layer="layer1"
     showgrid="false"
     fit-margin-top="0"
     fit-margin-left="0"
     fit-margin-right="0"
     fit-margin-bottom="0"
     inkscape:window-width="1920"
     inkscape:window-height="1017"
     inkscape:window-x="-8"
     inkscape:window-y="-8"
     inkscape:window-maximized="1" />
  <metadata id="metadata">
    <rdf:RDF>
      <cc:Work rdf:about="">
        <dc:subject>Miscellaneous</dc:subject>
        <dc:identifier>computer</dc:identifier>
        <dc:title>Computer</dc:title>
        <dc:format>image/svg+xml</dc:format>
        <dc:publisher>Amido Limited</dc:publisher>
        <dc:creator>Richard Slater</dc:creator>
        <dc:type rdf:resource="http://purl.org/dc/dcmitype/StillImage" />
      </cc:Work>
    </rdf:RDF>
  </metadata>
  <g
     inkscape:label="Layer 1"
     inkscape:groupmode="layer"
     id="layer1"
     transform="translate(21.213857,-475.65444)">
    <path
       style="fill:#00bcf2;fill-opacity:1"
       d="m -10.566157,538.25554 0,-2.1783 3.6751001,-0.082 c 7.07540002,-0.1582 9.7362,-0.9012 10.8605,-3.0325 0.3454,-0.6546 0.3698,-0.813 0.3524,-2.2834 -0.012,-1.0358 -0.1081,-1.9348 -0.2781,-2.6103 l -0.2593,-1.0305 -10.9879,-0.069 -10.9878001,-0.069 -0.7017,-0.3176 c -0.8212,-0.3717 -1.5498,-1.0818 -2,-1.9493 l -0.3209,-0.6182 0,-22.7379 0,-22.7379 0.31,-0.5801 c 0.4861,-0.9098 1.0857,-1.5062 1.932,-1.9218 l 0.7806,-0.3833 31.7369,0 31.7369,0 0.893,0.4247 c 1.0611,0.5047 1.8326,1.244 2.2808,2.1857 l 0.3269,0.6869 0,22.3688 0,22.3687 -0.3729,0.7614 c -0.4355,0.8895 -1.1796,1.5842 -2.2375,2.0892 l -0.7557,0.3607 -11.2918,0.039 -11.2918,0.039 -0.2051,0.7168 c -0.6127,2.1419 -0.8025,4.2514 -0.4793,5.3299 0.6412,2.1403 3.7192,3.0035 10.7313,3.0097 l 2.4386,0 0,2.1983 0,2.1982 -22.944,0 -22.944,0 0,-2.1783 z m 53.9939,-36.9776 0,-20.1962 -29.6073,0 -29.6074,0 0,20.1962 0,20.1962 29.6074,0 29.6073,0 0,-20.1962 z"
       id="path3793"
       inkscape:connector-curvature="0" />
  </g>
</svg>
