<svg xmlns:dc="http://purl.org/dc/elements/1.1/" xmlns:cc="http://creativecommons.org/ns#" xmlns:rdf="http://www.w3.org/1999/02/22-rdf-syntax-ns#" xmlns="http://www.w3.org/2000/svg" width="51.278" height="69.996">
    <metadata>
        <rdf:RDF>
            <cc:Work>
                <dc:subject>
                    Code
                </dc:subject>
                <dc:identifier>
                    cscfg-cloud-service-configuration-file
                </dc:identifier>
                <dc:title>
                    CSCFG (Cloud Service Configuration) File
                </dc:title>
                <dc:format>
                    image/svg+xml
                </dc:format>
                <dc:publisher>
                    Amido Limited
                </dc:publisher>
                <dc:creator>
                    Richard Slater
                </dc:creator>
                <dc:type rdf:resource="http://purl.org/dc/dcmitype/StillImage"/>
            </cc:Work>
        </rdf:RDF>
    </metadata>
    <path d="m -0.34879813,782.9106 c -0.74094997,-0.2681 -1.26644997,-0.93 -1.26644997,-1.5953 0,-0.5899 0.30016,-1.2876 0.69479997,-1.6151 0.22404,-0.186 0.21878,-0.2257 -0.0553,-0.4177 -0.48615997,-0.3405 -0.55723997,-1.0525 -0.18236997,-1.8269 0.30440997,-0.6288 0.31065997,-0.7142 0.0908,-1.2403 -0.27784,-0.6649 -0.28915,-0.9233 -0.0743,-1.6969 0.19084997,-0.6872 0.87313997,-1.3729 1.62499997,-1.6332 0.79521003,-0.2753 4.40073003,-0.094 4.52411003,0.2276 0.18219,0.4748 -0.072,0.8123 -0.61179,0.8123 l -0.517,0 0.21291,0.618 c 0.37034,1.0749 -0.0806,2.3058 -1.05724,2.886 -0.49559,0.2944 -1.58161,0.378 -2.77849003,0.2138 -0.32332,-0.044 -0.39806,0.018 -0.43814,0.3648 -0.0665,0.5753 0.23318,0.6933 2.01784003,0.7946 0.90138,0.051 1.69066,0.183 1.97431,0.3297 1.60117,0.828 1.45475,2.7683 -0.27484,3.642 -0.5668,0.2864 -0.93923,0.3487 -2.0258,0.339 -0.73223003,-0.01 -1.56836003,-0.098 -1.85805003,-0.2024 z m 3.15564003,-0.936 c 0.63907,-0.267 0.99372,-0.9956 0.72711,-1.4938 -0.25186,-0.4706 -0.78607,-0.6304 -2.10744,-0.6304 -1.06114003,0 -1.17302003,0.032 -1.47876003,0.4205 -0.50088,0.6367 -0.37601,1.3035 0.30813,1.6453 0.65453,0.327 1.84306003,0.3542 2.55096003,0.058 z m -0.28292,-5.6255 c 0.30374,-0.3038 0.38274,-0.5428 0.38274,-1.1582 0,-0.6519 -0.0654,-0.8268 -0.41085,-1.0985 -0.5674,-0.4463 -1.47645,-0.4285 -2.02073003,0.04 -0.58725,0.5051 -0.62506,1.6117 -0.0751,2.1973 0.52443,0.5583 1.57555003,0.5681 2.12391003,0.02 z m -31.8347499,3.9704 c -0.36491,-0.1458 -0.51592,-0.6503 -0.37376,-1.2488 0.0759,-0.3195 0.20059,-0.3987 0.69172,-0.4394 0.32952,-0.027 0.66706,0.018 0.7501,0.1014 0.18613,0.1861 0.19999,1.2594 0.0184,1.4276 -0.2366,0.2192 -0.74848,0.2942 -1.08649,0.1592 z m 5.22849,0.01 c -0.7576,-0.2296 -1.22591,-0.6611 -1.64319,-1.514 -0.35109,-0.7176 -0.41717,-1.0593 -0.41717,-2.1572 0,-1.1038 0.0654,-1.4382 0.42478,-2.1728 0.47635,-0.9737 1.27256,-1.5587 2.35728,-1.7321 1.2791,-0.2045 2.72219,0.5028 2.72219,1.3342 0,0.6178 -0.17101,0.6681 -0.80576,0.2368 -1.19881,-0.8146 -2.4952,-0.5952 -3.03549,0.5138 -0.40333,0.8278 -0.39342,2.8861 0.0172,3.5717 0.31169,0.5205 1.06394,0.9771 1.6098,0.9771 0.17129,0 0.71161,-0.2105 1.20071,-0.4678 0.4891,-0.2573 0.91723,-0.4678 0.9514,-0.4678 0.2136,0 0.0163,1.0847 -0.2394,1.3161 -0.65744,0.595 -2.1517,0.8622 -3.14236,0.562 z m 5.5645,-0.081 c -0.67162,-0.2393 -0.86722,-0.457 -0.8708,-0.9688 -0.004,-0.5097 0.23001,-0.5629 0.92162,-0.21 1.52327,0.7771 3.18851,0.061 2.71672,-1.1688 -0.0559,-0.1456 -0.66982,-0.528 -1.36437,-0.8499 -1.62936,-0.755 -2.04247,-1.1931 -2.04247,-2.1659 0,-0.9535 0.38045,-1.5233 1.28387,-1.9229 1.1919,-0.5273 3.02178,-0.1557 3.1343,0.6363 0.0794,0.5591 -0.17676,0.7078 -0.7282,0.4227 -0.68977,-0.3567 -1.82038,-0.3236 -2.20865,0.065 -0.68511,0.6851 -0.31028,1.2626 1.30338,2.0081 1.51167,0.6984 1.97135,1.1897 1.97052,2.106 -0.002,1.7528 -2.06455,2.7795 -4.11592,2.0485 z m 7.53344,0.081 c -0.7576,-0.2296 -1.22591,-0.6611 -1.64319,-1.514 -0.35109,-0.7176 -0.41717,-1.0593 -0.41717,-2.1572 0,-1.1038 0.0654,-1.4382 0.42478,-2.1728 0.47635,-0.9737 1.27256,-1.5587 2.35728,-1.7321 1.2790999,-0.2045 2.7221899,0.5028 2.7221899,1.3342 0,0.6178 -0.17101,0.6681 -0.80576,0.2368 -1.19881,-0.8146 -2.4951999,-0.5952 -3.0354899,0.5138 -0.40333,0.8278 -0.39342,2.8861 0.0172,3.5717 0.31169,0.5205 1.06394,0.9771 1.6097999,0.9771 0.17129,0 0.71161,-0.2105 1.20071,-0.4678 0.4891,-0.2573 0.91723,-0.4678 0.9514,-0.4678 0.21361,0 0.0163,1.0847 -0.2394,1.3161 -0.65744,0.595 -2.1517,0.8622 -3.1423599,0.562 z m 5.6268799,-3.2034 0,-3.1966 -0.63359,0 c -0.62089,0 -0.63261,-0.01 -0.58473,-0.5067 0.0446,-0.4627 0.0998,-0.511 0.63359,-0.5552 l 0.58473,-0.048 3.1e-4,-0.8872 c 4.7e-4,-1.5794 0.75677,-2.5228 2.04325,-2.5486 0.90987,-0.018 1.3485,0.1253 1.46045,0.478 0.18443,0.5811 -0.0354,0.7445 -0.90472,0.6724 -1.02182,-0.085 -1.19471,0.094 -1.30898,1.3544 l -0.0846,0.933 0.91748,0.047 c 0.90494,0.047 0.91748,0.054 0.91748,0.5152 0,0.4601 -0.0147,0.4685 -0.89658,0.5145 l -0.89659,0.047 0,3.1887 0,3.1888 -0.62371,0 -0.62371,0 0,-3.1965 z m -30.0161099,-11.056 c -2.24098,-0.7117 -3.94714,-2.3425 -4.8109,-4.5982 l -0.33472,-0.8742 -0.0447,-20.1927 c -0.0322,-14.5659 0.005,-20.4889 0.13287,-21.256 0.45941,-2.7513 2.57566,-5.1041 5.20715,-5.7893 0.81268,-0.2117 3.08382,-0.242 18.09129,-0.242 l 17.16193987,0 5.33688003,5.2366 5.3368701,5.2366 0,18.3582 c 0,16.2981 -0.0277,18.4531 -0.24722,19.205 -0.6560901,2.2477 -2.3893201,4.0403 -4.6625201,4.8224 -0.89111,0.3066 -1.28592,0.3124 -20.7258199,0.3021 -15.56881,-0.01 -19.95113,-0.053 -20.44112,-0.2085 z m 40.3956199,-4.5346 c 0.44102,-0.2585 0.77032,-0.6126 0.98825,-1.0628 0.32562,-0.6726 0.32683,-0.7373 0.32683,-17.4661 l 0,-16.791 -4.28802,0 -4.28801,0 0,-4.3688 0,-4.3689 -16.0215899,0.042 -16.02159,0.042 -0.55168,0.3431 c -0.30343,0.1888 -0.7069,0.6193 -0.89659,0.9568 l -0.3449,0.6137 0,20.2154 c 0,21.4982 -0.0227,20.8211 0.71949,21.481 0.88892,0.7904 -0.2282,0.7495 20.473,0.7505 l 19.2433899,0 0.66142,-0.3876 z m -32.0534799,-12.4774 0,-2.262 11.8895,0.04 11.8894999,0.04 0.0433,2.222 0.0433,2.222 -11.9327599,0 -11.93276,0 0,-2.2619 z m 0.0687,-6.2041 c -0.043,-0.1121 -0.0585,-1.1475 -0.0345,-2.3009 l 0.0437,-2.0972 11.85052,0 11.8505199,0 0,2.261 0,2.261 -11.8160599,0.04 c -9.61102,0.033 -11.83064,0 -11.89424,-0.1638 z m -0.0687,-10.4783 0,-2.2619 11.93276,0 11.9327599,0 -0.0433,2.222 -0.0433,2.2219 -11.8894999,0.04 -11.8895,0.04 0,-2.262 z" fill="#00bcf2" transform="translate(40.575 -713.118)"/>
</svg>
