<svg xmlns:dc="http://purl.org/dc/elements/1.1/" xmlns:cc="http://creativecommons.org/ns#" xmlns:rdf="http://www.w3.org/1999/02/22-rdf-syntax-ns#" xmlns="http://www.w3.org/2000/svg" width="53.287" height="70.005">
    <metadata>
        <rdf:RDF>
            <cc:Work>
                <dc:subject>
                    Code
                </dc:subject>
                <dc:identifier>
                    csdef-cloud-service-definition-file
                </dc:identifier>
                <dc:title>
                    CSDEF (Cloud Service Definition) File
                </dc:title>
                <dc:format>
                    image/svg+xml
                </dc:format>
                <dc:publisher>
                    Amido Limited
                </dc:publisher>
                <dc:creator>
                    Richard Slater
                </dc:creator>
                <dc:type rdf:resource="http://purl.org/dc/dcmitype/StillImage"/>
            </cc:Work>
        </rdf:RDF>
    </metadata>
    <path d="m -16.75029,788.22232 c -0.37916,-0.1515 -0.53606,-0.6757 -0.38836,-1.2975 0.0789,-0.3321 0.20843,-0.4144 0.71874,-0.4566 0.34239,-0.028 0.69312,0.019 0.77939,0.1053 0.19341,0.1934 0.2078,1.3086 0.0192,1.4834 -0.24584,0.2278 -0.77771,0.3057 -1.12893,0.1654 z m 5.43271,0.01 c -0.78719,-0.2385 -1.2738,-0.6869 -1.70737,-1.5731 -0.36481,-0.7456 -0.43347,-1.1007 -0.43347,-2.2415 0,-1.1468 0.0679,-1.4944 0.44137,-2.2576 0.49496,-1.0117 1.32227,-1.6196 2.44936,-1.7998 1.3290498,-0.2125 2.8285101,0.5224 2.8285101,1.3863 0,0.642 -0.1776903,0.6942 -0.8372403,0.246 -1.24562,-0.8464 -2.5926498,-0.6184 -3.1540398,0.5339 -0.41909,0.8602 -0.40879,2.9988 0.0179,3.7113 0.32386,0.5408 1.1055,1.0152 1.67268,1.0152 0.1779798,0 0.7393998,-0.2187 1.2475998,-0.486 0.50821,-0.2674 0.95306,-0.4861 0.9885703,-0.4861 0.22194,0 0.0169,1.127 -0.2487603,1.3675 -0.68312,0.6182 -2.2357298,0.8959 -3.2650898,0.5839 z m 5.7818401,-0.084 c -0.69785,-0.2487 -0.9011,-0.4749 -0.90482,-1.0067 -0.004,-0.5295 0.23899,-0.5848 0.95762,-0.2182 1.58276,0.8074 3.31305,0.063 2.82282,-1.2145 -0.058,-0.1512 -0.69597,-0.5486 -1.41765,-0.883 -1.693,-0.7845 -2.12224,-1.2397 -2.12224,-2.2506 0,-0.9907 0.39531,-1.5827 1.33401,-1.998 1.23846,-0.5478 3.13981,-0.1617 3.25672,0.6613 0.0825,0.5809 -0.18367,0.7354 -0.75664,0.4391 -0.71672,-0.3706 -1.89148,-0.3362 -2.29492,0.067 -0.71187,0.7119 -0.32239,1.3119 1.35429,2.0866 1.57071,0.7256 2.04835,1.2361 2.04749,2.1882 -0.002,1.8213 -2.14519,2.8881 -4.27668,2.1286 z m 7.35383,-0.1252 c -1.03065996,-0.5229 -1.51862996,-1.5352 -1.59410996,-3.307 -0.0953,-2.2379 0.58024,-3.6524 2.00423996,-4.1962 0.91966,-0.3512 1.86292,-0.2362 2.64762,0.3228 l 0.58945,0.42 0.081,-2.1487 0.081,-2.1486 0.49986,-0.049 c 0.28771,-0.028 0.58088,0.049 0.69078,0.1813 0.14011,0.1688 0.17957,1.6699 0.14822,5.6384 l -0.0427,5.4083 -0.60757,0.05 c -0.60293,0.05 -0.60756,0.046 -0.60756,-0.5569 l 0,-0.6071 -0.44555,0.4268 c -0.9938,0.9518 -2.27007,1.1614 -3.44468,0.5654 z m 2.219,-0.9415 c 0.25085,-0.095 0.69305,-0.4005 0.98265,-0.6799 0.52316,-0.5046 0.52656,-0.518 0.52656,-2.0836 l 0,-1.5758 -0.67723,-0.5797 c -0.37248,-0.3188 -0.82816,-0.591 -1.01262,-0.6049 -1.57596,-0.1184 -2.19858,0.6947 -2.19858,2.8713 0,1.4154 0.29918,2.2257 0.9529,2.581 0.51623,0.2805 0.83026,0.2963 1.42632,0.072 z m 7.0254699,1.0946 c -0.76204,-0.2429 -1.6745399,-1.1951 -1.9152399,-1.9985 -0.2509,-0.8374 -0.25646,-2.663 -0.0106,-3.4836 0.7707,-2.5724 4.4966999,-3.2421 5.9361299,-1.067 0.50697,0.7661 0.72525,2.6417 0.33611,2.8882 -0.12242,0.077 -1.29797,0.1421 -2.61234,0.1435 l -2.38978,0 0,0.5826 c 0,0.7591 0.42353,1.457 1.07049,1.764 0.66055,0.3135 1.93359,0.3147 2.81795,0 0.85769,-0.3026 0.91482,-0.3019 1.0352,0.012 0.38088,0.9926 -2.40849,1.7468 -4.26792,1.154 z m 3.23272,-4.8163 c 0,-0.5352 -0.42354,-1.3908 -0.82902,-1.6748 -0.47338,-0.3316 -1.4701,-0.3404 -2.09261,-0.019 -0.53666,0.2776 -0.9668,0.9936 -0.9668,1.6094 l 0,0.4131 1.94421,0 c 1.84645,0 1.94422,-0.017 1.94422,-0.3292 z m 3.88844,1.5444 0,-3.3214 -0.65834,0 c -0.64514,0 -0.65732,-0.01 -0.60757,-0.5266 0.0463,-0.4807 0.10366,-0.5309 0.65834,-0.5768 l 0.60757,-0.05 3.2e-4,-0.9218 c 4.9e-4,-1.6411 0.78633,-2.6214 2.12306,-2.6482 0.9454,-0.019 1.40116,0.1302 1.51748,0.4967 0.19163,0.6038 -0.0368,0.7735 -0.94005,0.6986 -1.06174,-0.088 -1.24137,0.098 -1.36011,1.4074 l -0.0879,0.9694 0.95331,0.049 c 0.94029,0.049 0.95332,0.056 0.95332,0.5353 0,0.4781 -0.0153,0.4869 -0.93161,0.5347 l -0.9316,0.049 0,3.3133 0,3.3132 -0.64808,0 -0.64807,0 0,-3.3213 z m -36.3461,-11.601 c -2.59118,-0.8913 -4.53067,-3.1629 -4.96963,-5.8207 -0.11938,-0.7228 -0.15919,-7.66 -0.12692,-22.1154 l 0.047,-21.0624 0.3476,-0.9183 c 0.86039,-2.273 2.65055,-3.9836 4.89455,-4.6771 0.9971,-0.3082 1.59618,-0.3183 18.93296014,-0.3183 l 17.90328986,0 5.57545,5.4536 5.57544,5.4535 -0.0437,19.3757 -0.0437,19.3758 -0.35292,0.861 c -0.81521,1.9888 -2.74918,3.7996 -4.70218,4.4028 -1.03346,0.3192 -1.46807,0.3257 -21.5734399,0.3204 -20.1122101,-0.01 -20.5374501,-0.012 -21.4638701,-0.3306 z m 41.98427,-4.4291 c 0.58743,-0.3069 1.26921,-1.0459 1.48031,-1.6046 0.11786,-0.312 0.17233,-5.9581 0.17233,-17.8625 l 0,-17.4064 -4.4555,0 -4.4555,0 0,-4.5366 0,-4.5365 -16.48533986,0 c -15.72643014,0 -16.51591014,0.017 -17.14944014,0.3052 -0.81787,0.3714 -1.30433,1.0294 -1.52471,2.0623 -0.11259,0.5276 -0.15353,7.5654 -0.12382,21.2836 0.0405,18.7156 0.0677,20.5375 0.31251,20.9813 0.3347,0.6067 0.90461,1.1464 1.43314,1.3572 0.26089,0.104 7.5117398,0.1651 20.3817401,0.1717 16.8949399,0.01 20.0442699,-0.025 20.4142799,-0.2183 z m -33.0192302,-13.1379 0,-2.3493 12.3133703,0 12.3133799,0 0,2.3493 0,2.3493 -12.3133799,0 -12.3133703,0 0,-2.3493 z m 0,-8.668 0,-2.4302 12.3133703,0 12.3133799,0 0,2.4302 0,2.4303 -12.3133799,0 -12.3133703,0 0,-2.4303 z m 0,-8.6679 0,-2.3493 12.3133703,0 12.3133799,0 0,2.3493 0,2.3492 -12.3133799,0 -12.3133703,0 0,-2.3492 z" fill="#00bcf2" transform="translate(23.27 -718.391)"/>
</svg>
