<svg xmlns:dc="http://purl.org/dc/elements/1.1/" xmlns:cc="http://creativecommons.org/ns#" xmlns:rdf="http://www.w3.org/1999/02/22-rdf-syntax-ns#" xmlns="http://www.w3.org/2000/svg" width="43.835" height="70">
    <metadata>
        <rdf:RDF>
            <cc:Work>
                <dc:subject>
                    Code
                </dc:subject>
                <dc:identifier>
                    cspkg-cloud-service-package
                </dc:identifier>
                <dc:title>
                    CSPKG (Cloud Service Package)
                </dc:title>
                <dc:format>
                    image/svg+xml
                </dc:format>
                <dc:publisher>
                    Amido Limited
                </dc:publisher>
                <dc:creator>
                    Richard Slater
                </dc:creator>
                <dc:type rdf:resource="http://purl.org/dc/dcmitype/StillImage"/>
            </cc:Work>
        </rdf:RDF>
    </metadata>
    <path d="m -129.85097,580.08097 c -1.57304,-0.26496 -2.23134,-0.84282 -2.23134,-1.95869 0,-0.46801 0.12833,-0.82558 0.46124,-1.28515 0.45391,-0.62661 0.45641,-0.64111 0.1571,-0.91198 -0.40829,-0.3695 -0.40158,-1.40017 0.0136,-2.08106 0.28784,-0.47211 0.2949,-0.55002 0.078,-0.85974 -0.37788,-0.53951 -0.31411,-1.99842 0.11492,-2.62879 0.81673,-1.20002 1.47053,-1.39744 4.20246,-1.26899 l 1.96377,0.0923 0.0519,0.45425 c 0.0586,0.51336 -0.16515,0.71805 -0.78877,0.7216 -0.41091,0.002 -0.41642,0.0145 -0.19735,0.43443 1.06374,2.03919 -1.50662,4.37645 -3.77199,3.42992 -0.5889,-0.24606 -0.71375,-0.1391 -0.71375,0.61148 0,0.47261 0.26211,0.56041 1.96377,0.65781 1.63994,0.0939 2.37511,0.2798 2.86254,0.72396 0.87027,0.79305 0.78103,2.22432 -0.19195,3.07861 -0.82244,0.72212 -2.45285,1.04623 -3.97403,0.79 z m 2.7959,-1.38011 c 0.49988,-0.36285 0.75463,-1.03794 0.5284,-1.40026 -0.29733,-0.47618 -0.8967,-0.65472 -2.20584,-0.65708 -1.20205,-0.002 -1.30562,0.0243 -1.61029,0.41163 -0.38405,0.48824 -0.42704,1.34861 -0.0817,1.63521 0.61788,0.51279 2.66865,0.51918 3.36945,0.0105 z m -0.61632,-5.818 c 0.91264,-0.91264 0.47485,-2.54774 -0.74333,-2.77627 -1.2106,-0.22712 -2.11329,0.76727 -1.87065,2.06066 0.22051,1.17543 1.73857,1.59102 2.61398,0.71561 z m -20.39801,1.75531 0.0413,-5.45927 0.54986,0 c 0.52265,0 0.55227,0.0293 0.59884,0.59305 l 0.049,0.59306 0.64962,-0.55606 c 1.58247,-1.35453 3.62712,-1.00095 4.50956,0.77983 0.56102,1.13216 0.64171,3.25945 0.17101,4.50848 -0.79008,2.09652 -2.97892,2.83674 -4.58106,1.54922 l -0.61146,-0.49138 0,1.97117 0,1.97117 -0.709,0 -0.70899,0 0.0413,-5.45927 z m 4.57467,1.05012 c 1.18392,-0.93127 1.12449,-4.39236 -0.09,-5.24304 -0.70874,-0.49643 -1.9713,-0.15803 -2.71704,0.72823 -0.35828,0.4258 -0.39093,0.59312 -0.39093,2.00355 l 0,1.53895 0.70345,0.64841 c 0.60146,0.5544 0.80337,0.64841 1.39272,0.64841 0.4587,0 0.82729,-0.10856 1.10183,-0.32451 z m -22.48218,1.34221 c -0.42374,-0.2997 -0.48397,-1.17897 -0.10661,-1.55633 0.31925,-0.31925 1.07011,-0.31731 1.33633,0.004 0.23998,0.28916 0.27837,1.2516 0.0585,1.46666 -0.30188,0.29528 -0.93293,0.33751 -1.28823,0.0862 z m 5.49955,0.073 c -0.74391,-0.22856 -1.5387,-1.10527 -1.84904,-2.0396 -0.37172,-1.11915 -0.26861,-3.26608 0.20035,-4.17177 0.74905,-1.44663 2.26701,-2.16143 3.806,-1.79223 1.09197,0.26196 1.57284,0.67384 1.57284,1.3472 0,0.64387 -0.16788,0.66715 -1.02116,0.1416 -1.11664,-0.68776 -2.48254,-0.41756 -3.00596,0.59464 -0.34144,0.66025 -0.4568,2.36629 -0.21937,3.24399 0.28025,1.03597 0.90656,1.58546 1.80713,1.58546 0.72319,0 1.47427,-0.28262 2.01692,-0.75893 0.24727,-0.21704 0.30351,-0.2197 0.42962,-0.0203 0.58655,0.92731 -0.50671,1.87437 -2.27805,1.97343 -0.52234,0.0292 -1.17902,-0.0173 -1.45928,-0.10346 z m 6.0102,-0.0611 c -0.87012,-0.32321 -1.17153,-0.77455 -0.93278,-1.39676 0.0767,-0.19999 0.21379,-0.17834 0.90334,0.14272 1.15805,0.53918 2.39644,0.47203 2.81351,-0.15256 0.21874,-0.3276 0.1216,-1.14408 -0.16722,-1.40545 -0.15809,-0.14308 -0.74134,-0.44304 -1.29608,-0.66659 -1.20961,-0.48743 -1.82468,-1.03092 -2.03012,-1.79388 -0.50249,-1.86612 1.44765,-3.25025 3.66938,-2.60438 0.83523,0.24281 1.04397,0.45038 1.04397,1.03813 0,0.43927 -0.21938,0.49161 -0.8057,0.19223 -1.19393,-0.60962 -2.65053,-0.19922 -2.65053,0.7468 0,0.55089 0.30129,0.80388 1.73255,1.4548 1.50052,0.68243 2.03788,1.28096 2.03788,2.26986 0,0.8558 -0.40088,1.57416 -1.11215,1.9929 -0.67358,0.39655 -2.36949,0.49292 -3.20605,0.18218 z m 15.35263,-5.70337 0.0412,-5.77347 0.62841,0 0.6284,0 0.0786,3.43821 0.0786,3.4382 0.69299,-0.76748 c 2.17742,-2.41147 2.36726,-2.57415 3.00388,-2.57415 0.33268,0 0.65071,0.0742 0.70673,0.16482 0.056,0.0906 -0.58414,0.86305 -1.42259,1.71646 l -1.52447,1.55164 1.66277,2.15522 c 0.91452,1.18537 1.62539,2.2157 1.5797,2.28962 -0.0457,0.0739 -0.39019,0.1344 -0.76557,0.1344 l -0.6825,0 -1.62547,-2.13028 -1.62547,-2.13028 -0.0437,2.13028 -0.0437,2.13028 -0.70446,0 -0.70446,0 0.0412,-5.77347 z m -16.1795,-18.36534 -9.93665,-5.74588 0,-11.51526 0,-11.51526 10.0152,5.78174 10.01521,5.78173 0.0403,11.48545 c 0.0222,6.317 -0.0132,11.48273 -0.0786,11.4794 -0.0654,-0.003 -4.59034,-2.59169 -10.0555,-5.75192 z m 12.52883,-5.66344 0,-11.44443 9.92276,-5.73039 c 5.45752,-3.15172 10.01739,-5.78693 10.13303,-5.85603 0.17486,-0.10447 0.21027,1.81544 0.21027,11.39959 l 0,11.52522 -9.91808,5.72445 c -5.45494,3.14844 -10.0148,5.74731 -10.13303,5.77524 -0.18036,0.0426 -0.21495,-1.79062 -0.21495,-11.39365 z m -11.23273,-19.38096 c -5.52998,-3.19462 -10.07463,-5.86741 -10.09924,-5.93954 -0.0467,-0.13695 8.41077,-5.09254 8.68532,-5.08908 0.1574,0.002 20.00133,11.43185 20.23099,11.65281 0.0915,0.088 -8.55342,5.22994 -8.72858,5.19164 -0.0187,-0.004 -4.55853,-2.62122 -10.08849,-5.81583 z m 11.16497,-6.5969 c -5.52403,-3.1945 -10.06809,-5.83259 -10.0979,-5.8624 -0.0298,-0.0298 1.9943,-1.23499 4.49805,-2.67816 l 4.55225,-2.62396 10.02303,5.79152 c 5.51267,3.18533 10.02303,5.8863 10.02303,6.00215 0,0.20875 -8.45127,5.19909 -8.78246,5.18591 -0.0948,-0.004 -4.69197,-2.62055 -10.216,-5.81506 z" fill="#00bcf2" transform="translate(166.334 -510.168)"/>
</svg>
