<svg xmlns:dc="http://purl.org/dc/elements/1.1/" xmlns:cc="http://creativecommons.org/ns#" xmlns:rdf="http://www.w3.org/1999/02/22-rdf-syntax-ns#" xmlns="http://www.w3.org/2000/svg" width="43.922" height="70.001">
    <metadata>
        <rdf:RDF>
            <cc:Work>
                <dc:subject>
                    Miscellaneous
                </dc:subject>
                <dc:identifier>
                    enterprise
                </dc:identifier>
                <dc:title>
                    Enterprise
                </dc:title>
                <dc:format>
                    image/svg+xml
                </dc:format>
                <dc:publisher>
                    Amido Limited
                </dc:publisher>
                <dc:creator>
                    Richard Slater
                </dc:creator>
                <dc:type rdf:resource="http://purl.org/dc/dcmitype/StillImage"/>
            </cc:Work>
        </rdf:RDF>
    </metadata>
    <path d="m 792.32471,197.36188 c 7.54909,0 15.09819,0 22.64728,0 0,23.3335 0,46.6671 0,70.0006 -7.54909,0 -15.09819,0 -22.64728,0 0,-23.3335 0,-46.6671 0,-70.0006 z m 9.47068,50.7848 c -1.96734,0 -3.93468,0 -5.90202,0 0,1.9673 0,3.9347 0,5.902 1.96734,0 3.93468,0 5.90202,0 0,-1.9673 0,-3.9347 0,-5.902 z m 9.12754,0 c -1.96734,0 -3.93468,0 -5.90202,0 0,1.9673 0,3.9347 0,5.902 1.96734,0 3.93468,0 5.90202,0 0,-1.9673 0,-3.9347 0,-5.902 z m -9.12754,-8.9217 c -1.96734,0 -3.93468,0 -5.90202,0 0,1.9673 0,3.9347 0,5.902 1.96734,0 3.93468,0 5.90202,0 0,-1.9673 0,-3.9347 0,-5.902 z m 9.12754,0 c -1.96734,0 -3.93468,0 -5.90202,0 0,1.9673 0,3.9347 0,5.902 1.96734,0 3.93468,0 5.90202,0 0,-1.9673 0,-3.9347 0,-5.902 z m -9.12754,-9.0589 c -1.96734,0 -3.93468,0 -5.90202,0 0,1.9673 0,3.9347 0,5.902 1.96734,0 3.93468,0 5.90202,0 0,-1.9673 0,-3.9347 0,-5.902 z m 9.12754,0 c -1.96734,0 -3.93468,0 -5.90202,0 0,1.9673 0,3.9347 0,5.902 1.96734,0 3.93468,0 5.90202,0 0,-1.9673 0,-3.9347 0,-5.902 z m -9.12754,-9.1962 c -1.96734,0 -3.93468,0 -5.90202,0 0,1.9674 0,3.9347 0,5.9021 1.96734,0 3.93468,0 5.90202,0 0,-1.9674 0,-3.9347 0,-5.9021 z m 9.12754,0 c -1.96734,0 -3.93468,0 -5.90202,0 0,1.9674 0,3.9347 0,5.9021 1.96734,0 3.93468,0 5.90202,0 0,-1.9674 0,-3.9347 0,-5.9021 z m -9.12754,-9.0589 c -1.96734,0 -3.93468,0 -5.90202,0 0,1.9674 0,3.9347 0,5.902 1.96734,0 3.93468,0 5.90202,0 0,-1.9673 0,-3.9346 0,-5.902 z m 9.12754,0 c -1.96734,0 -3.93468,0 -5.90202,0 0,1.9674 0,3.9347 0,5.902 1.96734,0 3.93468,0 5.90202,0 0,-1.9673 0,-3.9346 0,-5.902 z m -9.12754,-8.9216 c -1.96734,0 -3.93468,0 -5.90202,0 0,1.9673 0,3.9346 0,5.902 1.96734,0 3.93468,0 5.90202,0 0,-1.9674 0,-3.9347 0,-5.902 z m 9.12754,0 c -1.96734,0 -3.93468,0 -5.90202,0 0,1.9673 0,3.9346 0,5.902 1.96734,0 3.93468,0 5.90202,0 0,-1.9674 0,-3.9347 0,-5.902 z m 6.72556,17.1863 c 0.89216,-0.026 1.78433,0.026 2.67649,0 0,-2.3889 0,-4.7777 0,-7.1666 1.09805,0 2.1961,0 3.29415,0 0,-2.3334 0,-4.6667 0,-7.0001 0.77779,0 1.55557,0 2.33336,0 0,-2.1961 0,-4.3922 0,-6.5883 0.68628,0 1.37256,0 2.05884,0 0,2.1961 0,4.3922 0,6.5883 0.77779,0 1.55557,0 2.33336,0 0,2.3334 0,4.6667 0,7.0001 1.09805,0 2.1961,0 3.29415,0 0,2.3889 0,4.7777 0,7.1666 0.86929,0 1.73858,0 2.60787,0 0,15.7388 0,31.4481 0,47.1868 -6.22255,0 -12.44509,0 -18.66763,0 0.0231,-15.7158 0.0463,-31.4709 0.0694,-47.1868 z m 9.12754,22.4807 c -2.0131,0 -4.02619,0 -6.03928,0 0,1.9674 0,3.9347 0,5.902 2.01309,0 4.02618,0 6.03928,0 0,-1.9673 0,-3.9346 0,-5.902 z m 7.00007,-9.3334 c -1.96734,0 -3.93468,0 -5.90202,0 0,1.9673 0,3.9347 0,5.902 1.96734,0 3.93468,0 5.90202,0 0,-1.9673 0,-3.9347 0,-5.902 z m -7.00007,-9.1962 c -2.0131,0 -4.02619,0 -6.03928,0 0,1.9674 0,3.9347 0,5.902 2.01309,0 4.02618,0 6.03928,0 0,-1.9673 0,-3.9346 0,-5.902 z" fill="#00bcf2" transform="translate(-792.325 -197.362)"/>
</svg>
