<svg xmlns:dc="http://purl.org/dc/elements/1.1/" xmlns:cc="http://creativecommons.org/ns#" xmlns:rdf="http://www.w3.org/1999/02/22-rdf-syntax-ns#" xmlns="http://www.w3.org/2000/svg" width="70" height="42.927">
    <metadata>
        <rdf:RDF>
            <cc:Work>
                <dc:subject>
                    Network
                </dc:subject>
                <dc:identifier>
                    express-route
                </dc:identifier>
                <dc:title>
                    Express Route
                </dc:title>
                <dc:format>
                    image/svg+xml
                </dc:format>
                <dc:publisher>
                    Amido Limited
                </dc:publisher>
                <dc:creator>
                    Richard Slater
                </dc:creator>
                <dc:type rdf:resource="http://purl.org/dc/dcmitype/StillImage"/>
            </cc:Work>
        </rdf:RDF>
    </metadata>
    <path d="m -22.741886,558.61902 c -3.0034,-0.4424 -5.5297,-2.5061 -6.541,-5.3432 -0.3976,-1.1156 -0.4885,-2.9989 -0.2032,-4.2119 0.697,-2.9635 2.9925,-5.2586 5.9569,-5.9559 1.204,-0.2831 3.0862,-0.1883 4.2165,0.2126 l 0.8204,0.291 8.3545,-8.3544 8.3543998,-8.3544 -0.2862,-0.8495 c -0.9518,-2.8252 -0.1953,-5.9179 1.9705,-8.0557 3.8495,-3.7998 10.1752002,-2.7096 12.5703002,2.1664 0.8791,1.7896 1.0218,3.8089 0.4095,5.7915 l -0.291,0.9421 8.308,8.3081 8.3081,8.3081 0.9148,-0.3003 c 5.0458,-1.6564 10.2168,2.1543 10.2273,7.537 0,2.0904 -0.7456,3.8905 -2.2635,5.4348 -3.128,3.1825 -7.9642,3.1819 -11.1325,0 -0.6423,-0.6453 -1.108,-1.2652 -1.3731,-1.8278 l -0.4011,-0.8512 -19.8133002,-0.01 -19.8133998,-0.01 -0.2119,0.5072 c -0.8443,2.0206 -3.0885,3.8988 -5.2663,4.4073 -0.7716,0.1802 -2.2691,0.2937 -2.8147,0.2133 z m 1.74,-5.4625 c 0.4759,-0.1001 1.163,-0.6827 1.4424,-1.2229 0.1212,-0.2344 0.2249,-0.7396 0.2305,-1.1226 0.027,-1.8748 -1.9488,-3.1149 -3.6114,-2.2667 -2.0918,1.0671 -1.6962,4.1461 0.6008,4.6772 0.4162,0.096 0.6186,0.086 1.3377,-0.065 z m 54.5712,-0.2027 c 1.7467,-0.7932 1.9288,-3.2935 0.3176,-4.3598 -0.4377,-0.2896 -0.7174,-0.3661 -1.336,-0.3656 -1.5057,0 -2.5039,0.949 -2.5239,2.396 -0.026,1.9119 1.8069,3.1175 3.5423,2.3294 z m -8.3128,-5.2484 c 0.1451,-0.2712 -0.4787,-0.9294 -8.1823,-8.6338 l -8.3393002,-8.3402 -0.7556,0.2656 c -1.5881,0.5582 -3.5615,0.5573 -5.1537,0 l -0.7491,-0.2633 -8.3244,8.3252 c -4.5783998,4.5789 -8.3243998,8.4229 -8.3243998,8.5422 0,0.1193 0.041,0.2582 0.092,0.3085 0.05,0.05 8.9763998,0.092 19.8357998,0.092 l 19.7443002,0 0.1571,-0.2936 z M 6.4806138,525.84272 c 1.3339,-0.5573 1.8478,-2.4333 1.008,-3.6794 -0.5047,-0.749 -1.2486,-1.0954 -2.2381,-1.0421 -1.0179,0.055 -1.7261,0.5192 -2.1223,1.3916 -0.4341,0.9559 -0.2568,2.0286 0.4647,2.812 0.6241,0.6775 1.9406,0.9137 2.8877,0.5179 z" fill="#00bcf2" transform="translate(29.652 -515.714)"/>
</svg>
