<svg xmlns:dc="http://purl.org/dc/elements/1.1/" xmlns:cc="http://creativecommons.org/ns#" xmlns:rdf="http://www.w3.org/1999/02/22-rdf-syntax-ns#" xmlns="http://www.w3.org/2000/svg" width="70" height="69.959">
    <metadata>
        <rdf:RDF>
            <cc:Work>
                <dc:subject>
                    Code
                </dc:subject>
                <dc:identifier>
                    git-deployment
                </dc:identifier>
                <dc:title>
                    Git Deployment
                </dc:title>
                <dc:format>
                    image/svg+xml
                </dc:format>
                <dc:publisher>
                    Amido Limited
                </dc:publisher>
                <dc:creator>
                    Richard Slater
                </dc:creator>
                <dc:type rdf:resource="http://purl.org/dc/dcmitype/StillImage"/>
            </cc:Work>
        </rdf:RDF>
    </metadata>
    <path d="m -297.89582,653.48578 c -0.70477,-0.2639 -1.81963,-1.3475 -16.6986,-16.2292 -12.77189,-12.7743 -16.00556,-16.0791 -16.25576,-16.6134 -0.73765,-1.5751 -0.43637,-3.3688 0.81767,-4.8682 0.35924,-0.4295 5.26957,-5.3489 10.91186,-10.932 l 10.2587,-10.1512 3.92548,3.9255 3.92549,3.9255 -0.17772,0.8374 c -0.48844,2.3017 0.61418,4.7002 2.65952,5.7852 l 0.63336,0.336 0,9.6453 0,9.6452 -0.60396,0.2839 c -1.44669,0.68 -2.65898,2.49 -2.79395,4.1714 -0.21337,2.6581 1.39745,4.907 4.0065,5.5935 1.15363,0.3036 1.3096,0.3065 2.34895,0.043 3.25228,-0.8237 4.9253,-4.0204 3.74918,-7.1639 -0.30047,-0.8031 -1.27265,-1.9629 -2.06418,-2.4625 l -0.52338,-0.3304 0,-9.4724 c 0,-5.2098 0.0468,-9.4723 0.10395,-9.4723 0.0572,0 1.73276,1.6296 3.72353,3.6215 l 3.61959,3.6215 -0.15855,0.4804 c -0.22725,0.6886 -0.20752,2.1643 0.0403,3.0169 0.45289,1.5579 1.91675,3.0066 3.51828,3.4819 0.52821,0.1568 1.09168,0.2067 1.87484,0.1661 2.5075,-0.1299 4.34687,-1.7956 4.87241,-4.4124 0.29946,-1.4912 -0.37729,-3.4559 -1.58102,-4.59 -1.36324,-1.2844 -3.03578,-1.7678 -4.6978,-1.3576 l -0.94366,0.2329 -3.82546,-3.8255 -3.82546,-3.8255 0.17544,-1.044 c 0.54276,-3.2302 -1.63838,-6.0775 -4.78865,-6.2514 -0.54986,-0.03 -1.28739,0.017 -1.63895,0.1058 l -0.63921,0.161 -3.94891,-3.956 -3.94891,-3.9559 3.46609,-3.5305 c 4.01162,-4.0861 4.30864,-4.2941 6.13062,-4.2941 2.04754,0 0.7538,-1.1613 18.47566,16.5835 12.64456,12.661 15.86435,15.9558 16.12952,16.5053 0.4765,0.9874 0.52804,2.3468 0.13014,3.4326 -0.29292,0.7993 -0.77857,1.3005 -16.31719,16.8391 -15.35028,15.3503 -16.04829,16.0274 -16.80994,16.3051 -1.0232,0.373 -2.24737,0.3703 -3.25586,-0.01 z" fill="#00bcf2" transform="translate(331.247 -583.812)"/>
</svg>
