<svg xmlns:dc="http://purl.org/dc/elements/1.1/" xmlns:cc="http://creativecommons.org/ns#" xmlns:rdf="http://www.w3.org/1999/02/22-rdf-syntax-ns#" xmlns="http://www.w3.org/2000/svg" width="51.824" height="70">
    <metadata>
        <rdf:RDF>
            <cc:Work>
                <dc:subject>
                    Network
                </dc:subject>
                <dc:identifier>
                    load-balancer-generic
                </dc:identifier>
                <dc:title>
                    Load Balancer (Generic)
                </dc:title>
                <dc:format>
                    image/svg+xml
                </dc:format>
                <dc:publisher>
                    Amido Limited
                </dc:publisher>
                <dc:creator>
                    Richard Slater
                </dc:creator>
                <dc:type rdf:resource="http://purl.org/dc/dcmitype/StillImage"/>
            </cc:Work>
        </rdf:RDF>
    </metadata>
    <path d="m -120.57003,576.69726 c -4.68776,-4.7059 -5.37891,-5.45305 -5.45864,-5.90088 -0.27751,-1.55872 1.03358,-2.80975 2.63066,-2.51014 0.43427,0.0815 0.95507,0.53444 3.36329,2.92526 l 2.84945,2.82886 0,-16.39702 0,-16.39701 -8.10014,8.09891 -8.10013,8.09891 3.87886,0.0686 c 3.79956,0.0672 3.88972,0.0754 4.40987,0.39873 0.55901,0.3475 1.04165,1.18046 1.04165,1.7977 0,0.61725 -0.48264,1.45021 -1.04165,1.79771 l -0.531,0.33009 -7.55024,0 -7.55024,0 0,-7.6432 c 0,-7.50548 0.005,-7.65003 0.28303,-8.02223 0.533,-0.71376 0.97862,-0.9451 1.82051,-0.9451 0.58628,0 0.88558,0.0758 1.2085,0.30617 0.83504,0.59564 0.87491,0.82969 0.87491,5.13666 l 0,3.89128 9.67803,-9.6773 9.67804,-9.67731 0,-5.05017 0,-5.05018 -0.58343,-0.25188 c -1.13082,-0.4882 -2.41126,-1.63266 -3.0862,-2.75846 -0.91295,-1.5228 -1.13235,-3.8122 -0.52911,-5.52132 1.36219,-3.85946 5.88753,-5.63009 9.47181,-3.70604 0.91408,0.49067 2.31059,1.89312 2.75148,2.76319 1.68662,3.32838 0.4528,7.28077 -2.80769,8.99411 l -0.96127,0.50513 0,5.0378 0,5.03781 9.88395,9.88323 9.88395,9.88324 0,-4.09927 c 0,-3.92096 0.0126,-4.12176 0.29074,-4.61656 0.57825,-1.02885 1.95815,-1.4061 2.87738,-0.78663 0.25476,0.17168 0.60417,0.52135 0.77648,0.77704 l 0.31329,0.46489 -0.0355,7.56255 -0.0355,7.56255 -7.06977,0.0401 c -3.88837,0.0221 -7.33712,0.002 -7.66389,-0.0443 -0.41146,-0.0585 -0.75925,-0.23364 -1.13123,-0.5697 -1.19133,-1.07631 -0.95577,-2.5208 0.59321,-3.6375 0.0187,-0.0134 1.71765,-0.0598 3.77554,-0.10295 l 3.74161,-0.0785 -8.10016,-8.09892 -8.10016,-8.09891 0,16.33425 0,16.33425 2.71122,-2.70334 c 1.49117,-1.48684 2.88512,-2.76808 3.09767,-2.84721 0.92476,-0.34428 1.96789,-0.008 2.53069,0.817 0.38011,0.55686 0.4235,1.6875 0.0844,2.20027 -0.24224,0.36636 -10.50237,10.70384 -10.62374,10.70384 -0.0403,0 -2.48858,-2.42465 -5.44063,-5.38812 z" fill="#00bcf2" transform="translate(140.728 -512.085)"/>
</svg>
