<?xml version="1.0" encoding="UTF-8" standalone="no"?>
<!-- Created with Inkscape (http://www.inkscape.org/) -->

<svg
   xmlns:dc="http://purl.org/dc/elements/1.1/"
   xmlns:cc="http://creativecommons.org/ns#"
   xmlns:rdf="http://www.w3.org/1999/02/22-rdf-syntax-ns#"
   xmlns:svg="http://www.w3.org/2000/svg"
   xmlns="http://www.w3.org/2000/svg"
   xmlns:sodipodi="http://sodipodi.sourceforge.net/DTD/sodipodi-0.dtd"
   xmlns:inkscape="http://www.inkscape.org/namespaces/inkscape"
   width="72.067299"
   height="54.050499"
   id="svg3146"
   version="1.1"
   inkscape:version="0.48.4 r9939"
   sodipodi:docname="SSS.svg">
  <defs
     id="defs3148" />
  <sodipodi:namedview
     id="base"
     pagecolor="#ffffff"
     bordercolor="#666666"
     borderopacity="1.0"
     inkscape:pageopacity="0.0"
     inkscape:pageshadow="2"
     inkscape:zoom="0.35"
     inkscape:cx="36.842613"
     inkscape:cy="-162.46139"
     inkscape:document-units="px"
     inkscape:current-layer="layer1"
     showgrid="false"
     fit-margin-top="0"
     fit-margin-left="0"
     fit-margin-right="0"
     fit-margin-bottom="0"
     inkscape:window-width="463"
     inkscape:window-height="401"
     inkscape:window-x="654"
     inkscape:window-y="197"
     inkscape:window-maximized="0" />
  <metadata
     id="metadata3151">
    <rdf:RDF>
      <cc:Work
         rdf:about="">
        <dc:format>image/svg+xml</dc:format>
        <dc:type
           rdf:resource="http://purl.org/dc/dcmitype/StillImage" />
        <dc:title></dc:title>
      </cc:Work>
    </rdf:RDF>
  </metadata>
  <g
     inkscape:label="Layer 1"
     inkscape:groupmode="layer"
     id="layer1"
     transform="translate(-338.15739,-315.85029)">
    <path
       style="fill:#2986bf;fill-opacity:1;stroke:none"
       d="m 346.16487,315.85029 c -4.43614,0 -8.00748,3.5714 -8.00748,8.0075 l 0,38.0355 c 0,4.4362 3.57134,8.0075 8.00748,8.0075 l 56.05234,0 c 4.43614,0 8.00748,-3.5713 8.00748,-8.0075 l 0,-38.0355 c 0,-4.4361 -3.57134,-8.0075 -8.00748,-8.0075 l -56.05234,0 z m 0,4.0038 56.05234,0 c 2.21807,0 4.00374,1.7856 4.00374,4.0037 l 0,38.0355 c 0,2.2181 -1.78567,4.0038 -4.00374,4.0038 l -56.05234,0 c -2.21807,0 -4.00374,-1.7857 -4.00374,-4.0038 l 0,-38.0355 c 0,-2.2181 1.78567,-4.0037 4.00374,-4.0037 z m 0,4.0037 0,38.0355 12.01121,0 0,-38.0355 -12.01121,0 z m 16.01495,0 0,10.0094 40.03739,0 0,-10.0094 -40.03739,0 z m 5.00468,2.0019 c 1.65841,0 3.0028,1.3444 3.0028,3.0028 0,1.6584 -1.34439,3.0028 -3.0028,3.0028 -1.65841,0 -3.00281,-1.3444 -3.00281,-3.0028 0,-1.6584 1.3444,-3.0028 3.00281,-3.0028 z m 10.0719,0 c 1.65841,0 3.00281,1.3444 3.00281,3.0028 0,1.6584 -1.3444,3.0028 -3.00281,3.0028 -1.65841,0 -3.0028,-1.3444 -3.0028,-3.0028 0,-1.6584 1.34439,-3.0028 3.0028,-3.0028 z m 10.00935,0 c 1.65841,0 3.0028,1.3444 3.0028,3.0028 0,1.6584 -1.34439,3.0028 -3.0028,3.0028 -1.65841,0 -3.00281,-1.3444 -3.00281,-3.0028 0,-1.6584 1.3444,-3.0028 3.00281,-3.0028 z m 10.00935,0 c 1.6584,0 3.0028,1.3444 3.0028,3.0028 0,1.6584 -1.3444,3.0028 -3.0028,3.0028 -1.65841,0 -3.00281,-1.3444 -3.00281,-3.0028 0,-1.6584 1.3444,-3.0028 3.00281,-3.0028 z m -35.09528,12.0112 0,24.0224 4.00374,0 0,-14.0131 2.00187,0 0,14.0131 4.00374,0 0,-20.0187 2.00187,0 0,20.0187 4.00374,0 0,-6.0056 2.00187,0 0,6.0056 4.00374,0 0,-14.0131 2.00187,0 0,14.0131 4.00373,0 0,-12.0112 2.00187,0 0,12.0112 4.00374,0 0,-18.0168 2.00187,0 0,18.0168 4.00374,0 0,-24.0224 -40.03739,0 z"
       id="rect3185"
       inkscape:connector-curvature="0" />
  </g>
</svg>
