<svg xmlns:dc="http://purl.org/dc/elements/1.1/" xmlns:cc="http://creativecommons.org/ns#" xmlns:rdf="http://www.w3.org/1999/02/22-rdf-syntax-ns#" xmlns="http://www.w3.org/2000/svg" width="72.067" height="54.05">
    <metadata>
        <rdf:RDF>
            <cc:Work>
                <dc:subject>
                    Miscellaneous
                </dc:subject>
                <dc:identifier>
                    management-service
                </dc:identifier>
                <dc:title>
                    Management Service
                </dc:title>
                <dc:format>
                    image/svg+xml
                </dc:format>
                <dc:publisher>
                    Amido Limited
                </dc:publisher>
                <dc:creator>
                    Richard Slater
                </dc:creator>
                <dc:type rdf:resource="http://purl.org/dc/dcmitype/StillImage"/>
            </cc:Work>
        </rdf:RDF>
    </metadata>
    <path d="m 346.16487,315.85029 c -4.43614,0 -8.00748,3.5714 -8.00748,8.0075 l 0,38.0355 c 0,4.4362 3.57134,8.0075 8.00748,8.0075 l 56.05234,0 c 4.43614,0 8.00748,-3.5713 8.00748,-8.0075 l 0,-38.0355 c 0,-4.4361 -3.57134,-8.0075 -8.00748,-8.0075 l -56.05234,0 z m 0,4.0038 56.05234,0 c 2.21807,0 4.00374,1.7856 4.00374,4.0037 l 0,38.0355 c 0,2.2181 -1.78567,4.0038 -4.00374,4.0038 l -56.05234,0 c -2.21807,0 -4.00374,-1.7857 -4.00374,-4.0038 l 0,-38.0355 c 0,-2.2181 1.78567,-4.0037 4.00374,-4.0037 z m 0,4.0037 0,38.0355 12.01121,0 0,-38.0355 -12.01121,0 z m 16.01495,0 0,10.0094 40.03739,0 0,-10.0094 -40.03739,0 z m 5.00468,2.0019 c 1.65841,0 3.0028,1.3444 3.0028,3.0028 0,1.6584 -1.34439,3.0028 -3.0028,3.0028 -1.65841,0 -3.00281,-1.3444 -3.00281,-3.0028 0,-1.6584 1.3444,-3.0028 3.00281,-3.0028 z m 10.0719,0 c 1.65841,0 3.00281,1.3444 3.00281,3.0028 0,1.6584 -1.3444,3.0028 -3.00281,3.0028 -1.65841,0 -3.0028,-1.3444 -3.0028,-3.0028 0,-1.6584 1.34439,-3.0028 3.0028,-3.0028 z m 10.00935,0 c 1.65841,0 3.0028,1.3444 3.0028,3.0028 0,1.6584 -1.34439,3.0028 -3.0028,3.0028 -1.65841,0 -3.00281,-1.3444 -3.00281,-3.0028 0,-1.6584 1.3444,-3.0028 3.00281,-3.0028 z m 10.00935,0 c 1.6584,0 3.0028,1.3444 3.0028,3.0028 0,1.6584 -1.3444,3.0028 -3.0028,3.0028 -1.65841,0 -3.00281,-1.3444 -3.00281,-3.0028 0,-1.6584 1.3444,-3.0028 3.00281,-3.0028 z m -35.09528,12.0112 0,24.0224 4.00374,0 0,-14.0131 2.00187,0 0,14.0131 4.00374,0 0,-20.0187 2.00187,0 0,20.0187 4.00374,0 0,-6.0056 2.00187,0 0,6.0056 4.00374,0 0,-14.0131 2.00187,0 0,14.0131 4.00373,0 0,-12.0112 2.00187,0 0,12.0112 4.00374,0 0,-18.0168 2.00187,0 0,18.0168 4.00374,0 0,-24.0224 -40.03739,0 z" fill="#00bcf2" transform="translate(-338.157 -315.85)"/>
</svg>
