<?xml version="1.0" encoding="UTF-8" standalone="no"?>
<!-- Created with Inkscape (http://www.inkscape.org/) -->

<svg
   xmlns:dc="http://purl.org/dc/elements/1.1/"
   xmlns:cc="http://creativecommons.org/ns#"
   xmlns:rdf="http://www.w3.org/1999/02/22-rdf-syntax-ns#"
   xmlns:svg="http://www.w3.org/2000/svg"
   xmlns="http://www.w3.org/2000/svg"
   xmlns:sodipodi="http://sodipodi.sourceforge.net/DTD/sodipodi-0.dtd"
   xmlns:inkscape="http://www.inkscape.org/namespaces/inkscape"
   width="62.057961"
   height="69.815201"
   id="svg3146"
   version="1.1"
   inkscape:version="0.48.4 r9939"
   sodipodi:docname="SSS.svg">
  <defs
     id="defs3148" />
  <sodipodi:namedview
     id="base"
     pagecolor="#ffffff"
     bordercolor="#666666"
     borderopacity="1.0"
     inkscape:pageopacity="0.0"
     inkscape:pageshadow="2"
     inkscape:zoom="0.35"
     inkscape:cx="31.028983"
     inkscape:cy="34.907602"
     inkscape:document-units="px"
     inkscape:current-layer="layer1"
     showgrid="false"
     fit-margin-top="0"
     fit-margin-left="0"
     fit-margin-right="0"
     fit-margin-bottom="0"
     inkscape:window-width="463"
     inkscape:window-height="401"
     inkscape:window-x="654"
     inkscape:window-y="197"
     inkscape:window-maximized="0" />
  <metadata
     id="metadata3151">
    <rdf:RDF>
      <cc:Work
         rdf:about="">
        <dc:format>image/svg+xml</dc:format>
        <dc:type
           rdf:resource="http://purl.org/dc/dcmitype/StillImage" />
        <dc:title></dc:title>
      </cc:Work>
    </rdf:RDF>
  </metadata>
  <g
     inkscape:label="Layer 1"
     inkscape:groupmode="layer"
     id="layer1"
     transform="translate(-343.97102,-497.45458)">
    <path
       style="fill:#00bcf2;fill-opacity:1;stroke:none"
       d="m 376.00093,497.45458 -32.02991,18.01683 0,14.01308 6.00561,0 c 14.01309,-30.02804 38.03552,-30.02804 50.04674,0 l 6.00561,0 0,-14.01308 -30.02805,-18.01683 z M 375,515.47141 c -9.39762,0 -17.01589,7.61827 -17.01589,17.01589 0,9.39761 7.61827,17.01589 17.01589,17.01589 9.39761,0 17.01589,-7.61828 17.01589,-17.01589 0,-9.39762 -7.61828,-17.01589 -17.01589,-17.01589 z m -5.06723,7.88236 16.70309,10.00934 -16.70309,10.00935 0,-20.01869 z m -25.96175,14.01308 0,13.13727 32.02991,16.76566 30.02805,-16.76566 0,-13.13727 -6.00561,0 c -12.01122,28.03104 -36.03365,28.03104 -50.04674,0 l -6.00561,0 z"
       id="path3955"
       inkscape:connector-curvature="0" />
  </g>
</svg>
