<?xml version="1.0" encoding="UTF-8" standalone="no"?>
<!-- Created with Inkscape (http://www.inkscape.org/) -->

<svg
   xmlns:dc="http://purl.org/dc/elements/1.1/"
   xmlns:cc="http://creativecommons.org/ns#"
   xmlns:rdf="http://www.w3.org/1999/02/22-rdf-syntax-ns#"
   xmlns:svg="http://www.w3.org/2000/svg"
   xmlns="http://www.w3.org/2000/svg"
   xmlns:sodipodi="http://sodipodi.sourceforge.net/DTD/sodipodi-0.dtd"
   xmlns:inkscape="http://www.inkscape.org/namespaces/inkscape"
   width="50.046741"
   height="74.069092"
   id="svg3146"
   version="1.1"
   inkscape:version="0.48.4 r9939"
   sodipodi:docname="SSS.svg">
  <defs
     id="defs3148" />
  <sodipodi:namedview
     id="base"
     pagecolor="#ffffff"
     bordercolor="#666666"
     borderopacity="1.0"
     inkscape:pageopacity="0.0"
     inkscape:pageshadow="2"
     inkscape:zoom="0.35"
     inkscape:cx="-65.954767"
     inkscape:cy="-94.127636"
     inkscape:document-units="px"
     inkscape:current-layer="layer1"
     showgrid="false"
     fit-margin-top="0"
     fit-margin-left="0"
     fit-margin-right="0"
     fit-margin-bottom="0"
     inkscape:window-width="463"
     inkscape:window-height="401"
     inkscape:window-x="654"
     inkscape:window-y="197"
     inkscape:window-maximized="0" />
  <metadata
     id="metadata3151">
    <rdf:RDF>
      <cc:Work
         rdf:about="">
        <dc:format>image/svg+xml</dc:format>
        <dc:type
           rdf:resource="http://purl.org/dc/dcmitype/StillImage" />
        <dc:title></dc:title>
      </cc:Work>
    </rdf:RDF>
  </metadata>
  <g
     inkscape:label="Layer 1"
     inkscape:groupmode="layer"
     id="layer1"
     transform="translate(-440.95477,-364.16545)">
    <path
       style="fill:#00bcf2;fill-opacity:1;stroke:none"
       d="m 445.14618,364.16545 c -2.32897,0 -4.19141,1.8624 -4.19141,4.1914 l 0,65.6238 c 0,2.32889 1.86244,4.25389 4.19141,4.25389 l 41.66391,0 c 2.32898,0 4.19142,-1.925 4.19142,-4.25389 l 0,-65.6238 c 0,-2.329 -1.86244,-4.1914 -4.19142,-4.1914 l -41.66391,0 z m 11.82355,4.0037 18.01682,0 0,2.0019 -18.01682,0 0,-2.0019 z m -12.01122,6.0056 42.03926,0 0,52.0486 -42.03926,0 0,-52.0486 z m 20.89451,14.5136 -10.88516,5.5051 10.88516,6.5061 11.1354,-6.5061 -11.1354,-5.5051 z m -10.88516,7.507 0,12.0112 10.00934,6.0056 0,-12.0112 -10.00934,-6.0056 z m 22.02056,0.062 -10.00935,6.0057 0,12.0112 10.00935,-6.0056 0,-12.0113 z m -18.01682,33.9693 14.01308,0 0,4.0037 -14.01308,0 0,-4.0037 z"
       id="rect3121"
       inkscape:connector-curvature="0" />
  </g>
</svg>
