<svg xmlns:dc="http://purl.org/dc/elements/1.1/" xmlns:cc="http://creativecommons.org/ns#" xmlns:rdf="http://www.w3.org/1999/02/22-rdf-syntax-ns#" xmlns="http://www.w3.org/2000/svg" width="50.047" height="74.069">
    <metadata>
        <rdf:RDF>
            <cc:Work>
                <dc:subject>
                    Compute
                </dc:subject>
                <dc:identifier>
                    mobile-services
                </dc:identifier>
                <dc:title>
                    Mobile Services
                </dc:title>
                <dc:format>
                    image/svg+xml
                </dc:format>
                <dc:publisher>
                    Amido Limited
                </dc:publisher>
                <dc:creator>
                    Richard Slater
                </dc:creator>
                <dc:type rdf:resource="http://purl.org/dc/dcmitype/StillImage"/>
            </cc:Work>
        </rdf:RDF>
    </metadata>
    <path d="m 445.14618,364.16545 c -2.32897,0 -4.19141,1.8624 -4.19141,4.1914 l 0,65.6238 c 0,2.32889 1.86244,4.25389 4.19141,4.25389 l 41.66391,0 c 2.32898,0 4.19142,-1.925 4.19142,-4.25389 l 0,-65.6238 c 0,-2.329 -1.86244,-4.1914 -4.19142,-4.1914 l -41.66391,0 z m 11.82355,4.0037 18.01682,0 0,2.0019 -18.01682,0 0,-2.0019 z m -12.01122,6.0056 42.03926,0 0,52.0486 -42.03926,0 0,-52.0486 z m 20.89451,14.5136 -10.88516,5.5051 10.88516,6.5061 11.1354,-6.5061 -11.1354,-5.5051 z m -10.88516,7.507 0,12.0112 10.00934,6.0056 0,-12.0112 -10.00934,-6.0056 z m 22.02056,0.062 -10.00935,6.0057 0,12.0112 10.00935,-6.0056 0,-12.0113 z m -18.01682,33.9693 14.01308,0 0,4.0037 -14.01308,0 0,-4.0037 z" fill="#00bcf2" transform="translate(-440.955 -364.165)"/>
</svg>
