<svg xmlns:dc="http://purl.org/dc/elements/1.1/" xmlns:cc="http://creativecommons.org/ns#" xmlns:rdf="http://www.w3.org/1999/02/22-rdf-syntax-ns#" xmlns="http://www.w3.org/2000/svg" width="51.756" height="70">
    <metadata>
        <rdf:RDF>
            <cc:Work>
                <dc:subject>
                    Data
                </dc:subject>
                <dc:identifier>
                    mysql-database
                </dc:identifier>
                <dc:title>
                    MySQL Database
                </dc:title>
                <dc:format>
                    image/svg+xml
                </dc:format>
                <dc:publisher>
                    Amido Limited
                </dc:publisher>
                <dc:creator>
                    Richard Slater
                </dc:creator>
                <dc:type rdf:resource="http://purl.org/dc/dcmitype/StillImage"/>
            </cc:Work>
        </rdf:RDF>
    </metadata>
    <path d="m -67.406406,538.07743 c -0.2647,-0.0302 -1.0691,-0.12027 -1.7876,-0.20021 -6.0416,-0.67227 -11.714,-2.53145 -15.8138,-5.18313 -1.5028,-0.97196 -3.3696,-2.85578 -3.9191,-3.95479 l -0.4125,-0.82507 -0.036,-25.18995 c -0.035,-24.92421 -0.033,-25.19766 0.24,-25.92092 1.2438,-3.29606 7.2858,-6.43815 15.1284,-7.86732 3.7431,-0.68212 5.5332,-0.82674 10.3133,-0.83324 4.5553,-0.006 5.7833,0.0779 9.1446,0.62625 4.0338,0.65805 7.7625,1.76193 10.6247,3.14544 3.0535,1.47595 4.9883,3.10155 5.8455,4.91131 l 0.4437,0.93674 0,24.95833 c 0,24.14181 -0.01,24.98082 -0.26,25.6459 -1.2752,3.37285 -6.403,6.56077 -13.4928,8.3884 -3.9318,1.01356 -6.4342,1.31408 -11.4118,1.37043 -2.269,0.0257 -4.342,0.022 -4.6067,-0.008 z m 21.351,-20.7286 c 1.8314,-0.52417 3.1733,-1.56169 3.5859,-2.77262 0.1983,-0.58212 0.2277,-1.4461 0.2277,-6.6944 l 0,-6.02601 -2.5417,0 -2.5417,0 -0.037,3.67844 -0.037,3.67843 -2.69,-0.01 c -1.4795,-0.005 -2.7944,-0.0498 -2.9221,-0.0988 -0.2097,-0.0804 -0.2322,-0.43626 -0.2322,-3.66869 l 0,-3.57962 -3.4721,0.004 -3.4722,0.004 0.6526,0.37421 0.6526,0.37421 0,3.37845 c 0,3.84757 0.092,4.37914 0.9217,5.34815 0.6755,0.78917 2.0761,1.4425 3.5236,1.6436 0.5916,0.0822 2.0248,0.14943 3.1849,0.14943 1.7085,0 2.2737,-0.0512 2.975,-0.26947 0.4762,-0.14821 0.8901,-0.24517 0.9198,-0.21548 0.03,0.0297 -0.019,0.27452 -0.1078,0.54407 -0.3039,0.9208 -0.191,0.90345 -5.878,0.90345 l -5.1261,0 0,1.80026 0,1.80024 5.8099,-0.0595 c 4.8605,-0.0498 5.9394,-0.0966 6.6028,-0.28648 z m -24.6888,-4.40431 c 0.3894,-0.19735 0.8659,-0.56581 1.0589,-0.81879 0.193,-0.25299 1.0368,-1.97106 1.8751,-3.81795 0.8383,-1.84688 1.5815,-3.41675 1.6516,-3.4886 0.078,-0.0802 0.1273,1.52506 0.1273,4.15972 l 0,4.29035 2.544,0 2.544,0 0,-5.77548 c 0,-4.52292 0.037,-5.77783 0.1719,-5.78633 0.1375,-0.009 0.1375,-0.0247 0,-0.0802 -0.1206,-0.0487 -0.1728,-0.46626 -0.175,-1.39864 0,-1.5523 -0.2263,-2.18811 -1.0073,-2.87379 -1.0188,-0.89453 -3.7205,-1.22888 -5.0616,-0.6264 -1.3866,0.6229 -1.5894,0.9788 -5.254,9.21838 -0.3112,0.69959 -0.606,1.27198 -0.6551,1.27198 -0.049,0 -0.8775,-1.84093 -1.8408,-4.09097 -2.0997,-4.90432 -2.1398,-4.98594 -2.7514,-5.59753 -0.9702,-0.97024 -2.1085,-1.27605 -3.8488,-1.034 -1.4993,0.20852 -2.2515,0.59877 -2.6455,1.37241 l -0.3094,0.60763 0,7.39648 0,7.39648 2.3377,0 2.3377,0 0,-4.29035 c 0,-2.55609 0.05,-4.23755 0.1241,-4.15972 0.068,0.0719 0.7531,1.52293 1.5219,3.22464 1.6516,3.65585 1.9163,4.13408 2.5609,4.6257 1.084,0.8268 3.3436,0.95918 4.6938,0.275 z m 11.2447,-30.07121 c 6.4813,-0.47906 11.6041,-1.92526 13.4859,-3.80715 0.7998,-0.79972 1.0049,-1.46903 0.6971,-2.27488 -0.7826,-2.04915 -4.9332,-3.71751 -11.4327,-4.5954 -2.6305,-0.3553 -11.0465,-0.35411 -13.6824,0.002 -5.1138,0.69073 -8.9114,1.92553 -10.5406,3.42732 -1.052,0.96969 -1.2522,1.70308 -0.7393,2.70839 0.3794,0.74379 1.0914,1.29421 2.6854,2.07607 2.6442,1.29693 6.6701,2.13865 12.0323,2.51559 1.5223,0.10701 5.7397,0.0778 7.4943,-0.0519 z" fill="#00bcf2" transform="translate(89.391 -468.103)"/>
</svg>
