<?xml version="1.0" encoding="UTF-8" standalone="no"?>
<!-- Created with Inkscape (http://www.inkscape.org/) -->

<svg
   xmlns:dc="http://purl.org/dc/elements/1.1/"
   xmlns:cc="http://creativecommons.org/ns#"
   xmlns:rdf="http://www.w3.org/1999/02/22-rdf-syntax-ns#"
   xmlns:svg="http://www.w3.org/2000/svg"
   xmlns="http://www.w3.org/2000/svg"
   xmlns:sodipodi="http://sodipodi.sourceforge.net/DTD/sodipodi-0.dtd"
   xmlns:inkscape="http://www.inkscape.org/namespaces/inkscape"
   width="72"
   height="38.998356"
   id="svg3894"
   version="1.1"
   inkscape:version="0.48.4 r9939"
   sodipodi:docname="New document 3">
  <defs
     id="defs3" />
  <sodipodi:namedview
     inkscape:document-units="mm"
     id="base"
     pagecolor="#ffffff"
     bordercolor="#666666"
     borderopacity="1.0"
     inkscape:pageopacity="0.0"
     inkscape:pageshadow="2"
     inkscape:zoom="5.6"
     inkscape:cx="25.434036"
     inkscape:cy="10.859221"
     inkscape:current-layer="layer1"
     showgrid="false"
     units="px"
     fit-margin-top="0"
     fit-margin-left="0"
     fit-margin-right="0"
     fit-margin-bottom="0"
     inkscape:window-width="1920"
     inkscape:window-height="1017"
     inkscape:window-x="-8"
     inkscape:window-y="-8"
     inkscape:window-maximized="1" />
  <metadata
     id="metadata4">
    <rdf:RDF>
      <cc:Work
         rdf:about="">
        <dc:format>image/svg+xml</dc:format>
        <dc:type
           rdf:resource="http://purl.org/dc/dcmitype/StillImage" />
        <dc:title></dc:title>
      </cc:Work>
    </rdf:RDF>
  </metadata>
  <g
     inkscape:label="Layer 1"
     inkscape:groupmode="layer"
     id="layer1"
     transform="translate(-230.25446,-158.39456)">
    <path
       style="fill:#00bcf2;fill-opacity:1;stroke:none"
       d="m 249.77827,158.39458 c -0.28575,0 -0.58028,0.14991 -0.79922,0.36887 L 230.59702,177.084 c -0.0118,0.0118 0.0118,0.0485 0,0.0615 -0.0913,0.10013 -0.1975,0.18847 -0.24591,0.30739 -0.19024,0.41274 -0.0952,0.88851 0.24591,1.22957 l 18.38203,18.38203 c 0.4379,0.4379 1.09906,0.4379 1.53696,0 0.4379,-0.43791 0.4379,-1.16054 0,-1.59844 l -17.58281,-17.58281 17.58281,-17.58281 c 0.4379,-0.43791 0.4379,-1.09906 0,-1.53696 -0.21894,-0.21894 -0.45199,-0.36887 -0.73774,-0.36887 z m 33.01389,0 c -0.28575,0 -0.58028,0.14991 -0.79922,0.36887 -0.4379,0.4379 -0.4379,1.09905 0,1.53696 l 17.58281,17.58281 -17.58281,17.58281 c -0.4379,0.4379 -0.4379,1.16053 0,1.59844 0.4379,0.4379 1.16053,0.4379 1.59844,0 l 18.32055,-18.38203 c 0.34105,-0.34106 0.43611,-0.81683 0.24591,-1.22957 -0.0484,-0.11902 -0.15463,-0.20724 -0.24591,-0.30739 -0.0118,-0.0138 0.0118,-0.0489 0,-0.0615 l -18.32055,-18.32055 c -0.21895,-0.21894 -0.51347,-0.36887 -0.79922,-0.36887 z m -30.12441,14.57037 c -2.72671,0 -4.91827,2.19156 -4.91827,4.91827 0,2.72671 2.19156,4.97975 4.91827,4.97975 2.72671,0 4.97975,-2.25304 4.97975,-4.97975 0,-2.72671 -2.25304,-4.91827 -4.97975,-4.91827 z m 13.58672,0 c -2.72671,0 -4.91827,2.19156 -4.91827,4.91827 0,2.72671 2.19156,4.97975 4.91827,4.97975 2.72671,0 4.91827,-2.25304 4.91827,-4.97975 0,-2.72671 -2.19156,-4.91827 -4.91827,-4.91827 z m 13.58673,0 c -2.72671,0 -4.91827,2.19156 -4.91827,4.91827 0,2.72671 2.19156,4.97975 4.91827,4.97975 2.7267,0 4.91826,-2.25304 4.91826,-4.97975 0,-2.72671 -2.19156,-4.91827 -4.91826,-4.91827 z"
       id="path3911"
       inkscape:connector-curvature="0" />
  </g>
</svg>
