<svg xmlns:dc="http://purl.org/dc/elements/1.1/" xmlns:cc="http://creativecommons.org/ns#" xmlns:rdf="http://www.w3.org/1999/02/22-rdf-syntax-ns#" xmlns="http://www.w3.org/2000/svg" width="72" height="38.998">
    <metadata>
        <rdf:RDF>
            <cc:Work>
                <dc:subject>
                    Network
                </dc:subject>
                <dc:identifier>
                    network
                </dc:identifier>
                <dc:title>
                    Network
                </dc:title>
                <dc:format>
                    image/svg+xml
                </dc:format>
                <dc:publisher>
                    Amido Limited
                </dc:publisher>
                <dc:creator>
                    Richard Slater
                </dc:creator>
                <dc:type rdf:resource="http://purl.org/dc/dcmitype/StillImage"/>
            </cc:Work>
        </rdf:RDF>
    </metadata>
    <path d="m 249.77827,158.39458 c -0.28575,0 -0.58028,0.14991 -0.79922,0.36887 L 230.59702,177.084 c -0.0118,0.0118 0.0118,0.0485 0,0.0615 -0.0913,0.10013 -0.1975,0.18847 -0.24591,0.30739 -0.19024,0.41274 -0.0952,0.88851 0.24591,1.22957 l 18.38203,18.38203 c 0.4379,0.4379 1.09906,0.4379 1.53696,0 0.4379,-0.43791 0.4379,-1.16054 0,-1.59844 l -17.58281,-17.58281 17.58281,-17.58281 c 0.4379,-0.43791 0.4379,-1.09906 0,-1.53696 -0.21894,-0.21894 -0.45199,-0.36887 -0.73774,-0.36887 z m 33.01389,0 c -0.28575,0 -0.58028,0.14991 -0.79922,0.36887 -0.4379,0.4379 -0.4379,1.09905 0,1.53696 l 17.58281,17.58281 -17.58281,17.58281 c -0.4379,0.4379 -0.4379,1.16053 0,1.59844 0.4379,0.4379 1.16053,0.4379 1.59844,0 l 18.32055,-18.38203 c 0.34105,-0.34106 0.43611,-0.81683 0.24591,-1.22957 -0.0484,-0.11902 -0.15463,-0.20724 -0.24591,-0.30739 -0.0118,-0.0138 0.0118,-0.0489 0,-0.0615 l -18.32055,-18.32055 c -0.21895,-0.21894 -0.51347,-0.36887 -0.79922,-0.36887 z m -30.12441,14.57037 c -2.72671,0 -4.91827,2.19156 -4.91827,4.91827 0,2.72671 2.19156,4.97975 4.91827,4.97975 2.72671,0 4.97975,-2.25304 4.97975,-4.97975 0,-2.72671 -2.25304,-4.91827 -4.97975,-4.91827 z m 13.58672,0 c -2.72671,0 -4.91827,2.19156 -4.91827,4.91827 0,2.72671 2.19156,4.97975 4.91827,4.97975 2.72671,0 4.91827,-2.25304 4.91827,-4.97975 0,-2.72671 -2.19156,-4.91827 -4.91827,-4.91827 z m 13.58673,0 c -2.72671,0 -4.91827,2.19156 -4.91827,4.91827 0,2.72671 2.19156,4.97975 4.91827,4.97975 2.7267,0 4.91826,-2.25304 4.91826,-4.97975 0,-2.72671 -2.19156,-4.91827 -4.91826,-4.91827 z" fill="#00bcf2" transform="translate(-230.254 -158.395)"/>
</svg>
