<svg xmlns:dc="http://purl.org/dc/elements/1.1/" xmlns:cc="http://creativecommons.org/ns#" xmlns:rdf="http://www.w3.org/1999/02/22-rdf-syntax-ns#" xmlns="http://www.w3.org/2000/svg" width="69.989" height="70">
    <metadata>
        <rdf:RDF>
            <cc:Work>
                <dc:subject>
                    Data
                </dc:subject>
                <dc:identifier>
                    operating-system-image
                </dc:identifier>
                <dc:title>
                    Operating System Image
                </dc:title>
                <dc:format>
                    image/svg+xml
                </dc:format>
                <dc:publisher>
                    Amido Limited
                </dc:publisher>
                <dc:creator>
                    Richard Slater
                </dc:creator>
                <dc:type rdf:resource="http://purl.org/dc/dcmitype/StillImage"/>
            </cc:Work>
        </rdf:RDF>
    </metadata>
    <path d="m -132.27102,497.73798 0,-34.9945 34.994495,0 34.9945,0 0,15.8143 0,15.8142 -0.806233,-0.8933 c -2.897559,-3.2105 -7.410849,-6.0027 -11.88785,-7.3547 -4.119191,-1.244 -8.926425,-1.4395 -13.190011,-0.5364 -10.276656,2.1766 -18.427801,10.2105 -20.685131,20.3875 -1.85846,8.3788 0.30166,16.9317 5.92601,23.4638 1.63874,1.9033 2.953725,3.0711 3.356933,2.9813 0.166045,-0.037 1.382611,-0.4808 2.703482,-0.9863 2.936468,-1.1237 14.313113,-5.3402 21.20255,-7.8581 4.247171,-1.5523 5.237938,-1.8671 6.057777,-1.9246 0.847686,-0.06 1.056602,-0.026 1.545902,0.2492 1.126548,0.6332 1.511739,1.9285 0.942936,3.1709 -0.340442,0.7436 -1.050106,1.4413 -6.578421,6.467 l -1.325407,1.2049 -1.26469,-0.04 -1.26469,-0.04 4.325251,-3.9505 c 2.46959,-2.2556 4.395309,-4.1196 4.488546,-4.3447 0.126124,-0.3045 0.126183,-0.4636 2.74e-4,-0.6988 -0.347753,-0.6498 -0.47375,-0.6084 -18.958862,6.2345 l -7.639951,2.8281 -18.4687,0 -18.46871,0 0,-34.9945 z m 48.00845,24.8455 c -4.191124,-0.7689 -7.42535,-3.5494 -8.706946,-7.4855 -0.268347,-0.8241 -0.375233,-1.4933 -0.428726,-2.684 -0.09562,-2.1285 0.170096,-3.453 1.058294,-5.2755 1.370309,-2.8116 3.663813,-4.7575 6.728256,-5.7085 0.865351,-0.2685 1.335197,-0.3202 2.950517,-0.3246 2.150784,-0.01 3.103974,0.2088 4.9404,1.1119 2.664341,1.3104 4.799264,3.9857 5.569812,6.9797 0.357099,1.3875 0.39156,3.7074 0.0749,5.0421 -1.144805,4.8254 -5.243596,8.2128 -10.173413,8.4077 -0.754783,0.03 -1.660676,0 -2.013095,-0.063 z m 3.425522,-2.0061 c 2.653654,-0.5416 4.994952,-2.3553 6.181327,-4.7885 0.617963,-1.2674 0.879618,-2.4293 0.881864,-3.9158 0.0038,-2.5336 -0.79169,-4.466 -2.571972,-6.2475 -2.823989,-2.826 -6.793605,-3.4711 -10.363729,-1.6843 -2.245704,1.124 -3.97573,3.3258 -4.612672,5.8707 -0.30005,1.1988 -0.201504,3.5591 0.200647,4.8057 1.387524,4.3012 5.82136,6.8705 10.284535,5.9597 z m -2.283974,-1.5105 c -0.227924,-0.096 -0.516062,-0.3708 -0.640306,-0.6111 -0.64817,-1.2534 0.996059,-2.3851 2.002726,-1.3784 0.505932,0.5059 0.526734,1.0753 0.05956,1.6305 -0.406413,0.483 -0.856723,0.5967 -1.421984,0.359 z m -4.098478,-1.6748 c -0.366996,-0.057 -0.999625,-0.7736 -0.999625,-1.1316 0,-0.6651 0.670003,-1.3683 1.303717,-1.3683 0.421132,0 1.000521,0.4063 1.136786,0.7972 0.342712,0.9831 -0.40362,1.8651 -1.440878,1.7027 z m 8.366431,-0.1034 c -0.844248,-0.355 -1.003802,-1.4474 -0.298126,-2.0412 0.571909,-0.4813 1.135429,-0.4656 1.646826,0.046 0.989813,0.9899 -0.05696,2.5385 -1.3487,1.9954 z m -5.03206,-2.1155 c -2.377331,-0.9581 -3.026776,-4.0292 -1.231647,-5.8243 0.898848,-0.8989 2.45919,-1.2747 3.578727,-0.8619 2.457827,0.9061 3.220122,4.0307 1.422046,5.8288 -1.020423,1.0204 -2.518766,1.3613 -3.769126,0.8574 z m -5.466174,-2.2133 c -0.294663,-0.1716 -0.651855,-0.8374 -0.651855,-1.2151 0,-0.4628 0.692243,-1.1217 1.19333,-1.1358 0.838487,-0.024 1.536274,0.7586 1.347516,1.5107 -0.199922,0.7965 -1.200145,1.2415 -1.888991,0.8402 z m 11.923708,-0.2135 c -0.490048,-0.4901 -0.501386,-1.2951 -0.02495,-1.7716 0.755574,-0.7556 2.133354,-0.2008 2.133354,0.8589 0,0.3389 -0.113231,0.5854 -0.401144,0.8733 -0.531395,0.5314 -1.199806,0.5468 -1.707259,0.039 z m -10.063869,-4.0313 c -0.310159,-0.1249 -0.727661,-0.7857 -0.727661,-1.1516 0,-1.0194 1.381819,-1.6055 2.129373,-0.9032 1.044662,0.9814 -0.05698,2.5963 -1.401712,2.0548 z m 8.319183,-0.2623 c -0.833115,-0.8331 -0.334954,-2.0691 0.833956,-2.0691 0.743221,0 1.2351,0.4663 1.2351,1.1708 0,0.6565 -0.611169,1.2994 -1.2351,1.2994 -0.295395,0 -0.560177,-0.1273 -0.833956,-0.4011 z m -4.048779,-1.54 c -0.156979,-0.076 -0.393084,-0.3207 -0.524676,-0.5435 -0.602761,-1.0204 0.528623,-2.2161 1.610932,-1.7025 0.85513,0.4058 1.018544,1.3174 0.35509,1.9808 -0.440141,0.4402 -0.904659,0.5256 -1.441346,0.2652 z" fill="#00bcf2" transform="translate(132.271 -462.743)"/>
</svg>
