<svg xmlns:dc="http://purl.org/dc/elements/1.1/" xmlns:cc="http://creativecommons.org/ns#" xmlns:rdf="http://www.w3.org/1999/02/22-rdf-syntax-ns#" xmlns="http://www.w3.org/2000/svg" width="67.47" height="70">
    <metadata>
        <rdf:RDF>
            <cc:Work>
                <dc:subject>
                    Code
                </dc:subject>
                <dc:identifier>
                    powershell-file
                </dc:identifier>
                <dc:title>
                    PowerShell File
                </dc:title>
                <dc:format>
                    image/svg+xml
                </dc:format>
                <dc:publisher>
                    Amido Limited
                </dc:publisher>
                <dc:creator>
                    Richard Slater
                </dc:creator>
                <dc:type rdf:resource="http://purl.org/dc/dcmitype/StillImage"/>
            </cc:Work>
        </rdf:RDF>
    </metadata>
    <path d="m -6.840527,566.44395 c -1.7378,-0.4483 -2.9361,-1.14 -4.264799,-2.4614 -0.9171,-0.9121 -1.300501,-1.4183 -1.739701,-2.2972 -1.151,-2.3036 -1.064699,0.1255 -1.064699,-29.9631 0,-25.4419 0.012,-26.7487 0.2526,-27.7752 0.627699,-2.6772 2.4742,-5.0019 4.9041,-6.1743 2.328299,-1.1233 0.605299,-1.053 25.8021,-1.053 l 22.3912,0 7.0591,6.9662 7.059,6.9662 -0.04,24.1585 c -0.044,27.0726 0.058,24.525 -1.076,26.8353 -0.4616,0.9404 -0.8019,1.3934 -1.7545,2.3353 -1.3518,1.3366 -2.5554,2.0237 -4.3265,2.4699 -1.0657,0.2685 -1.5582,0.2734 -26.6294,0.266 -24.799,-0.01 -25.5736,-0.015 -26.573,-0.2732 z m 52.101301,-5.549 c 0.8445,-0.252 1.5937,-0.8615 2.084,-1.6956 l 0.3774,-0.6419 0.036,-22.3398 0.036,-22.3398 -5.6294,0 -5.6295,0 0,-5.6965 0,-5.6965 -20.8985,0 c -13.5959,0 -21.0724,0.049 -21.3959,0.1389 -0.7073,0.1965 -1.7492,1.1667 -2.1292,1.9827 l -0.322,0.6916 0,26.3718 c 0,28.7966 -0.052,26.9406 0.7673,28.015 0.4048,0.5308 1.1923,1.062 1.8586,1.2537 0.2887,0.083 9.7591,0.1374 25.3156,0.1452 21.5038,0.011 24.9455,-0.015 25.5312,-0.1896 z m -25.9524,-10.6341 c -0.151,-0.062 -0.4443,-0.2822 -0.6517,-0.4901 -0.9973,-0.9999 -0.7152,-2.8358 0.6101,-3.9702 1.0452,-0.8947 1.2496,-0.9163 8.228,-0.8719 5.9736,0.038 6.2459,0.051 6.7068,0.3188 0.6972,0.4052 0.9956,1.0571 0.8978,1.9615 -0.1014,0.9376 -0.458,1.6274 -1.1775,2.2775 -1.029,0.9296 -0.8091,0.9047 -7.9175,0.8951 -3.5318,0 -6.545,-0.059 -6.696,-0.1207 z m -14.0921,-0.1497 c -0.5538,-0.094 -1.1472,-0.438 -1.5146,-0.8773 -0.5668,-0.6776 -0.4199,-1.8774 0.3347,-2.735 0.2461,-0.2796 5.0801,-3.7413 10.7422,-7.6927 5.6622,-3.9514 10.2949,-7.2458 10.2949,-7.3207 0,-0.075 -2.934,-3.4169 -6.5201,-7.4264 -4.3922,-4.911 -6.5814,-7.4595 -6.708,-7.8091 -0.2559,-0.7067 -0.024,-1.5264 0.6414,-2.2641 0.8759,-0.9715 1.9307,-1.2857 2.8507,-0.8491 0.588,0.279 15.0941,16.4674 15.5354,17.3371 0.412,0.8118 0.412,1.8187 0,2.598 -0.2755,0.5212 -1.5299,1.4366 -11.6332,8.4896 -6.2283,4.348 -11.5429,8.0199 -11.81,8.1599 -0.6305,0.3304 -1.5802,0.4977 -2.2134,0.3898 z" fill="#00bcf2" transform="translate(13.911 -496.719)"/>
</svg>
