<svg xmlns:dc="http://purl.org/dc/elements/1.1/" xmlns:cc="http://creativecommons.org/ns#" xmlns:rdf="http://www.w3.org/1999/02/22-rdf-syntax-ns#" xmlns="http://www.w3.org/2000/svg" width="70" height="21.412">
    <metadata>
        <rdf:RDF>
            <cc:Work>
                <dc:subject>
                    Messaging
                </dc:subject>
                <dc:identifier>
                    queue
                </dc:identifier>
                <dc:title>
                    Queue
                </dc:title>
                <dc:format>
                    image/svg+xml
                </dc:format>
                <dc:publisher>
                    Amido Limited
                </dc:publisher>
                <dc:creator>
                    Richard Slater
                </dc:creator>
                <dc:type rdf:resource="http://purl.org/dc/dcmitype/StillImage"/>
            </cc:Work>
        </rdf:RDF>
    </metadata>
    <path d="m -74.536841,582.9697 c -0.5739,-0.3564 -0.9798,-0.8262 -1.2288,-1.42208 -0.1842,-0.44084 -0.2124,-1.67048 -0.2124,-9.25077 l 0,-8.74235 0.3412,-0.58221 c 0.2275,-0.38821 0.5392,-0.67807 0.9355,-0.8699 l 0.5943,-0.28769 30.6283,0 30.6284,0 0.4666,0.40964 c 0.576,0.50575 1.5351,1.8918 2.8031998,4.05114 1.1169,1.90172 3.6025,6.50778 3.6025,6.67569 0,0.0625 -0.5343,1.02571 -1.1873,2.14052 -2.5548,4.36132 -4.0824998,6.67906 -5.0211998,7.61777 l -0.517,0.517 -30.7108,-5.5e-4 c -29.72,-5.5e-4 -30.724,-0.009 -31.1225,-0.25625 z m 61.8655,-2.00794 c 1.0439,-1.36682 4.9089998,-7.7182 4.9089998,-8.06671 0,-0.35714 -3.7130998,-6.91975 -4.9688998,-8.78224 l -0.5328,-0.79012 -30.4073,0.0352 c -29.9204,0.0346 -30.4104,0.0395 -30.6021,0.30165 -0.1632,0.22317 -0.1948,1.61999 -0.1948,8.60381 0,4.71803 0.055,8.48097 0.1258,8.66815 0.069,0.18193 0.2281,0.43315 0.3532,0.55826 0.2107,0.21065 2.4691,0.22493 30.5106,0.19287 l 30.2832,-0.0346 0.5241,-0.68627 z m -59.0663,-1.45522 c -0.1967,-0.0731 -0.4283,-0.28802 -0.5147,-0.47764 -0.1105,-0.24251 -0.1571,-2.17256 -0.1571,-6.50712 l 0,-6.16236 0.3312,-0.38511 0.3312,-0.3851 8.0071,-0.0403 c 4.4038,-0.0222 8.2112,-0.003 8.4607,0.042 0.2496,0.0453 0.5738,0.20238 0.7206,0.34915 0.2567,0.25671 0.2669,0.51135 0.2669,6.69656 0,6.36177 0,6.43247 -0.2889,6.69118 -0.2766,0.25041 -0.6379,0.26253 -8.5441,0.28656 -5.0499,0.0154 -8.3941,-0.0265 -8.6129,-0.10776 z m 15.5243,-5.89602 c 0,-3.15544 -0.036,-3.9665 -0.1716,-3.88322 -0.094,0.0579 -1.5304,1.16294 -3.1911,2.45564 -3.6181,2.81614 -3.6786,2.85716 -4.0477,2.74004 -0.1576,-0.05 -1.5349,-1.06002 -3.0606,-2.24443 -1.5258,-1.1844 -3.0057,-2.32946 -3.2888,-2.54456 l -0.5147,-0.39109 0,3.92806 0,3.92805 7.1373,0 7.1372,0 0,-3.98849 z m -3.3639,-3.84379 2.7438,-2.1187 -3.3272,-0.0367 c -1.8299,-0.0202 -4.8013,-0.0202 -6.6031,0 l -3.2759,0.0367 3.3038,2.56723 3.3037,2.56724 0.5555,-0.44854 c 0.3055,-0.2467 1.7902,-1.40195 3.2994,-2.56723 z m 7.7685,9.74312 c -0.7006,-0.2836 -0.6897,-0.17635 -0.6943,-6.81124 0,-4.35355 0.042,-6.30658 0.1518,-6.54709 0.086,-0.18852 0.3421,-0.40761 0.5695,-0.48685 0.5876,-0.20487 16.0989,-0.1978 16.6881,0.008 0.2393,0.0834 0.4956,0.26467 0.5695,0.40274 0.082,0.15342 0.1343,2.72848 0.1343,6.62116 0,6.30118 0,6.37293 -0.2888,6.63157 -0.2766,0.25036 -0.6395,0.26262 -8.5441,0.28872 -5.1129,0.0169 -8.3812,-0.0237 -8.586,-0.10661 z m 15.4974,-5.89933 c 0,-3.1556 -0.036,-3.96645 -0.1716,-3.88292 -0.094,0.0581 -1.5613,1.18509 -3.2598,2.50449 -3.5206,2.7348 -3.6967,2.84559 -4.1469,2.60967 -0.1726,-0.0905 -1.6727,-1.21553 -3.3335,-2.50017 -1.6608,-1.28464 -3.0968,-2.39511 -3.1912,-2.46771 -0.1363,-0.1049 -0.1715,0.6748 -0.1715,3.79656 l 0,3.92857 7.1372,0 7.1373,0 0,-3.98849 z m -2.9642,-4.16012 2.3202,-1.80237 -3.3153,-0.0367 c -1.8234,-0.0202 -4.7891,-0.0202 -6.5906,0 l -3.2753,0.0367 3.2907,2.56932 3.2908,2.56931 0.9797,-0.76694 c 0.5388,-0.42182 2.0237,-1.57801 3.2998,-2.56932 z m 7.2877,10.05068 c -0.626,-0.34633 -0.6179,-0.2553 -0.6133,-6.90379 0,-6.81272 -0.013,-6.64929 0.7364,-6.93406 0.5357,-0.2037 16.087,-0.19527 16.673,0.009 0.2394,0.0834 0.4956,0.26466 0.5695,0.40274 0.082,0.15331 0.1344,2.70672 0.1344,6.55859 0,6.0054 -0.013,6.32307 -0.2623,6.63157 l -0.2624,0.32403 -8.3504,0.0319 c -5.9014,0.0225 -8.4309,-0.0127 -8.6249,-0.12 z m 15.5784,-5.89056 c 0,-3.1548 -0.036,-3.96674 -0.1715,-3.88441 -0.094,0.0573 -1.5613,1.18433 -3.2598,2.50462 -3.5193,2.73555 -3.6964,2.8471 -4.147,2.61103 -0.1726,-0.0905 -1.6727,-1.21553 -3.3334,-2.50017 -1.6608,-1.28464 -3.0969,-2.39511 -3.1912,-2.46771 -0.1363,-0.1049 -0.1716,0.6748 -0.1716,3.79656 l 0,3.92857 7.1373,0 7.1372,0 0,-3.98849 z m -3.958,-5.99924 c -1.8241,-0.0202 -4.7957,-0.0202 -6.6037,0 l -3.2872,0.0367 3.2982,2.56232 3.2982,2.56232 3.3055,-2.56232 3.3055,-2.56232 -3.3165,-0.0367 z" fill="#00bcf2" transform="translate(75.978 -561.815)"/>
</svg>
