<svg xmlns:dc="http://purl.org/dc/elements/1.1/" xmlns:cc="http://creativecommons.org/ns#" xmlns:rdf="http://www.w3.org/1999/02/22-rdf-syntax-ns#" xmlns="http://www.w3.org/2000/svg" width="47.267" height="70">
    <metadata>
        <rdf:RDF>
            <cc:Work>
                <dc:subject>
                    Code
                </dc:subject>
                <dc:identifier>
                    rdp-remoting-file
                </dc:identifier>
                <dc:title>
                    RDP (Remoting File)
                </dc:title>
                <dc:format>
                    image/svg+xml
                </dc:format>
                <dc:publisher>
                    Amido Limited
                </dc:publisher>
                <dc:creator>
                    Richard Slater
                </dc:creator>
                <dc:type rdf:resource="http://purl.org/dc/dcmitype/StillImage"/>
            </cc:Work>
        </rdf:RDF>
    </metadata>
    <path d="m -77.465987,532.92397 c 0,-5.90795 0.01,-6.05032 0.3189,-6.14918 0.6334,-0.20105 0.9567,0.0486 0.9567,0.73889 l 0,0.63769 0.6827,-0.55945 c 0.8602,-0.70484 1.3659,-0.89685 2.3621,-0.89685 1.0222,0 1.7013,0.29215 2.3219,0.99893 0.7358,0.83809 0.9311,1.56496 0.9311,3.46538 0,1.79355 -0.2959,2.78909 -1.084,3.64631 -1.1279,1.22698 -3.2715,1.29021 -4.5362,0.13381 l -0.3588,-0.32802 0,1.92803 c 0,1.06042 -0.043,2.04152 -0.097,2.18023 -0.068,0.17701 -0.3056,0.2522 -0.7972,0.2522 l -0.7005,0 0,-6.04797 z m 4.7122,1.32967 c 1.4988,-0.7112 1.8001,-4.42645 0.4671,-5.7594 -0.8537,-0.8537 -1.8056,-0.7248 -2.987,0.40447 l -0.5979,0.57155 0,1.76884 0,1.76885 0.5979,0.58191 c 0.948,0.92257 1.6081,1.09647 2.5199,0.66378 z m -25.5988,1.4192 c -0.3706,-0.15023 -0.4732,-0.39179 -0.4759,-1.11975 0,-0.50282 0.075,-0.71356 0.306,-0.83706 0.4164,-0.22287 1.1786,-0.2087 1.4135,0.0263 0.2133,0.21328 0.2557,1.37377 0.061,1.67969 -0.1476,0.23246 -0.9635,0.38928 -1.305,0.25084 z m 12.5958,-0.0684 c -1.5164,-0.60287 -2.4068,-2.88299 -2.0659,-5.29018 0.344,-2.4292 1.4694,-3.6192 3.4227,-3.6192 0.9216,0 1.6395,0.26676 2.2704,0.84364 l 0.3588,0.32802 0,-2.49607 0,-2.49608 0.3986,-0.10004 c 0.2192,-0.055 0.5788,-0.0548 0.799,4.8e-4 l 0.4004,0.1005 -0.042,6.33424 -0.042,6.33422 -0.6377,0 c -0.6234,0 -0.6389,-0.0137 -0.6877,-0.60556 l -0.05,-0.60557 -0.5762,0.50593 c -0.3169,0.27826 -0.8123,0.60458 -1.1009,0.72515 -0.6027,0.25183 -1.8641,0.27271 -2.4481,0.0405 z m 2.7382,-1.55851 c 1.1499,-0.72924 1.2478,-0.9558 1.2478,-2.88967 l 0,-1.68601 -0.5979,-0.57155 c -0.7645,-0.73076 -1.1595,-0.92812 -1.8574,-0.92812 -0.7784,0 -1.5849,0.72856 -1.8484,1.6697 -0.3041,1.08607 -0.1486,3.23606 0.2848,3.93724 0.6369,1.0306 1.6221,1.19712 2.7711,0.46841 z m -11.0291,-2.79506 0,-4.3903 0.4233,-0.10623 c 0.5756,-0.14449 0.9219,0.11076 0.9827,0.72442 l 0.051,0.51239 0.703,-0.64805 c 0.6247,-0.57583 0.791,-0.64804 1.4924,-0.64804 0.8433,0 1.2905,0.27567 1.2905,0.79554 0,0.67456 -0.1508,0.78485 -0.9448,0.69082 -0.9013,-0.10675 -1.2744,0.0629 -1.8788,0.85446 -0.4419,0.57872 -0.4454,0.60296 -0.5246,3.5454 l -0.08,2.96269 -0.7574,0.0486 -0.7573,0.0486 0,-4.39029 z m -5.7105,-13.25519 c -1.804803,-0.4857 -3.423303,-1.85068 -4.241503,-3.57704 l -0.4913,-1.03682 0,-19.77055 0,-19.77055 0.5091,-1.07474 c 0.6589,-1.39103 1.8083,-2.54041 3.1993,-3.19934 l 1.074803,-0.50912 16.3146,-0.0428 16.3146,-0.0428 4.9273,4.82599 4.9272,4.826 -0.036,17.37895 -0.036,17.37895 -0.4914,1.03682 c -0.8342,1.76031 -2.4437,3.09888 -4.3109,3.58521 -1.348,0.35111 -36.3522,0.34352 -37.6591,-0.008 z m 37.5401,-3.72396 c 0.2749,-0.16759 0.7054,-0.57426 0.9567,-0.90372 l 0.4569,-0.59901 0.043,-16.07324 0.043,-16.07325 -3.9491,-0.0427 -3.9492,-0.0426 -0.043,-4.02976 -0.043,-4.02976 -15.1041,0.0438 -15.1042,0.0438 -0.6339,0.37456 c -0.694103,0.41022 -1.021303,0.79398 -1.307103,1.53303 -0.1392,0.35991 -0.1903,5.25807 -0.1993,19.10374 -0.011,16.41375 0.017,18.68927 0.2331,19.20668 0.2953,0.70691 0.6318,1.10395 1.269403,1.49776 0.4584,0.28313 1.237,0.29546 18.6545,0.29546 17.6137,0 18.1916,-0.009 18.6758,-0.30471 z m -28.7204,-8.94152 -1.4312,-1.43782 2.8276,-2.82759 2.8276,-2.82758 -2.7906,-2.79376 -2.7905,-2.79376 1.3981,-1.39162 1.3981,-1.39161 4.2223,4.22452 4.2222,4.22453 -4.2262,4.22626 -4.2263,4.22625 -1.4311,-1.43782 z m 13.9505,-8.2116 -4.2233,-4.22556 4.2627,-4.26269 4.2627,-4.26269 1.3568,1.34977 c 0.7462,0.74237 1.3568,1.42235 1.3568,1.51106 0,0.0887 -1.2369,1.3997 -2.7486,2.9133 l -2.7487,2.752 2.7871,2.79052 2.7871,2.79051 -1.4346,1.43467 -1.4347,1.43467 -4.2233,-4.22556 z" fill="#00bcf2" transform="translate(104.491 -468.972)"/>
</svg>
