<svg xmlns:dc="http://purl.org/dc/elements/1.1/" xmlns:cc="http://creativecommons.org/ns#" xmlns:rdf="http://www.w3.org/1999/02/22-rdf-syntax-ns#" xmlns="http://www.w3.org/2000/svg" width="70.001" height="25.373">
    <metadata>
        <rdf:RDF>
            <cc:Work>
                <dc:subject>
                    Network
                </dc:subject>
                <dc:identifier>
                    service-endpoint
                </dc:identifier>
                <dc:title>
                    Service Endpoint
                </dc:title>
                <dc:format>
                    image/svg+xml
                </dc:format>
                <dc:publisher>
                    Amido Limited
                </dc:publisher>
                <dc:creator>
                    Richard Slater
                </dc:creator>
                <dc:type rdf:resource="http://purl.org/dc/dcmitype/StillImage"/>
            </cc:Work>
        </rdf:RDF>
    </metadata>
    <path d="m -25.000442,749.32163 c -1.4976,-0.2003 -3.5096,-0.9044 -4.8257,-1.6887 -2.7816,-1.6577 -4.8094,-4.2721 -5.7718,-7.4416 -0.3413,-1.1241 -0.3757,-1.4373 -0.3778,-3.4357 0,-2.5878 0.2224,-3.6299 1.2168,-5.6345 1.568,-3.1613 4.4597,-5.5985 7.8345,-6.6032 1.67,-0.4971 4.2951,-0.6176 5.9871,-0.2747 4.0597,0.8226 7.4884,3.5774 9.2016,7.3931 l 0.4781,1.0649 22.6414,0 22.6414,0 0,4.0541 0,4.0542 -22.6801,0 c -21.4774,0 -22.6843,0.013 -22.7615,0.2405 -0.706,2.0842 -2.3538,4.3144 -4.2325,5.7283 -2.6843,2.0203 -6.1708,2.9684 -9.3515,2.543 z" fill="#00bcf2" transform="translate(35.976 -724.048)"/>
</svg>
