<?xml version="1.0" encoding="UTF-8" standalone="no"?>
<!-- Created with Inkscape (http://www.inkscape.org/) -->

<svg
   xmlns:dc="http://purl.org/dc/elements/1.1/"
   xmlns:cc="http://creativecommons.org/ns#"
   xmlns:rdf="http://www.w3.org/1999/02/22-rdf-syntax-ns#"
   xmlns:svg="http://www.w3.org/2000/svg"
   xmlns="http://www.w3.org/2000/svg"
   xmlns:sodipodi="http://sodipodi.sourceforge.net/DTD/sodipodi-0.dtd"
   xmlns:inkscape="http://www.inkscape.org/namespaces/inkscape"
   width="64.03627"
   height="70.039673"
   id="svg3014"
   version="1.1"
   inkscape:version="0.48.4 r9939"
   sodipodi:docname="New document 2">
  <defs
     id="defs3016" />
  <sodipodi:namedview
     id="base"
     pagecolor="#ffffff"
     bordercolor="#666666"
     borderopacity="1.0"
     inkscape:pageopacity="0.0"
     inkscape:pageshadow="2"
     inkscape:zoom="0.35"
     inkscape:cx="-27.26758"
     inkscape:cy="-264.98016"
     inkscape:document-units="px"
     inkscape:current-layer="layer1"
     showgrid="false"
     fit-margin-top="0"
     fit-margin-left="0"
     fit-margin-right="0"
     fit-margin-bottom="0"
     inkscape:window-width="1920"
     inkscape:window-height="1017"
     inkscape:window-x="1912"
     inkscape:window-y="-8"
     inkscape:window-maximized="1" />
  <metadata
     id="metadata3019">
    <rdf:RDF>
      <cc:Work
         rdf:about="">
        <dc:format>image/svg+xml</dc:format>
        <dc:type
           rdf:resource="http://purl.org/dc/dcmitype/StillImage" />
        <dc:title></dc:title>
      </cc:Work>
    </rdf:RDF>
  </metadata>
  <g
     inkscape:label="Layer 1"
     inkscape:groupmode="layer"
     id="layer1"
     transform="translate(-402.26758,-197.34235)">
    <path
       style="fill:#00bcf2;fill-opacity:1;stroke:none"
       d="m 402.26758,197.34235 0,52.02947 c 0.004,1.51984 0.6708,1.96571 2.00113,2.00113 l 12.0068,0 0,-8.00453 -6.0034,0 0,-38.02154 10.00567,0 0,10.00567 8.00453,0 0,-18.0102 -26.01473,0 z m 30.017,8.00453 0,6.0034 c 11.95069,2.437 11.55012,9.94347 12.0068,18.0102 l 0,4.00227 10.00567,0 c 1.62548,0.50847 3.71314,-0.29259 4.00226,4.00227 l 0,6.0034 -26.01473,0 0,8.00453 32.01813,0 c 1.48825,-0.004 1.99739,-0.73398 2.00114,-2.00113 l 0,-12.0068 c -0.94134,-4.49591 -1.437,-9.20788 -10.00567,-10.00567 l -6.0034,0 c -0.70262,-17.78761 -9.12701,-20.35227 -18.0102,-22.01247 z m -16.00907,14.00794 0,4.00226 18.0102,0 0,-4.00226 -18.0102,0 z m 0,6.0034 0,4.00226 18.0102,0 0,-4.00226 -18.0102,0 z m 0.0625,6.0034 0,4.00226 18.0102,0 0,-4.00226 -18.0102,0 z m 3.93973,8.00453 0,16.00907 -8.00453,0 12.0068,12.0068 12.0068,-12.0068 -8.00454,0 0,-16.00907 -8.00453,0 z"
       id="path3886"
       inkscape:connector-curvature="0" />
  </g>
</svg>
