<svg xmlns:dc="http://purl.org/dc/elements/1.1/" xmlns:cc="http://creativecommons.org/ns#" xmlns:rdf="http://www.w3.org/1999/02/22-rdf-syntax-ns#" xmlns="http://www.w3.org/2000/svg" width="61.511" height="69.999">
    <metadata>
        <rdf:RDF>
            <cc:Work>
                <dc:subject>
                    Messaging
                </dc:subject>
                <dc:identifier>
                    service-bus-topics-and-subscriptions
                </dc:identifier>
                <dc:title>
                    Service Bus Topics and Subscriptions
                </dc:title>
                <dc:format>
                    image/svg+xml
                </dc:format>
                <dc:publisher>
                    Amido Limited
                </dc:publisher>
                <dc:creator>
                    Richard Slater
                </dc:creator>
                <dc:type rdf:resource="http://purl.org/dc/dcmitype/StillImage"/>
            </cc:Work>
        </rdf:RDF>
    </metadata>
    <path d="m -825.81539,517.513 -5.2497,-6.693 3.4431,-0.037 3.4431,-0.037 0,-8.6127 0,-8.6126 3.6013,-5.264 3.6013,-5.264 0.035,13.879 0.035,13.879 3.5003,0 c 1.9251,0 3.5002,0.047 3.5002,0.1043 0,0.1097 -10.5274,13.3502 -10.6146,13.3502 -0.028,0 -2.4128,-3.0118 -5.3001,-6.6929 z m -18.2466,-9.2518 c -0.5854,-0.1686 -1.5311,-1.1144 -1.9223,-1.9224 l -0.3049,-0.6299 0.04,-24.9712 c 0.032,-19.9465 0.076,-25.0763 0.2175,-25.4932 0.1103,-0.325 0.3424,-0.6234 0.6149,-0.7905 0.4275,-0.2621 0.7455,-0.2676 13.5491,-0.2331 l 13.1112,0.035 0.6125,0.3433 c 0.3369,0.1888 0.7539,0.5531 0.9268,0.8097 l 0.3142,0.4665 0,12.7477 0,12.7478 -3.6382,0 -3.6382,0 0,-12.5665 c 0,-13.7399 0.036,-13.117 -0.8114,-13.8305 -0.4181,-0.3518 -1.4751,-0.7426 -1.6191,-0.5985 -0.038,0.038 -0.1029,6.6833 -0.1445,14.7677 l -0.076,14.699 2.6929,0 2.6928,0 -4.4301,5.6632 c -2.4365,3.1148 -4.4883,5.6613 -4.5595,5.6589 -0.071,0 -1.961,-2.5354 -4.1996,-5.6289 l -4.0701,-5.6245 2.3883,-0.037 2.3883,-0.038 0,-11.1174 0,-11.1174 -2.539,0 -2.5389,0 -0.035,9.8506 -0.035,9.8506 -1.9564,0.038 -1.9564,0.038 0,0.6715 c 0,0.3693 -0.031,0.7537 -0.07,0.8543 -0.038,0.1005 0.8571,1.7891 1.9898,3.7524 l 2.0596,3.5695 8e-4,5.3887 9e-4,5.3887 6.178,0 6.1781,0 0,3.7068 0,3.7069 -8.4777,-0.012 c -4.9515,-0.01 -8.6675,-0.067 -8.934,-0.1439 z m 29.9053,-3.5506 0,-3.7068 11.1892,0 11.1892,0 -10e-5,-2.7802 c -1e-4,-2.7742 -0.001,-2.7819 -0.3923,-3.6039 -0.6692,-1.4054 -2.0337,-2.4851 -4.1351,-3.2719 -0.7009,-0.2624 -1.1149,-0.2877 -5.4775,-0.3348 l -4.7193,-0.051 0.093,-1.7407 c 0.051,-0.9574 0.027,-2.6056 -0.053,-3.6628 -0.53,-6.953 -2.793,-11.8255 -6.8359,-14.718 l -0.858,-0.614 0,-4.036 0,-4.036 0.7208,0.2822 c 2.232,0.8738 4.7652,2.5082 6.6438,4.2865 3.9399,3.7294 6.2194,8.7528 6.7714,14.9226 0.078,0.8683 0.1415,1.6869 0.1417,1.8191 5e-4,0.2147 0.167,0.2402 1.5704,0.2402 3.8349,0 7.0466,1.4183 9.8175,4.3353 2.0792,2.1889 3.2643,4.6438 3.5738,7.4031 0.1932,1.7232 0.1821,10.1589 -0.015,11.0794 -0.1917,0.8968 -0.7879,1.5138 -1.6798,1.7384 -0.4425,0.1114 -4.4778,0.1562 -14.0826,0.1562 l -13.4623,0 0,-3.7069 z" fill="#00bcf2" transform="translate(846.289 -454.206)"/>
</svg>
