<svg xmlns:dc="http://purl.org/dc/elements/1.1/" xmlns:cc="http://creativecommons.org/ns#" xmlns:rdf="http://www.w3.org/1999/02/22-rdf-syntax-ns#" xmlns="http://www.w3.org/2000/svg" width="50.109" height="65.937">
    <metadata>
        <rdf:RDF>
            <cc:Work>
                <dc:subject>
                    Storage
                </dc:subject>
                <dc:identifier>
                    sql-azure
                </dc:identifier>
                <dc:title>
                    SQL Azure
                </dc:title>
                <dc:format>
                    image/svg+xml
                </dc:format>
                <dc:publisher>
                    Amido Limited
                </dc:publisher>
                <dc:creator>
                    Richard Slater
                </dc:creator>
                <dc:type rdf:resource="http://purl.org/dc/dcmitype/StillImage"/>
            </cc:Work>
        </rdf:RDF>
    </metadata>
    <path d="m 375.03112,499.3939 c -13.55041,0 -24.53541,3.5345 -24.9608,7.94492 l -0.0625,0 0,49.35859 c -0.0216,0.13993 -0.0625,0.29626 -0.0625,0.43791 0,0.0885 0.0541,0.16255 0.0625,0.25023 0.42539,4.41042 11.41039,7.94492 24.9608,7.94492 13.55042,0 24.53542,-3.5345 24.96082,-7.94492 l 0.12512,0 0,-50.04673 -0.0625,0 c -0.4254,-4.41042 -11.41041,-7.94492 -24.96082,-7.94492 z m 0.3128,3.81606 c 10.50445,0 19.01776,2.30722 19.01776,5.12979 0,2.82258 -8.51331,5.12979 -19.01776,5.12979 -10.50445,0 -19.01776,-2.30721 -19.01776,-5.12979 0,-2.82257 8.51331,-5.12979 19.01776,-5.12979 z m -17.14101,26.08686 6.88143,0 c 1.56003,2e-5 2.74474,0.0779 3.56583,0.25024 1.14949,0.23792 2.12826,0.69028 2.94024,1.31372 1.05827,0.80396 1.85263,1.81434 2.37722,3.06537 0.52457,1.25104 0.81324,2.70865 0.81326,4.31653 -2e-5,1.37 -0.20723,2.57014 -0.56303,3.62839 -0.35581,1.05824 -0.81978,1.93426 -1.37628,2.62745 -0.55652,0.69321 -1.15278,1.22865 -1.81419,1.62652 -0.66144,0.39787 -1.44211,0.73328 -2.37722,0.93837 -0.93514,0.2051 -2.03969,0.3128 -3.25304,0.3128 l -7.19422,0 0,-18.07939 z m 20.14381,0 7.50701,0 c 1.53267,2e-5 2.76494,0.19799 3.69095,0.56303 0.92598,0.36508 1.66495,0.93027 2.18954,1.68908 0.52457,0.75885 0.75068,1.54868 0.7507,2.37722 -2e-5,0.77114 -0.22289,1.50867 -0.68814,2.18954 -0.46529,0.6809 -1.18733,1.20815 -2.12699,1.62652 1.21336,0.31994 2.16282,0.8554 2.81513,1.62652 0.65229,0.77114 1.00092,1.70253 1.00094,2.75257 -2e-5,0.84497 -0.22876,1.65122 -0.62559,2.37722 -0.39687,0.72602 -0.85498,1.29531 -1.43884,1.68908 -0.58389,0.39376 -1.30918,0.67483 -2.18954,0.87581 -0.88039,0.20099 -1.97581,0.3128 -3.25304,0.3128 l -7.63213,0 0,-18.07939 z m -17.51636,2.12699 0,13.82541 4.25398,0 c 1.32283,0 2.37525,-0.15394 3.12792,-0.37535 0.75264,-0.22149 1.36715,-0.5364 1.81419,-0.93838 0.62949,-0.56602 1.15015,-1.29639 1.5014,-2.2521 0.35123,-0.95569 0.50045,-2.14148 0.50047,-3.50327 -2e-5,-1.8868 -0.37471,-3.30339 -1.06349,-4.31653 -0.68881,-1.01313 -1.51706,-1.71987 -2.50234,-2.06443 -0.7116,-0.24609 -1.86242,-0.37533 -3.44071,-0.37535 l -4.19142,0 z m 20.14381,0 0,5.44258 4.31653,0 c 1.17688,2e-5 2.054,-0.0482 2.5649,-0.18757 0.67509,-0.18037 1.15928,-0.45743 1.5014,-0.87582 0.3421,-0.41837 0.50045,-0.93227 0.50047,-1.56396 -2e-5,-0.59884 -0.11871,-1.17121 -0.43791,-1.62652 -0.31932,-0.45529 -0.78329,-0.77018 -1.37628,-0.93838 -0.59302,-0.16815 -1.62392,-0.25021 -3.06537,-0.25023 l -4.00374,0 z m 0,7.56957 0,6.25584 5.00468,0 c 0.85756,0 1.46751,-0.0677 1.81419,-0.12512 0.61123,-0.0985 1.09086,-0.27077 1.5014,-0.50046 0.41053,-0.2297 0.73635,-0.56205 1.00094,-1.00094 0.26455,-0.43889 0.43789,-0.92714 0.43791,-1.5014 -2e-5,-0.67269 -0.17997,-1.25531 -0.56303,-1.75164 -0.38318,-0.4963 -0.94686,-0.8625 -1.62652,-1.06349 -0.67967,-0.20097 -1.66301,-0.31279 -2.94024,-0.31279 l -4.62933,0 z" fill="#00bcf2" transform="translate(-349.945 -499.394)"/>
</svg>
