<svg xmlns:dc="http://purl.org/dc/elements/1.1/" xmlns:cc="http://creativecommons.org/ns#" xmlns:rdf="http://www.w3.org/1999/02/22-rdf-syntax-ns#" xmlns="http://www.w3.org/2000/svg" width="67.457" height="70">
    <metadata>
        <rdf:RDF>
            <cc:Work>
                <dc:subject>
                    Code
                </dc:subject>
                <dc:identifier>
                    startup-file
                </dc:identifier>
                <dc:title>
                    Startup File
                </dc:title>
                <dc:format>
                    image/svg+xml
                </dc:format>
                <dc:publisher>
                    Amido Limited
                </dc:publisher>
                <dc:creator>
                    Richard Slater
                </dc:creator>
                <dc:type rdf:resource="http://purl.org/dc/dcmitype/StillImage"/>
            </cc:Work>
        </rdf:RDF>
    </metadata>
    <path d="m -32.567224,773.58643 c -2.5596,-0.6188 -4.899599,-2.5787 -6.043299,-5.0618 -0.8746,-1.8988 -0.8198,0.085 -0.8198,-29.71 0,-30.5387 -0.091,-27.8124 0.9991,-30.0531 0.7317,-1.5043 2.4282,-3.1792 4.009699,-3.9586 2.108,-1.0389 0.4698,-0.9766 25.7406008,-0.9792 l 22.6529002,0 7.0264,6.946 7.0264,6.9459 -0.04,24.2393 c -0.037,22.6108 -0.056,24.2946 -0.2801,25.0626 -0.9621,3.2982 -3.5477,5.8388 -6.6979,6.5814 -1.2974,0.3058 -52.307001,0.2962 -53.574001,-0.01 z m 53.137001,-5.1117 c 0.9199,-0.4159 1.7063,-1.2733 2.0773,-2.265 l 0.293,-0.7831 0,-22.5674 0,-22.5674 -5.5921,-0.036 -5.592,-0.036 -0.036,-5.6623 -0.036,-5.6624 -21.6463002,0.036 -21.6463008,0.036 -0.5889,0.3144 c -0.8574,0.4579 -1.6231,1.3139 -1.9452,2.1748 -0.2812,0.7515 -0.2817,0.8129 -0.2461,27.6069 l 0.036,26.8537 0.3236,0.6176 c 0.3904,0.745 1.0387,1.4552 1.5976,1.7501 1.1043,0.5826 0.3315,0.5671 26.8968008,0.54 l 25.3873002,-0.026 0.7174,-0.3243 z m -36.3062,-7.6202 -0.5955,-1.4235 -0.6931,-0.092 c -0.3812,-0.05 -0.8558,-0.1244 -1.0547,-0.1642 -0.3211,-0.064 -0.4657,0.059 -1.2919,1.1016 -0.5117,0.6457 -0.9844,1.2074 -1.0504,1.2482 -0.1429,0.088 -3.2937,-1.8238 -3.3812,-2.0519 -0.033,-0.087 0.192,-0.7647 0.5008,-1.5065 l 0.5613,-1.3488 -0.329,-0.3589 c -0.25,-0.2728 -0.8992,-1.1614 -0.9805,-1.3421 -0.01,-0.012 -0.7203,0.059 -1.5882,0.1598 -0.868,0.1002 -1.5968,0.1638 -1.6195,0.1413 -0.1158,-0.1149 -0.9448,-3.8582 -0.8698,-3.9275 0.048,-0.045 0.6882,-0.3219 1.4221,-0.6163 1.4641,-0.5874 1.3841,-0.4854 1.5533,-1.9787 l 0.086,-0.7547 -1.2452,-0.9968 -1.2451,-0.9968 0.9814,-1.6105 c 0.5398,-0.8858 1.026,-1.6621 1.0806,-1.725 0.055,-0.063 0.7084,0.1403 1.4531,0.4518 0.7897,0.3302 1.4682,0.5345 1.6283,0.4901 0.151,-0.042 0.5184,-0.2863 0.8165,-0.5434 l 0.542,-0.4673 -0.2154,-1.5551 c -0.1185,-0.8554 -0.1771,-1.596 -0.1303,-1.6458 0.1288,-0.1372 3.712,-1.098 3.8272,-1.0262 0.055,0.034 0.3757,0.7084 0.7124,1.4979 l 0.6121,1.4355 1.166,0.09 1.1661,0.09 0.3489,-0.4473 c 0.8208,-1.0525 1.6699,-2.0288 1.7645,-2.0288 0.2055,0 3.3864998,2.03 3.3616998,2.1453 -0.014,0.065 -0.2894,0.7557 -0.6116,1.5339 -0.4006,0.9672 -0.5444,1.4699 -0.4547,1.5889 0.072,0.096 0.3358,0.4511 0.5858,0.7896 l 0.4544,0.6155 1.6615,-0.18 c 0.9139,-0.099 1.6873,-0.1543 1.7187,-0.1229 0.047,0.047 0.2604,0.9085 0.9068,3.6632 0.039,0.1676 -0.2979,0.3675 -1.3828,0.8198 -0.7891,0.329 -1.4832,0.6924 -1.5424,0.8076 -0.059,0.1152 -0.1486,0.5864 -0.1987,1.0473 l -0.091,0.8379 0.5001,0.3814 c 0.275,0.2098 0.8621,0.6828 1.3047,1.0511 l 0.8046,0.6696 -0.9077,1.4731 c -0.4993,0.8103 -0.9776,1.5748 -1.0629,1.6991 -0.1402,0.2041 -0.2988,0.1681 -1.6429,-0.3722 l -1.4876,-0.5981 -0.4991998,0.4048 c -0.2746,0.2227 -0.6403,0.5137 -0.8127,0.6467 l -0.3134,0.2418 0.1864,1.626 c 0.131,1.1435 0.1426,1.6407 0.039,1.6755 -0.1788,0.06 -3.7296,0.8845 -3.8016,0.8827 -0.028,0 -0.3189,-0.6419 -0.6465,-1.4249 z m 1.8208,-5.5478 c 2.3066,-1.0793 3.6522,-3.5173 3.2418,-5.8736 -0.2283,-1.311 -0.6292,-2.0607 -1.6466,-3.0791 -1.2042,-1.2054 -2.13,-1.57 -3.9869,-1.57 -1.1307,0 -1.409,0.049 -2.097,0.3718 -2.2573,1.0577 -3.6762,3.6024 -3.2759,5.8749 0.3978,2.2585 2.0855,4.1195 4.2226,4.6564 0.9857,0.2476 2.5618,0.078 3.542,-0.3804 z m 18.9648998,-6.4622 -0.6095,-1.4531 -0.8594,-0.097 c -0.4726,-0.053 -0.9341,-0.1258 -1.0255,-0.1609 -0.091,-0.035 -0.6373,0.5149 -1.2133,1.222 l -1.04710001,1.2857 -1.67959999,-1.0386 c -0.9238,-0.5713 -1.6977,-1.0544 -1.7199,-1.0736 -0.022,-0.019 0.2206,-0.6664 0.5394,-1.4382 0.3864,-0.9355 0.537,-1.46 0.4519,-1.5737 -0.07,-0.094 -0.3698,-0.4954 -0.6656,-0.8925 l -0.538,-0.7221 -0.6285,0.081 c -0.3456,0.045 -1.0633,0.1206 -1.5948,0.1688 l -0.9664,0.088 -0.4605,-1.9409 c -0.2532,-1.0675 -0.4359,-1.9636 -0.4059,-1.9914 0.03,-0.028 0.6793,-0.3087 1.443,-0.6243 l 1.3884,-0.5738 0.08,-0.7797 c 0.044,-0.4288 0.1166,-0.9031 0.1609,-1.054 0.064,-0.2197 -0.1416,-0.4521 -1.0328,-1.1645 -0.6124,-0.4895 -1.1772,-0.9669 -1.2552,-1.0608 -0.1032,-0.1245 0.1422,-0.6338 0.9038,-1.8751 l 1.0456,-1.7043 1.4443,0.6086 c 0.7944,0.3348 1.5192,0.5641 1.6107,0.5096 0.091,-0.054 0.4133,-0.2876 0.71519999,-0.5181 0.3019,-0.2304 0.5636,-0.4239 0.5814,-0.43 0.018,-0.01 -0.066,-0.7354 -0.1875,-1.6208 -0.121,-0.8853 -0.184,-1.6457 -0.14,-1.6897 0.1025,-0.1024 3.38140001,-0.9987 3.66500001,-1.0017 0.1397,0 0.4303,0.4841 0.8386,1.4013 0.691,1.5522 0.5753,1.4662 2.2412,1.666 l 0.6861,0.082 1.0729,-1.3111 c 1.0244,-1.2519 1.0864,-1.3024 1.3723,-1.1164 0.1647,0.1071 0.8860002,0.5528 1.6031002,0.9905 0.717,0.4376 1.3542,0.8402 1.4159,0.8946 0.062,0.054 -0.1761,0.7864 -0.5286,1.6267 l -0.641,1.5278 0.3915,0.449 c 0.2152,0.247 0.486,0.5937 0.6017,0.7705 0.2096,0.3201 0.2158,0.3208 1.6179,0.1683 2.2355,-0.2432 1.9607,-0.4364 2.4668,1.7337 0.242,1.0378 0.4397,1.9178 0.4393,1.9555 0,0.038 -0.6725,0.3465 -1.4936,0.6862 l -1.4929,0.6175 -0.08,0.7661 c -0.044,0.4214 -0.116,0.8592 -0.1597,0.973 -0.055,0.1427 0.329,0.5387 1.2361,1.2758 0.7235,0.5879 1.2975,1.12 1.2756,1.1826 -0.1227,0.3504 -1.981,3.2711 -2.0842,3.2758 -0.068,0 -0.7502,-0.2487 -1.5163,-0.5596 l -1.393,-0.5653 -0.7823,0.5851 c -0.8909002,0.6662 -0.8950002,0.6836 -0.6388002,2.7269 0.079,0.6298 0.1165,1.1722 0.083,1.2054 -0.033,0.033 -0.9292,0.2627 -1.9913,0.5102 l -1.9311,0.4501 -0.6096,-1.4531 z m 0.4783,-5.0899 c 3.24,-0.6024 5.3362002,-3.9167 4.4323,-7.0078 -0.9538,-3.2616 -4.7125,-4.9916 -7.7015,-3.5446 -0.9939,0.4811 -2.17610001,1.6773 -2.67930001,2.7111 -0.4134,0.8491 -0.4439,1.01 -0.446,2.3524 0,1.2788 0.039,1.5292 0.3656,2.2256 0.4385,0.9354 1.443,2.0491 2.30350001,2.5537 0.6047,0.3547 2.11,0.8231 2.6962,0.8391 0.1595,0 0.6227,-0.054 1.0292,-0.1295 z" fill="#00bcf2" transform="translate(39.432 -703.824)"/>
</svg>
