<svg xmlns:dc="http://purl.org/dc/elements/1.1/" xmlns:cc="http://creativecommons.org/ns#" xmlns:rdf="http://www.w3.org/1999/02/22-rdf-syntax-ns#" xmlns="http://www.w3.org/2000/svg" width="70" height="62.411">
    <metadata>
        <rdf:RDF>
            <cc:Work>
                <dc:subject>
                    Data
                </dc:subject>
                <dc:identifier>
                    storage-blob
                </dc:identifier>
                <dc:title>
                    Storage Blob
                </dc:title>
                <dc:format>
                    image/svg+xml
                </dc:format>
                <dc:publisher>
                    Amido Limited
                </dc:publisher>
                <dc:creator>
                    Richard Slater
                </dc:creator>
                <dc:type rdf:resource="http://purl.org/dc/dcmitype/StillImage"/>
            </cc:Work>
        </rdf:RDF>
    </metadata>
    <path d="m -91.831738,531.64822 c -4.78557,-8.525 -8.726282,-15.5464 -8.757132,-15.6033 -0.0308,-0.057 3.890582,-7.1243 8.714272,-15.7055 l 8.77036,-15.6022 17.54362,0 17.54362,0 8.67555,15.4434 c 4.77156,8.4939 8.71009,15.5334 8.75229,15.6434 0.0439,0.1145 -3.65198,6.8386 -8.64439,15.7271 l -8.72113,15.5271 -17.58801,0.035 -17.58802,0.035 -8.70103,-15.4998 z m 40.69127,2.8117 c 1.32106,-0.5199 2.36409,-1.5657 2.86592,-2.8735 0.20443,-0.5327 0.23084,-1.9055 0.26478,-13.7664 l 0.0377,-13.1747 -3.59525,-3.6993 -3.59526,-3.6993 -12.0741,0 c -12.01214,0 -12.07815,0 -12.86273,0.295 -0.94846,0.3549 -2.0049,1.2968 -2.45852,2.192 -0.61241,1.2085 -0.62616,1.6049 -0.58372,16.827 l 0.0402,14.434 0.43367,0.9153 c 0.70895,1.4964 1.93438,2.465 3.44721,2.7247 0.36053,0.062 6.68685,0.1026 14.05849,0.091 12.47099,-0.02 13.44599,-0.039 14.02157,-0.2654 z m -28.04308,-2.4512 c -0.44844,-0.1788 -0.93198,-0.6367 -1.21596,-1.1515 -0.2066,-0.3745 -0.2314,-1.6752 -0.26994,-14.159 -0.0233,-7.5607 -0.003,-14.1311 0.0448,-14.601 0.10106,-0.9898 0.45747,-1.6085 1.16658,-2.025 0.47432,-0.2787 0.62941,-0.2824 11.75291,-0.2824 l 11.27224,0 0.037,3.0586 0.037,3.0586 2.9529,0 2.95289,0 -8.2e-4,12.0627 c -4.1e-4,7.4924 -0.0521,12.2473 -0.13612,12.5499 -0.15355,0.5528 -0.84303,1.2807 -1.41856,1.4976 -0.51842,0.1955 -26.68401,0.1873 -27.17496,-0.01 z m 10.95476,-3.6468 c 0.65948,-0.2739 1.37422,-1.0899 1.71309,-1.9557 0.41724,-1.0661 0.53414,-4.6012 0.1964,-5.9388 -0.45349,-1.7962 -1.43547,-2.6008 -3.17404,-2.6008 -1.53414,0 -2.26944,0.3414 -2.97039,1.3788 -0.57681,0.8538 -0.83243,2.1496 -0.82626,4.1886 0.0102,3.3722 0.78342,4.83 2.72954,5.146 0.77211,0.1254 1.71768,0.037 2.33166,-0.2181 z m -2.16498,-1.4805 c -0.19343,-0.1089 -0.42688,-0.3631 -0.51879,-0.5649 -0.51095,-1.1213 -0.53942,-4.7727 -0.0459,-5.8858 0.33112,-0.7468 0.63022,-0.977 1.26964,-0.977 1.16096,0 1.57187,1.012 1.56036,3.8428 -0.008,1.9289 -0.16908,2.752 -0.64678,3.3017 -0.37252,0.4287 -1.12613,0.5605 -1.61853,0.2832 z m 12.24251,0.8141 0,-0.7561 -0.96226,0 -0.96227,0 0,-4.4529 c 0,-4.9708 0.0767,-4.6199 -1.00892,-4.6199 -0.47827,0 -0.79867,0.1502 -1.92054,0.9005 l -1.34649,0.9004 0.0416,0.6461 c 0.0501,0.7784 0.18657,0.787 1.38192,0.087 l 0.79043,-0.463 0,3.501 0,3.5011 -1.01629,0 c -1.08172,0 -1.18317,0.065 -1.18317,0.7561 0,0.7752 -0.0806,0.756 3.17643,0.756 l 3.00955,0 0,-0.756 z m -1.71341,-13.9409 c 1.13614,-0.5025 1.76287,-1.7025 2.006,-3.8407 0.15561,-1.3684 0.0268,-3.3479 -0.28846,-4.4347 -0.41263,-1.4222 -1.52423,-2.1859 -3.17489,-2.181 -1.71315,0.01 -2.6588,0.6598 -3.3053,2.2883 -0.28782,0.725 -0.31874,1.0252 -0.32339,3.1386 -0.006,2.5521 0.1598,3.399 0.8391,4.296 0.81592,1.0774 2.72438,1.407 4.24694,0.7335 z m -2.38653,-1.5937 c -0.5586,-0.47 -0.74456,-1.3424 -0.74456,-3.493 0,-2.8052 0.43297,-3.7974 1.64214,-3.7632 0.58609,0.017 1.0884,0.4585 1.28401,1.1296 0.24626,0.8449 0.32121,3.4239 0.13204,4.5437 -0.14452,0.8556 -0.24915,1.1036 -0.62333,1.4778 -0.55782,0.5578 -1.11139,0.5922 -1.6903,0.1051 z m -4.17522,0.9975 -0.0416,-0.7217 -0.9279,-0.041 -0.9279,-0.041 0,-4.4461 0,-4.446 -0.49266,-0.092 c -0.76455,-0.1434 -1.26149,0.033 -2.56356,0.9082 l -1.20524,0.8103 0,0.6838 c 0,0.4009 0.0618,0.6838 0.1495,0.6838 0.0822,0 0.53665,-0.2165 1.00984,-0.4811 0.47319,-0.2646 0.9008,-0.4812 0.95023,-0.4812 0.0494,0 0.0899,1.5439 0.0899,3.4309 l 0,3.4309 -1.06536,0.04 -1.06537,0.04 -0.0435,0.53 c -0.0783,0.9533 -0.21557,0.9134 3.13939,0.9134 l 3.03576,0 -0.0415,-0.7217 z" fill="#00bcf2" transform="translate(100.589 -484.737)"/>
</svg>
