<svg xmlns:dc="http://purl.org/dc/elements/1.1/" xmlns:cc="http://creativecommons.org/ns#" xmlns:rdf="http://www.w3.org/1999/02/22-rdf-syntax-ns#" xmlns="http://www.w3.org/2000/svg" width="70" height="62.411">
    <metadata>
        <rdf:RDF>
            <cc:Work>
                <dc:subject>
                    Messaging
                </dc:subject>
                <dc:identifier>
                    storage-queue
                </dc:identifier>
                <dc:title>
                    Storage Queue
                </dc:title>
                <dc:format>
                    image/svg+xml
                </dc:format>
                <dc:publisher>
                    Amido Limited
                </dc:publisher>
                <dc:creator>
                    Richard Slater
                </dc:creator>
                <dc:type rdf:resource="http://purl.org/dc/dcmitype/StillImage"/>
            </cc:Work>
        </rdf:RDF>
    </metadata>
    <path d="m -176.60197,531.48626 c -4.7834,-8.5249 -8.7221,-15.54627 -8.7528,-15.60307 -0.031,-0.057 3.8887,-7.1243 8.7096,-15.7055 l 8.7653,-15.6022 17.5485,0 17.5486,0 8.6755,15.4433 c 4.7716,8.4939 8.7101,15.5334 8.7523,15.6434 0.044,0.1144 -3.652,6.83855 -8.6444,15.72703 l -8.7211,15.52708 -17.5922,0.0349 -17.5923,0.0349 -8.697,-15.49981 z m 51.0195,-3.18431 c 1.054,-1.09346 4.0511,-5.81438 6.5113,-10.25636 l 0.3823,-0.6902 -0.713,-1.4208 c -2.3535,-4.69 -5.3898,-9.7737 -6.4361,-10.7761 l -0.3943,-0.3778 -24.6772,0.035 -24.6772,0.036 -0.506,0.386 c -0.2783,0.2123 -0.6304,0.6296 -0.7823,0.9274 -0.2704,0.53 -0.2754,0.7588 -0.2393,10.8276 l 0.037,10.28619 0.3669,0.5542 c 0.2146,0.32436 0.6137,0.67643 0.9622,0.84894 l 0.5955,0.29475 24.4598,1.1e-4 24.4599,1.1e-4 0.6506,-0.67504 z m -49.2954,-1.27607 c -0.1512,-0.0859 -0.3204,-0.22327 -0.3759,-0.30534 -0.056,-0.0821 -0.102,-4.52578 -0.1031,-9.87495 0,-9.5484 0,-9.7307 0.2732,-10.001 0.2736,-0.2736 0.424,-0.2751 24.2284,-0.2406 l 23.9531,0.035 0.7765,1.1684 c 0.9324,1.403 2.397,3.9466 4.1082,7.1347 l 1.2612,2.3499 -1.1323,1.95686 c -1.7319,2.9928 -3.564,5.93775 -4.3269,6.95514 l -0.6879,0.9174 -23.8498,0.0304 c -17.5966,0.0224 -23.9218,-0.0105 -24.1247,-0.12572 z m 22.9912,-2.17137 0.4468,-0.2724 0,-7.35982 0,-7.3599 -0.3526,-0.1341 c -0.2168,-0.082 -4.0035,-0.134 -9.8262,-0.134 l -9.4736,0 -0.076,0.3093 c -0.042,0.1701 -0.059,3.6056 -0.037,7.6344 0.034,6.33263 0.067,7.34281 0.2455,7.45544 0.1245,0.0787 3.854,0.13093 9.4164,0.13189 8.9412,0.002 9.2233,-0.006 9.657,-0.27081 z m -17.5613,-6.32494 c 0,-2.57058 0.046,-4.67148 0.1031,-4.66868 0.057,0 1.7342,1.3329 3.7278,2.9556 2.7491,2.2375 3.7155,2.95027 4.0003,2.95027 0.2065,0 0.6355,-0.18832 0.9532,-0.41848 0.6336,-0.459 5.9172,-4.56539 6.8524,-5.32569 l 0.5842,-0.4749 0,4.8279 0,4.82782 -8.1105,0 -8.1105,0 0,-4.67384 z m 3.8918,-3.95348 c -2.0557,-1.6437 -3.7414,-3.035 -3.746,-3.0917 0,-0.057 3.394,-0.1031 7.5523,-0.1031 4.5132,0 7.5606,0.051 7.5606,0.1266 0,0.1275 -7.181,5.8928 -7.4726,5.9995 -0.086,0.031 -1.8386,-1.2875 -3.8943,-2.9313 z m 36.7982,10.27691 c 0.268,-0.26805 0.2749,-0.45822 0.2749,-7.60191 0,-5.5154 -0.041,-7.3677 -0.165,-7.4919 -0.218,-0.218 -18.9581,-0.2399 -19.3642,-0.023 -0.2578,0.138 -0.2659,0.3661 -0.2659,7.4819 l 0,7.33963 0.3622,0.28491 c 0.3583,0.28183 0.4623,0.28491 9.6226,0.28491 9.0771,0 9.2659,-0.005 9.5354,-0.27494 z m -17.7332,-6.32343 c 0,-2.57058 0.031,-4.67388 0.07,-4.67388 0.038,0 1.7433,1.33 3.7888,2.9556 2.8732,2.28325 3.808,2.95547 4.1098,2.95547 0.3998,0 0.9992,-0.43309 4.7473,-3.43057 0.9072,-0.7256 2.0671,-1.6477 2.5774,-2.0492 l 0.9279,-0.7299 0,4.8232 0,4.82312 -8.1105,0 -8.1105,0 0,-4.67384 z m 4.1655,-3.95698 c -2.0564,-1.6418 -3.7421,-3.0315 -3.746,-3.0882 0,-0.057 3.3952,-0.1031 7.5536,-0.1031 4.5686,0 7.5606,0.051 7.5606,0.1279 0,0.1331 -7.1721,5.8905 -7.4633,5.9911 -0.091,0.032 -1.8485,-1.2859 -3.9049,-2.9277 z" fill="#00bcf2" transform="translate(185.355 -484.575)"/>
</svg>
