<svg xmlns:rdf="http://www.w3.org/1999/02/22-rdf-syntax-ns#" xmlns="http://www.w3.org/2000/svg" height="15.311mm" width="19.755mm" xmlns:cc="http://creativecommons.org/ns#" xmlns:dc="http://purl.org/dc/elements/1.1/" viewBox="0 0 69.999752 54.24981">
    <metadata>
        <rdf:RDF>
            <cc:Work>
                <dc:subject>
                    Data
                </dc:subject>
                <dc:identifier>
                    stream-analytics
                </dc:identifier>
                <dc:title>
                    Stream Analytics
                </dc:title>
                <dc:format>
                    image/svg+xml
                </dc:format>
                <dc:publisher>
                    Amido Limited
                </dc:publisher>
                <dc:creator>
                    Richard Slater
                </dc:creator>
                <dc:type rdf:resource="http://purl.org/dc/dcmitype/StillImage"/>
            </cc:Work>
        </rdf:RDF>
    </metadata>
    <path d="m253.97 356.64c-1.8586 0.0112-3.447 0.2131-5.2643 0.60298 0.0991 2.0959 0.0969 1.3818 0.0991 2.0959 0.00092 3.5031-2.8391 6.3431-6.3422 6.3422-2.2287-0.004-4.2919-1.1773-5.434-3.0912-2.1417 1.7155-4.0106 3.7462-5.543 6.0225 1.174 0.71417 3.5549 3.2096 3.5549 3.2096 2.8006-2.3645 5.8207-3.3733 8.5797-3.3344 4.193 0.0852 8.7188 1.2439 10.35 2.0064 5.83 2.7254 11.271 7.1086 11.271 13.269 0 6.1605-4.9946 11.155-11.155 11.155-3.1721 0.00002-6.0329-1.3251-8.0639-3.4508-0.91061-0.95301-0.51152-1.2566-2.0668 0.10898-0.56173 0.49318-6.0896 4.6984-11.191 9.0955 1.5085 1.8766 2.3194 3.544 4.2681 4.9582 2.1418-1.9009 4.219-4.3696 6.9597-4.3734 3.5016 0.001 6.3394 2.8405 6.3385 6.3421-0.002 1.01 0.001-0.001-0.11995 3.0185 1.4366 0.24495 2.3022 0.25747 3.7595 0.26879 1.6786-0.006 2.5322 0.0686 4.1809-0.247 0.0482-3.2752 0.0465-2.2142 0.0472-3.2764 0.001-3.5002 2.8383-6.3374 6.3385-6.3385 2.6808 0.002 4.1323 1.691 6.5565 3.8648 2.264-1.7352 2.9469-2.876 4.5623-5.227-2.921-2.2308-3.3658-3.8805-3.3672-6.5056-0.00091-3.5016 2.8369-6.3411 6.3385-6.3422 0.75818 0.002 0 0.001 2.2194-0.0617 0.15603-1.1462 0.23849-1.8327 0.24699-2.9895-0.006-1.6984-0.17128-2.5716-0.49401-4.239-2.9095-0.10638-1.8965-0.10786-2.9095-0.10526-3.503 0.00091-6.3431-2.8391-6.3422-6.3422 0.004-2.6184 2.0885-4.6128 3.9448-6.2586-1.8096-2.3359-3.4614-3.6558-5.9239-5.2888-1.8562 2.1112-3.7012 3.7977-6.3572 3.7996-3.5016-0.001-6.3394-2.8405-6.3385-6.3422 0.001-0.73467 0 0-0.0296-2.1246-1.0235-0.12275-1.6422-0.21633-2.673-0.22187zm-10.113 14.733c-3.9798-0.0149-6.993 1.7851-9.4478 3.6687-2.4549 1.8837-4.479 3.8224-6.4402 4.5877-1.9612 0.76527-3.8993 0.72156-7.2067-1.7908l-1.6854 2.2194c3.7862 2.876 7.1518 3.2466 9.9055 2.1722s4.8545-3.2293 7.1268-4.9728c2.2722-1.7435 4.5904-3.1063 7.7406-3.0948 3.1502 0.0112 7.3287 1.4434 13.149 5.8954l1.6927-2.2158c-6.1032-4.6682-10.855-6.4547-14.835-6.4693zm0.8173 6.6182c-0.42214-0.0112-0.8354 0.009-1.2423 0.058-3.2551 0.39766-5.6038 2.5467-7.8641 4.5078-2.2604 1.9611-4.4426 3.7883-7.2248 4.3661-2.7822 0.57787-6.3755 0.0197-11.722-3.4254l-1.5111 2.3465c5.7205 3.6862 10.172 4.5638 13.799 3.8104 3.6277-0.75349 6.2203-3.0227 8.4889-4.9909s4.2022-3.5817 6.3712-3.8467c2.169-0.26496 5.0222 0.66132 9.4224 4.7584l1.8997-2.0414c-4.108-3.8251-7.4627-5.4604-10.418-5.543zm-1.0534 7.3302c-0.77109 0.0255-1.5042 0.16217-2.2012 0.39593-2.7879 0.93508-4.8121 3.0506-7.0214 4.7802s-4.486 3.1298-7.7515 3.2038c-3.2656 0.0738-7.6892-1.2284-13.992-5.4885l-1.5619 2.3102c6.5852 4.451 11.558 6.0599 15.616 5.968 4.0581-0.0919 7.0306-1.9319 9.4115-3.7958 2.3809-1.864 4.2862-3.6962 6.186-4.3334s3.9752-0.44659 7.5772 2.3429l1.7072-2.2049c-2.0071-1.5544-3.8504-2.4819-5.543-2.9059-0.84632-0.212-1.6553-0.29786-2.4264-0.27242z" fill="#00bcf2" transform="translate(-211.09 -356.64)"/>
</svg>
