<?xml version="1.0" encoding="UTF-8" standalone="no"?>
<!-- Created with Inkscape (http://www.inkscape.org/) -->

<svg
   xmlns:dc="http://purl.org/dc/elements/1.1/"
   xmlns:cc="http://creativecommons.org/ns#"
   xmlns:rdf="http://www.w3.org/1999/02/22-rdf-syntax-ns#"
   xmlns:svg="http://www.w3.org/2000/svg"
   xmlns="http://www.w3.org/2000/svg"
   xmlns:sodipodi="http://sodipodi.sourceforge.net/DTD/sodipodi-0.dtd"
   xmlns:inkscape="http://www.inkscape.org/namespaces/inkscape"
   width="70.049416"
   height="58.042843"
   id="svg3146"
   version="1.1"
   inkscape:version="0.48.4 r9939"
   sodipodi:docname="SSS.svg">
  <defs
     id="defs3148" />
  <sodipodi:namedview
     id="base"
     pagecolor="#ffffff"
     bordercolor="#666666"
     borderopacity="1.0"
     inkscape:pageopacity="0.0"
     inkscape:pageshadow="2"
     inkscape:zoom="0.35"
     inkscape:cx="-178.56118"
     inkscape:cy="-108.31814"
     inkscape:document-units="px"
     inkscape:current-layer="layer1"
     showgrid="false"
     fit-margin-top="0"
     fit-margin-left="0"
     fit-margin-right="0"
     fit-margin-bottom="0"
     inkscape:window-width="463"
     inkscape:window-height="401"
     inkscape:window-x="654"
     inkscape:window-y="197"
     inkscape:window-maximized="0" />
  <metadata
     id="metadata3151">
    <rdf:RDF>
      <cc:Work
         rdf:about="">
        <dc:format>image/svg+xml</dc:format>
        <dc:type
           rdf:resource="http://purl.org/dc/dcmitype/StillImage" />
        <dc:title></dc:title>
      </cc:Work>
    </rdf:RDF>
  </metadata>
  <g
     inkscape:label="Layer 1"
     inkscape:groupmode="layer"
     id="layer1"
     transform="translate(-553.56118,-251.71548)">
    <path
       style="fill:#00bcf2;fill-opacity:1;stroke:none"
       d="m 555.56259,251.71548 c -1.20323,0 -2.00141,0.70882 -2.00141,2.00141 l 0,54.03811 c 0,1.11388 0.5688,2.00141 2.00141,2.00141 l 66.04658,0 c 1.38194,0.0476 2.00342,-0.79819 2.00142,-2.00141 l 0,-54.03811 c 0,-1.15856 -0.83547,-2.00141 -2.00142,-2.00141 l -66.04658,0 z m 2.00141,16.01129 14.00988,0 0,8.00565 -14.00988,0 0,-8.00565 z m 16.01129,0 14.00988,0 0,8.00565 -14.00988,0 0,-8.00565 z m 16.01129,0 14.00988,0 0,8.00565 -14.00988,0 0,-8.00565 z m 16.01129,0 14.00989,0 0,8.00565 -14.00989,0 0,-8.00565 z m -48.03387,10.00706 14.00988,0 0,8.00564 -14.00988,0 0,-8.00564 z m 16.01129,0 14.00988,0 0,8.00564 -14.00988,0 0,-8.00564 z m 16.01129,0 14.00988,0 0,8.00564 -14.00988,0 0,-8.00564 z m 16.01129,0 14.00989,0 0,8.00564 -14.00989,0 0,-8.00564 z m -48.03387,10.00705 14.00988,0 0,8.00565 -14.00988,0 0,-8.00565 z m 16.01129,0 14.00988,0 0,8.00565 -14.00988,0 0,-8.00565 z m 16.01129,0 14.00988,0 0,8.00565 -14.00988,0 0,-8.00565 z m 16.01129,0 14.00989,0 0,8.00565 -14.00989,0 0,-8.00565 z m -48.03387,10.00706 14.00988,0 0,8.00564 -14.00988,0 0,-8.00564 z m 16.01129,0 14.00988,0 0,8.00564 -14.00988,0 0,-8.00564 z m 16.01129,0 14.00988,0 0,8.00564 -14.00988,0 0,-8.00564 z m 16.01129,0 14.00989,0 0,8.00564 -14.00989,0 0,-8.00564 z"
       id="rect3000"
       inkscape:connector-curvature="0" />
  </g>
</svg>
