<svg xmlns:dc="http://purl.org/dc/elements/1.1/" xmlns:cc="http://creativecommons.org/ns#" xmlns:rdf="http://www.w3.org/1999/02/22-rdf-syntax-ns#" xmlns="http://www.w3.org/2000/svg" width="51.07" height="70">
    <metadata>
        <rdf:RDF>
            <cc:Work>
                <dc:subject>
                    Data
                </dc:subject>
                <dc:identifier>
                    vhd-data-disk
                </dc:identifier>
                <dc:title>
                    VHD Data Disk
                </dc:title>
                <dc:format>
                    image/svg+xml
                </dc:format>
                <dc:publisher>
                    Amido Limited
                </dc:publisher>
                <dc:creator>
                    Richard Slater
                </dc:creator>
                <dc:type rdf:resource="http://purl.org/dc/dcmitype/StillImage"/>
            </cc:Work>
        </rdf:RDF>
    </metadata>
    <path d="m -166.97895,668.72589 c -3.3241,-0.5854 -5.8437,-1.9117 -6.243,-3.2861 -0.097,-0.3337 -0.131,-3.6674 -0.1033,-10.118 l 0.041,-9.6203 0.3937,-0.5161 c 1.8622,-2.4413 8.758,-3.6147 14.227,-2.4211 2.8106,0.6134 4.9926,1.9065 5.3562,3.174 0.082,0.2865 0.1334,4.131 0.1315,9.8738 0,8.9414 -0.016,9.4328 -0.2637,9.9788 -0.6065,1.336 -3.0898,2.4826 -6.4934,2.9983 -1.841,0.2789 -5.2784,0.248 -7.0462,-0.063 z m 6.05,-20.8097 c 2.0724,-0.1702 4.1132,-0.8511 4.5503,-1.5181 0.7728,-1.1795 -1.4852,-2.2543 -5.2825,-2.5144 -4.5153,-0.3092 -8.6714,0.6654 -8.6714,2.0335 0,0.7038 0.8589,1.2349 2.7079,1.6742 1.9162,0.4553 3.9219,0.5526 6.6957,0.3248 z m -41.7134,15.4437 c -0.2157,-0.065 -0.5177,-0.2296 -0.671,-0.3661 -0.6859,-0.6106 -0.6527,1.0085 -0.6527,-31.8225 0,-33.7792 -0.064,-31.3566 0.8497,-31.9139 0.4513,-0.2752 0.6234,-0.2771 24.6843,-0.2771 23.7898,0 24.2378,0 24.6693,0.268 0.9298,0.5669 0.8647,-1.077 0.8647,21.8262 0,11.4048 -0.029,20.736 -0.064,20.736 -0.035,0 -0.4593,-0.2173 -0.9426,-0.483 -2.0829,-1.1449 -5.7154,-1.988 -8.5651,-1.988 -0.5494,0 -0.9989,-0.031 -0.9989,-0.068 0,-0.037 0.4216,-0.6234 0.937,-1.3022 2.3316,-3.071 3.6741,-6.6288 4.0212,-10.6563 0.4164,-4.8319 -1.0163,-9.8278 -3.9404,-13.7399 -5.4017,-7.2271 -14.7945,-9.992 -23.1983,-6.8289 -3.489,1.3133 -6.6325,3.7079 -8.999,6.8553 -3.5739,4.7533 -4.8381,11.1322 -3.3872,17.0914 0.82,3.3681 2.9285,7.0979 5.3117,9.3963 l 0.5617,0.5417 2.4377,-2.4056 c 2.8319,-2.7948 3.2223,-3.0426 4.9086,-3.1156 0.8836,-0.038 1.2586,0.013 1.9185,0.2602 1.7034,0.6393 2.9511,2.376 3.0662,4.2679 0.07,1.1474 -0.04,1.5007 -1.2441,3.991 -0.5376,1.1122 -0.9501,2.0496 -0.9167,2.083 0.138,0.138 3.5761,0.3293 4.6254,0.2573 l 1.1327,-0.078 -0.035,8.7713 -0.035,8.7712 -12.9729,0.023 c -7.1351,0.013 -13.1494,-0.03 -13.3652,-0.095 z m 9.2497,-3.3734 c 0.9438,-0.2803 1.975,-0.9437 2.6741,-1.7203 0.3975,-0.4416 1.7201,-2.9618 4.7901,-9.1273 4.0005,-8.0344 4.2409,-8.5596 4.2409,-9.2645 0,-1.1473 -0.5712,-2.0911 -1.5781,-2.6075 -0.7283,-0.3735 -1.9562,-0.3518 -2.6982,0.048 -0.3536,0.1904 -3.0877,2.8658 -7.1258,6.9729 -5.915,6.016 -6.598,6.7569 -7.024,7.619 -0.3993,0.8082 -0.4809,1.1364 -0.5306,2.1354 -0.094,1.8867 0.4451,3.3096 1.7167,4.5323 1.5158,1.4577 3.5952,1.9883 5.5349,1.4123 z m -2.454,-3.0774 c -2.1325,-0.9034 -2.3071,-3.7759 -0.292,-4.8039 0.8893,-0.4537 2.1863,-0.2834 2.9243,0.384 1.1546,1.0441 0.9711,3.2418 -0.3433,4.1116 -0.5952,0.3939 -1.7271,0.5464 -2.289,0.3083 z m -4.0744,-53.5947 c 0.5009,-0.2093 0.8971,-0.8126 0.8971,-1.3663 0,-0.4505 -0.598,-1.143 -1.0781,-1.2484 -0.8319,-0.1827 -1.6675,0.4763 -1.6675,1.3151 0,0.5888 0.5112,1.3038 0.9999,1.3984 0.1674,0.032 0.3217,0.067 0.343,0.078 0.021,0.01 0.2488,-0.069 0.5056,-0.1764 z m 43.7922,0 c 0.456,-0.1905 0.897,-0.8033 0.897,-1.2463 0,-0.4126 -0.416,-1.0247 -0.8482,-1.2483 -0.3538,-0.1829 -0.5243,-0.1956 -0.9435,-0.07 -0.6267,0.1878 -0.9538,0.6553 -0.9538,1.3634 0,0.5914 0.4674,1.1959 1.0058,1.3008 0.1641,0.032 0.3157,0.067 0.3371,0.077 0.021,0.01 0.2488,-0.069 0.5056,-0.1764 z m -24.2938,31.8286 c -0.5285,-0.1163 -1.5478,-0.4942 -2.2651,-0.8399 -2.3328,-1.1244 -4.239,-3.4041 -5.0291,-6.0146 -0.1874,-0.6193 -0.248,-1.2667 -0.2443,-2.6083 0,-1.5462 0.052,-1.9273 0.3607,-2.8525 0.9981,-2.9953 3.2912,-5.2901 6.2169,-6.2214 4.6664,-1.4855 9.7873,0.95 11.6451,5.5383 0.4875,1.2041 0.6636,2.1791 0.6578,3.6431 -0.017,4.3316 -2.9195,8.1091 -7.0863,9.2228 -1.2195,0.3259 -3.1089,0.3847 -4.2557,0.1325 z m 3.7752,-1.9913 c 1.1306,-0.2577 2.5545,-1.0688 3.473,-1.9782 1.9751,-1.9558 2.7179,-4.6795 2.0202,-7.4074 -0.354,-1.3843 -0.9518,-2.4199 -1.9856,-3.4399 -1.4888,-1.4688 -3.1279,-2.1278 -5.2922,-2.1278 -2.1434,0 -3.8173,0.6649 -5.2352,2.0796 -4.1484,4.1389 -2.3267,11.2763 3.2709,12.8151 0.7988,0.2196 2.8984,0.2524 3.7489,0.059 z m -2.1964,-1.2667 c -0.518,-0.2605 -0.7521,-0.8414 -0.5427,-1.3469 0.3065,-0.74 1.1463,-0.9034 1.7158,-0.334 0.4199,0.42 0.4302,0.918 0.028,1.3603 -0.3972,0.4369 -0.7715,0.5368 -1.2012,0.3206 z m -3.6614,-1.5378 c -1.013,-0.426 -0.6615,-1.9977 0.4441,-1.9857 0.7968,0.01 1.2623,0.7217 0.9523,1.4589 -0.2304,0.548 -0.8183,0.7698 -1.3964,0.5268 z m 7.2759,0 c -1.0188,-0.4284 -0.6622,-1.9901 0.4545,-1.9901 0.7674,0 1.2603,0.9238 0.8759,1.6419 -0.209,0.3906 -0.8381,0.5552 -1.3304,0.3482 z m -4.3009,-1.7965 c -1.2072,-0.5215 -2.041,-1.9307 -1.872,-3.1637 0.1038,-0.7573 0.3563,-1.2506 0.9248,-1.8064 1.7717,-1.7322 4.7964,-0.5847 5.0362,1.9106 0.2073,2.1583 -2.1288,3.9062 -4.089,3.0595 z m -4.4616,-1.8589 c -0.7018,-0.3923 -0.8279,-1.1572 -0.2808,-1.7043 0.6682,-0.6682 1.7222,-0.2093 1.7222,0.75 0,0.7854 -0.7983,1.3139 -1.4414,0.9543 z m 10.0399,-0.1293 c -0.279,-0.2195 -0.3617,-0.4055 -0.3617,-0.8137 0,-0.4082 0.083,-0.5943 0.3617,-0.8137 0.199,-0.1565 0.4995,-0.2845 0.6679,-0.2845 0.1684,0 0.4689,0.128 0.6679,0.2845 0.279,0.2194 0.3617,0.4055 0.3617,0.8137 0,0.4082 -0.083,0.5942 -0.3617,0.8137 -0.199,0.1565 -0.4995,0.2845 -0.6679,0.2845 -0.1684,0 -0.4689,-0.128 -0.6679,-0.2845 z m -8.8491,-3.7398 c -0.5201,-0.5536 -0.3719,-1.3915 0.2958,-1.6723 1.1579,-0.4868 2.0779,1.0463 1.082,1.8029 -0.3795,0.2884 -1.0434,0.2255 -1.3778,-0.1306 z m 7.2758,0 c -0.5201,-0.5536 -0.3719,-1.3915 0.2959,-1.6723 0.4923,-0.207 1.1214,-0.042 1.3304,0.3481 0.5857,1.0943 -0.79,2.2144 -1.6263,1.3242 z m -3.4678,-1.3683 c -0.8535,-0.6552 -0.4675,-1.9289 0.5845,-1.9289 0.515,0 1.0747,0.5673 1.0747,1.0892 0,0.7423 -1.0765,1.2871 -1.6592,0.8397 z" fill="#00bcf2" transform="translate(203.967 -598.98)"/>
</svg>
