<?xml version="1.0" encoding="UTF-8" standalone="no"?>
<!-- Created with Inkscape (http://www.inkscape.org/) -->

<svg
   xmlns:dc="http://purl.org/dc/elements/1.1/"
   xmlns:cc="http://creativecommons.org/ns#"
   xmlns:rdf="http://www.w3.org/1999/02/22-rdf-syntax-ns#"
   xmlns:svg="http://www.w3.org/2000/svg"
   xmlns="http://www.w3.org/2000/svg"
   xmlns:sodipodi="http://sodipodi.sourceforge.net/DTD/sodipodi-0.dtd"
   xmlns:inkscape="http://www.inkscape.org/namespaces/inkscape"
   width="64.059822"
   height="58.054199"
   id="svg3146"
   version="1.1"
   inkscape:version="0.48.4 r9939"
   sodipodi:docname="SSS.svg">
  <defs
     id="defs3148" />
  <sodipodi:namedview
     id="base"
     pagecolor="#ffffff"
     bordercolor="#666666"
     borderopacity="1.0"
     inkscape:pageopacity="0.0"
     inkscape:pageshadow="2"
     inkscape:zoom="0.35"
     inkscape:cx="-182.15732"
     inkscape:cy="211.23187"
     inkscape:document-units="px"
     inkscape:current-layer="layer1"
     showgrid="false"
     fit-margin-top="0"
     fit-margin-left="0"
     fit-margin-right="0"
     fit-margin-bottom="0"
     inkscape:window-width="463"
     inkscape:window-height="401"
     inkscape:window-x="654"
     inkscape:window-y="197"
     inkscape:window-maximized="0" />
  <metadata
     id="metadata3151">
    <rdf:RDF>
      <cc:Work
         rdf:about="">
        <dc:format>image/svg+xml</dc:format>
        <dc:type
           rdf:resource="http://purl.org/dc/dcmitype/StillImage" />
        <dc:title></dc:title>
      </cc:Work>
    </rdf:RDF>
  </metadata>
  <g
     inkscape:label="Layer 1"
     inkscape:groupmode="layer"
     id="layer1"
     transform="translate(-557.15732,-571.25413)">
    <path
       style="fill:#00bcf2;fill-opacity:1;stroke:none"
       d="m 561.16106,571.25413 c -2.21807,0 -4.00374,1.7857 -4.00374,4.0037 l 0,38.0355 c 0,2.2181 1.78567,4.0038 4.00374,4.0038 l 20.01869,0 0,8.0075 -8.00747,0 0,2.0018 -4.00374,0 0,2.0019 40.03738,0 0,-2.0019 -4.00373,0 0,-2.0018 -8.00748,0 0,-8.0075 20.01869,0 c 2.21807,0 4.00374,-1.7857 4.00374,-4.0038 l 0,-38.0355 c 0,-2.218 -1.78567,-4.0037 -4.00374,-4.0037 l -56.05234,0 z m 0,4.0037 56.05234,0 0,38.0355 -56.05234,0 0,-38.0355 z m 29.02711,7.5696 -10.88517,5.5051 10.88517,6.5061 11.13539,-6.5061 -11.13539,-5.5051 z m -10.88517,7.507 0,12.0112 10.00935,6.0056 0,-12.0112 -10.00935,-6.0056 z m 22.02056,0.062 -10.00934,6.0056 0,12.0112 10.00934,-6.0056 0,-12.0112 z"
       id="rect3255"
       inkscape:connector-curvature="0" />
  </g>
</svg>
