<svg xmlns:dc="http://purl.org/dc/elements/1.1/" xmlns:cc="http://creativecommons.org/ns#" xmlns:rdf="http://www.w3.org/1999/02/22-rdf-syntax-ns#" xmlns="http://www.w3.org/2000/svg" width="70.001" height="56.015">
    <metadata>
        <rdf:RDF>
            <cc:Work>
                <dc:subject>
                    Compute
                </dc:subject>
                <dc:identifier>
                    virtual-machine
                </dc:identifier>
                <dc:title>
                    Virtual Machine
                </dc:title>
                <dc:format>
                    image/svg+xml
                </dc:format>
                <dc:publisher>
                    Amido Limited
                </dc:publisher>
                <dc:creator>
                    Richard Slater
                </dc:creator>
                <dc:type rdf:resource="http://purl.org/dc/dcmitype/StillImage"/>
            </cc:Work>
        </rdf:RDF>
    </metadata>
    <path d="m -52.319521,757.34715 c -0.69723,-0.3474 -1.25675,-0.9826 -1.54676,-1.7558 -0.0999,-0.2663 -0.14403,-8.3338 -0.14195,-25.949 0.003,-24.5361 0.0132,-25.585 0.25594,-26.1195 0.30751,-0.677 1.26315,-1.5234 1.92882,-1.7083 0.31695,-0.088 11.9359,-0.1352 32.96019,-0.1337 31.11638,0 32.49358,0.013 33.01986,0.2523 0.70173,0.3196 1.51947,1.2248 1.71437,1.8978 0.10883,0.3758 0.14015,7.7648 0.11104,26.1979 l -0.0405,25.6745 -0.37862,0.5824 c -0.20824,0.3204 -0.64073,0.7528 -0.96108,0.96111 l -0.58245,0.37859 -32.81961,0.035 -32.8196,0.035 -0.6996,-0.3486 z m 30.95254,-3.3372 c 0.20711,-0.1314 2.25367,-6.1877 2.1485,-6.3579 -0.0401,-0.065 -0.28865,-0.1179 -0.55234,-0.1179 -0.57687,0 -0.56627,-0.021 -1.50733,3.0548 -0.36381,1.1894 -0.69526,2.1617 -0.73654,2.1608 -0.0413,0 -0.37552,-0.974 -0.74274,-2.1624 -0.95542,-3.092 -0.93603,-3.0532 -1.52638,-3.0532 -0.30559,0 -0.52111,0.076 -0.56913,0.20141 -0.0919,0.23959 1.84444,6.13779 2.06295,6.28379 0.20257,0.1352 1.20557,0.1287 1.42301,-0.01 z m 4.11387,0 c 0.12156,-0.077 0.17898,-0.8513 0.20595,-2.7765 l 0.0374,-2.6694 0.87759,2.5823 c 0.48267,1.4203 0.9659,2.6707 1.07385,2.7786 0.24205,0.2421 0.73942,0.2541 1.02233,0.025 0.11642,-0.094 0.60705,-1.2989 1.0903,-2.6767 0.48324,-1.3778 0.92362,-2.5054 0.97862,-2.5057 0.055,0 0.11679,1.1888 0.1373,2.6424 l 0.0373,2.6429 0.48054,0 0.48054,0 0,-3.1578 0,-3.1578 -0.96108,0 -0.96108,0 -0.75657,1.9908 c -0.41611,1.0949 -0.80816,2.1144 -0.87122,2.2654 -0.0904,0.2164 -0.25726,-0.118 -0.78783,-1.5789 -1.07659,-2.9643 -0.91521,-2.746 -2.02961,-2.746 -0.73835,0 -0.96708,0.048 -1.03195,0.2172 -0.0458,0.1195 -0.0833,1.5353 -0.0833,3.1464 0,2.2149 0.0418,2.9461 0.17162,2.9985 0.26687,0.1076 0.70354,0.098 0.88936,-0.02 z m 9.5108599,-14.2837 0,-0.6654 -1.93659,-0.092 c -2.9465399,-0.1407 -3.9095399,-0.4288 -4.3193299,-1.2924 -0.21018,-0.4429 -0.21755,-0.6188 -0.0672,-1.60259 0.0929,-0.6078 0.23283,-1.18231 0.31094,-1.27671 0.1089,-0.1316 1.31822,-0.1716 5.1866699,-0.1716 4.80777,0 5.06077,-0.013 5.38782,-0.26999 0.18875,-0.14851 0.41454,-0.44221 0.50176,-0.65281 0.11608,-0.2802 0.14866,-3.0196 0.12156,-10.22219 l -0.037,-9.83941 -0.33304,-0.3545 c -0.18318,-0.1949 -0.55388,-0.4158 -0.82379,-0.4908 -0.68197,-0.18939 -27.4986799,-0.1854 -28.1815199,0 -0.27832,0.077 -0.66447,0.3288 -0.8581,0.5589 l -0.35207,0.4185 0,9.9572 0,9.9572 0.46681,0.4668 0.46681,0.4668 5.02023,0 c 5.81952,0 5.28735,-0.1608 5.39675,1.6307 0.0779,1.2759 -0.18757,1.8144 -1.09177,2.2144 -0.59576,0.2635 -2.79429,0.5484 -4.23232,0.5484 l -0.80924,0 0,0.6865 0,0.6864 10.09131,0 10.0913099,0 0,-0.6653 z m -23.3404399,-16.0856 0,-8.9249 13.21481,0.035 13.2148099,0.035 0.0353,8.8899 0.0353,8.89 -13.2501399,0 -13.25013,0 0,-8.925 z m 13.18001,3.7421 -4.1e-4,-2.849 -1.75006,-0.9945 c -0.96253,-0.547 -2.07442,-1.1815 -2.47086,-1.4101 l -0.72081,-0.4155 0.005,2.8517 0.005,2.8517 2.43153,1.39911 c 1.33734,0.76959 2.44698,1.40289 2.46586,1.40729 0.0189,0 0.0341,-1.2738 0.0338,-2.8407 z m 3.4461,1.3756 2.32084,-1.3359 0,-2.783 c 0,-1.5306 -0.0343,-2.7829 -0.0761,-2.7829 -0.0419,0 -1.12214,0.6024 -2.40057,1.3386 l -2.32444,1.3386 -0.002,2.7803 c -0.001,1.5292 0.0347,2.7803 0.0797,2.7803 0.045,0 1.12623,-0.6012 2.40269,-1.336 z m -0.56134,-6.4556 c 1.28009,-0.7363 2.32869,-1.3787 2.33022,-1.4276 0.004,-0.1126 -4.5428,-2.7599 -4.75103,-2.7665 -0.26809,-0.01 -4.85996,2.7016 -4.75304,2.8052 0.15571,0.151 4.61772,2.7119 4.73961,2.7202 0.0587,0 1.15415,-0.5951 2.43424,-1.3313 z" fill="#00bcf2" transform="translate(54.008 -701.681)"/>
</svg>
