<svg xmlns:dc="http://purl.org/dc/elements/1.1/" xmlns:cc="http://creativecommons.org/ns#" xmlns:rdf="http://www.w3.org/1999/02/22-rdf-syntax-ns#" xmlns="http://www.w3.org/2000/svg" width="51.303" height="70">
    <metadata>
        <rdf:RDF>
            <cc:Work>
                <dc:subject>
                    Code
                </dc:subject>
                <dc:identifier>
                    wad-diagonostics-config
                </dc:identifier>
                <dc:title>
                    WAD (Diagnostics) Config
                </dc:title>
                <dc:format>
                    image/svg+xml
                </dc:format>
                <dc:publisher>
                    Amido Limited
                </dc:publisher>
                <dc:creator>
                    Richard Slater
                </dc:creator>
                <dc:type rdf:resource="http://purl.org/dc/dcmitype/StillImage"/>
            </cc:Work>
        </rdf:RDF>
    </metadata>
    <path d="M 23.378906 0.001953125 C 4.6101765 -0.004756875 5.5156119 -0.043575 3.7324219 0.859375 C 2.8043919 1.329305 1.32322 2.819435 0.84375 3.765625 C -0.03422 5.498185 0 4.58994 0 26.53125 C 0 40.91678 0.05111125 47.000321 0.17578125 47.587891 C 0.67964125 49.962621 2.5173881 52.025973 4.8300781 52.814453 L 5.8476562 53.162109 L 25.597656 53.166016 C 44.277846 53.169826 45.398606 53.155539 46.259766 52.886719 C 48.674506 52.132929 50.686864 49.880699 51.146484 47.417969 C 51.245744 46.885919 51.302734 39.982094 51.302734 28.583984 L 51.302734 10.589844 L 45.960938 5.2988281 L 40.621094 0.0078125 L 23.378906 0.001953125 z M 38.359375 4.3632812 L 38.359375 8.7285156 L 38.359375 13.09375 L 42.652344 13.09375 L 46.943359 13.09375 L 46.900391 29.974609 C 46.861841 45.339699 46.834519 46.896446 46.599609 47.322266 C 46.265229 47.928396 45.722435 48.428119 45.171875 48.636719 C 44.869295 48.751339 38.787903 48.800875 25.601562 48.796875 C 9.965043 48.791885 6.3862664 48.752691 6.0039062 48.582031 C 5.3596663 48.294461 4.7025113 47.559855 4.5195312 46.921875 C 4.4232712 46.586195 4.3652344 39.039333 4.3652344 26.539062 C 4.3652344 9.029663 4.3938888 6.6235675 4.6054688 6.1171875 C 4.9285588 5.3439175 5.2619963 4.9949769 6.0039062 4.6542969 C 6.5960363 4.3823469 7.4320302 4.3682344 22.494141 4.3652344 L 38.359375 4.3632812 z M 13.410156 16.992188 L 13.410156 19.150391 C 13.410156 20.336811 13.456472 21.354909 13.513672 21.412109 C 13.570842 21.469269 18.939549 21.515625 25.443359 21.515625 L 37.267578 21.515625 L 37.267578 19.253906 L 37.267578 16.992188 L 25.339844 16.992188 L 13.410156 16.992188 z M 13.488281 25.335938 L 13.445312 27.433594 C 13.421313 28.587084 13.435516 29.622305 13.478516 29.734375 C 13.542116 29.900175 15.761547 29.930938 25.373047 29.898438 L 37.191406 29.857422 L 37.191406 27.597656 L 37.191406 25.335938 L 25.339844 25.335938 L 13.488281 25.335938 z M 37.267578 33.675781 L 25.378906 33.716797 L 13.488281 33.755859 L 13.445312 35.978516 L 13.402344 38.201172 L 25.335938 38.201172 L 37.267578 38.201172 L 37.267578 35.9375 L 37.267578 33.675781 z M 37.369141 56.876953 C 37.010807 56.876953 36.69797 56.927603 36.431641 57.029297 C 36.170154 57.126147 35.951668 57.278107 35.777344 57.486328 C 35.603019 57.694549 35.471928 57.963689 35.384766 58.292969 C 35.302446 58.617406 35.261719 59.00771 35.261719 59.462891 L 35.261719 60.138672 L 34.339844 60.138672 C 34.301104 60.138672 34.267334 60.146676 34.238281 60.166016 C 34.209231 60.180546 34.185386 60.210326 34.166016 60.253906 C 34.146646 60.292646 34.130774 60.343296 34.121094 60.40625 C 34.111394 60.4692 34.107422 60.546667 34.107422 60.638672 C 34.107422 60.812996 34.127276 60.9401 34.166016 61.017578 C 34.204756 61.095058 34.262366 61.132813 34.339844 61.132812 L 35.261719 61.132812 L 35.261719 66.863281 C 35.261719 66.902021 35.271616 66.935791 35.291016 66.964844 C 35.310386 66.989054 35.341186 67.01188 35.384766 67.03125 C 35.433186 67.05062 35.496741 67.064529 35.574219 67.074219 C 35.651699 67.083919 35.749018 67.089844 35.865234 67.089844 C 35.981451 67.089844 36.078773 67.083949 36.15625 67.074219 C 36.23373 67.064519 36.294311 67.05062 36.337891 67.03125 C 36.386321 67.01188 36.420081 66.989064 36.439453 66.964844 C 36.458823 66.935794 36.46875 66.902024 36.46875 66.863281 L 36.46875 61.132812 L 37.927734 61.132812 C 38.000374 61.132813 38.057983 61.095052 38.101562 61.017578 C 38.145142 60.940098 38.167969 60.812996 38.167969 60.638672 C 38.167969 60.546672 38.160964 60.469203 38.146484 60.40625 C 38.136784 60.3433 38.119913 60.292646 38.095703 60.253906 C 38.076333 60.210326 38.050544 60.180546 38.021484 60.166016 C 37.997274 60.146646 37.966474 60.138672 37.927734 60.138672 L 36.46875 60.138672 L 36.46875 59.425781 C 36.46875 59.144925 36.485641 58.908538 36.519531 58.714844 C 36.553431 58.516307 36.608071 58.355434 36.685547 58.234375 C 36.763027 58.108473 36.864334 58.017091 36.990234 57.958984 C 37.116136 57.900874 37.270052 57.871094 37.449219 57.871094 C 37.579962 57.871094 37.692217 57.883993 37.789062 57.908203 C 37.890752 57.927573 37.978146 57.951409 38.050781 57.980469 C 38.123421 58.004679 38.184002 58.028514 38.232422 58.052734 C 38.285682 58.072104 38.329382 58.082031 38.363281 58.082031 C 38.392331 58.082031 38.416177 58.078029 38.435547 58.068359 C 38.454917 58.053829 38.470789 58.029994 38.480469 57.996094 C 38.494999 57.962194 38.505935 57.918504 38.515625 57.865234 C 38.525325 57.807124 38.53125 57.730677 38.53125 57.638672 C 38.53125 57.546672 38.525355 57.469203 38.515625 57.40625 C 38.510825 57.33846 38.499839 57.283814 38.480469 57.240234 C 38.461099 57.191814 38.4353 57.152104 38.40625 57.123047 C 38.3772 57.093997 38.31958 57.063197 38.232422 57.029297 C 38.145262 56.990557 38.023079 56.956787 37.863281 56.927734 C 37.703483 56.893834 37.538623 56.876953 37.369141 56.876953 z M 25.820312 56.957031 C 25.704096 56.957031 25.606774 56.964036 25.529297 56.978516 C 25.456657 56.988216 25.396076 57.002114 25.347656 57.021484 C 25.299226 57.036014 25.265456 57.05985 25.246094 57.09375 C 25.231564 57.12281 25.224609 57.155563 25.224609 57.189453 L 25.224609 60.988281 C 24.914694 60.663844 24.598892 60.418546 24.279297 60.253906 C 23.964544 60.084424 23.61692 60 23.234375 60 C 22.774352 60 22.367163 60.08739 22.013672 60.261719 C 21.665023 60.431201 21.37204 60.674546 21.134766 60.994141 C 20.89749 61.313736 20.718715 61.701069 20.597656 62.15625 C 20.476598 62.606588 20.416016 63.114069 20.416016 63.675781 C 20.416016 64.150331 20.463696 64.602234 20.560547 65.033203 C 20.657397 65.45933 20.809357 65.832749 21.017578 66.152344 C 21.230641 66.467096 21.506738 66.719352 21.845703 66.908203 C 22.184667 67.092212 22.594826 67.183594 23.074219 67.183594 C 23.514872 67.183594 23.919091 67.079315 24.287109 66.871094 C 24.65997 66.662873 25.017521 66.372861 25.361328 66 L 25.361328 66.863281 C 25.361328 66.902021 25.371225 66.935791 25.390625 66.964844 C 25.409995 66.993894 25.440795 67.019693 25.484375 67.039062 C 25.527955 67.053592 25.584551 67.064529 25.652344 67.074219 C 25.720134 67.083919 25.804561 67.089844 25.90625 67.089844 C 26.0031 67.089844 26.086504 67.083949 26.154297 67.074219 C 26.222087 67.064519 26.27376 67.053592 26.3125 67.039062 C 26.35608 67.019693 26.385861 66.993904 26.400391 66.964844 C 26.419761 66.935794 26.429687 66.902024 26.429688 66.863281 L 26.429688 57.189453 C 26.429686 57.155553 26.416788 57.1228 26.392578 57.09375 C 26.373208 57.05985 26.342408 57.036014 26.298828 57.021484 C 26.255248 57.002114 26.194665 56.988206 26.117188 56.978516 C 26.039707 56.963986 25.941372 56.957031 25.820312 56.957031 z M 16.056641 60 C 15.804839 60 15.555554 60.023846 15.308594 60.072266 C 15.061634 60.115846 14.835174 60.173458 14.626953 60.246094 C 14.418732 60.313884 14.234016 60.391354 14.074219 60.478516 C 13.914421 60.560836 13.800215 60.634312 13.732422 60.697266 C 13.669472 60.760216 13.628742 60.827756 13.609375 60.900391 C 13.594845 60.968181 13.587891 61.062535 13.587891 61.183594 C 13.587891 61.256224 13.591892 61.323765 13.601562 61.386719 C 13.611263 61.444829 13.627124 61.494463 13.646484 61.533203 C 13.670694 61.571943 13.697513 61.599771 13.726562 61.619141 C 13.755612 61.638511 13.789382 61.648438 13.828125 61.648438 C 13.886235 61.648438 13.973627 61.614668 14.089844 61.546875 C 14.210902 61.474245 14.356925 61.396773 14.53125 61.314453 C 14.710417 61.227293 14.916004 61.149825 15.148438 61.082031 C 15.385711 61.009401 15.653835 60.972656 15.949219 60.972656 C 16.225233 60.972656 16.457633 61.006426 16.646484 61.074219 C 16.835336 61.137169 16.9873 61.234491 17.103516 61.365234 C 17.224574 61.491135 17.311968 61.652009 17.365234 61.845703 C 17.418504 62.039397 17.445313 62.26187 17.445312 62.513672 L 17.445312 63.021484 L 16.544922 63.021484 C 16.036475 63.021484 15.578632 63.068154 15.171875 63.160156 C 14.765118 63.247316 14.421481 63.379427 14.140625 63.558594 C 13.859768 63.73776 13.644253 63.963204 13.494141 64.234375 C 13.344028 64.505547 13.267578 64.825341 13.267578 65.193359 C 13.267578 65.508112 13.321198 65.788196 13.427734 66.035156 C 13.539108 66.282116 13.691072 66.490674 13.884766 66.660156 C 14.083302 66.829639 14.321643 66.95776 14.597656 67.044922 C 14.878513 67.136932 15.19135 67.183594 15.535156 67.183594 C 15.927386 67.183594 16.297836 67.099174 16.646484 66.929688 C 16.999976 66.760205 17.317817 66.521864 17.603516 66.216797 L 17.603516 66.871094 C 17.603516 66.929204 17.620407 66.9729 17.654297 67.001953 C 17.688197 67.031003 17.741817 67.051886 17.814453 67.066406 C 17.891933 67.080936 17.995192 67.089844 18.121094 67.089844 C 18.251837 67.089844 18.350176 67.080946 18.417969 67.066406 C 18.485759 67.051876 18.539385 67.031003 18.578125 67.001953 C 18.616865 66.972893 18.636719 66.929203 18.636719 66.871094 L 18.636719 62.462891 C 18.636719 62.056134 18.590049 61.699599 18.498047 61.394531 C 18.406037 61.089463 18.258066 60.836192 18.054688 60.632812 C 17.851308 60.424593 17.585139 60.266688 17.255859 60.160156 C 16.92658 60.053616 16.526349 60 16.056641 60 z M 31.238281 60.007812 C 30.807312 60.007813 30.406064 60.079342 30.033203 60.224609 C 29.665185 60.365037 29.34242 60.583523 29.066406 60.878906 C 28.795235 61.17429 28.579719 61.554666 28.419922 62.019531 C 28.264967 62.479554 28.1875 63.031749 28.1875 63.675781 C 28.1875 64.242336 28.25105 64.743876 28.376953 65.179688 C 28.507696 65.610656 28.69343 65.975165 28.935547 66.275391 C 29.182507 66.570774 29.488386 66.796217 29.851562 66.951172 C 30.21474 67.106127 30.629901 67.183594 31.099609 67.183594 C 31.327199 67.183594 31.548655 67.160768 31.761719 67.117188 C 31.974782 67.073607 32.170443 67.018968 32.349609 66.951172 C 32.533619 66.878532 32.698479 66.798099 32.84375 66.710938 C 32.989022 66.618927 33.090331 66.544435 33.148438 66.486328 C 33.211388 66.423378 33.249145 66.37671 33.263672 66.347656 C 33.283042 66.313756 33.298914 66.278976 33.308594 66.240234 C 33.323094 66.196654 33.333021 66.144044 33.337891 66.085938 C 33.342791 66.022987 33.34375 65.95146 33.34375 65.869141 C 33.34375 65.772291 33.339748 65.688886 33.330078 65.621094 C 33.325278 65.548454 33.312339 65.490846 33.292969 65.447266 C 33.278439 65.398836 33.260538 65.365066 33.236328 65.345703 C 33.212118 65.326333 33.182328 65.316406 33.148438 65.316406 C 33.090328 65.316406 33.008875 65.360106 32.902344 65.447266 C 32.800654 65.529586 32.67058 65.623937 32.515625 65.730469 C 32.365512 65.832158 32.186736 65.92651 31.978516 66.013672 C 31.770294 66.100832 31.527966 66.144531 31.251953 66.144531 C 30.961412 66.144531 30.702199 66.09388 30.474609 65.992188 C 30.251861 65.885655 30.063158 65.726735 29.908203 65.513672 C 29.753248 65.300609 29.635054 65.035456 29.552734 64.720703 C 29.475254 64.401108 29.4375 64.030659 29.4375 63.609375 C 29.4375 62.766806 29.589463 62.1262 29.894531 61.685547 C 30.204442 61.240051 30.646417 61.017578 31.222656 61.017578 C 31.503512 61.017578 31.74584 61.058308 31.949219 61.140625 C 32.157439 61.218105 32.335198 61.305497 32.480469 61.402344 C 32.625739 61.499194 32.743932 61.587602 32.835938 61.669922 C 32.932788 61.747402 33.017209 61.787109 33.089844 61.787109 C 33.152794 61.787109 33.20642 61.750369 33.25 61.677734 C 33.29358 61.600254 33.314453 61.466195 33.314453 61.277344 C 33.314453 61.190184 33.313501 61.118654 33.308594 61.060547 C 33.303794 61.002437 33.293827 60.951783 33.279297 60.908203 C 33.264767 60.859773 33.244913 60.819053 33.220703 60.785156 C 33.201333 60.751256 33.163573 60.704586 33.105469 60.646484 C 33.047359 60.588374 32.953009 60.517867 32.822266 60.435547 C 32.696365 60.353227 32.549406 60.281703 32.384766 60.21875 C 32.220126 60.1558 32.040333 60.103193 31.841797 60.064453 C 31.648103 60.025713 31.446502 60.007812 31.238281 60.007812 z M 41.248047 60.013672 C 40.880028 60.013672 40.537409 60.070272 40.222656 60.181641 C 39.912746 60.288172 39.646576 60.443106 39.423828 60.646484 C 39.20108 60.849863 39.026291 61.099148 38.900391 61.394531 C 38.774489 61.689915 38.712891 62.023624 38.712891 62.396484 C 38.712891 62.716079 38.756591 62.989206 38.84375 63.216797 C 38.93091 63.439544 39.049106 63.641145 39.199219 63.820312 C 39.020052 64.004323 38.869106 64.21288 38.748047 64.445312 C 38.626988 64.677746 38.566406 64.940945 38.566406 65.236328 C 38.566406 65.449391 38.623006 65.648022 38.734375 65.832031 C 38.850591 66.016041 39.026393 66.169954 39.263672 66.291016 C 39.108717 66.412074 38.970668 66.534256 38.849609 66.660156 C 38.733393 66.781215 38.635054 66.909336 38.552734 67.044922 C 38.475254 67.180508 38.417646 67.324497 38.378906 67.474609 C 38.340166 67.624722 38.320312 67.779656 38.320312 67.939453 C 38.320313 68.191255 38.373932 68.423655 38.480469 68.636719 C 38.587 68.854624 38.758819 69.040357 38.996094 69.195312 C 39.233369 69.350268 39.536278 69.471432 39.904297 69.558594 C 40.277158 69.650594 40.726091 69.697266 41.253906 69.697266 C 41.801092 69.697266 42.27582 69.636686 42.677734 69.515625 C 43.07965 69.399409 43.409372 69.237518 43.666016 69.029297 C 43.927502 68.825918 44.120192 68.587578 44.246094 68.316406 C 44.371995 68.045235 44.435547 67.75921 44.435547 67.458984 C 44.435547 67.173286 44.380907 66.924 44.269531 66.710938 C 44.158153 66.493004 44.003224 66.311286 43.804688 66.166016 C 43.606152 66.015903 43.370781 65.90365 43.099609 65.826172 C 42.828438 65.743855 42.529515 65.697187 42.205078 65.6875 L 40.5 65.615234 C 40.238513 65.605534 40.026985 65.544964 39.867188 65.433594 C 39.712232 65.32222 39.634766 65.181201 39.634766 65.011719 C 39.634766 64.866449 39.661574 64.738327 39.714844 64.626953 C 39.772954 64.515579 39.844478 64.415288 39.931641 64.328125 C 40.062384 64.434657 40.2471 64.525022 40.484375 64.597656 C 40.726492 64.665446 40.981718 64.699219 41.248047 64.699219 C 41.62575 64.699219 41.969387 64.6456 42.279297 64.539062 C 42.589207 64.432531 42.855377 64.280567 43.078125 64.082031 C 43.305716 63.878653 43.478551 63.632338 43.599609 63.341797 C 43.720668 63.051256 43.78125 62.715593 43.78125 62.337891 C 43.78125 62.1103 43.747479 61.893768 43.679688 61.685547 C 43.611897 61.472484 43.493701 61.27784 43.324219 61.103516 L 44.261719 61.103516 C 44.334359 61.103516 44.391967 61.066776 44.435547 60.994141 C 44.483967 60.916661 44.507813 60.794482 44.507812 60.625 C 44.507813 60.46036 44.486939 60.339196 44.443359 60.261719 C 44.404619 60.179399 44.344039 60.138672 44.261719 60.138672 L 42.285156 60.138672 C 42.135044 60.099932 41.973153 60.070151 41.798828 60.050781 C 41.629346 60.026571 41.446583 60.013672 41.248047 60.013672 z M 3.1210938 60.101562 C 3.0097197 60.101563 2.9153682 60.104475 2.8378906 60.109375 C 2.7604126 60.114175 2.6968608 60.125161 2.6484375 60.144531 C 2.6048565 60.159061 2.5740565 60.181877 2.5546875 60.210938 C 2.5353185 60.235147 2.5253906 60.268918 2.5253906 60.3125 C 2.5253906 60.3464 2.5293805 60.38713 2.5390625 60.435547 C 2.5487425 60.483967 2.5656318 60.544552 2.5898438 60.617188 L 4.5019531 66.828125 C 4.5164801 66.876555 4.5373522 66.917275 4.5664062 66.951172 C 4.5954603 66.985072 4.6391572 67.01188 4.6972656 67.03125 C 4.7602166 67.05062 4.837683 67.064529 4.9296875 67.074219 C 5.0265345 67.083919 5.1506685 67.089844 5.3007812 67.089844 C 5.4460517 67.089844 5.5672156 67.083949 5.6640625 67.074219 C 5.7657516 67.069419 5.8472056 67.058433 5.9101562 67.039062 C 5.9731072 67.019693 6.0197741 66.992884 6.0488281 66.958984 C 6.0827241 66.925084 6.1065658 66.881394 6.1210938 66.828125 L 7.3925781 62.083984 L 7.40625 62.019531 L 7.421875 62.083984 L 8.7929688 66.828125 C 8.8074957 66.876555 8.830321 66.917275 8.859375 66.951172 C 8.888429 66.985072 8.932126 67.01188 8.9902344 67.03125 C 9.0531844 67.05062 9.1346389 67.064529 9.2363281 67.074219 C 9.3380175 67.083919 9.4651216 67.089844 9.6152344 67.089844 C 9.7605048 67.089844 9.8816686 67.083949 9.9785156 67.074219 C 10.075362 67.069419 10.149858 67.058433 10.203125 67.039062 C 10.261235 67.019693 10.304931 66.992884 10.333984 66.958984 C 10.367884 66.925084 10.39172 66.881394 10.40625 66.828125 L 12.332031 60.617188 C 12.356241 60.544548 12.373122 60.483967 12.382812 60.435547 C 12.392513 60.387127 12.396484 60.346397 12.396484 60.3125 C 12.396484 60.26892 12.386587 60.23515 12.367188 60.210938 C 12.352657 60.186728 12.322877 60.163901 12.279297 60.144531 C 12.240557 60.125181 12.185917 60.114245 12.113281 60.109375 C 12.045491 60.104475 11.954107 60.101563 11.837891 60.101562 C 11.71199 60.101562 11.607711 60.105564 11.525391 60.115234 C 11.447911 60.120034 11.384364 60.132974 11.335938 60.152344 C 11.292357 60.166864 11.258588 60.190699 11.234375 60.224609 C 11.215005 60.253669 11.201096 60.290409 11.191406 60.333984 L 9.6367188 65.722656 L 9.6289062 65.789062 L 9.6152344 65.722656 L 8.0527344 60.320312 C 8.0430544 60.281573 8.0291356 60.247802 8.0097656 60.21875 C 7.9903966 60.1897 7.9576435 60.166874 7.9140625 60.152344 C 7.8704815 60.132994 7.8098995 60.120104 7.7324219 60.115234 C 7.6597869 60.105534 7.565435 60.101563 7.4492188 60.101562 C 7.3281601 60.101563 7.2298213 60.105564 7.1523438 60.115234 C 7.0797087 60.120034 7.022097 60.132974 6.9785156 60.152344 C 6.9349346 60.166864 6.9011656 60.190699 6.8769531 60.224609 C 6.8575841 60.253669 6.8417162 60.290409 6.8320312 60.333984 L 5.3867188 65.722656 L 5.3730469 65.789062 L 5.3574219 65.722656 L 3.78125 60.333984 C 3.766723 60.290404 3.7498377 60.253664 3.7304688 60.224609 C 3.7110998 60.190719 3.6802997 60.166874 3.6367188 60.152344 C 3.5931377 60.132994 3.5295856 60.120104 3.4472656 60.115234 C 3.3649456 60.105534 3.2566794 60.101562 3.1210938 60.101562 z M 46.003906 60.101562 C 45.848952 60.101562 45.7238 60.105564 45.626953 60.115234 C 45.534943 60.124934 45.464436 60.147741 45.416016 60.181641 C 45.372436 60.210701 45.351562 60.248451 45.351562 60.296875 C 45.356363 60.340455 45.377276 60.397051 45.416016 60.464844 L 47.341797 63.537109 L 45.306641 66.726562 C 45.263091 66.794353 45.239245 66.851964 45.234375 66.900391 C 45.234375 66.943971 45.254229 66.980711 45.292969 67.009766 C 45.336549 67.038816 45.401119 67.056716 45.488281 67.066406 C 45.580291 67.080936 45.697463 67.089844 45.837891 67.089844 C 45.973477 67.089844 46.081743 67.083949 46.164062 67.074219 C 46.246383 67.069419 46.312908 67.059452 46.361328 67.044922 C 46.414588 67.025552 46.452349 67.004679 46.476562 66.980469 C 46.505612 66.951419 46.529458 66.918656 46.548828 66.884766 L 48.111328 64.292969 L 49.679688 66.884766 C 49.699058 66.918656 49.721874 66.951419 49.746094 66.980469 C 49.775154 67.004679 49.812904 67.025562 49.861328 67.044922 C 49.914598 67.059422 49.982133 67.069349 50.064453 67.074219 C 50.151613 67.083919 50.268794 67.089844 50.414062 67.089844 C 50.564175 67.089844 50.685339 67.080946 50.777344 67.066406 C 50.874194 67.056706 50.944701 67.038816 50.988281 67.009766 C 51.036711 66.980716 51.060547 66.943976 51.060547 66.900391 C 51.060547 66.851971 51.040693 66.794355 51.001953 66.726562 L 48.982422 63.5 L 50.892578 60.464844 C 50.936128 60.392214 50.959974 60.33163 50.964844 60.283203 C 50.969644 60.234783 50.951783 60.198043 50.908203 60.173828 C 50.864623 60.144778 50.797083 60.124914 50.705078 60.115234 C 50.617918 60.105534 50.503709 60.101562 50.363281 60.101562 C 50.232538 60.101562 50.128259 60.105564 50.050781 60.115234 C 49.978141 60.120034 49.920533 60.132974 49.876953 60.152344 C 49.838213 60.166874 49.80546 60.186727 49.78125 60.210938 C 49.75704 60.235147 49.736157 60.261956 49.716797 60.291016 L 48.205078 62.724609 L 46.716797 60.291016 C 46.697427 60.257126 46.674611 60.227335 46.650391 60.203125 C 46.626171 60.178915 46.591391 60.159051 46.542969 60.144531 C 46.494549 60.130031 46.427006 60.120104 46.339844 60.115234 C 46.257524 60.105534 46.144334 60.101562 46.003906 60.101562 z M 41.224609 60.929688 C 41.674948 60.929688 42.021555 61.054839 42.263672 61.306641 C 42.510631 61.5536 42.634766 61.900207 42.634766 62.345703 C 42.634766 62.534554 42.604985 62.7163 42.546875 62.890625 C 42.493605 63.06495 42.409185 63.219883 42.292969 63.355469 C 42.181595 63.486212 42.039559 63.590491 41.865234 63.667969 C 41.69091 63.740599 41.485322 63.777344 41.248047 63.777344 C 40.807394 63.777344 40.461804 63.65321 40.214844 63.40625 C 39.972726 63.159291 39.853516 62.819641 39.853516 62.388672 C 39.853516 62.194978 39.878371 62.012215 39.931641 61.837891 C 39.989751 61.658723 40.076126 61.50082 40.1875 61.365234 C 40.303716 61.229648 40.445752 61.122399 40.615234 61.044922 C 40.789558 60.967442 40.992177 60.929688 41.224609 60.929688 z M 23.335938 61.03125 C 23.665218 61.03125 23.979072 61.1385 24.279297 61.351562 C 24.584365 61.559784 24.900172 61.86371 25.224609 62.265625 L 25.224609 64.880859 C 25.035757 65.118134 24.855029 65.319735 24.685547 65.484375 C 24.516065 65.644172 24.354174 65.775264 24.199219 65.876953 C 24.044264 65.978644 23.8923 66.05017 23.742188 66.09375 C 23.596916 66.13733 23.444954 66.160156 23.285156 66.160156 C 22.970404 66.160156 22.708221 66.086676 22.5 65.941406 C 22.291779 65.791294 22.123948 65.595633 21.998047 65.353516 C 21.872146 65.106556 21.783735 64.824518 21.730469 64.509766 C 21.682039 64.195013 21.658203 63.874201 21.658203 63.544922 C 21.658203 63.235012 21.686031 62.929132 21.744141 62.628906 C 21.807091 62.328681 21.904413 62.05954 22.035156 61.822266 C 22.170742 61.58499 22.34553 61.395271 22.558594 61.25 C 22.771657 61.10473 23.030869 61.03125 23.335938 61.03125 z M 16.419922 63.886719 L 17.445312 63.886719 L 17.445312 65.273438 C 17.14993 65.602716 16.866874 65.846061 16.595703 66.005859 C 16.329374 66.165657 16.037409 66.246094 15.722656 66.246094 C 15.335268 66.246094 15.032358 66.147754 14.814453 65.949219 C 14.60139 65.74584 14.496094 65.47373 14.496094 65.134766 C 14.496094 64.93623 14.532834 64.761441 14.605469 64.611328 C 14.682949 64.456373 14.801139 64.327235 14.960938 64.220703 C 15.120736 64.10933 15.320383 64.025923 15.5625 63.972656 C 15.804617 63.914546 16.090643 63.886719 16.419922 63.886719 z M 0.77539062 65.417969 C 0.4751651 65.417969 0.26660696 65.477529 0.15039062 65.59375 C 0.039016645 65.705124 -0.017578125 65.931584 -0.017578125 66.275391 C -0.017578125 66.609513 0.039016645 66.831985 0.15039062 66.943359 C 0.2617646 67.054733 0.46336542 67.111328 0.75390625 67.111328 C 1.0541318 67.111328 1.2597197 67.054728 1.3710938 66.943359 C 1.4873101 66.827143 1.5449219 66.597713 1.5449219 66.253906 C 1.5449219 65.919784 1.4883269 65.697311 1.3769531 65.585938 C 1.2655791 65.474564 1.0659314 65.417969 0.77539062 65.417969 z M 40.267578 66.574219 L 41.958984 66.630859 C 42.351214 66.640559 42.661081 66.723949 42.888672 66.878906 C 43.121105 67.029019 43.238281 67.244535 43.238281 67.525391 C 43.238281 67.690031 43.202561 67.845981 43.134766 67.996094 C 43.071816 68.146206 42.96652 68.280268 42.816406 68.396484 C 42.666294 68.5127 42.467662 68.604082 42.220703 68.671875 C 41.978586 68.744515 41.675676 68.78125 41.3125 68.78125 C 40.741103 68.78125 40.296157 68.6998 39.976562 68.535156 C 39.656968 68.375359 39.496094 68.137018 39.496094 67.822266 C 39.496094 67.720576 39.505991 67.622238 39.525391 67.525391 C 39.549601 67.428541 39.59033 67.328252 39.648438 67.226562 C 39.706547 67.129712 39.784013 67.028407 39.880859 66.921875 C 39.982549 66.810501 40.112623 66.695277 40.267578 66.574219 z" fill="#00bcf2"/>
</svg>
