<svg xmlns:dc="http://purl.org/dc/elements/1.1/" xmlns:cc="http://creativecommons.org/ns#" xmlns:rdf="http://www.w3.org/1999/02/22-rdf-syntax-ns#" xmlns="http://www.w3.org/2000/svg" width="70" height="56.892">
    <metadata>
        <rdf:RDF>
            <cc:Work>
                <dc:subject>
                    Compute
                </dc:subject>
                <dc:identifier>
                    web-role
                </dc:identifier>
                <dc:title>
                    Web Role
                </dc:title>
                <dc:format>
                    image/svg+xml
                </dc:format>
                <dc:publisher>
                    Amido Limited
                </dc:publisher>
                <dc:creator>
                    Richard Slater
                </dc:creator>
                <dc:type rdf:resource="http://purl.org/dc/dcmitype/StillImage"/>
            </cc:Work>
        </rdf:RDF>
    </metadata>
    <path d="m -43.893133,766.14185 c -0.340285,-0.09 -0.780073,-0.3815 -1.182592,-0.784 -1.196224,-1.1962 -1.100146,1.3152 -1.059735,-27.701 l 0.03578,-25.6912 0.412246,-0.7452 c 0.495834,-0.8963 1.216429,-1.4508 2.143657,-1.6497 0.977135,-0.2095 63.867862,-0.2068 64.845382,0 0.91157,0.1955 1.75257,0.8487 2.19199,1.7026 l 0.35104,0.6822 0,25.9751 0,25.9751 -0.30444,0.5693 c -0.38506,0.72 -1.2542,1.4695 -1.94345,1.676 -0.71604,0.2145 -64.676736,0.2028 -65.489878,-0.012 z m 33.819088,-9.0342 c 2.7609799,-0.2147 5.1796199,-0.8722 7.4922599,-2.0365 5.56846,-2.8036 9.2804,-7.7001 10.64756,-14.0455 0.35596,-1.6521 0.35678,-6.0285 0.001,-7.6919 -0.80585,-3.7723 -2.56901,-7.1162 -5.17169,-9.8082 -3.95953,-4.0955 -8.69732,-6.1216 -14.3331299,-6.1295 -5.52958,-0.01 -10.41987,2.0189 -14.246367,5.9041 -2.636318,2.6768 -4.554605,6.2365 -5.295902,9.8274 -0.910178,4.409 -0.318051,9.0572 1.659151,13.0244 1.301049,2.6105 3.686442,5.459 5.991008,7.1541 2.89522,2.1295 6.56839,3.4983 10.18395,3.7951 0.69436,0.057 1.29338,0.111 1.33117,0.1201 0.0378,0.01 0.82104,-0.042 1.74055,-0.1136 z m -0.4459,-3.3463 c -0.0345,-0.09 -0.0461,-1.7701 -0.026,-3.7339 l 0.0367,-3.5706 0.9619099,0.043 c 1.05422,0.047 2.8721,0.3444 4.05375,0.6629 0.98724,0.2662 2.37291,0.7518 2.52392,0.8845 0.20174,0.1772 -1.25044,2.1157 -2.43297,3.2476 -1.15543,1.1061 -2.41565,1.8752 -3.73246,2.2779 -1.0883199,0.3328 -1.3176399,0.364 -1.3849399,0.1887 z m -3.52981,-0.2346 c -1.25909,-0.4332 -2.67746,-1.3526 -3.80502,-2.4665 -1.04004,-1.0274 -2.08841,-2.444 -2.11959,-2.864 -0.0338,-0.4549 3.90521,-1.4979 6.54514,-1.7331 l 0.92755,-0.083 0,3.714 0,3.714 -0.37789,0 c -0.20784,0 -0.73442,-0.1273 -1.17019,-0.2773 z m -6.41993,-1.4532 c -0.56178,-0.3496 -1.44663,-0.9792 -1.96631,-1.399 l -0.94488,-0.7635 0.31181,-0.2352 c 0.17149,-0.1293 0.47703,-0.3328 0.67896,-0.452 l 0.36715,-0.2169 0.69935,1.061 c 0.38464,0.5836 1.01688,1.4166 1.40496,1.8512 0.38809,0.4345 0.65269,0.7901 0.58801,0.7901 -0.0647,0 -0.57726,-0.286 -1.13905,-0.6357 z m 17.4850199,-0.2361 c 0.4068,-0.4796 1.03366,-1.3142 1.39301,-1.8547 l 0.65336005,-0.9828 0.61564,0.4236 c 0.33861,0.2329 0.5968,0.477 0.57377,0.5424 -0.11567,0.3284 -3.54875005,2.7433 -3.89992005,2.7433 -0.0415,0 0.25733,-0.3923 0.66414,-0.8718 z m -21.6789509,-3.2994 c -0.07519,-0.1024 -0.43374,-0.5817 -0.796771,-1.065 -1.745492,-2.3239 -2.910364,-5.3074 -3.227355,-8.2659 l -0.113986,-1.0639 1.936925,0 1.936924,0 0.167696,1.759 c 0.196281,2.0589 0.80602,4.6854 1.477058,6.3626 0.26142,0.6534 0.47532,1.2244 0.47532,1.2689 0,0.073 -1.57396,1.1905 -1.676503,1.1905 -0.02343,0 -0.104117,-0.084 -0.179308,-0.1862 z m 25.26830095,-0.3944 -0.84028,-0.5549 0.47643,-1.1816 c 0.83756995,-2.0771 1.68608995,-6.032 1.68608995,-7.8587 l 0,-0.4052 1.92381,0 c 2.23965,0 2.05632,-0.2061 1.71115,1.9238 -0.27505,1.6973 -1.0153,3.8947 -1.80415,5.3556 -0.5755,1.0658 -1.92942,3.039 -2.19997,3.2062 -0.062,0.038 -0.49092,-0.18 -0.95307995,-0.4852 z m -21.70556995,-1.9988 c -0.7802,-1.8323 -1.4572,-4.6576 -1.64572,-6.8679 l -0.0967,-1.1337 5.17081,0 5.17082,0 0,3.3557 0,3.3558 -0.92756,0.083 c -2.44645,0.2188 -4.35773,0.6168 -6.32044,1.316 l -1.13301,0.4037 -0.21821,-0.5125 z m 18.0121499,0.1585 c -1.50371,-0.6116 -4.09573,-1.16 -6.42416,-1.3591 l -1.0649599,-0.091 0,-3.355 0,-3.3549 5.2196699,0 5.21967005,0 -0.0733,0.8588 c -0.11189,1.3103 -0.46237,3.3533 -0.77206,4.5004 -0.33836005,1.2533 -1.05929005,3.1651 -1.18725005,3.1484 -0.0512,-0.01 -0.4641,-0.1631 -0.91757,-0.3475 z m -25.6279259,-10.5776 c 0,-1.6039 1.020949,-5.0302 2.012764,-6.755 0.556075,-0.967 1.383731,-2.1791 1.852612,-2.7131 l 0.41346,-0.4709 0.815008,0.5563 c 0.448252,0.306 0.815012,0.6007 0.815012,0.6549 0,0.054 -0.2182,0.6398 -0.48488,1.3011 -0.676632,1.6781 -1.269634,4.2233 -1.467498,6.2988 l -0.167696,1.759 -1.89439,0 -1.894392,0 0,-0.6311 z m 5.976266,-0.4339 c 0.19425,-2.2766 0.86502,-5.1183 1.63466,-6.925 l 0.21337,-0.5009 1.56847,0.5312 c 1.60932,0.5451 3.87342,1.0039 5.75726,1.1666 l 1.06496,0.092 0,3.3506 0,3.3505 -5.16479,0 -5.16479,0 0.0909,-1.065 z m 12.22491,0.8919 c -0.0372,-0.097 -0.051,-1.5972 -0.0307,-3.3339 l 0.037,-3.1574 0.8931999,-0.097 c 2.81301,-0.3069 4.94581,-0.7631 6.58537,-1.4086 0.48545,-0.1911 0.89747,-0.3324 0.91561,-0.314 0.1194,0.1212 0.89819,2.2733 1.13095005,3.1253 0.335,1.2262 0.6814,3.3186 0.73936,4.466 l 0.0417,0.8245 -5.12238005,0.036 c -4.06931,0.029 -5.1363099,0 -5.1900899,-0.1404 z m 12.3779699,-0.8232 c -0.25685,-2.7716 -0.80074,-5.182 -1.63496995,-7.2456 l -0.47095,-1.165 0.8447,-0.5789 0.84469995,-0.579 0.39372,0.4385 c 0.5444,0.6064 1.75646,2.4694 2.25201,3.4617 0.86645,1.7348 1.68285,4.6952 1.68285,6.1022 l 0,0.5624 -1.90987,0 -1.90986,0 -0.0923,-0.9963 z m -16.0577999,-7.3937 c -1.98902,-0.2312 -5.39175,-1.1192 -5.7867,-1.5101 -0.19409,-0.1922 1.04458,-1.9172 2.19632,-3.0587 1.41161,-1.3991 3.20603,-2.4094 4.70532,-2.6491 l 0.5787,-0.093 0,3.7278 0,3.7278 -0.37789,-0.018 c -0.20784,-0.01 -0.79993,-0.067 -1.31575,-0.127 z m 3.71041,0.055 c -0.0511,-0.051 -0.093,-1.7213 -0.093,-3.7115 l 0,-3.6186 0.37789,0 c 0.5720699,0.01 2.0810999,0.5593 2.9894999,1.0974 1.10203,0.6527 2.77936,2.2693 3.62735,3.496 0.38528,0.5573 0.70051,1.0488 0.70051,1.0921 0,0.2452 -2.74966,1.083 -4.50231,1.3718 -1.59863,0.2634 -2.9854499,0.3839 -3.0999899,0.2693 z m -12.24751,-2.957 -0.6588,-0.4363 0.46347,-0.3927 c 1.00983,-0.8555 3.37378,-2.4448 3.6365,-2.4448 0.038,0 -0.29293,0.4206 -0.73541,0.9347 -0.44248,0.5141 -1.07236,1.3489 -1.39972,1.8551 -0.32737,0.5062 -0.60692,0.9204 -0.62123,0.9204 -0.0143,0 -0.32247,-0.1964 -0.68481,-0.4364 z m 21.2911699,-0.3124 c -0.27185,-0.425 -0.9059,-1.2784 -1.40898,-1.8965 l -0.91471,-1.1238 0.81906,0.4571 c 0.70333,0.3925 1.86297,1.2178 3.06479005,2.1811 l 0.32192,0.2581 -0.39063,0.2528 c -1.10163005,0.7129 -0.94432,0.7265 -1.49145005,-0.1288 z" fill="#00bcf2" transform="translate(46.156 -709.415)"/>
</svg>
