<svg xmlns:dc="http://purl.org/dc/elements/1.1/" xmlns:cc="http://creativecommons.org/ns#" xmlns:rdf="http://www.w3.org/1999/02/22-rdf-syntax-ns#" xmlns="http://www.w3.org/2000/svg" width="70.001" height="58.203">
    <metadata>
        <rdf:RDF>
            <cc:Work>
                <dc:subject>
                    Compute
                </dc:subject>
                <dc:identifier>
                    worker-roles
                </dc:identifier>
                <dc:title>
                    Worker Roles
                </dc:title>
                <dc:format>
                    image/svg+xml
                </dc:format>
                <dc:publisher>
                    Amido Limited
                </dc:publisher>
                <dc:creator>
                    Richard Slater
                </dc:creator>
                <dc:type rdf:resource="http://purl.org/dc/dcmitype/StillImage"/>
            </cc:Work>
        </rdf:RDF>
    </metadata>
    <path d="m -112.15365,526.4076 c -1.01768,-0.50374 -1.94918,-1.85003 -1.95591,-2.82684 -0.003,-0.41673 -0.0343,-0.44227 -0.65503,-0.53279 -0.35861,-0.0523 -0.87702,-0.20838 -1.15202,-0.34684 -1.03488,-0.52109 -1.90217,-1.96122 -1.90217,-3.15856 0,-0.51426 -9.6e-4,-0.51507 -0.76323,-0.67332 -0.94323,-0.19582 -1.62854,-0.76266 -2.07115,-1.71312 l -0.32007,-0.68734 0.005,-22.71764 c 0.004,-18.62215 0.0378,-22.8105 0.18848,-23.23268 0.28098,-0.78737 0.82306,-1.40786 1.51343,-1.73237 l 0.62531,-0.29394 28.950942,0.0353 28.950945,0.0353 0.595198,0.41265 c 0.656425,0.4551 1.350165,1.63106 1.350165,2.28866 0,0.36389 0.03511,0.38724 0.583384,0.38796 1.763839,0.002 3.164197,1.16616 3.531401,2.93497 l 0.152945,0.73673 0.67673,0.065 c 1.131359,0.10871 2.25106,1.05475 2.683899,2.26764 0.150651,0.42215 0.184882,4.62604 0.189821,23.31117 0.0067,25.25582 0.07115,23.47386 -0.889906,24.59664 -0.258076,0.3015 -0.748211,0.67932 -1.089188,0.8396 l -0.619957,0.29141 -28.999097,-10e-5 -28.999092,-1.1e-4 -0.58051,-0.28735 z m 59.20908,-1.25454 c 0.278111,-0.24419 0.589815,-0.64539 0.692675,-0.89157 0.276442,-0.66162 0.274184,-45.8142 -0.0023,-46.47597 -0.215265,-0.5152 -1.090064,-1.32914 -1.431448,-1.33186 -0.129492,-0.001 -0.373499,-0.0389 -0.542238,-0.0841 l -0.306798,-0.0822 -0.03637,22.02221 -0.03637,22.02221 -0.413226,0.80796 c -0.503666,0.9848 -1.298485,1.62948 -2.264331,1.83661 -0.492165,0.10555 -8.864279,0.14991 -28.293762,0.14991 l -27.594762,0 0.093,0.44612 c 0.13898,0.66673 0.71241,1.58223 1.13454,1.81133 0.32508,0.17644 4.09541,0.20306 29.434292,0.20785 l 29.061459,0.005 0.505656,-0.44398 z m -4.074574,-3.32593 c 0.537758,-0.27809 1.070063,-0.94555 1.238894,-1.55345 0.196901,-0.70897 0.196901,-45.06096 0,-45.76993 -0.168831,-0.6079 -0.701136,-1.27536 -1.238894,-1.55345 -0.213748,-0.11053 -0.70055,-0.20096 -1.081783,-0.20096 l -0.69315,0 0,21.93572 0,21.93573 -0.347712,0.69777 c -0.388896,0.78041 -1.124383,1.37166 -1.942494,1.56155 -0.294606,0.0684 -12.587627,0.123 -28.097055,0.12484 l -27.573302,0.003 0.0619,0.74671 c 0.0747,0.90064 0.56358,1.71295 1.22796,2.04029 0.42304,0.20844 2.77075,0.22687 29.258472,0.22975 25.020438,0.003 28.849497,-0.0232 29.187144,-0.19785 z m -28.637004,-13.7807 c 1.26892,-0.29626 2.34212,-0.57365 2.38491,-0.61644 0.0428,-0.0428 -0.023,-1.0224 -0.14611,-2.17693 -0.12314,-1.15453 -0.22347,-2.13726 -0.22295,-2.18385 5.5e-4,-0.0466 0.25098,-0.25018 0.55659,-0.45242 0.3056,-0.20224 0.8007,-0.5891 1.1002,-0.85968 l 0.54456,-0.49197 1.61081,0.65818 c 0.88595,0.36201 1.80418,0.7384 2.040511,0.83643 l 0.429695,0.17823 1.354773,-2.22557 c 0.745125,-1.22406 1.354773,-2.26625 1.354773,-2.31599 0,-0.0497 -0.772125,-0.72093 -1.715834,-1.49154 -1.054162,-0.8608 -1.705638,-1.48759 -1.689388,-1.6254 0.172394,-1.4622 0.31873,-2.5346 0.348555,-2.55432 0.02024,-0.0134 0.917022,-0.38682 1.99285,-0.82988 1.083897,-0.44639 1.956051,-0.88422 1.956051,-0.98197 0,-0.25037 -1.097081,-4.8938 -1.174535,-4.97126 -0.0592,-0.0592 -2.69887,0.16856 -3.976171,0.34308 -0.53428,0.073 -0.5674,0.0539 -1.01658,-0.58748 -0.25538,-0.36462 -0.64072,-0.85194 -0.85632,-1.08293 l -0.392,-0.41999 0.8252,-1.98153 c 0.45386,-1.08984 0.82288,-2.04359 0.82005,-2.11945 -0.004,-0.11086 -3.97547,-2.63238 -4.3918,-2.78849 -0.0624,-0.0234 -0.74941,0.73979 -1.5268,1.69592 l -1.41342,1.73844 -0.621,-0.0982 c -0.34155,-0.054 -1.04442,-0.13768 -1.56193,-0.18599 l -0.94093,-0.0878 -0.87027,-1.91921 c -0.47865,-1.05556 -0.93115,-1.9395 -1.00555,-1.9643 -0.11095,-0.037 -4.93308,1.18269 -5.06869,1.28203 -0.0227,0.0166 0.0854,0.9326 0.24021,2.03545 0.15484,1.10286 0.28152,2.08842 0.28152,2.19014 0,0.15081 -1.23638,1.23269 -1.86565,1.6325 -0.0861,0.0547 -0.97435,-0.23869 -1.973862,-0.65201 -0.99951,-0.41333 -1.89779,-0.7515 -1.99617,-0.7515 -0.0984,0 -0.71729,0.87872 -1.37536,1.95271 -0.65807,1.07399 -1.27713,2.07775 -1.3757,2.23058 -0.16664,0.25838 -0.0588,0.37421 1.53708,1.65055 1.63591,1.30839 1.71234,1.39195 1.63204,1.78446 -0.0463,0.22649 -0.14355,0.87205 -0.21604,1.43457 -0.0725,0.56252 -0.17806,1.06273 -0.23462,1.11157 -0.0566,0.0489 -0.90583,0.41416 -1.88729,0.8118 -0.98145,0.39764 -1.80618,0.74274 -1.83272,0.7669 -0.0423,0.0385 0.72543,3.40216 1.08038,4.73375 l 0.12937,0.48531 2.09595,-0.23156 c 2.36652,-0.26146 2.06968,-0.34739 2.949662,0.85393 0.24304,0.3318 0.57951,0.7733 0.7477,0.9811 l 0.30581,0.37782 -0.70884,1.74981 c -0.38987,0.9624 -0.726332,1.8337 -0.747712,1.93622 -0.0233,0.11193 0.838722,0.72893 2.157412,1.54413 1.20794,0.74675 2.22777,1.35778 2.26628,1.35785 0.0385,6e-5 0.65621,-0.74214 1.37267,-1.64933 l 1.30265,-1.64945 0.8236,0.0931 c 0.45298,0.0512 1.13145,0.12944 1.50771,0.17383 l 0.68411,0.0807 0.81302,1.95847 c 0.63309,1.52503 0.86143,1.94376 1.03173,1.89198 0.12028,-0.0366 1.2569,-0.30888 2.52581,-0.60514 z m -6.13575,-8.18994 c -3.31095,-0.90908 -5.62759,-3.93096 -5.62759,-7.34074 0,-3.40874 2.35436,-6.48278 5.62394,-7.34308 1.06942,-0.28138 2.94123,-0.27788 3.90092,0.007 3.31493,0.98507 5.63342,4.00597 5.62591,7.33029 -0.008,3.37078 -2.29634,6.36021 -5.61651,7.33602 -0.90687,0.26653 -2.95363,0.27188 -3.90667,0.0102 z m 3.2575,-4.93558 c 1.56404,-0.74731 1.84581,-3.16561 0.5095,-4.37288 -1.77443,-1.6031 -4.5368,-0.37527 -4.5368,2.01652 0,2.03551 2.11226,3.27138 4.0273,2.35636 z" fill="#00bcf2" transform="translate(120.973 -468.492)"/>
</svg>
