<svg xmlns:dc="http://purl.org/dc/elements/1.1/" xmlns:cc="http://creativecommons.org/ns#" xmlns:rdf="http://www.w3.org/1999/02/22-rdf-syntax-ns#" xmlns="http://www.w3.org/2000/svg" width="69.064" height="66.187">
    <metadata>
        <rdf:RDF>
            <cc:Work>
                <dc:subject>
                    Miscellaneous
                </dc:subject>
                <dc:identifier>
                    add-ons
                </dc:identifier>
                <dc:title>
                    Add-Ons
                </dc:title>
                <dc:format>
                    image/svg+xml
                </dc:format>
                <dc:publisher>
                    Amido Limited
                </dc:publisher>
                <dc:creator>
                    Richard Slater
                </dc:creator>
                <dc:type rdf:resource="http://purl.org/dc/dcmitype/StillImage"/>
            </cc:Work>
        </rdf:RDF>
    </metadata>
    <path d="m 801.6293,664.98307 -10.3847,18.0168 8.69562,15.0766 -8.75818,15.0766 10.3847,18.0168 20.76939,0 9.38377,-16.1401 18.70497,0 9.82167,-16.9533 -9.82167,-17.0159 -18.70497,0 -9.25865,-16.0775 -20.83195,0 z m 7.56957,6.0681 6.0056,0 0,8.0075 8.00748,0 0,6.0056 -8.00748,0 0,8.0075 -6.0056,0 0,-8.0075 -8.00748,0 0,-6.0056 8.00748,0 0,-8.0075 z m 22.39591,13.9506 16.51543,0 8.32027,13.1372 -8.32027,13.0747 -16.51543,0 -8.25771,-13.0747 8.25771,-13.1372 z m 7.63213,6.0681 c -4.42241,0 -8.00748,3.137 -8.00748,7.0066 0,3.8696 3.58507,7.0065 8.00748,7.0065 4.42241,0 8.00748,-3.1369 8.00748,-7.0065 0,-3.8696 -3.58507,-7.0066 -8.00748,-7.0066 z m -35.72086,9.8217 16.57798,0 8.25771,13.1373 -8.25771,13.0747 -16.57798,0 -8.25771,-13.0747 8.25771,-13.1373 z" fill="#00bcf2" transform="translate(-791.182 -664.983)"/>
</svg>
