<svg xmlns:dc="http://purl.org/dc/elements/1.1/" xmlns:cc="http://creativecommons.org/ns#" xmlns:rdf="http://www.w3.org/1999/02/22-rdf-syntax-ns#" xmlns="http://www.w3.org/2000/svg" width="70" height="44.406">
    <metadata>
        <rdf:RDF>
            <cc:Work>
                <dc:subject>
                    Compute
                </dc:subject>
                <dc:identifier>
                    autoscale
                </dc:identifier>
                <dc:title>
                    Autoscale
                </dc:title>
                <dc:format>
                    image/svg+xml
                </dc:format>
                <dc:publisher>
                    Amido Limited
                </dc:publisher>
                <dc:creator>
                    Richard Slater
                </dc:creator>
                <dc:type rdf:resource="http://purl.org/dc/dcmitype/StillImage"/>
            </cc:Work>
        </rdf:RDF>
    </metadata>
    <path d="m 222.48009,164.57354 c 0,-21.13661 0.012,-22.24503 0.24019,-22.15112 7.15982,2.94671 16.18785,4.81256 27.00491,5.58119 3.18403,0.22624 12.3252,0.22921 15.5098,0.005 10.78704,-0.75936 19.8138,-2.62663 27.0049,-5.58622 0.22818,-0.0939 0.2402,1.01451 0.2402,22.15112 0,12.23749 -0.0202,22.24998 -0.0448,22.24998 -0.0246,0 -0.84302,-0.3009 -1.81862,-0.66865 -8.9028,-3.35593 -20.34238,-5.12532 -33.13658,-5.12532 -13.22561,0 -25.11299,1.91665 -34.14724,5.50568 -0.39912,0.15856 -0.75426,0.28829 -0.78922,0.28829 -0.035,0 -0.0635,-10.01249 -0.0635,-22.24998 z m 37.07882,10.89898 0.59765,-1.74315 0.9659,-0.39795 0.9659,-0.39795 1.64194,0.7656 1.64194,0.76559 1.02942,-1.03026 1.02941,-1.03026 -0.82006,-1.5637 -0.82006,-1.56369 0.40877,-1.00603 0.40877,-1.00603 1.71521,-0.63737 1.71521,-0.63738 0.0386,-1.42397 0.0386,-1.42397 -1.76801,-0.5835 -1.768,-0.58351 -0.38223,-0.97423 -0.38223,-0.97423 0.70038,-1.50707 0.70038,-1.50707 -0.45888,-0.70718 c -0.25239,-0.38895 -0.67486,-0.91236 -0.93884,-1.16314 l -0.47995,-0.45595 -1.63754,0.82087 -1.63753,0.82087 -0.97496,-0.40703 -0.97497,-0.40704 -0.59802,-1.67357 -0.59802,-1.67357 -1.45221,-0.0387 -1.45222,-0.0387 -0.51498,1.61717 c -0.28324,0.88944 -0.56706,1.67204 -0.63072,1.73911 -0.0636,0.0671 -0.52703,0.29546 -1.02971,0.50754 l -0.91398,0.3856 -1.58524,-0.74774 c -0.87188,-0.41125 -1.65502,-0.74773 -1.74031,-0.74773 -0.0853,0 -0.58577,0.43585 -1.11218,0.96855 l -0.9571,0.96856 0.84606,1.6206 0.84607,1.62061 -0.4343,0.99592 -0.4343,0.99592 -1.71569,0.63551 -1.71569,0.6355 -0.039,1.39582 -0.039,1.39582 1.77279,0.58508 1.77279,0.58508 0.41118,0.98509 0.41118,0.9851 -0.7892,1.63204 -0.7892,1.63205 1.03256,1.05326 1.03257,1.05327 1.56805,-0.8307 1.56807,-0.83071 0.94046,0.36898 c 0.51726,0.20294 0.99716,0.44249 1.06645,0.53234 0.0693,0.0899 0.39201,0.8891 0.71717,1.77611 l 0.59118,1.61274 1.40597,0 1.40597,0 0.59764,-1.74315 z m -3.01404,-6.97943 c -2.49514,-0.67682 -3.73255,-3.3847 -2.58318,-5.65288 0.64876,-1.28027 2.17863,-2.23238 3.58702,-2.23238 2.07576,0 3.90713,1.84566 3.91043,3.94093 0.004,2.6839 -2.41188,4.62312 -4.91427,3.94433 z" fill="#00bcf2" transform="translate(-222.48 -142.418)"/>
</svg>
