<svg xmlns="http://www.w3.org/2000/svg" xmlns:dc="http://purl.org/dc/elements/1.1/" xmlns:cc="http://creativecommons.org/ns#" xmlns:rdf="http://www.w3.org/1999/02/22-rdf-syntax-ns#" width="69.178" height="70">
    <metadata>
        <rdf:RDF>
            <cc:Work>
                <dc:subject>
                    Identity
                </dc:subject>
                <dc:format>
                    image/svg+xml
                </dc:format>
                <dc:type rdf:resource="http://purl.org/dc/dcmitype/StillImage"/>
                <dc:title>
                    Azure Active Directory Access Control Services (ACS)
                </dc:title>
                <dc:creator>
                    Richard Slater
                </dc:creator>
                <dc:identifier>
                    azure-active-directory-access-control-services-acs
                </dc:identifier>
            </cc:Work>
        </rdf:RDF>
    </metadata>
    <path d="M 34.445817,69.88527 0,41.57672 C 0,41.57672 34.671858,0.23132 34.58351,0 46.362871,14.43438 57.150355,27.1929 69.178,41.66244 c 0,0 -34.410022,28.32893 -34.629257,28.3374 -0.05661,0.002 -0.102926,-0.0494 -0.102926,-0.11457 z m 2.256609,-11.65979 1.997758,-2.10333 -1.406702,-1.50429 c -0.773688,-0.82737 -1.427171,-1.56335 -1.452185,-1.63552 -0.02501,-0.0722 0.623417,-0.84616 1.44096,-1.71996 0.817542,-0.8738 1.486442,-1.67112 1.486442,-1.77181 0,-0.10069 -0.756731,-0.98646 -1.681623,-1.96838 l -1.681622,-1.78531 1.71593,-1.81248 1.715932,-1.81247 0.0011,-1.8017 0.0011,-1.80169 0.521913,-0.29793 c 1.987194,-1.13437 3.840526,-3.68672 4.517031,-6.2207 0.359894,-1.34805 0.323597,-3.99683 -0.07392,-5.39459 -0.727,-2.55625 -2.409994,-4.79209 -4.598072,-6.10847 -2.607651,-1.56881 -5.969293,-1.66949 -8.779727,-0.26297 -1.563616,0.78254 -3.376361,2.58317 -4.181224,4.15328 -1.716771,3.34905 -1.622833,7.25452 0.251326,10.44877 0.567922,0.96794 2.304434,2.74484 3.189144,3.26332 l 0.64289,0.37676 0,8.76408 0,8.76409 2.085075,2.2042 c 1.146792,1.21231 2.131364,2.1876 2.187941,2.16731 0.05657,-0.0203 1.001856,-0.98338 2.100622,-2.14021 z M 33.268167,29.74124 c -1.218686,-0.56747 -2.115974,-1.98043 -2.115974,-3.33204 0,-2.01643 2.5064,-3.4839 4.655391,-2.7257 1.323567,0.46699 2.480795,1.78223 2.480795,2.81954 0,1.20289 -1.02962,2.60467 -2.372328,3.22981 -0.916969,0.42693 -1.743429,0.42955 -2.647884,0.008 z" fill="#00bcf2"/>
</svg>
