<svg xmlns:dc="http://purl.org/dc/elements/1.1/" xmlns:cc="http://creativecommons.org/ns#" xmlns:rdf="http://www.w3.org/1999/02/22-rdf-syntax-ns#" xmlns="http://www.w3.org/2000/svg" width="60.799" height="70">
    <metadata>
        <rdf:RDF>
            <cc:Work>
                <dc:subject>
                    Code
                </dc:subject>
                <dc:identifier>
                    bitbucket-code-source
                </dc:identifier>
                <dc:title>
                    BitBucket (Code Source)
                </dc:title>
                <dc:format>
                    image/svg+xml
                </dc:format>
                <dc:publisher>
                    Amido Limited
                </dc:publisher>
                <dc:creator>
                    Richard Slater
                </dc:creator>
                <dc:type rdf:resource="http://purl.org/dc/dcmitype/StillImage"/>
            </cc:Work>
        </rdf:RDF>
    </metadata>
    <path d="m -65.277461,560.64229 c -1.8066,-0.1772 -4.8736,-0.7453 -6.6033,-1.2232 -5.1503,-1.4229 -8.7351,-3.6639 -9.4634,-5.9158 -0.086,-0.2647 -0.6923,-3.1908 -1.3483,-6.5026 l -1.1926,-6.0213 0.2761,-0.3724 c 0.3225,-0.435 1.1124,-0.7471 1.419,-0.5606 0.1135,0.069 0.6394,0.4662 1.1688,0.8826 1.1471,0.9025 3.4374,2.0604 5.4312,2.7459 4.2281,1.4535 9.0583,2.1542 14.8499,2.1542 9.2821,0 16.8487,-1.9558 21.0042,-5.429 0.5199,-0.4346 0.6341,-0.4755 1.0189,-0.3651 0.5692,0.1633 1.0769,0.6516 1.0769,1.036 0,0.169 -0.4913,2.7414 -1.0917,5.7166 -0.6004,2.9752 -1.1565,5.7464 -1.2359,6.1582 -0.6476,3.3623 -6.7296,6.4197 -15.0661,7.5737 -1.4483,0.2005 -8.5801,0.286 -10.2437,0.1228 z m 1.096,-19.6616 c -4.8193,-0.2769 -9.9992,-1.2937 -13.6104,-2.6718 -2.6658,-1.0173 -5.4044,-2.688 -6.5973,-4.0247 -0.8703,-0.9752 -1.5928,-2.3892 -1.7142,-3.3551 -0.051,-0.4026 -1.2017,-7.2999 -2.558,-15.3273 -1.3563,-8.0275 -2.466,-14.8702 -2.466,-15.2061 0,-1.3584 1.2363,-2.9708 3.2999,-4.3037 3.8195,-2.467 10.4404,-4.2359 19.1125,-5.1063 3.404,-0.3417 12.5213,-0.3439 15.9526,0 9.9886,0.9898 17.3038,3.221 20.6816,6.3081 1.0637,0.9721 1.7401,2.1703 1.7521,3.1037 0,0.3595 -1.0805,7.0577 -2.4114,14.8849 -1.331,7.8271 -2.4855,14.7262 -2.5657,15.3312 -0.2052,1.5474 -0.7591,2.6244 -1.9762,3.8425 -3.6171,3.62 -11.0299,5.9997 -20.3643,6.5376 -2.5988,0.1498 -3.8001,0.1481 -6.5352,-0.01 z m 4.9096,-6.8672 c 3.9451,-0.6403 6.9214,-3.3236 7.8908,-7.114 0.3268,-1.2779 0.3511,-3.4331 0.053,-4.7086 -0.7186,-3.0748 -3.262,-5.8114 -6.3383,-6.8196 -1.0907,-0.3575 -1.4036,-0.3991 -3.005,-0.3991 -1.4857,0 -1.9616,0.054 -2.8187,0.3206 -5.2515,1.6326 -8.0747,7.2226 -6.2694,12.4138 1.4989,4.3098 6.0242,7.0312 10.4875,6.3069 z m -3.1427,-5.0002 c -2.6838,-1.1039 -3.8263,-3.9165 -2.653,-6.531 1.3173,-2.9353 5.2115,-3.7437 7.6167,-1.5813 1.8011,1.6194 2.123,4.3323 0.7517,6.3356 -1.276,1.864 -3.6835,2.6124 -5.7154,1.7767 z m 5.6762,-25.2524 c 7.9262,-0.4032 13.5496,-1.6256 14.9819,-3.257 0.4601,-0.524 0.4886,-0.7126 0.1937,-1.2829 -0.5752,-1.1124 -3.7294,-2.22 -8.1773,-2.8715 -3.6253,-0.531 -5.2938,-0.6259 -11,-0.6259 -5.7061,0 -7.3746,0.095 -10.9999,0.6259 -4.4479,0.6515 -7.6021,1.7591 -8.1773,2.8715 -0.2949,0.5703 -0.2665,0.7589 0.1937,1.2829 1.988,2.2643 12.6893,3.7806 22.9852,3.257 z" fill="#00bcf2" transform="translate(91.127 -490.729)"/>
</svg>
