<svg xmlns:dc="http://purl.org/dc/elements/1.1/" xmlns:cc="http://creativecommons.org/ns#" xmlns:rdf="http://www.w3.org/1999/02/22-rdf-syntax-ns#" xmlns="http://www.w3.org/2000/svg" width="70" height="67.795">
    <metadata>
        <rdf:RDF>
            <cc:Work>
                <dc:subject>
                    Messaging
                </dc:subject>
                <dc:identifier>
                    biztalk-services
                </dc:identifier>
                <dc:title>
                    BizTalk Services
                </dc:title>
                <dc:format>
                    image/svg+xml
                </dc:format>
                <dc:publisher>
                    Amido Limited
                </dc:publisher>
                <dc:creator>
                    Richard Slater
                </dc:creator>
                <dc:type rdf:resource="http://purl.org/dc/dcmitype/StillImage"/>
            </cc:Work>
        </rdf:RDF>
    </metadata>
    <path d="m -98.404477,568.65334 c -1.42881,-0.4618 -2.676773,-1.6005 -3.379643,-3.084 -0.39361,-0.8307 -0.43087,-1.0281 -0.43087,-2.2823 0,-1.2623 0.0357,-1.4485 0.4432,-2.3087 0.5514,-1.1642 1.67172,-2.2826 2.723043,-2.7183 l 0.74675,-0.3095 0,-4.43694 0,-4.43691 -10.715013,0 c -9.24833,0 -10.85986,-0.0298 -11.77328,-0.21784 -5.35738,-1.10281 -9.37455,-4.90995 -10.755,-10.19269 -0.5592,-2.13998 -0.48482,-5.25148 0.17743,-7.42258 0.62919,-2.0627 2.06422,-4.3368 3.66313,-5.8051 0.95708,-0.8789 2.95422,-2.188 3.96188,-2.597 0.74922,-0.304 0.75203,-0.3074 0.66709,-0.7991 -0.0469,-0.2717 -0.12131,-1.3058 -0.16532,-2.2981 -0.0951,-2.1433 0.12739,-3.5121 0.84073,-5.173 0.73726,-1.7166 1.29402,-2.5443 2.61126,-3.8817 1.45813,-1.4806 2.81129,-2.3281 4.73677,-2.9668 1.21277,-0.4022 1.44408,-0.4333 3.29514,-0.4429 1.68811,-0.01 2.15607,0.037 3.07757,0.3044 1.94533,0.5634 3.61469,1.5448 5.25598,3.0899 l 0.71353,0.6717 0.22045,-0.5279 c 0.3965,-0.9495 1.41246,-2.5653 2.34288,-3.7261 3.616343,-4.512 9.633963,-6.8249 15.231293,-5.8542 6.12323,1.0619 11.17794,5.4929 13.09022,11.475 0.65833,2.0595 0.89394,3.835 0.79902,6.0212 -0.0443,1.0195 -0.17084,2.2237 -0.28128,2.6762 -0.11046,0.4525 -0.19002,0.8328 -0.17681,0.8452 0.0132,0.012 0.58007,0.2628 1.2597,0.5565 1.77422,0.7667 3.11855,1.695 4.53082,3.1286 1.47702,1.4994 2.39176,2.9594 3.03208,4.8397 0.56774,1.6671 0.74124,2.7291 0.74257,4.5453 0.005,6.18509 -4.0155,11.54629 -9.94662,13.26506 -1.85031,0.5362 -3.73755,0.62062 -13.90781,0.62213 l -9.50787,10e-4 0,4.37864 0,4.37863 0.36083,0.091 c 0.55602,0.1396 1.7113,0.9307 2.27734,1.5595 1.04007,1.1554 1.59132,2.8703 1.40418,4.3682 -0.22022,1.7625 -1.56023,3.5806 -3.21817,4.3662 -0.76373,0.3619 -1.07149,0.4277 -2.1285,0.4546 -0.75791,0.019 -1.46111,-0.041 -1.8187,-0.157 z m 2.98573,-22.59458 0,-2.88063 0.37756,-0.0833 c 2.12924,-0.46947 3.65593,-1.2523 5.11008,-2.62026 0.58978,-0.55482 1.11936,-1.00876 1.17685,-1.00876 0.19403,0 5.174,2.95053 5.2334,3.10068 0.0324,0.0818 -0.41184,0.9679 -0.98712,1.96906 -0.57528,1.00115 -1.02049,1.84576 -0.98934,1.87691 0.0312,0.0312 1.88917,-0.36065 4.12892,-0.87068 2.88702,-0.65741 4.07239,-0.98167 4.07262,-1.11409 2.7e-4,-0.16226 -2.31749,-8.28241 -2.3839,-8.35191 -0.0137,-0.014 -0.47117,0.7613 -1.0165,1.7235 -0.54532,0.96225 -1.07413,1.86256 -1.17514,2.0007 -0.17182,0.23497 -0.35541,0.15185 -2.84959,-1.29016 -1.46626,-0.84774 -2.68345,-1.55814 -2.70485,-1.57874 -0.0214,-0.021 0.0994,-0.5245 0.26853,-1.1197 0.39292,-1.3833 0.41867,-3.6798 0.0552,-4.9267 -0.40582,-1.3923 -0.56835,-1.1929 2.37559,-2.916 1.46324,-0.8564 2.67528,-1.5392 2.69343,-1.5173 0.0181,0.022 0.26896,0.8283 0.55736,1.7921 0.2884,0.9638 0.57124,1.7052 0.62854,1.6476 0.14547,-0.1464 3.41431,-7.5975 3.41431,-7.7827 0,-0.1227 -7.95386,-1.7899 -8.04648,-1.6866 -0.0139,0.016 0.42868,0.8166 0.98358,1.7799 1.00735,1.7488 1.00845,1.7519 0.70644,1.9447 -0.16636,0.1061 -1.38023,0.8182 -2.69748,1.582 l -2.39501,1.3891 -0.90014,-0.8778 c -1.5047,-1.4675 -2.7503,-2.1739 -4.64403,-2.6337 l -0.99793,-0.2423 0.0369,-3.1045 0.0368,-3.1042 1.97773,-0.069 1.97772,-0.069 -2.64632,-3.0892 c -1.45548,-1.6991 -2.65998,-3.1052 -2.67668,-3.1245 -0.0167,-0.02 -1.19272,1.3707 -2.61339,3.0892 l -2.583043,3.1245 1.84037,0.069 1.840363,0.069 0.0368,3.1032 0.0369,3.1031 -0.92885,0.2293 c -1.818503,0.4487 -3.915603,1.6828 -4.937863,2.9058 -0.2817,0.337 -0.55593,0.6127 -0.60941,0.6127 -0.18272,0 -5.33653,-3.0502 -5.33653,-3.1584 0,-0.059 0.40815,-0.7977 0.907,-1.6409 0.49885,-0.8432 0.87821,-1.5618 0.84303,-1.597 -0.0798,-0.08 -7.82668,1.19 -7.94848,1.3028 -0.0488,0.045 0.50991,1.9048 1.24156,4.1324 l 1.33026,4.0503 0.48231,-0.8238 c 0.26527,-0.4531 0.75335,-1.3019 1.08462,-1.8863 0.56585,-0.9982 0.61942,-1.0515 0.88479,-0.88 0.15536,0.1005 1.38338,0.8216 2.72893,1.6026 2.14938,1.2476 2.43587,1.4545 2.35932,1.7038 -0.4908,1.5981 -0.53835,1.896 -0.53835,3.3729 0,1.1248 0.0712,1.8158 0.24741,2.4027 0.48122,1.6022 0.67699,1.3315 -2.1345,2.95184 -1.37572,0.7929 -2.53944,1.45826 -2.58604,1.47859 -0.0466,0.0203 -0.50741,-0.72107 -1.02401,-1.64757 -0.5166,-0.92646 -1.00495,-1.76836 -1.08523,-1.87096 -0.10966,-0.14 -0.47984,0.8146 -1.48856,3.83874 -0.73843,2.21385 -1.29684,4.06498 -1.2409,4.11364 0.13107,0.11401 8.00477,1.67623 8.07821,1.6028 0.0305,-0.0305 -0.38481,-0.84058 -0.92285,-1.80022 -0.53804,-0.95965 -0.95509,-1.76491 -0.92677,-1.78947 0.0283,-0.0246 1.20816,-0.70939 2.62186,-1.52183 l 2.57037,-1.47717 1.02811,0.96015 c 1.19468,1.11569 2.75158,1.98435 4.228643,2.35932 l 0.99822,0.25341 0.0371,2.89895 0.0371,2.89895 1.37025,0 1.37025,0 0,-2.88064 z m -2.88325,-6.7047 c -4.591563,-1.20016 -6.222293,-7.03208 -2.915603,-10.42688 1.300873,-1.3356 2.741673,-1.9573 4.524513,-1.9525 2.48419,0.01 4.57665,1.3978 5.69394,3.7854 0.58247,1.2447 0.68807,2.8973 0.27237,4.2622 -0.67724,2.2237 -2.38134,3.85417 -4.56657,4.36926 -1.12161,0.26438 -1.89044,0.2548 -3.00865,-0.0375 z" fill="#00bcf2" transform="translate(131.919 -501.019)"/>
</svg>
