<svg xmlns:dc="http://purl.org/dc/elements/1.1/" xmlns:cc="http://creativecommons.org/ns#" xmlns:rdf="http://www.w3.org/1999/02/22-rdf-syntax-ns#" xmlns="http://www.w3.org/2000/svg" width="68.219" height="65.938">
    <metadata>
        <rdf:RDF>
            <cc:Work>
                <dc:subject>
                    Storage
                </dc:subject>
                <dc:identifier>
                    cache
                </dc:identifier>
                <dc:title>
                    Cache
                </dc:title>
                <dc:format>
                    image/svg+xml
                </dc:format>
                <dc:publisher>
                    Amido Limited
                </dc:publisher>
                <dc:creator>
                    Richard Slater
                </dc:creator>
                <dc:type rdf:resource="http://purl.org/dc/dcmitype/StillImage"/>
            </cc:Work>
        </rdf:RDF>
    </metadata>
    <path transform="translate(-50.219 -347.313)" d="m 75.3125,347.3125 c -13.55041,0 -24.54336,3.55833 -24.96875,7.96875 l -0.0625,0 0,49.34375 c -0.0216,0.13993 -0.0625,0.29585 -0.0625,0.4375 0,0.0885 0.0541,0.16232 0.0625,0.25 0.42539,4.41042 11.41834,7.9375 24.96875,7.9375 4.375251,0 8.460026,-0.35251 12.03125,-1 -5.064416,-1.14533 -8.416985,-3.03084 -8.625,-5.1875 -0.0067,-0.07 -0.0625,-0.14805 -0.0625,-0.21875 0,-0.11316 0.0453,-0.23196 0.0625,-0.34375 l 0,-39.4375 0.03125,0 c 0.33986,-3.52359 9.11175,-6.34375 19.9375,-6.34375 0.581485,0 1.150081,0.0153 1.71875,0.0312 l 0,-5.46875 -0.0625,0 c -0.4254,-4.41037 -11.41834,-7.9687 -24.96875,-7.9687 z m -1.625,3.84375 c 0.63938,-0.0176 1.280972,0 1.9375,0 10.50445,0 19,2.30243 19,5.125 0,2.82258 -8.49555,5.125 -19,5.125 -10.50445,0 -19.03125,-2.30242 -19.03125,-5.125 0,-2.64616 7.50305,-4.86118 17.09375,-5.125 z m 25.15625,10.1875 c -10.60778,0 -19.19823,2.7661 -19.53125,6.21875 l -0.0625,0 0,38.625 c -0.0169,0.10954 -0.03125,0.23287 -0.03125,0.34375 0,0.0693 0.02465,0.15011 0.03125,0.21875 0.33301,3.45265 8.92348,6.21875 19.53125,6.21875 10.60779,0 19.22948,-2.7661 19.5625,-6.21875 l 0.0937,0 0,-39.1875 -0.0625,0 c -0.33302,-3.45265 -8.92347,-6.21875 -19.53125,-6.21875 z m 0.25,3 c 8.22328,0 14.875,1.79039 14.875,4 0,2.20963 -6.65172,4.03125 -14.875,4.03125 -8.22328,0 -14.90625,-1.82162 -14.90625,-4.03125 0,-2.20961 6.68297,-4 14.90625,-4 z m 7.6875,11.125 -8.9375,14.875 8.9375,-0.0937 -16.4375,17.3125 6.96875,-14.0625 -6.96875,0 16.4375,-18.03125 z" fill="#00bcf2"/>
</svg>
