<svg xmlns:dc="http://purl.org/dc/elements/1.1/" xmlns:cc="http://creativecommons.org/ns#" xmlns:rdf="http://www.w3.org/1999/02/22-rdf-syntax-ns#" xmlns="http://www.w3.org/2000/svg" width="70.001" height="59.121">
    <metadata>
        <rdf:RDF>
            <cc:Work>
                <dc:subject>
                    Miscellaneous
                </dc:subject>
                <dc:identifier>
                    certificate
                </dc:identifier>
                <dc:title>
                    Certificate
                </dc:title>
                <dc:format>
                    image/svg+xml
                </dc:format>
                <dc:publisher>
                    Amido Limited
                </dc:publisher>
                <dc:creator>
                    Richard Slater
                </dc:creator>
                <dc:type rdf:resource="http://purl.org/dc/dcmitype/StillImage"/>
            </cc:Work>
        </rdf:RDF>
    </metadata>
    <path d="m -152.95286,604.4103 c -0.7731,-1.81298 -1.4151,-3.29537 -1.4267,-3.2942 -0.012,0.001 -1.7196,0.45695 -3.7956,1.01285 -2.076,0.5559 -3.7905,0.99705 -3.81,0.98033 -0.02,-0.0167 1.3547,-2.41804 3.0539,-5.33628 1.6992,-2.91825 3.0878,-5.35227 3.0859,-5.40894 0,-0.0567 -0.3075,-0.30914 -0.6789,-0.56104 -2.0057,-1.36033 -4.5715,-4.35488 -5.8747,-6.85648 -1.9196,-3.68493 -2.6445,-8.13646 -1.9687,-12.08943 0.7578,-4.43225 2.6821,-8.08704 5.8669,-11.14257 2.3042,-2.21069 4.5353,-3.57591 7.4628,-4.56649 9.253,-3.13087 19.3103,0.68561 24.1392,9.16023 1.6442,2.88537 2.4835,6.13646 2.4835,9.61941 0,3.30427 -0.617,5.84226 -2.1654,8.90639 -1.4168,2.80381 -3.9401,5.68303 -6.447,7.35621 -0.6203,0.41403 -1.1279,0.80516 -1.1279,0.86917 0,0.064 1.5425,2.41202 3.4277,5.2178 1.8852,2.80578 3.3748,5.11959 3.3102,5.14181 -0.065,0.0222 -1.7681,-0.39841 -3.7855,-0.93472 -2.0174,-0.5363 -3.6907,-0.95238 -3.7184,-0.9246 -0.028,0.0278 -0.4901,1.34398 -1.0274,2.92491 -0.5373,1.58093 -1.0187,2.94936 -1.0699,3.04096 -0.056,0.10074 -1.6897,-1.95055 -4.1337,-5.19096 -2.2223,-2.94664 -4.0809,-5.3824 -4.1301,-5.41282 -0.049,-0.0304 -1.4057,2.27463 -3.0144,5.12234 -1.6087,2.8477 -2.9981,5.28672 -3.0876,5.42004 -0.1384,0.20628 -0.3721,-0.24889 -1.5682,-3.05392 z m 11.3818,-11.88084 c 6.7492,-1.09454 12.2632,-6.25721 13.811,-12.93095 0.5515,-2.37814 0.4989,-5.38807 -0.1378,-7.88081 -1.6302,-6.38273 -7.1126,-11.34717 -13.7864,-12.48385 -1.5687,-0.26718 -4.6883,-0.19515 -6.3249,0.14605 -4.124,0.85973 -7.711,3.12394 -10.2074,6.44321 -2.2987,3.05648 -3.3888,6.30621 -3.3894,10.10458 0,3.72721 1.0538,6.92195 3.269,9.90517 2.788,3.75473 6.6763,6.04892 11.5539,6.81713 0.908,0.14301 4.0325,0.0707 5.212,-0.12053 z m -5.2206,-3.84382 c -4.9938,-0.90442 -9.1282,-4.70381 -10.4477,-9.60109 -0.4093,-1.51918 -0.4379,-4.60773 -0.056,-6.10785 1.1949,-4.69943 4.4805,-8.10964 9.2088,-9.55806 1.1369,-0.34827 1.4212,-0.37888 3.5686,-0.38423 2.03,-0.005 2.4743,0.0348 3.417,0.30661 2.2382,0.6453 4.013,1.65933 5.6931,3.25273 1.6788,1.59215 2.7776,3.37446 3.5119,5.69668 0.5032,1.59136 0.6337,4.33433 0.2875,6.04302 -0.5984,2.95305 -2.1814,5.61653 -4.4612,7.50577 -2.9399,2.43635 -7.0139,3.51793 -10.7216,2.84642 z m 5.293,-3.21506 c 3.3535,-1.05207 6.0011,-3.80231 6.8742,-7.14093 0.3532,-1.35056 0.3249,-3.62731 -0.062,-5.00362 -1.2602,-4.48138 -5.1239,-7.37819 -9.8317,-7.37144 -3.1206,0.004 -5.78,1.22587 -7.7928,3.57913 -0.8661,1.01251 -1.8043,2.89618 -2.0963,4.20854 -0.318,1.42926 -0.2165,3.86321 0.214,5.13548 1.1856,3.50318 3.8914,5.96466 7.4791,6.80379 1.231,0.28793 3.9798,0.17676 5.2157,-0.21095 z m -48.9314,2.89585 c -1.5294,-0.49144 -2.7416,-1.5503 -3.4733,-3.03381 l -0.4385,-0.88919 -0.037,-13.79974 -0.037,-13.79975 4.1318,-4.21794 4.1318,-4.21794 23.1556,0 c 25.3172,0 23.9666,-0.0419 25.3875,0.78856 1.8586,1.08636 2.9043,3.07649 2.9043,5.52751 0,0.42649 -0.036,0.81165 -0.08,0.8559 -0.044,0.0443 -0.4723,-0.0954 -0.9512,-0.31024 -0.4789,-0.21489 -1.2126,-0.49844 -1.6304,-0.63013 -0.7476,-0.23567 -0.761,-0.24917 -0.8526,-0.85979 -0.1295,-0.86401 -0.869,-1.64877 -1.7056,-1.81019 -0.3372,-0.0651 -10.4182,-0.12098 -22.4023,-0.12426 l -21.7892,-0.006 0,3.36275 0,3.36275 -3.4335,0 -3.4335,0 0.036,12.61743 c 0.036,12.50094 0.039,12.62093 0.3195,12.99643 0.1556,0.20844 0.4535,0.50634 0.6619,0.66198 0.3753,0.2802 0.4998,0.28336 12.6273,0.32015 l 12.2484,0.0372 0.3138,0.64912 c 0.1726,0.35701 0.5858,1.08665 0.9182,1.62142 0.3323,0.53476 0.6042,1.01344 0.6042,1.06372 0,0.0503 -5.9448,0.0881 -13.2107,0.084 -12.2427,-0.007 -13.2662,-0.0252 -13.9657,-0.24995 z" fill="#00bcf2" transform="translate(194.416 -548.408)"/>
</svg>
