<svg xmlns:dc="http://purl.org/dc/elements/1.1/" xmlns:cc="http://creativecommons.org/ns#" xmlns:rdf="http://www.w3.org/1999/02/22-rdf-syntax-ns#" xmlns="http://www.w3.org/2000/svg" width="70" height="58.885">
    <metadata>
        <rdf:RDF>
            <cc:Work>
                <dc:subject>
                    Compute
                </dc:subject>
                <dc:identifier>
                    cloud-service
                </dc:identifier>
                <dc:title>
                    Cloud Service
                </dc:title>
                <dc:format>
                    image/svg+xml
                </dc:format>
                <dc:publisher>
                    Amido Limited
                </dc:publisher>
                <dc:creator>
                    Richard Slater
                </dc:creator>
                <dc:type rdf:resource="http://purl.org/dc/dcmitype/StillImage"/>
            </cc:Work>
        </rdf:RDF>
    </metadata>
    <path d="m -118.85037,536.56795 c -4.0998,-0.43103 -7.8754,-3.2984 -9.4486,-7.17582 -0.6259,-1.54271 -0.9361,-3.29105 -0.8515,-4.79995 l 0.067,-1.20144 -1.3901,-1.2e-4 c -2.0918,-1.4e-4 -4.1846,-0.2377 -5.5303,-0.62766 -5.5053,-1.59537 -9.1101,-6.26397 -9.1101,-11.79855 0,-5.14218 3.1422,-9.48244 8.2784,-11.43475 1.1571,-0.43982 1.3358,-0.54925 1.2828,-0.78561 -0.034,-0.15104 -0.1726,-0.73803 -0.3084,-1.30442 -0.3788,-1.58004 -0.3479,-4.15921 0.066,-5.4886 1.0648,-3.42101 3.1976,-5.80041 6.3909,-7.12979 2.7816,-1.15799 5.8124,-1.04203 8.6625,0.33144 1.5154,0.73029 2.5687,1.56944 3.8793,3.09055 0.5516,0.64015 1.0474,1.14648 1.102,1.12517 0.054,-0.0213 0.3787,-0.67008 0.7205,-1.44173 0.9093,-2.05259 1.2646,-2.6886 2.1844,-3.90917 4.1275,-5.47768 11.5069,-7.62816 18.019701,-5.25127 3.7941,1.38466 6.8967,4.19841 8.7052,7.89476 1.6411,3.35408 2.0387,7.03229 1.16,10.73214 -0.1524,0.64165 -0.2771,1.24171 -0.2771,1.33346 0,0.0917 0.5406,0.34201 1.2014,0.55615 1.3188,0.42735 2.784,1.12062 3.7416,1.77039 1.0321,0.70025 2.6104,2.30227 3.2999,3.3493 1.4434,2.19208 1.9972,4.29377 1.874,7.11121 -0.093,2.13341 -0.3047,2.98787 -1.1889,4.80576 -1.6944,3.4841 -4.9845,5.95752 -8.9525,6.73033 -0.638,0.12426 -2.2494,0.25773 -3.6485,0.30221 l -2.5059,0.0797 0,0.91187 c 0,3.28086 -2.3689,6.41016 -5.6296,7.43664 -1.1548,0.36353 -3.050901,0.39085 -4.194701,0.0604 -1.7457,-0.50426 -3.0289,-1.38356 -4.4697,-3.06278 l -0.6205,-0.72315 -0.4633,1.12193 c -1.7327,4.19686 -5.2654,6.89643 -9.6669,7.38723 -0.7191,0.0802 -1.3253,0.1374 -1.3472,0.12714 -0.022,-0.0102 -0.4863,-0.0656 -1.032,-0.12296 z m 2.6859,-14.76595 0.4443,-1.45142 0.7543,-0.33357 c 0.4148,-0.18347 0.8361,-0.33358 0.9362,-0.33358 0.1001,0 0.7895,0.28389 1.532,0.63085 l 1.35,0.63085 0.7821,-0.87114 0.7822,-0.87113 -0.7251,-1.37308 -0.7252,-1.37307 0.3092,-0.81014 0.3091,-0.81014 1.2903,-0.51323 1.2904,-0.51323 0.039,-1.24099 0.039,-1.241 -1.1957,-0.38774 -1.1957,-0.38775 -0.3896,-0.85783 -0.3895,-0.85782 0.6191,-1.32482 c 0.3405,-0.72866 0.6191,-1.39515 0.6191,-1.4811 0,-0.0859 -0.3423,-0.49399 -0.7606,-0.90677 l -0.7605,-0.7505 -1.4052,0.74226 -1.4052,0.74225 -0.6834,-0.22938 c -0.3759,-0.12615 -0.7637,-0.28033 -0.8618,-0.34261 -0.098,-0.0623 -0.3856,-0.66381 -0.6387,-1.33672 l -0.4604,-1.22348 -1.2749,0 -1.2749,0 -0.4093,1.1447 c -0.409,1.14394 -0.4098,1.14493 -1.1585,1.47605 -0.4121,0.18225 -0.8188,0.33145 -0.9038,0.33157 -0.085,1.2e-4 -0.7598,-0.28995 -1.4996,-0.64459 l -1.3449,-0.64481 -0.8295,0.82944 -0.8294,0.82945 0.6997,1.3943 0.6997,1.39431 -0.3919,0.85805 -0.3918,0.85805 -1.3945,0.47378 -1.3945,0.47378 0,1.19691 0,1.19692 1.3388,0.43962 c 0.7363,0.2418 1.4059,0.50949 1.488,0.59488 0.082,0.0854 0.2799,0.4805 0.4395,0.87801 l 0.2901,0.72276 -0.6357,1.37951 -0.6357,1.3795 0.8528,0.84985 0.8528,0.84985 1.2658,-0.65717 c 0.6962,-0.36144 1.3353,-0.65494 1.4203,-0.65221 0.085,0.003 0.4947,0.15541 0.9105,0.33929 l 0.756,0.33434 0.5261,1.45066 0.526,1.45066 1.1791,0 1.1791,0 0.4442,-1.45143 z m -2.3304,-5.78045 c -0.709,-0.1188 -1.8076,-0.90989 -2.2418,-1.6143 -0.3747,-0.60796 -0.4166,-0.78855 -0.4149,-1.785 0,-0.96222 0.049,-1.18113 0.3612,-1.65784 1.0315,-1.57718 2.7409,-2.1287 4.3053,-1.3891 3.1224,1.47612 2.385,6.09001 -1.0298,6.44302 -0.3398,0.0351 -0.7808,0.0366 -0.98,0.003 z m 19.923901,-5.7295 0.4614,-1.42755 0.8705,-0.34537 0.8705,-0.34538 1.2447,0.60581 c 0.6845,0.3332 1.3281,0.60582 1.4302,0.60582 0.234,0 1.7179,-1.34597 1.7182,-1.55849 1e-4,-0.0868 -0.2838,-0.75035 -0.631,-1.47452 l -0.6312,-1.31666 0.4205,-0.83308 0.4206,-0.83307 1.52,-0.5065 1.5201,-0.5065 -0.04,-1.17192 -0.039,-1.17191 -1.5697,-0.4602 c -0.8633,-0.25311 -1.6098,-0.50767 -1.659,-0.56569 -0.049,-0.058 -0.2159,-0.44689 -0.3705,-0.86417 l -0.2811,-0.75869 0.6014,-1.28649 c 0.3308,-0.70756 0.6014,-1.3567 0.6014,-1.44253 0,-0.0858 -0.3553,-0.50617 -0.7895,-0.93412 l -0.7895,-0.77807 -1.3525,0.73114 -1.3525,0.73113 -0.8523,-0.27707 -0.8522,-0.27707 -0.5275,-1.35371 -0.5276,-1.3537 -1.203901,0 -1.204,0 -0.2149,0.58355 c -0.1182,0.32096 -0.3241,0.88402 -0.4576,1.25125 -0.2268,0.62398 -0.2975,0.68952 -1.0793,1.00139 l -0.8367,0.33371 -1.2816,-0.6238 c -0.705,-0.34309 -1.3499,-0.6238 -1.4333,-0.6238 -0.083,0 -0.499,0.35528 -0.9236,0.78952 l -0.7721,0.78952 0.7399,1.30442 c 0.407,0.71743 0.7409,1.38759 0.7421,1.48925 0,0.10165 -0.093,0.51117 -0.2087,0.91005 l -0.2109,0.72522 -1.2309,0.51616 -1.2309,0.51617 0,1.26743 0,1.26742 1.0164,0.38805 1.0164,0.38804 0.3515,0.85614 0.3516,0.85613 -0.6394,1.38911 -0.6395,1.38912 0.8295,0.82942 0.8294,0.82941 1.3615,-0.68325 1.3616,-0.68326 0.8413,0.33663 0.8414,0.33662 0.5106,1.43325 0.5107,1.43324 1.1938,0 1.193801,0 0.4614,-1.42755 z m -3.087901,-5.96935 c -1.233,-0.56012 -1.9819,-1.73415 -1.9819,-3.10712 0,-1.29068 0.6979,-2.45232 1.8288,-3.04408 0.5821,-0.30462 1.7621,-0.38642 2.521101,-0.17476 0.8826,0.24611 2.0102,1.35576 2.2396,2.20387 0.1979,0.73172 0.1039,1.98555 -0.1917,2.55717 -0.3124,0.6042 -1.0257,1.2751 -1.6637,1.56492 -0.7281,0.33076 -2.024101,0.33076 -2.752201,0 z" fill="#00bcf2" transform="translate(145.114 -477.807)"/>
</svg>
