<svg xmlns:dc="http://purl.org/dc/elements/1.1/" xmlns:cc="http://creativecommons.org/ns#" xmlns:rdf="http://www.w3.org/1999/02/22-rdf-syntax-ns#" xmlns="http://www.w3.org/2000/svg" width="53.52" height="70.001">
    <metadata>
        <rdf:RDF>
            <cc:Work>
                <dc:subject>
                    Data
                </dc:subject>
                <dc:identifier>
                    database-generic
                </dc:identifier>
                <dc:title>
                    Database Generic
                </dc:title>
                <dc:format>
                    image/svg+xml
                </dc:format>
                <dc:publisher>
                    Amido Limited
                </dc:publisher>
                <dc:creator>
                    Richard Slater
                </dc:creator>
                <dc:type rdf:resource="http://purl.org/dc/dcmitype/StillImage"/>
            </cc:Work>
        </rdf:RDF>
    </metadata>
    <path d="m -16.860766,683.76301 c -6.24589,-0.8285 -11.77753,-2.6706 -15.50061,-5.1618 -1.42958,-0.9566 -3.14747,-2.7159 -3.66751,-3.756 l -0.41222,-0.8244 0,-25.4201 0,-25.4201 0.39553,-0.7517 c 1.78947,-3.4007 7.84906,-6.3038 16.03746,-7.6835 3.91481,-0.6596 5.43093,-0.7715 10.3611603,-0.7651 4.85819,0.01 6.6406,0.1498 10.37414999,0.8353 8.18617001,1.5028 14.23919971,4.4969 15.91416971,7.8717 l 0.43713,0.8807 -1.1e-4,25.5699 -1.1e-4,25.5699 -0.39365,0.8244 c -1.84917,3.8728 -9.3489997,7.1035 -19.1177697,8.2352 -2.46581,0.2857 -12.2633403,0.2827 -14.4276203,0 z m 13.3186403,-54.948 c 5.61096,-0.5758 9.99301,-1.8924 11.78002,-3.5397 0.77078,-0.7104 1.00846,-1.1626 1.00846,-1.9186 0,-2.3437 -4.83279,-4.3967 -12.43523,-5.2825 -2.54431,-0.2964 -9.8594703,-0.3403 -12.2978303,-0.074 -6.70791,0.7334 -11.40203,2.2707 -12.79191,4.1894 -0.45342,0.6259 -0.53612,1.4949 -0.2035,2.1381 0.98733,1.9093 5.42019,3.5958 11.41524,4.3429 4.1116,0.5124 9.3863703,0.5686 13.5247503,0.144 z" fill="#00bcf2" transform="translate(36.441 -613.98)"/>
</svg>
