<svg xmlns="http://www.w3.org/2000/svg" xmlns:dc="http://purl.org/dc/elements/1.1/" xmlns:cc="http://creativecommons.org/ns#" xmlns:rdf="http://www.w3.org/1999/02/22-rdf-syntax-ns#" width="66" height="66.783">
    <metadata>
        <rdf:RDF>
            <cc:Work>
                <dc:subject>
                    Messaging
                </dc:subject>
                <dc:format>
                    image/svg+xml
                </dc:format>
                <dc:type rdf:resource="http://purl.org/dc/dcmitype/StillImage"/>
                <dc:title>
                    Event Hub
                </dc:title>
                <dc:creator>
                    Richard Slater
                </dc:creator>
                <dc:identifier>
                    event-hub
                </dc:identifier>
            </cc:Work>
        </rdf:RDF>
    </metadata>
    <path d="M 10.434782,0 C 4.5913043,0 0.45652173,4.5913043 0.45652173,10.434783 l 0,12.717391 4.17391297,0 0.5869566,0 60.7826087,0 -16.695652,-14.1521741 0,7.0434781 -44.0869567,0 0,-5.608695 c 0,-2.713044 2.5565217,-5.8695657 5.4782607,-5.8695657 l 45.065217,0 c 2.713043,0 5.413043,2.9478261 5.413043,5.8695657 l 0,2.47826 4.565218,4.630435 0,-7.108695 C 65.73913,4.5913043 61.604347,0 55.760869,0 L 10.434782,0 z M 0,27.782608 l 16.695652,13.76087 0,-9.000001 44.086956,0 0,7.5 c 0,2.713044 -2.347826,6.52174 -5.47826,6.52174 l -44.869566,0 c -2.7130429,0 -5.4130429,-3.6 -5.4130429,-6.52174 l 0,-2.47826 -4.56521737,-4.565218 0,7.043478 c 0,5.843479 4.13478257,11.086957 9.97826027,11.086957 l 10.043478,0 22.304348,15.652174 -1.630434,-15.847826 14.608695,0 c 5.843478,0 9.978261,-5.452173 9.978261,-11.086957 l 0,-12.065217 -3.913044,0 -1.304348,0 -60.521738,0 z" fill="#00bcf2"/>
</svg>
