<svg xmlns:dc="http://purl.org/dc/elements/1.1/" xmlns:cc="http://creativecommons.org/ns#" xmlns:rdf="http://www.w3.org/1999/02/22-rdf-syntax-ns#" xmlns="http://www.w3.org/2000/svg" width="86.49" height="65.892">
    <metadata>
        <rdf:RDF>
            <cc:Work>
                <dc:subject>
                    Big Data
                </dc:subject>
                <dc:identifier>
                    hdinsight
                </dc:identifier>
                <dc:title>
                    HDInsight
                </dc:title>
                <dc:format>
                    image/svg+xml
                </dc:format>
                <dc:publisher>
                    Amido Limited
                </dc:publisher>
                <dc:creator>
                    Richard Slater
                </dc:creator>
                <dc:type rdf:resource="http://purl.org/dc/dcmitype/StillImage"/>
            </cc:Work>
        </rdf:RDF>
    </metadata>
    <path d="m 303.84155,643.40128 c -0.21348,-0.001 -0.42425,0.007 -0.64022,0.016 -2.68768,0.11775 -5.59513,1.03134 -9.04312,2.52887 -3.20097,1.39082 -4.33525,2.79674 -6.30617,5.31383 0.0207,0 0.0431,5.2e-4 0.064,0 2.00319,-0.0497 3.99229,-0.11229 6.05009,-0.3041 -2.12765,0.49432 -4.17207,0.88427 -6.25816,1.20041 -2.30825,0.34988 -3.01358,0.29239 -4.75364,1.98469 -3.20494,3.11672 -5.88836,6.64658 -8.81904,9.81138 -1.69613,1.83135 -2.54071,3.6584 -3.53721,5.74597 -0.99107,2.0772 -0.84535,2.86262 0.48016,4.65761 1.35707,1.83788 2.16401,2.67311 2.73694,4.30548 1.49883,-2.31094 3.3134,-4.23141 5.2178,-6.53025 -1.55509,2.49046 -2.9735,4.84769 -4.25747,7.37854 -0.79905,1.57584 -1.1918,2.37323 -1.1684,4.11342 1.50286,1.73333 2.44628,2.65794 3.84133,3.04105 1.50298,0.41249 2.91582,0.35135 4.27347,-0.35212 3.37806,-1.74947 6.59184,-4.03454 10.33956,-4.32149 1.93423,-3.45028 1.38364,-7.79008 0.68824,-11.71604 -0.57659,-3.25757 -0.4253,-6.1408 0.35212,-9.41124 0.19565,3.17569 0.44374,6.13626 1.07237,9.25119 0.9207,4.56112 1.11724,8.49022 -0.80028,13.20455 -4.14479,0.10032 -7.54544,2.53885 -11.21986,4.41752 -1.65421,0.84554 -3.19259,0.91968 -5.04174,0.48016 -1.88519,-0.44808 -3.34016,-1.89518 -5.28182,-4.01738 0.19232,-1.60958 0.40449,-2.61459 0.97634,-3.79331 -0.69234,-2.08282 -1.55132,-3.04086 -3.13708,-5.16978 -1.84025,-2.47029 -1.8683,-3.54016 -0.48017,-6.35419 1.00463,-2.03731 1.95472,-3.91507 3.53722,-5.77799 1.56323,-1.83986 2.98401,-3.54714 4.43353,-5.16978 -6.02806,0.91744 -9.87035,2.35627 -13.98882,5.97006 -3.0534,2.67977 -4.96203,6.01493 -6.32218,9.85939 -0.85841,2.42644 -1.09292,4.86811 -0.68824,8.83505 0.52108,5.1087 3.24144,10.86979 6.16213,15.07719 -0.35642,2.61735 -0.82301,4.59589 -1.55254,6.46623 -0.82883,2.12528 2.47125,2.76479 4.0654,3.2011 1.29465,0.35444 6.18773,1.70497 6.6743,-0.032 0.29251,-1.04497 0.29687,-1.76412 0.22408,-2.86499 0.87633,-1.74479 1.15054,-1.99223 1.77661,-3.02504 0.66858,-1.10303 0.71615,-1.53614 0.72025,-2.83297 0.006,-1.67361 -0.0369,-4.66471 0.032,-5.74598 0.2274,0.96526 0.49758,2.30889 0.72025,3.60124 3.49092,0.6228 6.96156,0.58503 10.4516,-0.12805 0.0443,-0.24424 0.1146,-0.52159 0.20807,-0.84829 0.23374,-0.81628 0.69438,-1.63256 0.92832,-2.44884 -0.0631,0.80322 -0.11275,1.6138 -0.17606,2.41683 -0.0657,0.82973 -0.0702,1.49651 0.032,2.3208 0.0568,0.455 0.10365,0.90553 0.16005,1.36047 -0.25551,-0.41615 -0.6518,-0.81596 -0.8803,-1.23243 -1.55529,1.02103 -2.39692,1.59326 -3.92135,2.40083 -1.61227,0.85444 0.23009,3.91879 0.89631,4.97772 1.4629,2.32457 3.2198,5.07054 5.93804,3.63325 0.89196,-0.47146 1.4074,-1.56464 2.00069,-2.35281 0.79688,-0.47044 5.03777,-4.02808 5.71397,-4.41753 0.94823,-0.54649 4.36842,-6.15572 4.80166,-7.5546 0.95764,-3.09316 2.06778,-5.44296 2.38482,-8.67499 -2.17867,-0.91353 -3.23952,-1.94127 -4.80166,-3.7773 2.19519,1.62514 4.101,2.50288 6.46623,3.24912 0.86225,0.76205 1.73698,1.5325 2.64091,2.33681 1.31194,1.16712 2.51702,2.35107 4.41752,2.38482 2.05594,0.0361 4.38007,-1.5398 4.97772,-3.4892 0.23028,-0.75079 0.45814,-1.48999 0.68823,-2.24078 -0.40795,-0.0986 -0.79989,-0.2176 -1.1844,-0.33611 -0.42812,1.02647 -0.4061,1.42347 -0.60821,2.17675 -0.34649,1.28959 -2.10992,2.19269 -3.96937,1.7446 -0.66148,-0.15935 -1.05912,-0.2607 -1.29645,-0.43215 0.18983,0.50885 0.55302,0.94721 1.23243,1.07237 0.74969,0.13849 1.30995,0.1986 2.40082,-0.048 -1.34779,0.69541 -1.78237,0.72428 -2.73694,0.51218 -2.50826,-0.55751 -1.63519,-3.57858 -1.08837,-5.42587 0.34446,-1.16437 0.22695,-2.40339 -0.032,-3.56923 0.95099,0.59905 1.70319,1.1401 2.78496,1.50452 5.06837,1.70753 11.09618,3.43945 16.19758,0.5922 4.00183,-2.23386 6.18287,-7.17885 6.6743,-11.71604 0.43791,-4.04337 -0.3105,-10.3619 -1.96868,-14.37295 -0.38221,-0.92409 -1.90875,-2.30563 -2.88099,-1.36047 -0.98011,0.95316 -1.71605,2.2943 -2.78496,3.13708 -1.45419,1.14619 -3.95944,0.7529 -3.5052,3.1851 0.33103,1.77252 0.42628,3.74369 0.048,5.39386 -0.36314,1.58448 -0.74176,3.83492 -1.56854,4.89769 0.24604,-0.89849 0.65449,-3.23555 0.76826,-4.81766 0.0624,-0.86712 -0.0311,-1.92412 -0.19207,-2.97703 -0.18348,0.004 -0.37689,0.0124 -0.56019,0.016 -0.66788,0.0147 -1.75561,0.97077 -2.0487,1.56854 -0.81616,1.66381 -0.86379,3.20424 -1.77662,4.78565 0.73684,-1.76906 0.32159,-3.35571 0.99235,-5.24981 0.2379,-0.67165 0.82678,-1.25156 1.52052,-1.60055 -0.38541,-0.0579 -0.75898,0.10525 -1.32846,0.24008 -2.44366,0.57876 -2.34173,2.50436 -3.84132,4.3375 1.4444,-2.65416 0.70206,-4.42188 3.84132,-5.13777 1.03229,-0.2356 1.80267,-0.318 2.48086,0.22408 0.0143,-10e-4 0.0177,-0.015 0.032,-0.016 0.17747,-0.0139 0.35052,-0.0179 0.52818,-0.032 -0.0882,-0.48708 -0.17753,-0.97262 -0.27209,-1.42449 -1.43352,-0.18893 -2.75692,-0.14372 -4.22546,0.08 0.31665,-0.13758 0.62709,-0.27344 0.92832,-0.38413 -0.0909,-0.093 -0.18054,-0.21223 -0.24008,-0.35212 -0.001,-10e-4 5.1e-4,-0.015 0,-0.016 -0.18817,-0.36461 -0.28214,-0.77889 -0.24009,-1.21642 0.0318,-0.32997 0.14604,-0.62735 0.30411,-0.89631 -0.049,0.0118 -0.0971,0.0133 -0.14405,0.032 -0.35046,0.13866 -1.08876,0.0999 -1.42449,-0.016 0.6586,-0.10692 1.63755,-0.45904 2.27278,-0.76826 0.0161,-0.008 0.0321,-0.009 0.048,-0.016 0.39598,-0.24373 0.86372,-0.36785 1.36047,-0.32011 0.25077,0.0241 0.48682,0.0924 0.70424,0.19206 0.2954,0.0878 0.62908,0.19495 1.02436,0.33612 -0.60322,-1.25964 -1.29171,-2.39353 -2.11273,-3.53722 -0.77672,-1.08229 -1.42865,-1.45215 -2.57689,-2.12873 -0.25115,-0.14808 -0.48176,-0.30955 -0.72025,-0.46416 -0.84912,-0.15494 -1.80663,-0.29995 -2.6249,-0.14405 0.67236,-0.2641 1.18677,-0.3817 1.77661,-0.43215 -1.62699,-1.16367 -3.02113,-2.46056 -4.62559,-3.80931 -3.26472,-2.74435 -6.20912,-3.95403 -9.41124,-3.96937 z m 2.09672,10.88375 c -3.2351,1.55273 -4.0752,3.56693 -4.54557,5.64995 -0.55117,-2.76832 0.25769,-4.5763 4.54557,-5.64995 z m -12.70838,0.24008 c -1.53896,0.60053 -2.93323,1.04753 -4.43353,1.42449 -1.36892,1.79915 -2.19781,2.72625 -2.51286,5.13777 -0.37056,-2.37234 -0.44764,-2.80685 0.60821,-4.57757 -0.30596,0.1555 -0.6006,0.37164 -1.00835,0.72025 -1.47507,1.26129 -3.39266,6.21462 -4.16143,7.98675 0.48797,-2.13296 2.01311,-7.47311 3.58523,-9.02711 1.03389,-1.02212 1.26309,-0.99849 2.72094,-1.13639 1.73641,-0.1646 3.46628,-0.33202 5.20179,-0.52819 z m 39.82172,0.19207 c -0.60815,2.40204 -1.83078,4.45645 -4.36951,5.36185 -1.24676,0.44425 -2.05946,-0.0201 -3.32914,-0.38414 1.24843,0.11812 1.97117,0.31288 3.08906,-0.24008 2.08373,-1.03114 3.61545,-2.72427 4.60959,-4.73763 z m -8.86706,3.24912 c -0.14558,0.003 -0.29424,0.0109 -0.43214,0.016 0.20487,0.2025 0.36613,0.43746 0.48016,0.70424 0.062,-0.057 0.13861,-0.1089 0.20807,-0.16005 -0.0842,-0.18964 -0.16863,-0.376 -0.25609,-0.5602 z m -12.70837,1.56854 c -0.47735,0.43375 -1.08972,0.77172 -1.71259,1.10438 0.68619,0.25116 1.27826,0.76327 1.61655,1.47251 0.14264,0.29911 0.23759,0.61582 0.2721,0.92832 0.93933,-0.30853 1.86183,-0.45936 2.64091,-0.44816 -2.78694,0.78235 -5.75065,2.61876 -7.79469,5.04174 0.22959,-0.6319 0.54182,-1.20336 0.92832,-1.71259 -0.53567,-0.28003 -0.98491,-0.72684 -1.26443,-1.31245 -0.18727,-0.39271 -0.28484,-0.80719 -0.2881,-1.21642 -0.68926,0.55059 -1.43115,1.07487 -2.20876,1.37647 1.07365,-0.95879 2.52849,-3.22357 3.58523,-3.93735 1.1992,-0.81033 2.82728,-0.64963 4.22546,-1.29645 z m -57.7639,4.84967 c -1.88251,1.13421 -5.33707,4.29511 -3.02504,6.6903 0.25026,0.90521 0.45711,1.60472 0.80027,2.3208 0.70668,1.47546 2.54942,1.09164 3.95336,0.49617 0.0359,-0.12119 0.0736,-0.23112 0.11204,-0.35212 0.23208,-0.73209 0.47056,-1.44132 0.73626,-2.12873 -0.55718,0.50341 -1.17935,0.92902 -1.93667,1.23242 -1.96304,0.78677 -1.92521,0.10206 -2.76895,-1.60055 1.79537,-1.43409 0.96411,-3.20763 1.53652,-5.18578 0.13208,-0.45641 0.3198,-0.8869 0.59221,-1.47251 z m 0.48016,1.07237 c -0.0335,0.11089 -0.0663,0.20756 -0.096,0.32011 -0.0579,0.2194 -0.0967,0.46217 -0.12804,0.70424 0.36909,-0.0419 0.59483,0.14687 0.8803,0.43215 -0.0528,-0.68164 -0.17766,-1.17788 -0.65623,-1.4565 z m 57.89195,12.72438 c -0.49291,0.26825 -1.37974,0.62806 -1.87265,0.89631 -0.69489,0.37837 -0.88901,0.45212 -1.21642,1.1684 -0.30942,0.6773 -0.6148,1.49864 -0.8803,2.20876 0.0991,-0.62811 0.221,-1.40477 0.32011,-2.0327 0.21018,-1.33351 0.37421,-1.65996 1.72859,-1.88865 0.50706,-0.0855 1.41361,-0.26646 1.92067,-0.35212 z m -56.33941,9.34722 c -0.19674,0.52575 -0.39546,1.0426 -0.5922,1.56854 -0.89868,0.90995 -1.78987,1.82681 -2.68893,2.73694 -0.66724,0.6764 -0.80617,0.69234 -0.67223,1.64857 0.18419,1.31067 0.97288,2.70916 2.12873,3.88934 1.05733,1.07948 4.7101,3.90586 6.14612,1.98469 0.30525,-0.40885 0.45039,-0.91782 0.5762,-1.4405 1.2e-4,-0.0179 -2e-4,-0.0464 0,-0.064 -2.00914,-3.04015 -3.83352,-6.64312 -4.89769,-10.32356 z m 48.30464,2.40083 c -0.47799,1.70695 -1.11008,3.32287 -1.69659,5.16978 -0.55501,1.74838 -3.41416,6.8204 -5.08975,8.05077 0.32613,0.24284 0.93434,0.34015 2.00069,0.43215 0.75444,0.0651 3.71872,0.0832 4.46554,0.096 1.64415,0.0287 2.26657,-0.0965 2.43284,-1.96867 0.0812,-0.91648 0.0103,-1.08524 -0.44816,-1.88865 -0.0407,-1.43295 -0.0717,-2.87255 -0.11204,-4.30549 -0.0383,-1.35855 -0.29815,-2.14314 -0.83228,-3.40917 -0.31973,-0.7577 -0.50027,-1.46355 -0.72025,-2.17675 z m -20.85519,7.97074 c -0.0271,0.004 -0.0529,0.0127 -0.08,0.016 l 0.016,0.016 c 0.0203,-0.0117 0.0437,-0.0202 0.064,-0.032 z" color="#000" fill="#00bcf2" overflow="visible" enable-background="accumulate" transform="translate(-50.194 -347.333) translate(-199.724 -296.068)"/>
</svg>
