<svg xmlns:dc="http://purl.org/dc/elements/1.1/" xmlns:cc="http://creativecommons.org/ns#" xmlns:rdf="http://www.w3.org/1999/02/22-rdf-syntax-ns#" xmlns="http://www.w3.org/2000/svg" width="70" height="137.161">
    <metadata>
        <rdf:RDF>
            <cc:Work>
                <dc:subject>
                    Miscellaneous
                </dc:subject>
                <dc:identifier>
                    multi-factor-authentication-mfa
                </dc:identifier>
                <dc:title>
                    Multi-factor Authentication (MFA)
                </dc:title>
                <dc:format>
                    image/svg+xml
                </dc:format>
                <dc:publisher>
                    Amido Limited
                </dc:publisher>
                <dc:creator>
                    Richard Slater
                </dc:creator>
                <dc:type rdf:resource="http://purl.org/dc/dcmitype/StillImage"/>
            </cc:Work>
        </rdf:RDF>
    </metadata>
    <path d="m -79.024249,565.28621 c -1.24196,-0.6569 -2.40637,-1.829 -2.84317,-2.862 -0.19308,-0.4566 -2.66604,-14.5841 -5.49549,-31.3945 -5.68475,-33.7743 -5.45935,-31.7352 -3.72594,-33.7094 0.48732,-0.5551 0.75992,-1.1073 0.6666,-1.3505 -0.36459,-0.9501 -9.31769,-55.2361 -9.31769,-56.4967 0,-2.3644 1.68222,-4.3997 4.30563,-5.2091 1.97851,-0.6104 35.92746,-5.7427 37.20179,-5.624 1.80606,0.1683 3.64942,1.3738 4.42134,2.8916 0.48729,0.9582 1.4049,5.9577 4.42872,24.1291 3.45601,20.7688 3.78065,23.0013 3.45806,23.7801 -0.65088,1.5713 -2.74084,2.3203 -4.27493,1.5319 -1.44674,-0.7435 -1.52175,-1.045 -4.06655,-16.344 -1.72088,-10.3456 -2.60448,-15.0081 -2.99948,-15.8274 -0.33434,-0.6935 -0.99784,-1.4513 -1.64676,-1.8807 -1.83128,-1.2119 -3.39651,-1.1271 -16.20504,0.8779 -9.29067,1.4543 -11.55615,1.8929 -12.72876,2.4641 -1.69212,0.8243 -2.7488,2.2457 -2.94168,3.957 -0.0879,0.7795 0.96968,7.7894 3.15722,20.9276 1.80914,10.8655 3.33054,19.8 3.38088,19.8546 0.0504,0.054 8.72543,-1.2478 19.27797,-2.8941 10.55254,-1.6463 19.6932,-2.9927 20.31259,-2.992 1.96237,0 3.64492,1.0158 4.54463,2.7377 0.20639,0.3951 2.68138,14.551 5.49998,31.4578 5.08502,30.5014 5.12161,30.7502 4.72407,32.1176 -0.44365,1.5262 -1.68867,2.9933 -3.01216,3.5495 -1.09906,0.462 -42.04994,6.8362 -43.81883,6.8207 -0.78244,-0.01 -1.75658,-0.2238 -2.303,-0.5128 z m 23.48488,-6.7046 c 7.09373,-1.0976 7.73601,-1.3202 7.73601,-2.6807 0,-1.0168 -0.73307,-1.6614 -1.88945,-1.6614 -1.82043,0 -13.30328,1.9031 -13.92026,2.307 -1.23243,0.8069 -0.48844,3.0873 1.00173,3.0704 0.22608,0 3.40846,-0.4685 7.07197,-1.0353 z m -4.44138,-25.2923 c 1.66476,-0.2679 3.08341,-0.5437 3.15254,-0.6128 0.0691,-0.069 -0.22289,-2.1785 -0.64895,-4.6874 l -0.77467,-4.5617 1.19474,-1.0361 c 2.02973,-1.7602 2.74777,-3.9128 2.24388,-6.727 -1.36033,-7.5971 -11.84337,-9.0601 -15.23582,-2.1262 -0.8634,1.7647 -0.98453,4.3705 -0.28069,6.0383 0.51734,1.226 2.34912,3.2461 3.65462,4.0305 0.53707,0.3227 1.01223,0.6115 1.0559,0.6418 0.0588,0.041 1.64829,9.0741 1.66665,9.4718 0.007,0.15 1.09369,0.032 3.9718,-0.4312 z m -15.47648,-92.2165 c 3.30614,-0.4966 3.97294,-0.8563 3.97294,-2.1433 0,-0.7013 -0.16982,-1.0407 -0.69196,-1.3828 -0.6479,-0.4245 -0.88348,-0.4248 -3.70014,0 -2.58184,0.3849 -3.094,0.5458 -3.61366,1.1349 -0.77466,0.8782 -0.76307,1.3306 0.055,2.1487 0.78115,0.7811 0.52828,0.7654 3.97778,0.2473 z" fill="#00bcf2" transform="translate(99.74 -428.638)"/>
</svg>
