<svg xmlns:rdf="http://www.w3.org/1999/02/22-rdf-syntax-ns#" xmlns="http://www.w3.org/2000/svg" height="19.756mm" width="19.657mm" xmlns:cc="http://creativecommons.org/ns#" xmlns:dc="http://purl.org/dc/elements/1.1/" viewBox="0 0 69.651712 70.000008">
    <metadata>
        <rdf:RDF>
            <cc:Work>
                <dc:subject>
                    Analytics
                </dc:subject>
                <dc:identifier>
                    operational-insights
                </dc:identifier>
                <dc:title>
                    Operational Insights
                </dc:title>
                <dc:format>
                    image/svg+xml
                </dc:format>
                <dc:publisher>
                    Amido Limited
                </dc:publisher>
                <dc:creator>
                    Richard Slater
                </dc:creator>
                <dc:type rdf:resource="http://purl.org/dc/dcmitype/StillImage"/>
            </cc:Work>
        </rdf:RDF>
    </metadata>
    <path d="m120.57 373.5c-13.273 0-24.032 10.759-24.032 24.032 0.09665 6.2046 0.34244 23.78 0.34244 23.78s16.989-0.0548 23.689 0.25463c13.273 0 24.035-10.762 24.035-24.035s-10.762-24.032-24.035-24.032zm-25.235 26.994a21.728 21.728 0 0 0 -3.9746 0.6234v3.3073h3.9746v-3.9307zm-5.4994 1.0712a21.728 21.728 0 0 0 -3.9746 1.7678v1.0917h3.9746v-2.8595zm-7.677 4.4341a21.728 21.728 0 0 0 -2.0517 2.0692v1.9082h3.9775v-3.9775h-1.9258zm3.7024 0v3.9775h3.9746v-3.9775h-3.9746zm-8.1189 5.4555a21.728 21.728 0 0 0 -1.7561 3.9746h2.5668v-3.9746h-0.81072zm8.1189 0v3.9746h3.9746v-3.9746h-3.9746zm5.4994 0v3.9746h3.9746v-3.9746h-3.9746zm-15.816 5.558a21.728 21.728 0 0 0 -0.59121 3.9775h3.6v-3.9775h-3.0087zm4.5629 0v3.9775h3.9775v-3.9775h-3.9775zm5.7541 0v3.9775h3.9746v-3.9775h-3.9746zm5.4994 0v3.9775h3.9746v-3.9775h-3.9746zm-11.254 5.7541v3.9775h3.9775v-3.9775h-3.9775zm11.254 0v3.9775h3.9746v-3.9775h-3.9746zm5.7716 0v3.9775h3.9746v-3.9775h-3.9746zm5.517 0v3.9775h3.9746v-3.9775h-3.9746zm5.4819 0v3.9775h3.9746v-3.9775h-3.9746zm5.6458 0v3.9775h3.9775v-3.9775h-3.9775zm-37.96 5.6077a21.728 21.728 0 0 0 1.6244 3.9775h1.1122v-3.9775h-2.7365zm4.2907 0v3.9775h3.9775v-3.9775h-3.9775zm5.7541 0v3.9775h3.9746v-3.9775h-3.9746zm5.4994 0v3.9775h3.9746v-3.9775h-3.9746zm5.7716 0v3.9775h3.9746v-3.9775h-3.9746zm10.999 0v3.9775h3.9746v-3.9775h-3.9746zm5.6458 0v3.9775h2.0312a21.728 21.728 0 0 0 1.6273 -3.9775h-3.6585zm-33.67 5.7775v2.1044a21.728 21.728 0 0 0 1.797 1.8702h2.1805v-3.9746h-3.9775zm5.7541 0v3.9746h3.9746v-3.9746h-3.9746zm11.271 0v3.9746h3.9746v-3.9746h-3.9746zm5.517 0v3.9746h3.9746v-3.9746h-3.9746zm5.4819 0v3.9746h3.2165a21.728 21.728 0 0 0 0.75804 -0.73463v-3.24h-3.9746zm-22.27 5.3706v1.5132a21.728 21.728 0 0 0 3.9746 1.7648v-3.278h-3.9746zm5.4994 0v3.7082a21.728 21.728 0 0 0 1.1385 0.26927h2.8361v-3.9775h-3.9746zm5.7716 0v3.9775h3.5765a21.728 21.728 0 0 0 0.39805 -0.0878v-3.8897h-3.9746zm5.517 0v3.5209a21.728 21.728 0 0 0 3.9746 -1.5863v-1.9346h-3.9746z" fill="#00bcf2" transform="translate(-74.953 -373.5)"/>
</svg>
