<svg xmlns:dc="http://purl.org/dc/elements/1.1/" xmlns:cc="http://creativecommons.org/ns#" xmlns:rdf="http://www.w3.org/1999/02/22-rdf-syntax-ns#" xmlns="http://www.w3.org/2000/svg" width="74.21" height="63.698">
    <metadata>
        <rdf:RDF>
            <cc:Work>
                <dc:subject>
                    Storage
                </dc:subject>
                <dc:identifier>
                    recovery-services
                </dc:identifier>
                <dc:title>
                    Recovery Services
                </dc:title>
                <dc:format>
                    image/svg+xml
                </dc:format>
                <dc:publisher>
                    Amido Limited
                </dc:publisher>
                <dc:creator>
                    Richard Slater
                </dc:creator>
                <dc:type rdf:resource="http://purl.org/dc/dcmitype/StillImage"/>
            </cc:Work>
        </rdf:RDF>
    </metadata>
    <path d="m 91.361426,205.04841 c -5.39121,0.21046 -11.85973,3.3178 -13.199825,8.13259 -5.946333,-5.8125 -19.983862,-4.5054 -18.892643,8.1326 0.365442,-0.11811 0.680576,-0.274 1.063494,-0.37535 4.811553,-1.27347 12.949872,1.08843 15.764721,5.50514 0.260944,-5.00443 3.944443,-9.84249 15.952393,-11.57331 l 0,-5.00467 9.634014,6.94398 -9.634014,6.94399 0,-4.87956 c -7.08487,1.22182 -10.09831,3.74392 -10.25958,7.19422 5.72635,-1.81586 17.843604,6.67713 15.430602,15.83168 3.014122,0.89521 4.616902,0.67611 5.964402,4.43725 16.96776,-4.5167 8.50092,-24.66972 1.75163,-23.14662 1.20599,-11.20274 -2.92281,-15.93702 -10.071924,-17.82915 -1.05036,-0.278 -2.25915,-0.36136 -3.50327,-0.31279 z m -31.904792,21.58265 c -0.797725,0.038 -1.551869,0.12752 -2.252103,0.3128 -7.149096,1.89212 -11.277892,6.6264 -10.071906,17.82914 -7.227229,-1.63096 -16.479609,21.56728 5.692816,23.83476 16.779389,-0.0412 18.813268,-0.0212 35.345505,0.12512 21.406234,-3.51312 12.170214,-23.81464 4.31653,-23.64708 2.97934,-14.66059 -12.30679,-16.45401 -18.579848,-10.32214 -1.443167,-5.18518 -8.86688,-8.39812 -14.450994,-8.1326 z" fill="#00bcf2" transform="translate(-734.324 -837.656) translate(695.409 632.621)"/>
    <path d="m 81.798745,226.05727 c 0.16127,-3.4503 3.165131,-5.96568 10.250001,-7.1875 l 0,4.875 9.625004,-6.9375 -9.625004,-6.9375 0,5 c -12.00795,1.73082 -15.676557,6.55807 -15.937501,11.5625 2.838925,-0.17995 3.354161,-0.19176 5.6875,-0.375 z" fill="#fff" transform="translate(-734.324 -837.656) translate(695.409 632.621)"/>
</svg>
