<svg xmlns:dc="http://purl.org/dc/elements/1.1/" xmlns:cc="http://creativecommons.org/ns#" xmlns:rdf="http://www.w3.org/1999/02/22-rdf-syntax-ns#" xmlns="http://www.w3.org/2000/svg" width="72" height="89.724">
    <metadata>
        <rdf:RDF>
            <cc:Work>
                <dc:subject>
                    Compute
                </dc:subject>
                <dc:identifier>
                    scheduler
                </dc:identifier>
                <dc:title>
                    Scheduler
                </dc:title>
                <dc:format>
                    image/svg+xml
                </dc:format>
                <dc:publisher>
                    Amido Limited
                </dc:publisher>
                <dc:creator>
                    Richard Slater
                </dc:creator>
                <dc:type rdf:resource="http://purl.org/dc/dcmitype/StillImage"/>
            </cc:Work>
        </rdf:RDF>
    </metadata>
    <path d="m 669.21497,716.16952 c -18.32306,-0.0396 -35.04274,16.45493 -37.8937,35.46662 -3.09197,20.61868 10.43085,40.68377 30.06442,45.48809 5.87434,1.43751 8.76879,1.33098 8.76879,1.33098 0,0 0.0783,5.81591 0.0783,7.43781 0.86072,-0.81612 11.58733,-11.35245 11.58733,-11.35245 0,0 -6.46042,-6.24307 -11.58733,-11.19586 0.0962,2.79591 0,7.43781 0,7.43781 0,0 -6.71639,-10e-5 -13.07489,-3.36659 -31.30179,-16.57263 -23.88032,-62.2109 12.37026,-68.27129 4.51798,-0.75531 16.68773,1.19321 20.591,2.50537 -2.36387,-1.62536 -9.1934,-5.45519 -20.90417,-5.48049 z m 4.93244,8.45562 c -15.87521,0 -28.73344,12.93652 -28.73344,28.81173 0,15.87522 12.85823,28.73345 28.73344,28.73345 15.87522,0 28.73345,-12.85823 28.73345,-28.73345 0,-15.87521 -12.85823,-28.81173 -28.73345,-28.81173 z m -0.15658,1.95732 c 1.57244,0 2.81854,1.24609 2.81854,2.81854 0,1.57244 -1.2461,2.89683 -2.81854,2.89683 -1.57245,0 -2.89684,-1.32439 -2.89684,-2.89683 0,-1.57245 1.32439,-2.81854 2.89684,-2.81854 z m 0.0783,9.47342 c 2.84597,0 5.08903,2.12328 5.08903,4.77586 l 0,10.41294 9.08196,8.29903 c 1.97794,1.81151 1.89824,4.93868 -0.15659,7.04635 -2.0549,2.10774 -5.30328,2.35953 -7.28122,0.54805 l -9.94318,-9.08196 c -0.0814,-0.0747 -0.16047,-0.15596 -0.23488,-0.23488 -1.06676,-0.87613 -1.72244,-2.16599 -1.72244,-3.60147 l 0,-13.38806 c 0,-2.65258 2.32137,-4.77586 5.16732,-4.77586 z m -24.66222,15.58026 c 1.57244,0 2.81854,1.32439 2.81854,2.89683 0,1.57245 -1.2461,2.81854 -2.81854,2.81854 -1.57244,0 -2.81854,-1.24609 -2.81854,-2.81854 0,-1.57244 1.2461,-2.89683 2.81854,-2.89683 z m 49.55932,0.0783 c 1.57244,0 2.81854,1.2461 2.81854,2.81854 0,1.57245 -1.2461,2.81854 -2.81854,2.81854 -1.57245,0 -2.81854,-1.24609 -2.81854,-2.81854 0,-1.57244 1.24609,-2.81854 2.81854,-2.81854 z m -24.50564,23.48783 c 1.57245,0 2.89684,1.32439 2.89684,2.89683 0,1.57245 -1.32439,2.81854 -2.89684,2.81854 -1.57244,0 -2.81854,-1.24609 -2.81854,-2.81854 0,-1.57244 1.2461,-2.89683 2.81854,-2.89683 z" fill="#00bcf2" transform="translate(-630.881 -716.169)"/>
</svg>
