<svg xmlns:dc="http://purl.org/dc/elements/1.1/" xmlns:cc="http://creativecommons.org/ns#" xmlns:rdf="http://www.w3.org/1999/02/22-rdf-syntax-ns#" xmlns="http://www.w3.org/2000/svg" width="67.485" height="70">
    <metadata>
        <rdf:RDF>
            <cc:Work>
                <dc:subject>
                    Code
                </dc:subject>
                <dc:identifier>
                    script-file
                </dc:identifier>
                <dc:title>
                    Script File
                </dc:title>
                <dc:format>
                    image/svg+xml
                </dc:format>
                <dc:publisher>
                    Amido Limited
                </dc:publisher>
                <dc:creator>
                    Richard Slater
                </dc:creator>
                <dc:type rdf:resource="http://purl.org/dc/dcmitype/StillImage"/>
            </cc:Work>
        </rdf:RDF>
    </metadata>
    <path d="m -107.17588,532.59561 c -3.1726,-0.83124 -5.7284,-3.33809 -6.6453,-6.51798 l -0.3166,-1.0982 0,-27.04305 c 0,-22.20209 0.033,-27.17821 0.1848,-27.79806 0.1017,-0.41526 0.4644,-1.34186 0.8062,-2.05912 0.5312,-1.11483 0.7932,-1.47372 1.8056,-2.47272 1.3547,-1.33667 2.56,-2.0244 4.3293,-2.47015 1.0631,-0.26782 1.5594,-0.27346 23.679799,-0.26872 l 22.594,0.005 7.0428,6.96184 7.0428,6.96184 -0.042,24.22893 -0.042,24.22892 -0.3245,0.96092 c -1.1182,3.31115 -3.4879,5.56776 -6.7131,6.39263 -1.0071,0.25756 -1.7749,0.26496 -26.7195,0.25763 -24.818299,-0.007 -25.716399,-0.0164 -26.682699,-0.26955 z m 52.727399,-5.81193 c 0.9128,-0.44823 1.6362,-1.31557 1.8702,-2.24254 0.099,-0.39302 0.1453,-7.522 0.1453,-22.47714 l 0,-21.90158 -5.5939,-0.0358 -5.5939,-0.0359 -0.036,-5.73121 -0.036,-5.7312 -20.9672,10e-4 -20.967099,0.001 -0.6864,0.32031 c -0.3775,0.17616 -0.9145,0.57341 -1.1934,0.88276 -1.0027,1.11235 -0.9343,-0.93979 -0.9343,28.03679 0,28.12625 -0.036,26.70391 0.7106,27.80828 0.4184,0.61872 1.2041,1.15672 2.0063,1.3738 0.5141,0.1391 5.743899,0.16956 25.561599,0.14889 l 24.9153,-0.026 0.7986,-0.39213 z m -33.7276,-11.18025 c -0.04,-0.0647 2.0556,-7.39758 4.6569,-16.29534 2.6012,-8.89775 4.7295,-16.19758 4.7295,-16.22185 0,-0.0243 0.8958,-0.0441 1.9905,-0.0441 1.0948,0 1.9892,0.0154 1.9875,0.0343 0,0.0189 -2.1522,7.35447 -4.7791,16.30133 l -4.7763,16.26701 -1.8681,0.0381 c -1.0275,0.021 -1.9009,-0.0148 -1.9409,-0.0795 z m -9.1389,-9.85149 c -3.431699,-2.22904 -6.319599,-4.11938 -6.417599,-4.20074 -0.1267,-0.10515 -0.1783,-0.59164 -0.1783,-1.68197 l 0,-1.53402 6.328499,-4.31765 c 3.4807,-2.3747 6.3841,-4.33824 6.4519,-4.3634 0.07,-0.0259 0.1234,0.96002 0.1234,2.27606 l 0,2.32182 -4.5921,2.79826 c -2.5256,1.53904 -4.579599,2.81004 -4.564299,2.82444 0.015,0.0144 2.035299,1.1787 4.489099,2.58732 2.4538,1.40863 4.5093,2.60823 4.5678,2.66579 0.058,0.0576 0.089,1.13341 0.069,2.39077 l -0.038,2.28612 -6.2393,-4.0528 z m 25.6947,1.43114 0.037,-2.35288 4.5088,-2.57636 4.5089,-2.57637 -0.7338,-0.46471 c -0.4036,-0.25559 -2.448,-1.50713 -4.5431,-2.78121 l -3.8094,-2.31649 0,-2.31053 c 0,-1.27079 0.032,-2.31053 0.07,-2.31053 0.038,0 2.911,1.92612 6.3832,4.28027 l 6.3132,4.28026 0,1.59505 0,1.59506 -5.9979,3.90548 c -3.2989,2.14801 -6.1728,4.01357 -6.3865,4.14567 l -0.3886,0.24018 0.038,-2.35289 z" fill="#00bcf2" transform="translate(114.138 -462.867)"/>
</svg>
