<svg xmlns:dc="http://purl.org/dc/elements/1.1/" xmlns:cc="http://creativecommons.org/ns#" xmlns:rdf="http://www.w3.org/1999/02/22-rdf-syntax-ns#" xmlns="http://www.w3.org/2000/svg" width="70.002" height="86.593">
    <metadata>
        <rdf:RDF>
            <cc:Work>
                <dc:subject>
                    Messaging
                </dc:subject>
                <dc:identifier>
                    service-bus-relay
                </dc:identifier>
                <dc:title>
                    Service Bus Relay
                </dc:title>
                <dc:format>
                    image/svg+xml
                </dc:format>
                <dc:publisher>
                    Amido Limited
                </dc:publisher>
                <dc:creator>
                    Richard Slater
                </dc:creator>
                <dc:type rdf:resource="http://purl.org/dc/dcmitype/StillImage"/>
            </cc:Work>
        </rdf:RDF>
    </metadata>
    <path d="m 1275.8181,587.32975 c -3.0352,-4.1938 -5.5462,-7.7081 -5.5801,-7.8097 -0.043,-0.1289 0.9697,-0.1847 3.3516,-0.1847 l 3.4132,0 0,-5.7783 c 0,-5.023 -0.033,-5.7783 -0.255,-5.7783 -0.2216,0 -0.2549,-0.7648 -0.2549,-5.8633 l 0,-5.8633 -7.3078,0 -7.3079,0 0,5.7783 0,5.7783 5.8633,0 5.8633,0 0,4.4187 0,4.4187 -8.5439,0 -8.5438,0 -1.035,-0.6123 c -0.5693,-0.3367 -1.3519,-0.9019 -1.7392,-1.2559 l -0.7041,-0.6437 0.043,-13.3172 0.043,-13.3173 11.6841,-0.044 11.684,-0.044 0,-11.6404 0,-11.6404 -3.144,0 c -1.7293,0 -3.1441,-0.044 -3.1441,-0.099 0,-0.1462 11.074,-15.5662 11.1348,-15.5046 0.029,0.029 2.5828,3.5325 5.676,7.7855 l 5.6239,7.7327 -3.9325,0.046 -3.9324,0.046 0.1065,4.0331 c 0.059,2.2182 0.1497,6.9775 0.2025,10.5762 0.053,3.5987 0.127,7.8049 0.165,9.3472 0.038,1.5423 0.072,9.2474 0.075,17.1225 l 0.01,14.3183 3.654,0 c 2.0096,0 3.6539,0.032 3.6539,0.07 0,0.1291 -11.0666,15.4799 -11.1849,15.5149 -0.064,0.019 -2.6001,-3.3968 -5.6352,-7.5905 z m 18.3042,-11.1809 -6.0787,-0.047 0.045,-4.2041 0.046,-4.2041 12.2364,0.05 c 6.73,0.028 12.6761,0.092 13.2136,0.1442 l 0.9772,0.094 0,-3.1183 c 0,-3.4108 -0.1255,-4.1542 -0.9983,-6.0193 -0.66,-1.4104 -2.1858,-2.9728 -3.1923,-3.269 -0.5774,-0.1699 -1.7988,-0.1451 -6.5941,0.1341 -3.237,0.1884 -6.0728,0.3426 -6.3018,0.3426 l -0.4164,0 -0.014,-2.8466 c -0.01,-1.5657 -0.071,-3.4968 -0.1415,-4.2913 -0.076,-0.8619 -0.063,-1.5296 0.033,-1.6554 0.3901,-0.5107 -0.4742,-3.8845 -1.402,-5.4731 -0.3646,-0.6243 -1.0171,-1.4616 -1.4498,-1.8605 -1.0009,-0.9226 -3.0238,-1.886 -4.6686,-2.2235 l -1.2799,-0.2626 -0.045,-4.9693 c -0.027,-2.9376 0.019,-4.9693 0.111,-4.9693 0.086,0 0.9404,0.2731 1.8991,0.6067 8.2522,2.8724 14.0879,9.1915 15.5271,16.8132 0.1412,0.7478 0.2783,1.5508 0.3047,1.7845 l 0.048,0.4249 2.5493,0.1102 c 2.9358,0.1269 4.0566,0.3849 5.8333,1.3426 3.1659,1.7066 5.4072,4.1414 7.0981,7.711 1.3853,2.9245 1.4725,3.5336 1.5552,10.8644 0.04,3.5378 0.026,6.6179 -0.031,6.8448 -0.1303,0.5195 -1.1933,1.7076 -1.8156,2.0294 -0.4762,0.2463 -6.7234,0.2732 -27.0462,0.1166 z m -39.9733,-32.3724 c 0.066,-0.399 0.3778,-1.4482 0.6922,-2.3317 2.5539,-7.1745 9.8658,-12.9682 18.1253,-14.3619 l 0.6373,-0.1075 0,4.6813 0,4.6813 -0.7498,0 c -2.9759,0 -6.6715,1.5964 -8.6547,3.7384 -0.8977,0.9696 -1.1288,1.4144 -1.7668,3.3995 l -0.3003,0.9348 -4.0518,0.046 -4.0518,0.046 0.1204,-0.7254 z" fill="#00bcf2" transform="translate(-1253.038 -508.327)"/>
</svg>
