<svg xmlns:dc="http://purl.org/dc/elements/1.1/" xmlns:cc="http://creativecommons.org/ns#" xmlns:rdf="http://www.w3.org/1999/02/22-rdf-syntax-ns#" xmlns="http://www.w3.org/2000/svg" width="60.556" height="70">
    <metadata>
        <rdf:RDF>
            <cc:Work>
                <dc:subject>
                    Messaging
                </dc:subject>
                <dc:identifier>
                    service-bus-queues
                </dc:identifier>
                <dc:title>
                    Service Bus Queues
                </dc:title>
                <dc:format>
                    image/svg+xml
                </dc:format>
                <dc:publisher>
                    Amido Limited
                </dc:publisher>
                <dc:creator>
                    Richard Slater
                </dc:creator>
                <dc:type rdf:resource="http://purl.org/dc/dcmitype/StillImage"/>
            </cc:Work>
        </rdf:RDF>
    </metadata>
    <path d="m -124.40135,538.72727 c -2.6275,-3.62749 -4.7772,-6.66303 -4.7772,-6.74563 0,-0.10374 0.8936,-0.1502 2.8888,-0.1502 l 2.8889,0 0.036,-6.22784 0.036,-6.22783 3.5784,0 3.5785,0 0.036,6.22783 0.036,6.22784 3.0035,0 c 1.652,0 3.0386,0.035 3.0813,0.0777 0.073,0.0729 -8.8795,12.64647 -9.3778,13.17103 -0.2175,0.22898 -0.4974,-0.12599 -5.0076,-6.3529 z m -14.8096,-9.86578 c -0.4612,-0.34662 -1.0256,-0.85733 -1.2544,-1.13491 l -0.416,-0.50469 0.036,-3.92306 0.036,-3.92306 3.6816,-0.0367 3.6817,-0.0367 0,1.37856 0,1.37857 3.716,0 3.7161,0 0,3.71606 0,3.71605 -6.1798,0 -6.1798,0 -0.8383,-0.63021 z m 25.4471,-3.08585 0,-3.71605 12.3974,0 12.397397,0 -0.045,-2.64941 c -0.041,-2.41427 -0.072,-2.70439 -0.3526,-3.26876 -0.3297,-0.66384 -0.9099,-1.13105 -1.8553,-1.49398 -0.5139,-0.19731 -1.3403,-0.22641 -6.428,-0.22641 l -5.838197,0 0.058,-1.7204 c 0.2302,-6.86199 -0.5043,-11.58263 -2.3875,-15.34594 -1.5335,-3.06439 -3.4089,-4.928 -6.3976,-6.35739 l -1.5484,-0.74051 0,-3.50468 c 0,-2.95629 0.031,-3.50467 0.1979,-3.50467 0.9877,0 3.9606,1.03184 6.0059,2.08458 4.382,2.25543 7.807397,6.14006 9.769497,11.07942 1.1397,2.86905 1.9512,6.30602 2.3024,9.75168 l 0.098,0.96342 2.1333,0.0867 c 2.5237,0.10255 3.8724,0.40443 5.7117,1.27852 2.3813,1.13168 3.8557,2.56837 4.9549,4.82823 0.9629,1.97953 1.0321,2.55567 1.0321,8.60442 l 0,5.24405 -0.7088,0.74942 c -0.3898,0.41217 -0.9888,0.93491 -1.3311,1.16163 l -0.6223,0.41221 -14.7719,0 -14.771797,0 0,-3.71605 z m -27.5384,-10.49855 c -0.2561,-0.17259 -0.543,-0.46678 -0.6376,-0.65375 -0.1326,-0.26205 -0.1725,-2.5192 -0.1741,-9.85059 l 0,-9.51064 0.3124,-0.46766 c 0.6737,-1.00851 -0.2127,-0.94891 14.1176,-0.94915 11.6462,-1.4e-4 12.883,0.0208 13.2284,0.22489 0.8692,0.51343 0.8313,0.0281 0.8313,10.64146 0,10.46137 0.022,10.14988 -0.7451,10.65236 -0.3155,0.20673 -1.5062,0.22689 -13.4058,0.22689 l -13.0595,0 -0.4656,-0.31381 z m 24.9234,-9.06648 c 0,-6.29949 -0.012,-6.61736 -0.2408,-6.41979 -0.2827,0.24393 -9.4951,7.44322 -10.2554,8.01433 -0.4362,0.3277 -0.6128,0.37833 -1.1198,0.32119 -0.5338,-0.0602 -1.2023,-0.52125 -5.912,-4.07784 -2.9206,-2.20549 -5.3431,-4.00999 -5.3833,-4.00999 -0.04,0 -0.073,2.87994 -0.073,6.39988 l 0,6.39987 11.4923,0 11.4922,0 0,-6.62765 z m -5.7172,-5.41512 5.3289,-4.12896 -5.3799,-0.036 c -2.959,-0.0198 -7.8095,-0.0198 -10.7789,0 l -5.3991,0.036 5.3491,4.16855 c 2.942,2.2927 5.3945,4.15073 5.45,4.12895 0.056,-0.0218 2.499,-1.89762 5.4299,-4.16854 z m -18.708,-17.10075 c 0.089,-6.30102 0.1532,-7.19169 0.5654,-7.8207 0.5022,-0.76641 0.1909,-0.74705 11.9755,-0.74484 8.339,0.002 10.9287,0.0414 11.1829,0.17204 0.1819,0.0935 0.4607,0.34481 0.6193,0.55847 0.2828,0.38067 0.2893,0.52759 0.3267,7.32889 l 0.038,6.94043 -3.7198,0 -3.7197,0 0,-3.78488 0,-3.78487 -4.9548,0 -4.9547,0 0,3.78487 0,3.78488 -3.7248,0 -3.7248,0 0.091,-6.43429 z" fill="#00bcf2" transform="translate(142.114 -475.129)"/>
</svg>
