<svg xmlns:dc="http://purl.org/dc/elements/1.1/" xmlns:cc="http://creativecommons.org/ns#" xmlns:rdf="http://www.w3.org/1999/02/22-rdf-syntax-ns#" xmlns="http://www.w3.org/2000/svg" width="54.63" height="70.001">
    <metadata>
        <rdf:RDF>
            <cc:Work>
                <dc:subject>
                    Miscellaneous
                </dc:subject>
                <dc:identifier>
                    sql-reporting
                </dc:identifier>
                <dc:title>
                    SQL Reporting
                </dc:title>
                <dc:format>
                    image/svg+xml
                </dc:format>
                <dc:publisher>
                    Amido Limited
                </dc:publisher>
                <dc:creator>
                    Richard Slater
                </dc:creator>
                <dc:type rdf:resource="http://purl.org/dc/dcmitype/StillImage"/>
            </cc:Work>
        </rdf:RDF>
    </metadata>
    <path d="m -66.726751,539.23619 c -1.37797,-0.11912 -4.648774,-0.6365 -5.898894,-0.93308 -2.86988,-0.68087 -5.63116,-1.90134 -7.29621,-3.22489 -1.03545,-0.82307 -2.13663,-2.26811 -2.59143,-3.40061 -0.19476,-0.48497 -0.40674,-1.40692 -0.48934,-2.12822 -0.0991,-0.86511 -0.13255,-9.20828 -0.10456,-26.05608 l 0.0412,-24.7835 0.49337,-1.03304 c 1.91054,-4.00038 8.44975,-6.93642 17.905474,-8.03939 2.46123,-0.28709 8.56892,-0.40504 11.13662,-0.21506 7.8329,0.57953 14.26894,2.38783 18.49521,5.19649 1.20632,0.80168 2.65984,2.22169 3.15587,3.08312 0.76128,1.32205 0.75017,1.09176 0.67624,14.0175 -0.0375,6.55115 -0.10595,11.90758 -0.15217,11.90318 -0.0462,-0.004 -2.09211,-1.88564 -4.54644,-4.18053 l -4.4624,-4.17252 -12.25444,-0.007 -12.25445,-0.007 0,22.03741 0,22.0374 -0.6522,-0.0231 c -0.35871,-0.0126 -0.89934,-0.0444 -1.20141,-0.0706 z m 12.70068,-54.82938 c 6.76392,-0.40603 11.65908,-1.66997 13.75786,-3.55231 0.8413,-0.75454 1.07105,-1.19612 1.07105,-2.05855 0,-0.55861 -0.0817,-0.79065 -0.44941,-1.27689 -1.49361,-1.97485 -5.66146,-3.4009 -12.04532,-4.12136 -2.41525,-0.27257 -10.10239,-0.22586 -12.70068,0.0772 -4.19539,0.48932 -7.289054,1.17007 -9.542684,2.09983 -1.43374,0.5915 -1.976,0.90673 -2.65443,1.54308 -1.96705,1.84503 -0.78853,3.70799 3.29914,5.21517 2.4346,0.89766 6.327334,1.64028 10.133714,1.93322 3.87287,0.29805 5.97007,0.33035 9.13076,0.14062 z m -8.23828,34.19001 0,-20.73301 9.92685,0 9.92686,0 6.9273,5.80975 6.9273,5.80976 0.0349,14.92325 0.0349,14.92326 -16.88909,0 -16.88909,0 0,-20.73301 z m 31.03086,5.21758 0,-12.90664 -5.14892,0 -5.14893,0 0,-5.21758 0,-5.21758 -9.06211,0 -9.06211,0 0,18.12422 0,18.12422 14.21104,0 14.21103,0 0,-12.90664 z m -24.02832,2.95205 0,-1.30439 3.98184,0 3.98183,0 0,1.30439 0,1.3044 -3.98183,0 -3.98184,0 0,-1.3044 z m 10.43516,0 0,-1.30439 3.91318,0 3.91319,0 0,1.30439 0,1.3044 -3.91319,0 -3.91318,0 0,-1.3044 z m -10.37592,-3.95683 c -0.0391,-0.10189 -0.053,-0.70528 -0.0308,-1.34088 l 0.0403,-1.15561 3.95251,-0.0364 3.95251,-0.0364 -0.0393,1.34084 -0.0393,1.34083 -3.88234,0.0365 c -3.15677,0.0297 -3.89563,0.002 -3.95344,-0.14877 z m 10.46746,0.0894 c -0.0504,-0.0503 -0.0915,-0.66822 -0.0915,-1.37305 l 0,-1.28152 3.91318,0 3.91319,0 0,1.37305 0,1.37304 -3.82165,0 c -2.10191,0 -3.86284,-0.0412 -3.91318,-0.0915 z m -10.46828,-5.30917 c -0.0386,-0.10069 -0.0521,-0.70312 -0.03,-1.33872 l 0.0403,-1.15561 3.94751,-0.0364 3.94751,-0.0364 0,1.37515 0,1.37514 -3.91749,0 c -3.13829,0 -3.93147,-0.0364 -3.98776,-0.18311 z m 10.37674,-1.18993 0,-1.37305 3.91318,0 3.91319,0 0,1.37305 0,1.37304 -3.91319,0 -3.91318,0 0,-1.37304 z m -10.37674,-4.02764 c -0.0386,-0.10071 -0.0521,-0.70313 -0.03,-1.33872 l 0.0403,-1.15561 3.91319,0 3.91318,0 0.0393,1.33872 0.0393,1.33872 -3.92247,0 c -3.14243,0 -3.93644,-0.0364 -3.99273,-0.18311 z m -0.0584,-6.33886 0,-1.3044 3.98184,0 3.98183,0 0,1.3044 0,1.30439 -3.98183,0 -3.98184,0 0,-1.30439 z" fill="#00bcf2" transform="translate(83.117 -469.33)"/>
</svg>
