<svg xmlns:dc="http://purl.org/dc/elements/1.1/" xmlns:cc="http://creativecommons.org/ns#" xmlns:rdf="http://www.w3.org/1999/02/22-rdf-syntax-ns#" xmlns="http://www.w3.org/2000/svg" width="76.188" height="68.406">
    <metadata>
        <rdf:RDF>
            <cc:Work>
                <dc:subject>
                    Storage
                </dc:subject>
                <dc:identifier>
                    storsimple
                </dc:identifier>
                <dc:title>
                    StorSimple
                </dc:title>
                <dc:format>
                    image/svg+xml
                </dc:format>
                <dc:publisher>
                    Amido Limited
                </dc:publisher>
                <dc:creator>
                    Richard Slater
                </dc:creator>
                <dc:type rdf:resource="http://purl.org/dc/dcmitype/StillImage"/>
            </cc:Work>
        </rdf:RDF>
    </metadata>
    <path style="text-indent:0;text-align:start;line-height:normal;text-transform:none;block-progression:tb;-inkscape-font-specification:Sans" d="M 43.0625,0 C 28.72603,0 21.94568,11.12365 20.34375,14.125 l -4.8125,0 -0.125,0 -0.1875,0.0625 c 0,0 -3.73085,0.56742 -7.5,2.96875 C 3.9496,19.55758 0,24.09507 0,31.34375 c 0,8.06331 4.43762,12.78455 8.71875,15.0625 4.28114,2.27795 8.5625,2.21875 8.5625,2.21875 l 0.0625,0.0625 0.0625,0 c 1.75187,7.4e-4 3.47531,-10e-4 5.21875,0 l 0,-0.59375 0,-2.75 0,-0.625 0.625,0 19.96875,0 0.625,0 0,0.625 c -0.0079,3.639409 -0.03125,3.038186 -0.03125,6.6875 l 0,0.625 0.625,0 19.96875,0 0.625,0 0,-0.625 0,-2.75 0,-0.40625 c 0.721497,-0.06887 1.521109,-0.14598 2.1875,-0.21875 0,0 2.24047,-0.34177 4.4375,-1.71875 2.19703,-1.37698 4.5369,-4.06981 4.53125,-8.15625 -0.008,-5.23726 -2.98413,-8.37793 -5.8125,-9.625 -1.22561,-0.54039 -2.36946,-0.70624 -3.34375,-0.84375 0.0653,-1.0223 0.12274,-1.70253 0.125,-3.71875 0.004,-3.09379 0.007,-6.481 -1.21875,-9.0625 C 65.2341,14.05034 63.59702,10.05465 60.09375,6.5625 56.59047,3.07036 51.06625,0 43.0625,0 z m -20.4375,28.96875 0.625,0 19.96875,0 0.625,0 0,0.59375 0,2.75 0,0.625 -0.625,0 -19.96875,0 -0.625,0 0,-0.625 0,-2.75 z m 0,7.9375 0.625,0 19.96875,0 0.625,0 0,0.625 0,2.71875 0,0.625 -0.625,0 -19.96875,0 -0.625,0 0,-0.625 0,-2.71875 z m 21.1875,19.71875 0,0.625 0,2.71875 0,0.625 0.625,0 19.96875,0 0.625,0 0,-0.625 0,-2.71875 0,-0.625 -0.625,0 -19.96875,0 z m 0,7.8125 0,0.625 0,2.75 0,0.59375 0.625,0 19.96875,0 0.625,0 0,-0.59375 0,-2.75 0,-0.625 -0.625,0 -19.96875,0 z" transform="translate(-628.905 -610.536) translate(628.905 610.536)" color="#000" fill="#00bcf2" overflow="visible" enable-background="accumulate" font-family="Sans"/>
</svg>
