<svg xmlns:dc="http://purl.org/dc/elements/1.1/" xmlns:cc="http://creativecommons.org/ns#" xmlns:rdf="http://www.w3.org/1999/02/22-rdf-syntax-ns#" xmlns="http://www.w3.org/2000/svg" width="69.999" height="61.449">
    <metadata>
        <rdf:RDF>
            <cc:Work>
                <dc:subject>
                    Miscellaneous
                </dc:subject>
                <dc:identifier>
                    unidentified-code-object-ufo
                </dc:identifier>
                <dc:title>
                    Unidentified Code Object (UFO)
                </dc:title>
                <dc:format>
                    image/svg+xml
                </dc:format>
                <dc:publisher>
                    Amido Limited
                </dc:publisher>
                <dc:creator>
                    Richard Slater
                </dc:creator>
                <dc:type rdf:resource="http://purl.org/dc/dcmitype/StillImage"/>
            </cc:Work>
        </rdf:RDF>
    </metadata>
    <path d="m 3.0086384,769.42038 c -10.0167,-0.5549 -19.6965004,-3.41 -25.0720004,-7.395 -1.0531,-0.7807 -2.1177,-1.8944 -1.9972,-2.0894 0.1098,-0.1775 62.7006,-0.1579 62.8104,0.02 0.1407,0.2277 -1.5708,1.8305 -2.8343,2.6541 -7.6235,4.9692 -19.9808,7.5268 -32.9068996,6.8106 z m -30.6579004,-11.5366 c -0.235,-0.3802 2.2021,-3.5476 3.831,-4.9791 2.3769,-2.0888 5.5098,-4.0886 8.3658,-5.3402 l 1.6081,-0.7047 0.05,-10.3954 c 0.048,-9.9181 0.063,-10.4521 0.3343,-11.6325 0.5964,-2.5965 1.611,-5.0332 2.919,-7.0104 5.0318004,-7.6058 14.2412004,-11.2748 22.8967,-9.1218 7.0079,1.7431 12.7799,6.9534 15.0523,13.5876 1.0399,3.0356 1.0073,2.6014 1.0632,14.1731 l 0.05,10.3914 1.5257,0.6669 c 5.1832,2.2658 9.9702,6.09 11.9892,9.5777 0.2066,0.3569 0.3362,0.7126 0.2881,0.7904 -0.124,0.2007 -69.8497,0.1978 -69.9738,0 z m 22.8101004,-12.3242 5.62329997,-0.049 -1.0417,-0.5327 c -2.79149997,-1.4276 -4.90649997,-3.4368 -6.08279997,-5.7784 -0.4077,-0.8116 -0.8918,-2.1306 -0.8918,-2.4301 0,-0.2647 0.5067,-0.7345 0.792,-0.7345 0.1332,0 0.7248,0.4028 1.3147,0.8952 2.0173,1.6839 4.35179997,3.069 5.99509997,3.557 0.67930003,0.2017 1.52040003,0.2961 1.52040003,0.1705 0,-0.028 -0.6279,-1.1878 -1.39540003,-2.5773 -2.05589997,-3.7224 -3.78179997,-7.3181 -4.08849997,-8.5177 -0.993,-3.8844 -0.01,-7.4783 2.79809997,-10.2291 1.96820003,-1.9281 3.98950003,-2.791 6.82760003,-2.9149 1.5979,-0.07 1.8383,-0.046 3.0138,0.2907 3.0364996,0.871 5.2891996,2.722 6.6842996,5.4922 1.233,2.4485 1.3754,5.6522 0.3701,8.3256 -0.516,1.3723 -3.7477,7.101 -5.601,9.9288 l -0.2398,0.366 0.5921,-0.068 c 0.7982,-0.092 2.2011,-0.5355 3.0545,-0.966 1.0981,-0.5538 3.2194,-2.0067 4.2633,-2.9199 0.5237,-0.4581 1.065,-0.833 1.2027,-0.833 0.2908,0 0.8003,0.4659 0.8003,0.7319 0,0.3513 -0.6881,2.2007 -1.052,2.8275 -1.285,2.2132 -3.7647,4.4253 -6.2529,5.5781 l -0.7316,0.339 6.252,0.048 c 3.4385,0.026 6.4221,0.097 6.63,0.1576 l 0.378,0.1094 0,-9.329 c 0,-10.2428 -0.028,-10.6714 -0.8269,-13.1172 -1.2385,-3.7898 -3.7453,-7.0955 -7.1234,-9.3936 -3.2799,-2.2314 -6.6313,-3.2621 -10.6061996,-3.2621 -2.2669,0 -3.7418,0.221 -5.7401,0.86 -5.6275,1.7995 -10.1897,6.288 -11.9895004,11.7957 -0.7993,2.4458 -0.8263,2.8744 -0.8269,13.1172 l 0,9.3289 0.378,-0.1089 c 0.2079,-0.06 2.9085004,-0.131 6.0013004,-0.158 z m 13.4149,-9.9671 c 1.4805996,-0.4469 3.3644996,-1.8121 4.8572996,-3.5197 0.9084,-1.0392 1.2579,-1.6161 1.055,-1.7415 -0.6875,-0.4249 -13.4771996,-0.4229 -14.16509963,0 -0.2958,0.1828 0.6567,1.5463 2.06480003,2.9558 2.3192,2.3214 4.0246,2.9561 6.188,2.3031 z m -3.3977,-7.1689 c 1.1782,-0.5021 1.4409,-1.5618 0.7315,-2.9508 -0.4368,-0.8552 -1.4728,-1.9467 -1.8476,-1.9467 -0.6926,0 -1.7814,1.8781 -1.9098,3.2943 -0.072,0.796 -0.06,0.8337 0.4117,1.3056 0.4507,0.4507 0.5472,0.4861 1.3289,0.4861 0.4636,0 1.042,-0.085 1.2853,-0.1885 z m 6.7692996,0.024 c 0.779,-0.3549 0.9592,-1.4652 0.4578,-2.8203 -0.4654,-1.2579 -1.1282,-2.0916 -1.6681,-2.0984 -0.3766,0 -1.3837996,1.091 -1.8172996,1.9771 -0.69,1.4103 -0.4556,2.404 0.6869,2.9118 0.5174996,0.23 1.8636996,0.2472 2.3406996,0.03 z" fill="#00bcf2" transform="translate(27.665 -708.09)"/>
</svg>
