<svg xmlns:dc="http://purl.org/dc/elements/1.1/" xmlns:cc="http://creativecommons.org/ns#" xmlns:rdf="http://www.w3.org/1999/02/22-rdf-syntax-ns#" xmlns="http://www.w3.org/2000/svg" width="55.465" height="70">
    <metadata>
        <rdf:RDF>
            <cc:Work>
                <dc:subject>
                    Data
                </dc:subject>
                <dc:identifier>
                    vhd
                </dc:identifier>
                <dc:title>
                    VHD
                </dc:title>
                <dc:format>
                    image/svg+xml
                </dc:format>
                <dc:publisher>
                    Amido Limited
                </dc:publisher>
                <dc:creator>
                    Richard Slater
                </dc:creator>
                <dc:type rdf:resource="http://purl.org/dc/dcmitype/StillImage"/>
            </cc:Work>
        </rdf:RDF>
    </metadata>
    <path d="m -223.58885,617.38657 c -0.23257,-0.14182 -0.52603,-0.47527 -0.65213,-0.741 -0.21222,-0.44723 -0.22927,-2.97569 -0.22927,-34.00227 0,-36.44702 -0.0566,-33.84723 0.75311,-34.60379 l 0.36732,-0.34323 26.45178,-0.0354 c 25.43303,-0.034 26.46987,-0.0257 26.92147,0.21654 0.25833,0.13854 0.58258,0.46239 0.72055,0.71966 0.24101,0.44939 0.25085,1.78937 0.25036,34.10592 -5.5e-4,33.12056 -0.005,33.64492 -0.26851,34.07768 -0.57036,0.93542 1.67685,0.86478 -27.49103,0.86421 -25.588,-5.4e-4 -26.41381,-0.008 -26.82365,-0.25837 z m 51.29149,-2.2824 c 0.51656,-0.26712 0.68443,-0.59468 0.68065,-1.32813 -0.003,-0.62676 -0.2603,-1.06711 -0.77734,-1.33153 -0.78011,-0.39895 -1.85713,0.0504 -2.0832,0.86918 -0.38218,1.38411 0.91128,2.44651 2.17989,1.79048 z m -40.61485,-1.16225 c 0.48309,-0.14921 1.16127,-0.4587 1.50707,-0.68775 1.48728,-0.98513 1.59038,-1.15954 6.51049,-11.01347 4.52042,-9.05343 4.61486,-9.25943 4.61436,-10.06443 -6.8e-4,-1.03624 -0.32867,-1.86363 -0.95787,-2.41608 -0.92931,-0.81594 -2.08787,-1.05715 -3.25641,-0.67799 -0.63486,0.206 -2.94621,2.44773 -10.63468,10.31439 -4.17444,4.27118 -4.82758,4.99707 -5.20184,5.78126 -1.65681,3.47155 0.12911,7.59787 3.79588,8.77028 1.05522,0.3374 2.51864,0.33489 3.623,-0.006 z m -2.70284,-3.31881 c -1.77411,-0.65371 -2.47844,-2.76267 -1.43247,-4.28917 1.2321,-1.79814 3.92845,-1.55667 4.87428,0.43652 0.34538,0.72784 0.2215,2.04525 -0.25729,2.73615 -0.67233,0.97017 -2.16314,1.49285 -3.18452,1.1165 z m 20.6819,-11.93092 c 1.92787,-0.19603 3.21585,-0.46913 4.89735,-1.03845 7.99192,-2.70586 13.5197,-9.33499 14.86914,-17.83163 0.2697,-1.69817 0.20567,-5.05664 -0.13247,-6.94901 -1.08878,-6.09311 -4.73098,-11.53256 -9.96218,-14.87802 -2.00801,-1.28417 -4.86977,-2.43493 -7.40605,-2.97809 -1.91159,-0.40938 -5.95008,-0.44162 -7.9831,-0.0637 -8.86046,1.64694 -15.75243,8.42608 -17.64642,17.35753 -0.612,2.886 -0.48975,7.12333 0.28998,10.05119 0.91843,3.44867 2.81526,6.87083 5.19449,9.37166 l 1.15517,1.2142 2.6203,-2.60771 c 3.20908,-3.19366 3.51839,-3.37894 5.64068,-3.37894 1.22787,0 1.45614,0.0409 2.16087,0.38693 1.69475,0.83222 2.86735,2.5873 2.96449,4.43711 0.0687,1.30742 -0.17932,2.10601 -1.42846,4.60014 -1.17735,2.35077 -1.27192,2.10973 0.90231,2.29968 1.90264,0.16623 2.29226,0.16695 3.8639,0.007 z m -3.28465,-11.67453 c -3.87005,-0.45911 -7.3349,-3.43359 -8.52284,-7.31661 -0.28754,-0.93988 -0.34266,-1.40502 -0.35171,-2.96797 -0.009,-1.57895 0.0369,-2.00589 0.31094,-2.88308 0.96245,-3.08078 3.1902,-5.5947 6.00086,-6.77175 1.93314,-0.80955 4.54394,-0.98063 6.58271,-0.43134 3.57613,0.96348 6.43918,3.92258 7.36287,7.60988 0.24754,0.98816 0.27991,1.41922 0.21653,2.88308 -0.13223,3.05413 -1.13627,5.23096 -3.35622,7.2765 -2.19329,2.02098 -5.18272,2.96436 -8.24314,2.60129 z m 4.08861,-2.44683 c 3.15966,-1.10098 5.32419,-3.9293 5.58522,-7.29801 0.25266,-3.2606 -1.6264,-6.55778 -4.5228,-7.93617 -1.38997,-0.66149 -2.29231,-0.87708 -3.67093,-0.87708 -3.67071,0 -6.82803,2.40097 -7.90862,6.0141 -0.37,1.23718 -0.34317,3.28603 0.0602,4.59334 0.8505,2.75673 2.93659,4.81764 5.72047,5.6514 1.17822,0.35288 3.50865,0.28026 4.7365,-0.14758 z m -2.88309,-1.07021 c -1.22773,-0.44881 -1.02139,-2.23697 0.25813,-2.23697 0.61573,0 0.92271,0.19452 1.09727,0.69527 0.21431,0.61477 -0.0875,1.2781 -0.67467,1.48279 -0.24592,0.0857 -0.45335,0.15099 -0.46096,0.14503 -0.008,-0.006 -0.1065,-0.0447 -0.21977,-0.0861 z m -4.5206,-2.04955 c -0.59296,-0.75382 -0.14275,-1.8349 0.76412,-1.8349 0.6378,0 0.93742,0.17813 1.1458,0.6812 0.20221,0.48818 -0.001,1.15964 -0.4195,1.3834 -0.49149,0.26303 -1.18717,0.15582 -1.49042,-0.2297 z m 8.05392,0.19013 c -0.36763,-0.27917 -0.52213,-0.85937 -0.35586,-1.33634 0.17379,-0.49853 0.48144,-0.68869 1.11421,-0.68869 0.9589,0 1.44549,1.23995 0.74489,1.89813 -0.35798,0.33629 -1.1405,0.40235 -1.50324,0.1269 z m -4.03577,-1.73811 c -1.63635,-0.41449 -2.74033,-2.18277 -2.37646,-3.80646 0.19809,-0.88391 0.45521,-1.32465 1.0895,-1.86758 1.61393,-1.38147 3.96671,-0.88454 4.98627,1.05313 0.38432,0.73041 0.40588,2.13085 0.0435,2.8238 -0.7311,1.39793 -2.31545,2.15866 -3.74279,1.79711 z m -5.61319,-2.40867 c -0.96792,-0.96793 0.34129,-2.43633 1.49704,-1.67905 0.44473,0.2914 0.57839,0.91687 0.30776,1.44022 -0.35334,0.68329 -1.24266,0.80097 -1.8048,0.23883 z m 11.19886,0.0659 c -0.82281,-0.82282 -0.1414,-2.11179 1.02618,-1.94113 0.84329,0.12326 1.20351,1.3229 0.57463,1.9137 -0.4133,0.38828 -1.22603,0.40221 -1.60081,0.0274 z m -9.60382,-4.07206 c -0.6121,-0.77817 -0.15292,-1.8349 0.79733,-1.8349 0.6048,0 0.90709,0.18508 1.11259,0.6812 0.20221,0.48818 -0.001,1.15964 -0.4195,1.3834 -0.49149,0.26303 -1.18717,0.15582 -1.49042,-0.2297 z m 8.05392,0.19013 c -0.36763,-0.27917 -0.52213,-0.85937 -0.35586,-1.33634 0.17379,-0.49853 0.48144,-0.68869 1.11421,-0.68869 0.9589,0 1.44549,1.23995 0.74489,1.89813 -0.35798,0.33629 -1.1405,0.40235 -1.50324,0.1269 z m -4.05855,-1.79362 c -0.33835,-0.36016 -0.39508,-1.12247 -0.11134,-1.49594 0.52298,-0.68836 1.70381,-0.5143 1.9851,0.2926 0.17086,0.49013 0.10262,0.7709 -0.2946,1.21219 -0.38343,0.42597 -1.17483,0.42153 -1.57916,-0.009 z m -22.09498,-19.83694 c 1.13736,-1.05793 0.0659,-2.95519 -1.41789,-2.51064 -0.66793,0.20011 -1.08609,0.72775 -1.08542,1.3696 10e-4,1.41292 1.48435,2.08883 2.50331,1.14104 z m 47.46967,0.12564 c 0.44436,-0.31967 0.68737,-1.04355 0.53209,-1.58497 -0.3288,-1.14648 -1.63927,-1.50517 -2.46872,-0.67572 -1.32119,1.32119 0.41897,3.35252 1.93663,2.26069 z" fill="#00bcf2" transform="translate(224.471 -547.646)"/>
</svg>
