<svg xmlns:dc="http://purl.org/dc/elements/1.1/" xmlns:cc="http://creativecommons.org/ns#" xmlns:rdf="http://www.w3.org/1999/02/22-rdf-syntax-ns#" xmlns="http://www.w3.org/2000/svg" width="51.303" height="70">
    <metadata>
        <rdf:RDF>
            <cc:Work>
                <dc:subject>
                    Code
                </dc:subject>
                <dc:identifier>
                    wad-diagonostics-config
                </dc:identifier>
                <dc:title>
                    WAD (Diagnostics) Config
                </dc:title>
                <dc:format>
                    image/svg+xml
                </dc:format>
                <dc:publisher>
                    Amido Limited
                </dc:publisher>
                <dc:creator>
                    Richard Slater
                </dc:creator>
                <dc:type rdf:resource="http://purl.org/dc/dcmitype/StillImage"/>
            </cc:Work>
        </rdf:RDF>
    </metadata>
    <path d="m -155.55939,586.51498 c -0.74098,-0.26807 -1.26651,-0.93008 -1.26651,-1.59541 0,-0.58986 0.30018,-1.28765 0.69483,-1.61518 0.22405,-0.18595 0.21879,-0.22565 -0.0553,-0.41766 -0.48619,-0.34054 -0.55727,-1.05262 -0.18238,-1.82703 0.30442,-0.62885 0.31067,-0.71417 0.0908,-1.24032 -0.27785,-0.66499 -0.28916,-0.9234 -0.0743,-1.69704 0.19086,-0.68719 0.87319,-1.37296 1.62509,-1.63327 0.79524,-0.27532 4.40094,-0.0939 4.52433,0.22765 0.1822,0.47479 -0.072,0.81234 -0.61181,0.81234 l -0.51703,0 0.21291,0.618 c 0.37037,1.07499 -0.0806,2.30592 -1.05728,2.88614 -0.49562,0.29442 -1.58169,0.37799 -2.77863,0.21382 -0.32334,-0.0444 -0.39808,0.0179 -0.43817,0.36486 -0.0665,0.57529 0.23319,0.69329 2.01794,0.79463 0.90143,0.0512 1.69074,0.18298 1.97441,0.32968 1.60125,0.82803 1.45482,2.76842 -0.27485,3.64222 -0.56683,0.28635 -0.93927,0.34867 -2.0259,0.33899 -0.73227,-0.007 -1.56844,-0.0976 -1.85815,-0.20242 z m 3.1558,-0.93605 c 0.63911,-0.26704 0.99377,-0.99569 0.72715,-1.49389 -0.25188,-0.47062 -0.78611,-0.63042 -2.10755,-0.63042 -1.06119,0 -1.17307,0.0318 -1.47883,0.42052 -0.5009,0.6368 -0.37603,1.3036 0.30815,1.64538 0.65456,0.32699 1.84314,0.3542 2.55108,0.0584 z m -0.28293,-5.62578 c 0.30376,-0.30375 0.38276,-0.5428 0.38276,-1.1582 0,-0.652 -0.0654,-0.8269 -0.41087,-1.09863 -0.56743,-0.44634 -1.47652,-0.42846 -2.02084,0.0397 -0.58728,0.50516 -0.62509,1.61182 -0.0751,2.19738 0.52446,0.55836 1.57563,0.56812 2.12402,0.0197 z m -46.49429,3.97058 c -0.36492,-0.1458 -0.51595,-0.65035 -0.37378,-1.24879 0.0759,-0.31957 0.2006,-0.39879 0.69176,-0.43946 0.32952,-0.0273 0.66709,0.0183 0.75013,0.10136 0.18614,0.18614 0.2,1.25948 0.0184,1.42772 -0.23662,0.21924 -0.7485,0.29423 -1.08654,0.15917 z m 15.92382,-0.0641 c -0.78645,-0.34715 -1.06578,-0.79172 -1.13972,-1.81394 -0.0656,-0.90686 -0.0526,-0.94402 0.53624,-1.53245 0.66028,-0.65981 1.60074,-0.95704 3.02816,-0.95704 l 0.772,0 0,-0.7088 c 0,-0.5544 -0.0878,-0.79663 -0.4032,-1.112 -0.365,-0.365 -0.48793,-0.39551 -1.29776,-0.32208 -0.492,0.0446 -1.17901,0.22623 -1.52669,0.4036 -0.71253,0.36351 -0.82668,0.31896 -0.82668,-0.32265 0,-0.38679 0.10487,-0.49778 0.7407,-0.78398 0.97047,-0.43682 2.84279,-0.47503 3.58388,-0.0731 0.9394,0.50945 1.04933,0.93515 1.10611,4.28347 l 0.0509,3.00176 -0.5577,0 c -0.49092,0 -0.5577,-0.0467 -0.5577,-0.38984 0,-0.40312 -0.21345,-0.5193 -0.39987,-0.21766 -0.19294,0.31218 -1.38212,0.75664 -2.01713,0.75391 -0.34306,-0.001 -0.83426,-0.0956 -1.09155,-0.20917 z m 2.58886,-1.22904 c 0.48593,-0.32667 0.53373,-0.43007 0.57662,-1.24749 l 0.0468,-0.89129 -0.74847,9.3e-4 c -1.98964,0.002 -2.94247,0.96467 -2.06261,2.08324 0.42895,0.54533 1.42095,0.57012 2.1877,0.0547 z m 5.4401,1.09688 c -0.99197,-0.50327 -1.46162,-1.47755 -1.53427,-3.18283 -0.0918,-2.15393 0.55846,-3.51527 1.929,-4.03869 0.88513,-0.33803 1.79298,-0.22734 2.54822,0.3107 l 0.56733,0.40416 0.078,-2.06797 0.078,-2.06797 0.48109,-0.047 c 0.27692,-0.027 0.55908,0.047 0.66486,0.17448 0.13484,0.16247 0.17282,1.60725 0.14265,5.42672 l -0.0411,5.20531 -0.58476,0.0484 c -0.5803,0.048 -0.58476,0.0439 -0.58476,-0.53596 l 0,-0.58436 -0.42882,0.41074 c -0.95649,0.91615 -2.18485,1.11779 -3.31536,0.54423 z m 2.13569,-0.90619 c 0.24144,-0.091 0.66703,-0.38547 0.94576,-0.65433 0.50352,-0.48568 0.50679,-0.49863 0.50679,-2.00545 l 0,-1.51662 -0.65181,-0.55792 c -0.35849,-0.30686 -0.79706,-0.56884 -0.97459,-0.58218 -1.51681,-0.11396 -2.11605,0.66865 -2.11605,2.76353 0,1.36224 0.28795,2.14216 0.91713,2.48408 0.49685,0.27001 0.79908,0.28518 1.37277,0.0689 z m 6.89682,1.10802 c -0.75763,-0.2296 -1.22597,-0.66111 -1.64327,-1.51404 -0.35111,-0.71765 -0.41719,-1.05936 -0.41719,-2.15735 0,-1.10381 0.0654,-1.4383 0.4248,-2.17291 0.47637,-0.97367 1.27263,-1.55875 2.3574,-1.73217 1.27916,-0.20451 2.72233,0.50281 2.72233,1.33425 0,0.61789 -0.17102,0.66815 -0.80581,0.2368 -1.19886,-0.81465 -2.49532,-0.5952 -3.03563,0.51383 -0.40336,0.82792 -0.39344,2.88623 0.0172,3.57195 0.31171,0.52052 1.064,0.97712 1.60989,0.97712 0.1713,0 0.71164,-0.21051 1.20077,-0.46781 0.48912,-0.25729 0.91727,-0.4678 0.95144,-0.4678 0.21362,0 0.0163,1.08469 -0.23941,1.31611 -0.65747,0.595 -2.1518,0.86225 -3.14252,0.56202 z m -27.94414,-0.11619 c -0.14306,-0.24415 -2.13796,-6.90432 -2.13796,-7.1378 0,-0.17308 0.168,-0.23783 0.61714,-0.23783 l 0.61714,0 0.30941,1.05257 c 1.16132,3.95072 1.40635,4.75629 1.46433,4.81427 0.0359,0.0359 0.39482,-1.18174 0.79759,-2.70586 0.40278,-1.52413 0.76166,-2.85885 0.7975,-2.96606 0.10228,-0.30589 1.13127,-0.24375 1.29113,0.078 0.0746,0.15009 0.47909,1.48127 0.89892,2.95819 0.41982,1.47691 0.80598,2.63473 0.85813,2.57293 0.0521,-0.0618 0.32155,-0.91932 0.59868,-1.90562 0.27713,-0.98629 0.64622,-2.26691 0.82021,-2.84582 l 0.31634,-1.05257 0.60855,0 c 0.34636,0 0.60856,0.0755 0.60856,0.1752 0,0.0964 -0.45981,1.65767 -1.02179,3.46957 -0.56198,1.8119 -1.05791,3.41717 -1.10206,3.56726 -0.0623,0.21181 -0.25117,0.27288 -0.84395,0.27288 -0.57143,0 -0.79801,-0.0687 -0.90002,-0.27288 -0.075,-0.15009 -0.44176,-1.35525 -0.81507,-2.67814 -0.3733,-1.32289 -0.71261,-2.30529 -0.75401,-2.1831 -0.0414,0.12218 -0.36753,1.3098 -0.72471,2.63915 l -0.64944,2.41701 -0.7908,0.0466 c -0.43494,0.0257 -0.82366,-0.009 -0.86382,-0.078 z m 33.41537,-3.0874 0,-3.19668 -0.63362,0 c -0.62092,0 -0.63265,-0.0102 -0.58476,-0.50679 0.0446,-0.46268 0.0998,-0.511 0.63362,-0.55519 l 0.58476,-0.0484 3.1e-4,-0.88722 c 4.7e-4,-1.57949 0.75681,-2.52295 2.04335,-2.54877 0.90992,-0.0183 1.34857,0.12531 1.46052,0.47804 0.18444,0.58112 -0.0354,0.74452 -0.90476,0.67243 -1.02187,-0.0847 -1.19477,0.0942 -1.30905,1.3545 l -0.0846,0.93303 0.91753,0.0474 c 0.90499,0.0467 0.91753,0.0538 0.91753,0.5152 0,0.46012 -0.0147,0.46857 -0.89663,0.51457 l -0.89663,0.0468 0,3.18889 0,3.1889 -0.62375,0 -0.62374,0 0,-3.19668 z m -34.31004,-11.19257 c -2.31269,-0.78848 -4.15061,-2.8526 -4.65447,-5.22733 -0.12467,-0.58757 -0.17534,-6.672 -0.17534,-21.05753 0,-21.94131 -0.0337,-21.03272 0.84427,-22.76528 0.47947,-0.94619 1.96021,-2.43599 2.88824,-2.90592 1.78319,-0.90295 0.87843,-0.8635 19.64716,-0.85679 l 17.24157,0.006 5.34079,5.29082 5.3408,5.29082 0,17.99411 c 0,11.39811 -0.0575,18.30201 -0.15676,18.83406 -0.45962,2.46273 -2.47132,4.7139 -4.88606,5.46769 -0.86116,0.26882 -1.98128,0.28401 -20.66147,0.2802 l -19.75095,-0.004 -1.01778,-0.34699 z m 40.3424,-4.17748 c 0.55056,-0.2086 1.094,-0.70893 1.42838,-1.31506 0.23491,-0.42582 0.26188,-1.98275 0.30043,-17.34784 l 0.0424,-16.88004 -4.2916,0 -4.29161,0 0,-4.3662 0,-4.36619 -15.86645,0.003 c -15.06211,0.003 -15.89807,0.0179 -16.4902,0.28985 -0.74191,0.34068 -1.07438,0.68843 -1.39747,1.4617 -0.21158,0.50638 -0.23985,2.91349 -0.23985,20.42289 0,12.50027 0.0566,20.04618 0.15286,20.38186 0.18298,0.63798 0.84022,1.37335 1.48446,1.66092 0.38236,0.17066 3.96224,0.20992 19.59876,0.21491 13.18634,0.004 19.26735,-0.0456 19.56993,-0.16022 z m -31.72704,-12.65938 0.0433,-2.22208 11.89009,-0.04 11.89009,-0.04 0,2.26204 0,2.26204 -11.93336,0 -11.93335,0 0.0433,-2.22208 z m 0.034,-6.24431 c -0.043,-0.11207 -0.0585,-1.14754 -0.0345,-2.30103 l 0.0437,-2.09727 11.85111,0 11.8511,0 0,2.26107 0,2.26107 -11.81664,0.04 c -9.6115,0.0325 -11.83123,0.002 -11.89483,-0.1638 z m 0.0353,-8.32268 c -0.0572,-0.0572 -0.10396,-1.07465 -0.10396,-2.26107 l 0,-2.15711 11.92908,0 11.92907,0 0,2.26107 0,2.26107 -11.82512,0 c -6.50381,0 -11.8719,-0.0468 -11.92907,-0.10396 z" fill="#00bcf2" transform="translate(199.864 -516.718)"/>
</svg>
