<svg xmlns:dc="http://purl.org/dc/elements/1.1/" xmlns:cc="http://creativecommons.org/ns#" xmlns:rdf="http://www.w3.org/1999/02/22-rdf-syntax-ns#" xmlns="http://www.w3.org/2000/svg" width="69.996" height="58.201">
    <metadata>
        <rdf:RDF>
            <cc:Work>
                <dc:subject>
                    Compute
                </dc:subject>
                <dc:identifier>
                    web-roles
                </dc:identifier>
                <dc:title>
                    Web Roles
                </dc:title>
                <dc:format>
                    image/svg+xml
                </dc:format>
                <dc:publisher>
                    Amido Limited
                </dc:publisher>
                <dc:creator>
                    Richard Slater
                </dc:creator>
                <dc:type rdf:resource="http://purl.org/dc/dcmitype/StillImage"/>
            </cc:Work>
        </rdf:RDF>
    </metadata>
    <path d="m -87.738072,528.26268 c -1.0143,-0.50205 -1.9491,-1.84972 -1.9559,-2.81963 0,-0.40748 -0.038,-0.43574 -0.6518,-0.52782 -0.3568,-0.0535 -0.8752,-0.21282 -1.152,-0.35401 -1.0411,-0.53116 -1.9053,-1.96602 -1.9053,-3.16348 0,-0.51426 0,-0.51507 -0.7633,-0.67332 -0.9432,-0.19581 -1.6285,-0.76265 -2.0711,-1.7131 l -0.3201,-0.68733 0,-22.71736 c 0,-18.62193 0.038,-22.81022 0.1885,-23.2324 0.2807,-0.78671 0.8229,-1.40777 1.5114,-1.7314 l 0.6232,-0.29298 28.763,0 c 31.2882,0 29.2644,-0.0489 30.1087,0.7272 0.4162,0.38254 0.9758,1.55745 0.9776,2.05242 0,0.35973 0.033,0.37748 0.6672,0.37748 1.7169,0 3.0816,1.16676 3.4521,2.95147 l 0.1497,0.72096 0.6767,0.065 c 1.1314,0.10871 2.251,1.05474 2.6839,2.26762 0.1506,0.42214 0.1848,4.62598 0.1898,23.31089 0.01,25.2555 0.071,23.47357 -0.8899,24.59633 -0.2581,0.3015 -0.7482,0.67931 -1.0892,0.83959 l -0.6199,0.29141 -28.9988,-1.1e-4 -28.9987,-1.1e-4 -0.5805,-0.28734 z m 59.1196,-1.17099 c 0.2355,-0.19824 0.5491,-0.59727 0.6968,-0.88675 0.2633,-0.51614 0.2685,-0.96755 0.2685,-23.32221 0,-18.83546 -0.032,-22.87299 -0.1854,-23.23972 -0.2159,-0.5167 -1.0903,-1.33094 -1.4322,-1.33366 -0.1295,-10e-4 -0.3733,-0.0388 -0.5418,-0.084 l -0.3064,-0.0821 -0.037,22.02184 -0.037,22.02185 -0.4132,0.80794 c -0.5037,0.98478 -1.2985,1.62945 -2.2643,1.83659 -0.4922,0.10554 -8.8642,0.1499 -28.2934,0.1499 l -27.5944,0 0.094,0.44611 c 0.1448,0.68362 0.6231,1.45422 1.0873,1.75174 0.412,0.26404 0.8799,0.26833 29.474,0.27061 l 29.0553,0.002 0.4284,-0.36043 z m -4.0585,-3.39979 c 0.5164,-0.21577 1.0659,-0.88406 1.2987,-1.57928 0.2156,-0.64391 0.2223,-44.99913 0.01,-45.7748 -0.081,-0.29266 -0.3821,-0.7834 -0.6686,-1.09053 -0.4903,-0.52558 -0.5744,-0.56183 -1.4301,-0.61631 l -0.9091,-0.0579 0,21.91418 c 0,24.19638 0.066,22.42267 -0.8649,23.39267 -0.2415,0.2518 -0.6244,0.56065 -0.8509,0.68632 -0.3798,0.21073 -2.5876,0.23133 -28.3809,0.26477 l -27.9691,0.0363 0.082,0.58143 c 0.1323,0.93467 0.6211,1.77697 1.2324,2.1234 l 0.541,0.30659 28.7272,0.002 c 24.2565,0.002 28.7984,-0.0275 29.185,-0.18907 z m -30.0648,-11.27834 c 2.4873,-0.43506 4.7067,-1.32836 6.82,-2.74495 7.3776,-4.94554 9.9566,-14.89305 5.8832,-22.69212 -2.5456,-4.87374 -6.9088,-8.16542 -12.3426,-9.31142 -1.6345,-0.34472 -5.245,-0.34275 -6.8633,0.004 -3.443,0.73719 -6.4404,2.32611 -8.8279,4.67971 -2.5274,2.49148 -4.0005,5.07365 -4.8965,8.58283 -0.5943,2.32781 -0.5976,5.69953 -0.01,8.18282 1.5583,6.56293 6.8881,11.77137 13.4579,13.15156 1.5218,0.31971 1.5551,0.32284 3.6375,0.34262 1.2039,0.0114 2.3768,-0.0613 3.1398,-0.1948 z m -5.0614,-2.86138 c -0.8151,-0.25887 -1.8206,-0.80248 -2.7278,-1.47477 -0.7603,-0.56335 -2.1941,-2.1998 -2.7318,-3.11777 l -0.2436,-0.41577 1.2731,-0.4072 c 1.5995,-0.51165 3.0126,-0.80462 4.4644,-0.92558 l 1.1324,-0.0944 0,3.3141 0,3.3141 -0.3088,-0.009 c -0.1699,-0.005 -0.5559,-0.0876 -0.8579,-0.18356 z m 2.8139,-3.01975 c 0,-2.84571 0.027,-3.25797 0.2189,-3.33157 0.3131,-0.12012 2.7658,0.19874 4.0097,0.52129 1.3165,0.34134 2.6347,0.81207 2.6347,0.94083 0,0.0536 -0.3026,0.52398 -0.6725,1.04542 -1.5364,2.1659 -3.6632,3.66744 -5.6431,3.98404 l -0.5477,0.0876 0,-3.24759 z m -8.5679,1.76101 c -0.8884,-0.53564 -2.255,-1.55538 -2.5323,-1.88948 -0.1489,-0.17947 -0.091,-0.26667 0.3865,-0.58274 0.309,-0.20443 0.5813,-0.3472 0.6052,-0.31728 0.024,0.0299 0.2683,0.3982 0.5429,0.8184 0.2746,0.4202 0.8097,1.11869 1.189,1.55222 0.9531,1.08914 0.946,1.10469 -0.1913,0.41888 z m 15.3462,-0.38834 c 0.4371,-0.51527 1.0076,-1.26952 1.2677,-1.67612 0.2601,-0.4066 0.5184,-0.73927 0.5741,-0.73927 0.056,0 0.3425,0.16399 0.6374,0.36441 l 0.5363,0.36441 -0.4014,0.33199 c -0.9616,0.79515 -1.8305,1.41046 -2.5915,1.83523 l -0.8173,0.45619 0.7947,-0.93684 z m -19.9296,-3.7639 c -1.5915,-2.14651 -2.7635,-5.1768 -2.9292,-7.57372 l -0.043,-0.61769 1.7122,0 1.7123,0 0.1724,1.57855 c 0.1972,1.80555 0.7073,3.98157 1.2851,5.48213 0.2185,0.56743 0.3973,1.07069 0.3973,1.11834 0,0.0477 -0.3396,0.31212 -0.7547,0.5877 l -0.7546,0.50106 -0.7981,-1.07637 z m 23.133,0.60451 c -0.361,-0.24989 -0.6852,-0.48317 -0.7204,-0.51839 -0.035,-0.0352 0.098,-0.46051 0.2955,-0.94506 0.7176,-1.75807 1.2465,-4.08685 1.5017,-6.61183 l 0.08,-0.78927 1.7218,0 1.7218,0 -0.093,0.78927 c -0.2408,2.04074 -0.9893,4.34685 -1.9423,5.98408 -0.5147,0.88421 -1.7215,2.55682 -1.8396,2.54969 -0.038,-0.002 -0.364,-0.2086 -0.725,-0.45849 z m -19.4974,-2.32194 c -0.5764,-1.43988 -1.066,-3.62229 -1.26,-5.61608 l -0.09,-0.92653 4.6093,0 4.6093,0 0,2.95119 c 0,2.71873 -0.019,2.95129 -0.2402,2.95233 -1.3968,0.007 -4.3385,0.55546 -5.9315,1.10677 -0.6389,0.22111 -1.2037,0.40202 -1.2551,0.40202 -0.051,0 -0.2502,-0.39137 -0.4417,-0.8697 z m 16.2435,0.65136 c -1.2269,-0.53208 -3.0142,-0.91849 -5.8356,-1.26171 l -0.8235,-0.10019 0,-2.88172 0,-2.88172 4.5844,-0.0362 4.5845,-0.0362 -0.088,1.13432 c -0.1512,1.9453 -0.6567,4.1041 -1.3276,5.66938 -0.2866,0.66855 -0.382,0.70289 -1.0941,0.39403 z m -22.8326,-8.93996 c -0.1262,-0.20438 0.3193,-2.72098 0.675,-3.81325 0.1967,-0.60397 0.5915,-1.56967 0.8773,-2.14602 0.6616,-1.33413 1.9992,-3.27595 2.2566,-3.27595 0.1975,0 1.4473,0.90743 1.4495,1.05242 0,0.0881 -0.1282,0.45873 -0.288,0.82359 -0.6872,1.5696 -1.41,4.77587 -1.5265,6.77169 l -0.036,0.61769 -1.6708,0.0385 c -0.919,0.0212 -1.7006,-0.01 -1.737,-0.0686 z m 5.3254,-0.89637 c 0.1211,-1.30513 0.4337,-3.01797 0.7491,-4.10393 0.2226,-0.7666 0.7958,-2.32101 0.8911,-2.41639 0.019,-0.019 0.5542,0.14434 1.1895,0.36299 1.5065,0.51848 2.9117,0.82204 4.7461,1.02523 l 1.4878,0.1648 0.037,2.98124 0.037,2.98123 -4.615,0 -4.615,0 0.092,-0.99517 z m 10.8408,0.81989 c -0.037,-0.0964 -0.051,-1.43989 -0.03,-2.98552 l 0.037,-2.81023 1.1667,-0.10339 c 2.0494,-0.1816 4.2979,-0.70283 6.0671,-1.40645 0.1788,-0.0711 0.2855,0.0304 0.4562,0.43399 0.7373,1.74338 1.4381,4.82089 1.4381,6.31593 l 0,0.73095 -4.5341,0 c -3.5517,0 -4.5486,-0.038 -4.6013,-0.17528 z m 10.9945,-0.81989 c -0.2024,-2.22717 -0.7374,-4.55486 -1.4741,-6.41354 -0.2337,-0.58962 -0.3474,-1.04562 -0.2674,-1.07228 0.077,-0.0255 0.3897,-0.22788 0.6959,-0.44971 0.3062,-0.22182 0.6186,-0.40332 0.6942,-0.40332 0.2247,0 1.5972,1.94826 2.1902,3.10882 0.9105,1.78221 1.6554,4.37396 1.6554,5.75994 l 0,0.46526 -1.7019,0 -1.7018,0 -0.091,-0.99517 z m -10.9926,-6.3996 c -0.1379,-0.13787 -0.061,-6.45426 0.08,-6.54116 0.2423,-0.14972 1.9386,0.4436 2.8378,0.99257 0.4693,0.28648 1.1796,0.8053 1.5786,1.15292 0.8509,0.74149 2.399,2.83189 2.2204,2.99815 -0.208,0.19351 -2.1245,0.7985 -3.2795,1.03523 -1.17,0.23981 -3.3316,0.46766 -3.437,0.36229 z m -4.1126,-0.17155 c -1.2873,-0.23129 -2.6069,-0.57098 -3.5256,-0.90759 l -0.9175,-0.33618 0.4014,-0.65244 c 0.5519,-0.89686 1.9475,-2.39416 2.8599,-3.06818 0.8132,-0.60071 2.2331,-1.24474 3.0692,-1.39206 l 0.5147,-0.0907 0,3.30058 0,3.30058 -0.8579,-0.0154 c -0.4718,-0.008 -1.1667,-0.0708 -1.5442,-0.13866 z m 12.2307,-2.64817 c -0.1986,-0.33903 -0.7317,-1.08261 -1.1845,-1.65242 -0.4528,-0.5698 -0.7924,-1.036 -0.7548,-1.036 0.2184,0 2.1301,1.2684 2.766,1.8352 0.8222,0.73278 0.8302,0.63718 -0.104,1.23744 l -0.3614,0.23218 -0.3613,-0.6164 z m -18.9892,0.1513 c -0.2444,-0.16518 -0.4451,-0.34133 -0.4461,-0.39145 0,-0.23672 3.1385,-2.44827 3.4796,-2.44827 0.062,0 -0.173,0.318 -0.5224,0.70668 -0.3495,0.38867 -0.8933,1.09902 -1.2086,1.57854 -0.3153,0.47953 -0.6374,0.86804 -0.7157,0.86334 -0.078,-0.005 -0.3424,-0.14367 -0.5868,-0.30884 z" fill="#00bcf2" transform="translate(96.558 -470.349)"/>
</svg>
