<svg xmlns:dc="http://purl.org/dc/elements/1.1/" xmlns:cc="http://creativecommons.org/ns#" xmlns:rdf="http://www.w3.org/1999/02/22-rdf-syntax-ns#" xmlns="http://www.w3.org/2000/svg" width="70.001" height="61.04">
    <metadata>
        <rdf:RDF>
            <cc:Work>
                <dc:subject>
                    Compute
                </dc:subject>
                <dc:identifier>
                    website-generic
                </dc:identifier>
                <dc:title>
                    Website (Generic)
                </dc:title>
                <dc:format>
                    image/svg+xml
                </dc:format>
                <dc:publisher>
                    Amido Limited
                </dc:publisher>
                <dc:creator>
                    Richard Slater
                </dc:creator>
                <dc:type rdf:resource="http://purl.org/dc/dcmitype/StillImage"/>
            </cc:Work>
        </rdf:RDF>
    </metadata>
    <path d="m 24.565809,772.93967 c -4.2532,-0.6287 -7.7642,-2.4255 -10.7178,-5.4849 -2.512,-2.6019 -4.0583004,-5.5193 -4.8051004,-9.0656 -0.4346,-2.064 -0.4346,-5.2086 0,-7.2726 0.7468,-3.5463 2.2931004,-6.4637 4.8051004,-9.0657 7.2819,-7.5426 19.0575,-7.5426 26.3393,0 2.6446,2.7393 4.3468,6.1039 4.9612,9.8064 0.2178,1.3128 0.2178,4.4783 0,5.7912 -1.102,6.6407 -5.9551,12.3867 -12.2175,14.465 -2.733,0.9071 -5.7814,1.2081 -8.3652,0.8262 z m 3.5164,-1.9525 c 1.3571,-0.6923 2.6871,-2.6432 3.6165,-5.3048 0.2986,-0.8551 0.5829,-1.7223 0.6318,-1.9271 l 0.089,-0.3724 -1.9077,-0.1687 c -1.0492,-0.093 -2.6438,-0.1686 -3.5436,-0.1684 -1.7491,0 -5.0798,0.2634 -5.2387,0.414 -0.1478,0.14 0.7853,2.8399 1.4631,4.2334 0.3642,0.7487 0.9294,1.6031 1.4172,2.1421 1.2412,1.3716 2.3323,1.7336 3.4724,1.1519 z m -5.3192,-0.3629 c 0,-0.036 -0.1685,-0.312 -0.3745,-0.613 -0.8991,-1.314 -2.5101,-5.1713 -2.5101,-6.0101 0,-0.1287 -0.081,-0.2339 -0.1803,-0.2337 -0.3413,0 -2.7787,0.6988 -4.0519,1.1605 l -1.2755,0.4627 0.915,0.9295 c 1.7319,1.7596 4.0137,3.2124 6.3024,4.013 1.0198,0.3568 1.1749,0.3952 1.1749,0.2911 z m 10.5286,-0.6241 c 2.1587,-0.9039 3.8228,-2.027 5.4601,-3.6851 l 0.917,-0.9285 -1.1635,-0.4487 c -1.0779,-0.4157 -3.7536,-1.1665 -4.168,-1.1695 -0.099,0 -0.1803,0.1041 -0.1803,0.2328 0,0.8479 -1.738,4.9994 -2.5396,6.0662 -0.1897,0.2525 -0.3449,0.4972 -0.3449,0.5436 0,0.1471 0.753,-0.081 2.0192,-0.6108 z m -19.3568,-6.3589 c 0.7409,-0.3737 2.5931,-0.9982 4.1408,-1.396 0.7139,-0.1835 1.2861,-0.3901 1.2715,-0.4591 -0.1389,-0.6561 -0.478,-4.2298 -0.4781,-5.0384 -10e-5,-0.5686 -0.04,-1.1365 -0.088,-1.262 -0.077,-0.2006 -0.5813,-0.2281 -4.1798,-0.2281 l -4.0923,0 0.081,0.6851 c 0.3501,2.9699 1.2656,5.7988 2.4732,7.6418 0.2575,0.3931 0.211,0.3901 0.8717,0.057 z m 27.792,-1.4659 c 0.7719,-1.5255 1.3031,-3.2391 1.5862,-5.1174 0.1193,-0.7918 0.2174,-1.5209 0.2179,-1.62 0,-0.14 -0.9147,-0.1803 -4.0982,-0.1803 l -4.099,0 -0.076,0.9014 c -0.042,0.4958 -0.1564,1.7452 -0.2542,2.7764 -0.098,1.0312 -0.1821,2.1257 -0.1874,2.4321 l -0.01,0.5571 1.7593,0.4821 c 0.9676,0.2652 2.2981,0.7075 2.9567,0.9829 1.403,0.5868 1.2511,0.6705 2.2048,-1.2143 z m -17.975,-0.8589 c 2.0834,-0.203 4.7952,-0.1786 7.0849,0.064 1.0693,0.1131 1.9637,0.186 1.9877,0.1621 0.087,-0.087 0.444,-3.2182 0.5405,-4.734 l 0.099,-1.5504 -6.438,0 -6.438,0 0.082,1.1177 c 0.1891,2.5899 0.2316,3.0467 0.3836,4.1202 l 0.1597,1.1274 0.5228,-0.081 c 0.2876,-0.044 1.195,-0.1459 2.0165,-0.226 z m -4.8428,-9.6284 c 0.046,-0.8528 0.1907,-2.2212 0.3219,-3.041 0.1313,-0.8197 0.2092,-1.5199 0.1732,-1.5558 -0.036,-0.036 -0.6632,-0.2254 -1.3939,-0.4209 -0.7307,-0.1956 -1.9921,-0.615 -2.8031,-0.9321 -0.811,-0.3171 -1.5104,-0.5765 -1.5542,-0.5765 -0.1428,0 -1.0943,1.5218 -1.6809,2.6883 -0.6723,1.3372 -1.2779,3.2168 -1.4458,4.487 l -0.119,0.9014 4.2092,0 4.2092,0 0.083,-1.5504 z m 14.4507,0.4326 c -0.1054,-1.3361 -0.4891,-4.1645 -0.6064,-4.4703 -0.068,-0.1759 -0.2511,-0.1993 -0.9625,-0.1223 -3.5957,0.389 -5.945,0.3888 -9.553,0 -0.7886,-0.085 -0.8946,-0.066 -0.9674,0.1756 -0.1342,0.446 -0.506,3.3669 -0.5714,4.49 l -0.061,1.0456 6.4048,0 6.4049,0 -0.088,-1.1177 z m 10.0051,0.1598 c -0.1536,-1.2762 -0.6021,-2.8742 -1.1389,-4.058 -0.4518,-0.9965 -1.6816,-3.0607 -1.8235,-3.0607 -0.044,0 -0.6722,0.2379 -1.396,0.5288 -0.7237,0.2908 -1.9898,0.7105 -2.8135,0.9327 -0.8237,0.2221 -1.527,0.4332 -1.5628,0.4691 -0.036,0.036 0.036,0.6708 0.1605,1.411 0.1242,0.7402 0.2629,1.8974 0.3083,2.5717 0.045,0.6743 0.1146,1.4369 0.1537,1.6947 l 0.071,0.4687 4.0782,0 4.0781,0 -0.1153,-0.958 z m -12.4583,-6.5575 c 0.711,-0.078 1.3104,-0.1597 1.3321,-0.1813 0.072,-0.072 -0.7017,-2.314 -1.1019,-3.1924 -1.1222,-2.4632 -2.7435,-4.1104 -4.0458,-4.1104 -1.4587,0 -3.046,1.5905 -4.1912,4.1997 -0.3709,0.8449 -1.1463,2.939 -1.1463,3.0955 0,0.077 1.6308,0.2551 3.173,0.3463 1.8695,0.1105 4.0658,0.053 5.9801,-0.1574 z m -10.5383,-1.8616 c 0.4554,-1.461 1.3036,-3.2953 1.9749,-4.271 0.2462,-0.3579 0.4199,-0.6784 0.386,-0.7123 -0.1078,-0.1078 -2.0173,0.5978 -3.1391,1.16 -0.595,0.2981 -1.5036,0.8397 -2.0192,1.2034 -0.9775,0.6895 -2.5961,2.1517 -2.5961,2.3452 0,0.247 3.8812,1.5422 4.6935,1.5663 0.2469,0.01 0.3603,-0.2018 0.7,-1.2916 z m 15.5878,0.9288 c 1.5168,-0.4398 3.1047,-1.0577 3.1047,-1.2083 0,-0.1894 -1.6302,-1.659 -2.5961,-2.3404 -0.5156,-0.3637 -1.4243,-0.9053 -2.0192,-1.2034 -1.125,-0.5637 -3.0315,-1.2677 -3.1398,-1.1594 -0.034,0.034 0.1042,0.2807 0.3078,0.5476 0.5523,0.7242 1.7573,3.3455 2.1227,4.6177 0.3775,1.3142 0.3233,1.296 2.2199,0.7462 z m -60.6082,-8.0297 0.036,-24.6989 29.1338996,0 29.1339004,0 0.037,11.7906 c 0.02,6.4848 0,11.7906 -0.038,11.7906 -0.041,0 -0.4636,-0.108 -0.9383,-0.24 l -0.8632,-0.24 0,-5.6733 0,-5.6734 -27.3311004,0 -27.3310996,0 0,17.8842 0,17.8842 15.1202996,0 15.1202,0 0.24,0.8632 c 0.132,0.4747 0.24,0.8966 0.24,0.9375 0,0.041 -7.33420005,0.074 -16.2981,0.074 l -16.2980996,0 0.036,-24.699 z m 8.0411,15.2521 0,-4.1105 2.2355,0 2.2356,0 0,-3.1009 0,-3.1009 8.0766996,0 8.0767,0 0,-2.2355 0,-2.2355 -3.10090005,0 -3.10089995,0 0,-4.9759 0,-4.9758 7.2114,0 7.2114004,0 0,4.9758 0,4.9759 -3.1730004,0 -3.173,0 0,2.2355 0,2.2355 2.8214,0 2.8214004,0 -0.4631,0.6449 c -0.9326,1.2985 -0.7604,1.2301 -3.0941004,1.2301 l -2.0856,0 0,2.1634 0,2.1634 1.0096,0 c 0.5552,0 1.0095,0.049 1.0095,0.1082 -10e-5,0.059 -0.1575,0.6923 -0.3498,1.4062 -0.4881,1.812 -0.6647,3.1437 -0.6708,5.0582 l -0.01,1.6484 -3.6696,0 -3.66970005,0 0,-4.1105 0,-4.1105 2.23560005,0 2.2355,0 0,-2.1634 0,-2.1634 -7.1393,0 -7.1391996,0 0,2.1634 0,2.1634 2.2354996,0 2.2355,0 0,4.1105 0,4.1105 -5.4084996,0 -5.4085,0 0,-4.1105 z" fill="#00bcf2" transform="translate(24.689 -712.062)"/>
</svg>
