<svg xmlns:dc="http://purl.org/dc/elements/1.1/" xmlns:cc="http://creativecommons.org/ns#" xmlns:rdf="http://www.w3.org/1999/02/22-rdf-syntax-ns#" xmlns="http://www.w3.org/2000/svg" width="70" height="56.871">
    <metadata>
        <rdf:RDF>
            <cc:Work>
                <dc:subject>
                    Compute
                </dc:subject>
                <dc:identifier>
                    worker-role
                </dc:identifier>
                <dc:title>
                    Worker Role
                </dc:title>
                <dc:format>
                    image/svg+xml
                </dc:format>
                <dc:publisher>
                    Amido Limited
                </dc:publisher>
                <dc:creator>
                    Richard Slater
                </dc:creator>
                <dc:type rdf:resource="http://purl.org/dc/dcmitype/StillImage"/>
            </cc:Work>
        </rdf:RDF>
    </metadata>
    <path d="m -70.925359,540.95979 c -0.7095,-0.3539 -1.1209,-0.7491 -1.5669,-1.5052 l -0.3648,-0.6183 0,-25.9723 0,-25.9722 0.4122,-0.7452 c 0.4997,-0.9032 1.2234,-1.4556 2.1745,-1.6597 0.5133,-0.1101 9.6644,-0.1409 32.8674,-0.1106 l 32.1561001,0.042 0.5707,0.3052 c 0.3139,0.1678 0.7618,0.5369 0.9952,0.8201 0.9022,1.0945 0.8454,-0.8456 0.806,27.532 l -0.036,25.7607 -0.3044,0.5692 c -0.3851,0.72 -1.2543,1.4696 -1.9435,1.6761 -0.3977,0.1192 -8.7147001,0.1581 -32.8786001,0.154 -31.8856,-0.01 -32.354,-0.01 -32.8881,-0.2758 z m 37.6793,-10.6503 c 2.5087,-0.5978 2.7825,-0.691 2.78,-0.9465 0,-0.1559 -0.093,-1.1183 -0.2034,-2.1387 -0.2841,-2.6268 -0.2829,-2.6437 0.2138,-2.9371 0.2309,-0.1364 0.787,-0.5536 1.2357,-0.927 l 0.8159,-0.679 2.221,0.9056 c 1.8074,0.737 2.2516,0.8721 2.3853,0.7256 0.4394,-0.4812 3.0956,-4.9713 2.9838,-5.0438 -0.071,-0.046 -0.975,-0.7635 -2.0099,-1.5949 -1.8813,-1.5113 -1.8816,-1.5117 -1.7924,-1.9926 0.049,-0.2645 0.1323,-0.9291 0.1851,-1.4768 0.053,-0.5478 0.1549,-1.0515 0.2269,-1.1195 0.072,-0.068 1.0585,-0.5061 2.1923,-0.9736 1.1337,-0.4676 2.1115,-0.8984 2.173,-0.9574 0.1017,-0.098 -1.0835,-5.4716 -1.2691,-5.7543 -0.045,-0.068 -1.0133,-0.013 -2.2094,0.1263 -3.0497,0.354 -2.9177,0.3666 -3.3692,-0.3229 -0.2104,-0.3212 -0.6178,-0.8676 -0.9054,-1.2142 l -0.523,-0.6302 0.9574,-2.3113 c 0.5266,-1.2713 0.9413,-2.3228 0.9216,-2.3368 -0.2783,-0.1973 -5.0441,-3.0925 -5.0907,-3.0925 -0.035,0 -0.7924,0.8998 -1.6821,1.9995 -1.0955,1.3543 -1.6818,1.9749 -1.8168,1.9231 -0.2693,-0.1034 -1.8833,-0.3366 -2.6419,-0.3818 l -0.6144,-0.037 -0.9797,-2.1666 c -0.5388,-1.1916 -1.0142,-2.2011 -1.0564,-2.2433 -0.062,-0.062 -5.7428,1.3996 -5.8161,1.4963 -0.012,0.015 0.1232,1.0481 0.2996,2.2952 0.1765,1.2471 0.3229,2.3706 0.3254,2.4967 0,0.1261 -0.2273,0.3719 -0.5107,0.5462 -0.2834,0.1744 -0.7761,0.5564 -1.0948,0.8491 l -0.5795,0.532 -2.222,-0.9172 c -1.8259,-0.7537 -2.2519,-0.8847 -2.39,-0.7347 -0.092,0.1003 -0.8221,1.2485 -1.6216,2.5514 l -1.4536,2.3689 1.8121,1.4676 c 0.9967,0.8072 1.8625,1.5107 1.924,1.5632 0.062,0.053 0.015,0.6056 -0.103,1.2288 -0.1183,0.6233 -0.215,1.3622 -0.215,1.6421 l 0,0.5088 -2.0956,0.8636 c -1.1526,0.475 -2.1432,0.9081 -2.2012,0.9626 -0.086,0.081 1.1685,5.7256 1.3019,5.8566 0.022,0.022 1.0607,-0.078 2.3078,-0.2209 1.2471,-0.1433 2.3394,-0.2615 2.4274,-0.2627 0.088,0 0.3587,0.3225 0.6015,0.7193 0.2428,0.3968 0.681,0.9829 0.9737,1.3025 0.2927,0.3195 0.5322,0.629 0.5322,0.6877 0,0.059 -0.371,0.9977 -0.8245,2.0867 -0.4535,1.0889 -0.8245,2.0575 -0.8245,2.1524 0,0.095 1.1265,0.8661 2.5034,1.7138 l 2.5034,1.5412 0.522,-0.6024 c 0.287,-0.3313 0.9693,-1.1765 1.5161,-1.8782 l 0.9941,-1.2759 0.7558,0.09 c 0.4157,0.05 1.1777,0.129 1.6934,0.1766 l 0.9375,0.086 0.9176,2.234 c 0.5047,1.2287 0.9795,2.2111 1.0551,2.1833 0.076,-0.028 1.3896,-0.349 2.9201,-0.7137 z m -6.7359,-9.2091 c -3.7229,-0.9021 -6.4277,-4.3161 -6.4707,-8.1677 -0.018,-1.5895 0.183,-2.474 0.8927,-3.9344 0.97,-1.996 2.6835,-3.518 4.8168,-4.2785 1.3112,-0.4675 3.4757,-0.5814 4.7925,-0.2522 2.3972,0.5994 4.5481,2.3179 5.6072,4.48 0.6223,1.2703 0.9748,2.6616 0.9748,3.8477 0,1.1862 -0.3525,2.5774 -0.9748,3.8478 -1.058,2.1598 -3.161,3.8433 -5.5677,4.4569 -1.0301,0.2627 -2.9876,0.2628 -4.0708,0 z m 3.5279,-5.5933 c 2.1169,-1.2109 2.0785,-4.3022 -0.067,-5.3713 -2.3185,-1.1553 -4.8802,0.6923 -4.4544,3.2126 0.1345,0.7964 0.8481,1.7768 1.567,2.1531 0.8356,0.4374 2.1947,0.44 2.9542,0.01 z" fill="#00bcf2" transform="translate(72.857 -484.365)"/>
</svg>
